<svg width="187" height="171" viewBox="0 0 187 171" fill="none" xmlns="http://www.w3.org/2000/svg">
<g clip-path="url(#clip0_50_325)">
<mask id="mask0_50_325" style="mask-type:alpha" maskUnits="userSpaceOnUse" x="-114" y="-187" width="598" height="538">
<path d="M483.307 -187H-114V350.53H483.307V-187Z" fill="white"/>
</mask>
<g mask="url(#mask0_50_325)">
<path d="M483.307 -187H-114V350.53H483.307V-187Z" fill="#54A3C4"/>
<path opacity="0.28" d="M386.424 171.157H-17.1168C-20.1033 171.157 -22.4926 169.007 -22.4926 166.319C-22.4926 163.632 -20.1033 161.481 -17.1168 161.481H386.484C389.47 161.481 391.859 163.632 391.859 166.319C391.8 169.007 389.41 171.157 386.424 171.157Z" fill="#848484"/>
<path d="M212.369 164.653H133.524C128.925 164.653 125.162 161.266 125.162 157.127V10.919C125.162 6.78 128.925 3.39355 133.524 3.39355H212.369C216.968 3.39355 220.731 6.78 220.731 10.919V157.127C220.731 161.266 216.968 164.653 212.369 164.653Z" fill="#848484"/>
<path opacity="0.48" d="M130.119 157.127V10.919C130.119 6.78 133.883 3.39355 138.482 3.39355H133.524C128.925 3.39355 125.162 6.78 125.162 10.919V157.127C125.162 161.266 128.925 164.653 133.524 164.653H138.482C133.883 164.653 130.119 161.266 130.119 157.127Z" fill="#848484"/>
<path d="M212.369 164.653H133.524C128.925 164.653 125.162 161.266 125.162 157.127V10.919C125.162 6.78 128.925 3.39355 133.524 3.39355H212.369C216.968 3.39355 220.731 6.78 220.731 10.919V157.127C220.731 161.266 216.968 164.653 212.369 164.653Z" stroke="#444E59" stroke-width="4" stroke-miterlimit="10" stroke-linecap="round" stroke-linejoin="round"/>
<path d="M220.742 143.952V23.5449H125.173V143.952H220.742Z" fill="#E9FBFF"/>
<path d="M130.657 128.8H125.162V76.498H130.657C134.778 76.498 138.123 79.5082 138.123 83.2172V122.081C138.064 125.79 134.778 128.8 130.657 128.8Z" fill="#54A3C4"/>
<path d="M220.742 143.952V23.5449H125.173V143.952H220.742Z" stroke="#444E59" stroke-width="4" stroke-miterlimit="10" stroke-linecap="round" stroke-linejoin="round"/>
<path d="M186.087 14.1445H190.268" stroke="#444E59" stroke-width="5" stroke-miterlimit="10" stroke-linecap="round" stroke-linejoin="round"/>
<path d="M155.624 14.1445H179.517" stroke="#444E59" stroke-width="5" stroke-miterlimit="10" stroke-linecap="round" stroke-linejoin="round"/>
<path opacity="0.29" d="M172.946 158.955C176.575 158.955 179.517 156.307 179.517 153.042C179.517 149.776 176.575 147.129 172.946 147.129C169.318 147.129 166.376 149.776 166.376 153.042C166.376 156.307 169.318 158.955 172.946 158.955Z" fill="#848484"/>
<path d="M172.946 157.557C175.717 157.557 177.964 155.535 177.964 153.042C177.964 150.548 175.717 148.526 172.946 148.526C170.175 148.526 167.929 150.548 167.929 153.042C167.929 155.535 170.175 157.557 172.946 157.557Z" fill="#444E59"/>
<g opacity="0.3">
<g opacity="0.3">
<g opacity="0.3">
<path opacity="0.3" d="M151.145 129.552H141.588C138.96 129.552 136.809 127.616 136.809 125.251V116.651C136.809 114.286 138.96 112.351 141.588 112.351H151.145C153.773 112.351 155.923 114.286 155.923 116.651V125.251C155.923 127.616 153.773 129.552 151.145 129.552Z" stroke="#444E59" stroke-width="2" stroke-linecap="round" stroke-linejoin="round" stroke-dasharray="4.08 4.08"/>
</g>
<g opacity="0.3">
<path opacity="0.3" d="M177.725 129.552H168.168C165.54 129.552 163.39 127.616 163.39 125.251V116.651C163.39 114.286 165.54 112.351 168.168 112.351H177.725C180.353 112.351 182.503 114.286 182.503 116.651V125.251C182.503 127.616 180.353 129.552 177.725 129.552Z" stroke="#444E59" stroke-width="2" stroke-linecap="round" stroke-linejoin="round" stroke-dasharray="4.08 4.08"/>
</g>
</g>
<g opacity="0.3">
<g opacity="0.3">
<path opacity="0.3" d="M151.145 103.75H141.588C138.96 103.75 136.809 101.815 136.809 99.4496V90.8491C136.809 88.484 138.96 86.5488 141.588 86.5488H151.145C153.773 86.5488 155.923 88.484 155.923 90.8491V99.4496C155.923 101.815 153.773 103.75 151.145 103.75Z" stroke="#444E59" stroke-width="2" stroke-linecap="round" stroke-linejoin="round" stroke-dasharray="4.08 4.08"/>
</g>
<g opacity="0.3">
<path opacity="0.3" d="M177.725 103.75H168.168C165.54 103.75 163.39 101.815 163.39 99.4496V90.8491C163.39 88.484 165.54 86.5488 168.168 86.5488H177.725C180.353 86.5488 182.503 88.484 182.503 90.8491V99.4496C182.503 101.815 180.353 103.75 177.725 103.75Z" stroke="#444E59" stroke-width="2" stroke-linecap="round" stroke-linejoin="round" stroke-dasharray="4.08 4.08"/>
</g>
</g>
<g opacity="0.3">
<g opacity="0.3">
<path opacity="0.3" d="M151.145 77.949H141.588C138.96 77.949 136.809 76.0139 136.809 73.6488V65.0483C136.809 62.6832 138.96 60.748 141.588 60.748H151.145C153.773 60.748 155.923 62.6832 155.923 65.0483V73.6488C155.923 76.0139 153.773 77.949 151.145 77.949Z" stroke="#444E59" stroke-width="2" stroke-linecap="round" stroke-linejoin="round" stroke-dasharray="4.08 4.08"/>
</g>
<g opacity="0.3">
<path opacity="0.3" d="M177.725 77.949H168.168C165.54 77.949 163.39 76.0139 163.39 73.6488V65.0483C163.39 62.6832 165.54 60.748 168.168 60.748H177.725C180.353 60.748 182.503 62.6832 182.503 65.0483V73.6488C182.503 76.0139 180.353 77.949 177.725 77.949Z" stroke="#444E59" stroke-width="2" stroke-linecap="round" stroke-linejoin="round" stroke-dasharray="4.08 4.08"/>
</g>
</g>
<g opacity="0.3">
<g opacity="0.3">
<path opacity="0.3" d="M151.145 52.1473H141.588C138.96 52.1473 136.809 50.2121 136.809 47.847V39.2465C136.809 36.8814 138.96 34.9463 141.588 34.9463H151.145C153.773 34.9463 155.923 36.8814 155.923 39.2465V47.847C155.923 50.2121 153.773 52.1473 151.145 52.1473Z" stroke="#444E59" stroke-width="2" stroke-linecap="round" stroke-linejoin="round" stroke-dasharray="4.08 4.08"/>
</g>
<g opacity="0.3">
<path opacity="0.3" d="M177.725 52.1473H168.168C165.54 52.1473 163.389 50.2121 163.389 47.847V39.2465C163.389 36.8814 165.54 34.9463 168.168 34.9463H177.725C180.353 34.9463 182.503 36.8814 182.503 39.2465V47.847C182.503 50.2121 180.353 52.1473 177.725 52.1473Z" stroke="#444E59" stroke-width="2" stroke-linecap="round" stroke-linejoin="round" stroke-dasharray="4.08 4.08"/>
</g>
</g>
</g>
<path d="M151.145 129.552H141.588C138.96 129.552 136.809 127.616 136.809 125.251V116.651C136.809 114.286 138.96 112.351 141.588 112.351H151.145C153.773 112.351 155.923 114.286 155.923 116.651V125.251C155.923 127.616 153.773 129.552 151.145 129.552Z" fill="#71A850"/>
<path opacity="0.52" d="M151.145 112.351H141.588C139.676 112.351 138.004 113.372 137.287 114.823L155.923 117.833V116.651C155.923 114.286 153.773 112.351 151.145 112.351Z" fill="#5F8C42"/>
<path d="M151.145 129.552H141.588C138.96 129.552 136.809 127.616 136.809 125.251V116.651C136.809 114.286 138.96 112.351 141.588 112.351H151.145C153.773 112.351 155.923 114.286 155.923 116.651V125.251C155.923 127.616 153.773 129.552 151.145 129.552Z" stroke="#444E59" stroke-width="4" stroke-miterlimit="10" stroke-linecap="round" stroke-linejoin="round"/>
<path d="M177.725 129.552H168.168C165.54 129.552 163.389 127.616 163.389 125.251V116.651C163.389 114.286 165.54 112.351 168.168 112.351H177.725C180.353 112.351 182.503 114.286 182.503 116.651V125.251C182.503 127.616 180.353 129.552 177.725 129.552Z" fill="#F09F54"/>
<path opacity="0.52" d="M177.725 112.351H168.168C166.257 112.351 164.584 113.372 163.867 114.823L182.503 117.833V116.651C182.503 114.286 180.353 112.351 177.725 112.351Z" fill="#D38444"/>
<path d="M177.725 129.552H168.168C165.54 129.552 163.389 127.616 163.389 125.251V116.651C163.389 114.286 165.54 112.351 168.168 112.351H177.725C180.353 112.351 182.503 114.286 182.503 116.651V125.251C182.503 127.616 180.353 129.552 177.725 129.552Z" stroke="#444E59" stroke-width="4" stroke-miterlimit="10" stroke-linecap="round" stroke-linejoin="round"/>
<path d="M177.725 77.949H168.168C165.54 77.949 163.389 76.0139 163.389 73.6488V65.0483C163.389 62.6832 165.54 60.748 168.168 60.748H177.725C180.353 60.748 182.503 62.6832 182.503 65.0483V73.6488C182.503 76.0139 180.353 77.949 177.725 77.949Z" fill="#E7534E"/>
<path opacity="0.52" d="M177.725 60.748H168.168C166.257 60.748 164.584 61.7694 163.867 63.2207L182.503 66.2309V65.0483C182.503 62.6832 180.353 60.748 177.725 60.748Z" fill="#BF4040"/>
<path d="M177.725 77.949H168.168C165.54 77.949 163.389 76.0139 163.389 73.6488V65.0483C163.389 62.6832 165.54 60.748 168.168 60.748H177.725C180.353 60.748 182.503 62.6832 182.503 65.0483V73.6488C182.503 76.0139 180.353 77.949 177.725 77.949Z" stroke="#444E59" stroke-width="4" stroke-miterlimit="10" stroke-linecap="round" stroke-linejoin="round"/>
<path d="M175.455 117.619H170.438C169.363 117.619 168.526 118.425 168.526 119.339V122.672C168.526 123.639 169.422 124.392 170.438 124.392H170.617L170.199 125.897C170.139 126.005 170.318 126.112 170.438 126.005L173.006 124.392H175.575C176.65 124.392 177.486 123.586 177.486 122.672V119.339C177.426 118.372 176.53 117.619 175.455 117.619Z" fill="#54A3C4"/>
<path d="M142.663 120.951L144.873 122.94C145.172 123.209 145.649 123.209 145.948 122.94L150.906 118.479" stroke="#54A3C4" stroke-width="4" stroke-miterlimit="10" stroke-linecap="round" stroke-linejoin="round"/>
<path d="M172.946 73.3803C175.42 73.3803 177.426 71.5753 177.426 69.3489C177.426 67.1224 175.42 65.3174 172.946 65.3174C170.472 65.3174 168.467 67.1224 168.467 69.3489C168.467 71.5753 170.472 73.3803 172.946 73.3803Z" stroke="#54A3C4" stroke-width="4" stroke-miterlimit="10" stroke-linecap="round" stroke-linejoin="round"/>
<path d="M136.869 48.3852L136.75 40.3222L130.776 40.376C130.418 39.3547 130 38.4409 129.403 37.5271L133.584 33.6569L127.193 28.0128L123.011 31.883C121.996 31.3992 120.921 31.023 119.786 30.7542L119.726 25.3789L110.767 25.4864L110.826 30.8617C109.692 31.1842 108.676 31.5605 107.661 32.098L103.36 28.3353L97.0884 34.0869L101.389 37.8496C100.851 38.7634 100.433 39.731 100.135 40.7523L94.1616 40.806L94.281 48.869L100.254 48.8152C100.612 49.8365 101.031 50.7503 101.628 51.6641L97.4467 55.5344L103.838 61.1784L108.019 57.3082C109.035 57.792 110.11 58.1683 111.245 58.437L111.304 63.8123L120.264 63.7048L120.204 58.3295C121.339 58.007 122.354 57.6307 123.37 57.0932L127.67 60.8559L133.942 55.1043L129.642 51.3416C130.179 50.4278 130.597 49.4603 130.896 48.4389L136.869 48.3852ZM115.665 50.8578C111.782 50.9116 108.676 48.1164 108.616 44.6225C108.557 41.1285 111.663 38.3334 115.545 38.2796C119.428 38.2259 122.534 41.021 122.593 44.515C122.593 48.0089 119.487 50.8041 115.665 50.8578Z" fill="#54A3C4"/>
<path d="M136.869 48.3852L136.75 40.3222L130.776 40.376C130.418 39.3547 130 38.4409 129.403 37.5271L133.584 33.6569L127.193 28.0128L123.011 31.883C121.996 31.3992 120.921 31.023 119.786 30.7542L119.726 25.3789L110.767 25.4864L110.826 30.8617C109.692 31.1842 108.676 31.5605 107.661 32.098L103.36 28.3353L97.0884 34.0869L101.389 37.8496C100.851 38.7634 100.433 39.731 100.135 40.7523L94.1616 40.806L94.281 48.869L100.254 48.8152C100.612 49.8365 101.031 50.7503 101.628 51.6641L97.4467 55.5344L103.838 61.1784L108.019 57.3082C109.035 57.792 110.11 58.1683 111.245 58.437L111.304 63.8123L120.264 63.7048L120.204 58.3295C121.339 58.007 122.354 57.6307 123.37 57.0932L127.67 60.8559L133.942 55.1043L129.642 51.3416C130.179 50.4278 130.597 49.4603 130.896 48.4389L136.869 48.3852ZM115.665 50.8578C111.782 50.9116 108.676 48.1164 108.616 44.6225C108.557 41.1285 111.663 38.3334 115.545 38.2796C119.428 38.2259 122.534 41.021 122.593 44.515C122.593 48.0089 119.487 50.8041 115.665 50.8578Z" fill="#F09F54"/>
<path d="M136.869 48.3852L136.75 40.3222L130.776 40.376C130.418 39.3547 130 38.4409 129.403 37.5271L133.584 33.6569L127.193 28.0128L123.011 31.883C121.996 31.3992 120.921 31.023 119.786 30.7542L119.726 25.3789L110.767 25.4864L110.826 30.8617C109.692 31.1842 108.676 31.5605 107.661 32.098L103.36 28.3353L97.0884 34.0869L101.389 37.8496C100.851 38.7634 100.433 39.731 100.135 40.7523L94.1616 40.806L94.281 48.869L100.254 48.8152C100.612 49.8365 101.031 50.7503 101.628 51.6641L97.4467 55.5344L103.838 61.1784L108.019 57.3082C109.035 57.792 110.11 58.1683 111.245 58.437L111.304 63.8123L120.264 63.7048L120.204 58.3295C121.339 58.007 122.354 57.6307 123.37 57.0932L127.67 60.8559L133.942 55.1043L129.642 51.3416C130.179 50.4278 130.597 49.4603 130.896 48.4389L136.869 48.3852ZM115.665 50.8578C111.782 50.9116 108.676 48.1164 108.616 44.6225C108.557 41.1285 111.663 38.3334 115.545 38.2796C119.428 38.2259 122.534 41.021 122.593 44.515C122.593 48.0089 119.487 50.8041 115.665 50.8578Z" fill="#F09F54"/>
<g opacity="0.29">
<path opacity="0.29" d="M134.599 40.376C134.599 40.376 134.599 40.4298 134.599 40.376H136.809V40.3223L134.599 40.376Z" fill="#F09F54"/>
<path opacity="0.29" d="M126.834 31.9366L129.164 29.7865L127.252 28.0664L124.146 30.9153C125.102 31.1841 125.998 31.5066 126.834 31.9366Z" fill="#F09F54"/>
<path opacity="0.29" d="M119.248 38.2793C118.591 38.2793 117.994 38.3868 117.457 38.4943C120.383 39.2468 122.534 41.612 122.534 44.4609C122.593 47.3636 120.383 49.8362 117.457 50.5887C118.054 50.75 118.771 50.8575 119.428 50.8037C123.31 50.75 126.356 47.9011 126.356 44.4609C126.356 41.0207 123.131 38.2793 119.248 38.2793Z" fill="#F09F54"/>
<path opacity="0.29" d="M110.349 31.023L111.543 32.0443C112.559 31.5605 113.574 31.1305 114.709 30.808L114.649 25.4327L119.786 25.379V25.3252L110.826 25.4327L110.886 30.808C110.767 30.9155 110.528 30.9693 110.349 31.023Z" fill="#F09F54"/>
<path opacity="0.29" d="M115.008 58.3837C113.873 58.1149 112.798 57.7387 111.782 57.2549L110.707 58.2762C110.886 58.3299 111.065 58.3837 111.245 58.4375L111.304 63.8128L115.067 63.759L115.008 58.3837Z" fill="#F09F54"/>
<path opacity="0.29" d="M98.044 40.752L104.017 40.6982C104.316 39.6769 104.734 38.7093 105.271 37.7955L100.971 34.0328L105.391 30.0014L103.48 28.2812L97.2078 34.0328L101.508 37.7955C100.971 38.7093 100.553 39.6769 100.254 40.6982L94.281 40.752L94.4005 48.8149L98.1635 48.7612L98.044 40.752Z" fill="#F09F54"/>
<path opacity="0.29" d="M127.133 57.0928C126.297 57.5228 125.46 57.8453 124.564 58.1141L127.67 60.8555L129.522 59.1354L127.133 57.0928Z" fill="#F09F54"/>
<path opacity="0.29" d="M101.269 55.4271L105.451 51.5569C104.913 50.6431 104.435 49.7293 104.077 48.708L100.314 48.7618C100.672 49.7293 101.09 50.6969 101.628 51.5569L97.4467 55.4271L103.838 61.0712L105.69 59.3511L101.269 55.4271Z" fill="#F09F54"/>
</g>
<path d="M136.869 48.3852L136.75 40.3222L130.776 40.376C130.418 39.3547 130 38.4409 129.403 37.5271L133.584 33.6569L127.193 28.0128L123.011 31.883C121.996 31.3992 120.921 31.023 119.786 30.7542L119.726 25.3789L110.767 25.4864L110.826 30.8617C109.692 31.1842 108.676 31.5605 107.661 32.098L103.36 28.3353L97.0884 34.0869L101.389 37.8496C100.851 38.7634 100.433 39.731 100.135 40.7523L94.1616 40.806L94.281 48.869L100.254 48.8152C100.612 49.8365 101.031 50.7503 101.628 51.6641L97.4467 55.5344L103.838 61.1784L108.019 57.3082C109.035 57.792 110.11 58.1683 111.245 58.437L111.304 63.8123L120.264 63.7048L120.204 58.3295C121.339 58.007 122.354 57.6307 123.37 57.0932L127.67 60.8559L133.942 55.1043L129.642 51.3416C130.179 50.4278 130.597 49.4603 130.896 48.439L136.869 48.3852ZM115.665 50.8578C111.782 50.9116 108.676 48.1164 108.616 44.6225C108.557 41.1285 111.663 38.3334 115.545 38.2796C119.428 38.2259 122.534 41.021 122.593 44.515C122.593 48.0089 119.487 50.8041 115.665 50.8578Z" stroke="#444E59" stroke-width="4" stroke-miterlimit="10" stroke-linecap="round" stroke-linejoin="round"/>
<path d="M99.5373 164.652H25.6504C23.2015 164.652 21.2303 162.878 21.2303 160.674V115.199C21.2303 112.996 23.2015 111.222 25.6504 111.222H99.5971C102.046 111.222 104.017 112.996 104.017 115.199V160.674C103.957 162.878 101.986 164.652 99.5373 164.652Z" fill="#444E59"/>
<path d="M103.957 119.876H21.2303V115.199C21.2303 112.996 23.2015 111.222 25.6504 111.222H99.5971C102.046 111.222 104.017 112.996 104.017 115.199V119.876H103.957Z" fill="#BCBCBC"/>
<path d="M99.5373 164.652H25.6504C23.2015 164.652 21.2303 162.878 21.2303 160.674V115.199C21.2303 112.996 23.2015 111.222 25.6504 111.222H99.5971C102.046 111.222 104.017 112.996 104.017 115.199V160.674C103.957 162.878 101.986 164.652 99.5373 164.652Z" stroke="#444E59" stroke-width="4" stroke-miterlimit="10" stroke-linecap="round" stroke-linejoin="round"/>
<path d="M99.5373 164.652H25.6504C23.2015 164.652 21.2303 162.878 21.2303 160.674V115.199C21.2303 112.996 23.2015 111.222 25.6504 111.222H99.5971C102.046 111.222 104.017 112.996 104.017 115.199V160.674C103.957 162.878 101.986 164.652 99.5373 164.652Z" stroke="#444E59" stroke-width="4" stroke-miterlimit="10" stroke-linecap="round" stroke-linejoin="round"/>
<path d="M103.957 119.876H21.2303V115.199C21.2303 112.996 23.2015 111.222 25.6504 111.222H99.5971C102.046 111.222 104.017 112.996 104.017 115.199V119.876H103.957Z" stroke="#444E59" stroke-width="4" stroke-miterlimit="10" stroke-linecap="round" stroke-linejoin="round"/>
<path d="M32.6389 157.825H41.9569" stroke="#54A3C4" stroke-width="4" stroke-miterlimit="10" stroke-linecap="round" stroke-linejoin="round"/>
<path d="M26.0685 157.825H26.7256" stroke="#54A3C4" stroke-width="4" stroke-miterlimit="10" stroke-linecap="round" stroke-linejoin="round"/>
<path d="M32.6389 153.202H56.2326" stroke="#54A3C4" stroke-width="4" stroke-miterlimit="10" stroke-linecap="round" stroke-linejoin="round"/>
<path d="M26.0685 153.202H26.7256" stroke="#54A3C4" stroke-width="4" stroke-miterlimit="10" stroke-linecap="round" stroke-linejoin="round"/>
<path d="M67.4619 148.525H73.9128" stroke="#64BDFF" stroke-width="4" stroke-miterlimit="10" stroke-linecap="round" stroke-linejoin="round"/>
<path d="M49.9011 148.525H61.8473" stroke="#54A3C4" stroke-width="4" stroke-miterlimit="10" stroke-linecap="round" stroke-linejoin="round"/>
<path d="M32.6389 148.525H44.4656" stroke="#FF5F5F" stroke-width="4" stroke-miterlimit="10" stroke-linecap="round" stroke-linejoin="round"/>
<path d="M26.0685 148.525H26.7256" stroke="#54A3C4" stroke-width="4" stroke-miterlimit="10" stroke-linecap="round" stroke-linejoin="round"/>
<path d="M52.5292 143.903H81.3195" stroke="#54A3C4" stroke-width="4" stroke-miterlimit="10" stroke-linecap="round" stroke-linejoin="round"/>
<path d="M32.6389 143.903H47.6911" stroke="#64BDFF" stroke-width="4" stroke-miterlimit="10" stroke-linecap="round" stroke-linejoin="round"/>
<path d="M26.0685 143.903H26.7256" stroke="#54A3C4" stroke-width="4" stroke-miterlimit="10" stroke-linecap="round" stroke-linejoin="round"/>
<path d="M52.5292 139.28H63.2808" stroke="#FF5F5F" stroke-width="4" stroke-miterlimit="10" stroke-linecap="round" stroke-linejoin="round"/>
<path d="M32.6389 139.28H47.6911" stroke="#FFBE78" stroke-width="4" stroke-miterlimit="10" stroke-linecap="round" stroke-linejoin="round"/>
<path d="M26.0685 139.28H26.7256" stroke="#54A3C4" stroke-width="4" stroke-miterlimit="10" stroke-linecap="round" stroke-linejoin="round"/>
<path d="M54.6198 134.657H57.5466" stroke="#64BDFF" stroke-width="4" stroke-miterlimit="10" stroke-linecap="round" stroke-linejoin="round"/>
<path d="M43.271 134.657H49.9011" stroke="#FF5F5F" stroke-width="4" stroke-miterlimit="10" stroke-linecap="round" stroke-linejoin="round"/>
<path d="M32.6389 134.657H38.1341" stroke="#C383F2" stroke-width="4" stroke-miterlimit="10" stroke-linecap="round" stroke-linejoin="round"/>
<path d="M26.0685 134.657H26.7256" stroke="#54A3C4" stroke-width="4" stroke-miterlimit="10" stroke-linecap="round" stroke-linejoin="round"/>
<path d="M76.1229 129.98H81.3194" stroke="#64BDFF" stroke-width="4" stroke-miterlimit="10" stroke-linecap="round" stroke-linejoin="round"/>
<path d="M49.1843 129.98H69.5525" stroke="#FF5F5F" stroke-width="4" stroke-miterlimit="10" stroke-linecap="round" stroke-linejoin="round"/>
<path d="M32.6389 129.98H44.7642" stroke="#FFBE78" stroke-width="4" stroke-miterlimit="10" stroke-linecap="round" stroke-linejoin="round"/>
<path d="M26.0685 129.98H26.7256" stroke="#54A3C4" stroke-width="4" stroke-miterlimit="10" stroke-linecap="round" stroke-linejoin="round"/>
<path d="M63.2808 125.358H73.9128" stroke="#FFBE78" stroke-width="4" stroke-miterlimit="10" stroke-linecap="round" stroke-linejoin="round"/>
<path d="M49.9011 125.358H58.144" stroke="#6DBF7B" stroke-width="4" stroke-miterlimit="10" stroke-linecap="round" stroke-linejoin="round"/>
<path d="M40.9415 125.358H45.6005" stroke="#FFBE78" stroke-width="4" stroke-miterlimit="10" stroke-linecap="round" stroke-linejoin="round"/>
<path d="M32.6389 125.358H36.4617" stroke="#6DBF7B" stroke-width="4" stroke-miterlimit="10" stroke-linecap="round" stroke-linejoin="round"/>
<path d="M26.0685 125.358H26.7256" stroke="#54A3C4" stroke-width="4" stroke-miterlimit="10" stroke-linecap="round" stroke-linejoin="round"/>
<path d="M29.4134 116.919C30.2383 116.919 30.9067 116.318 30.9067 115.575C30.9067 114.833 30.2383 114.231 29.4134 114.231C28.5886 114.231 27.9202 114.833 27.9202 115.575C27.9202 116.318 28.5886 116.919 29.4134 116.919Z" fill="#E7534E"/>
<path d="M34.7892 116.919C35.6141 116.919 36.2825 116.318 36.2825 115.575C36.2825 114.833 35.6141 114.231 34.7892 114.231C33.9643 114.231 33.296 114.833 33.296 115.575C33.296 116.318 33.9643 116.919 34.7892 116.919Z" fill="#444E59"/>
<path d="M40.2247 116.919C41.0496 116.919 41.718 116.318 41.718 115.575C41.718 114.833 41.0496 114.231 40.2247 114.231C39.3998 114.231 38.7314 114.833 38.7314 115.575C38.7314 116.318 39.3998 116.919 40.2247 116.919Z" fill="#444E59"/>
<path d="M128.985 124.606H75.4658C72.8377 124.606 70.6874 122.671 70.6874 120.306V76.8198C70.6874 74.4546 72.8377 72.5195 75.4658 72.5195H128.985C131.613 72.5195 133.763 74.4546 133.763 76.8198V120.306C133.763 122.671 131.613 124.606 128.985 124.606Z" fill="#54A3C4"/>
<path d="M128.985 124.606H75.4658C72.8377 124.606 70.6874 122.671 70.6874 120.306V76.8198C70.6874 74.4546 72.8377 72.5195 75.4658 72.5195H128.985C131.613 72.5195 133.763 74.4546 133.763 76.8198V120.306C133.763 122.671 131.613 124.606 128.985 124.606Z" fill="#54A3C4"/>
<path d="M128.985 124.606H75.4658C72.8377 124.606 70.6874 122.671 70.6874 120.306V76.8198C70.6874 74.4546 72.8377 72.5195 75.4658 72.5195H128.985C131.613 72.5195 133.763 74.4546 133.763 76.8198V120.306C133.763 122.671 131.613 124.606 128.985 124.606Z" stroke="#444E59" stroke-width="4" stroke-miterlimit="10" stroke-linecap="round" stroke-linejoin="round"/>
<path d="M127.969 76.9277H76.1229V107.943H127.969V76.9277Z" fill="#9483C4"/>
<path d="M127.969 76.9277H76.1229V107.943H127.969V76.9277Z" stroke="#444E59" stroke-width="4" stroke-miterlimit="10" stroke-linecap="round" stroke-linejoin="round"/>
<path d="M76.1229 112.889H108.855" stroke="#444E59" stroke-width="4" stroke-miterlimit="10" stroke-linecap="round" stroke-linejoin="round"/>
<path d="M76.1229 117.834H95.4756" stroke="#444E59" stroke-width="4" stroke-miterlimit="10" stroke-linecap="round" stroke-linejoin="round"/>
<path d="M81.3195 102.406L92.4891 92.4619L102.882 101.815" stroke="#444E59" stroke-width="4" stroke-miterlimit="10" stroke-linecap="round" stroke-linejoin="round"/>
<path d="M122.354 102.407L108.855 86.5498L98.0441 97.4079" stroke="#444E59" stroke-width="4" stroke-miterlimit="10" stroke-linecap="round" stroke-linejoin="round"/>
<path d="M122.235 117.78C123.851 117.78 125.162 116.6 125.162 115.146C125.162 113.691 123.851 112.512 122.235 112.512C120.619 112.512 119.308 113.691 119.308 115.146C119.308 116.6 120.619 117.78 122.235 117.78Z" stroke="#444E59" stroke-width="4" stroke-miterlimit="10" stroke-linecap="round" stroke-linejoin="round"/>
<path d="M95.7743 89.8822C97.8195 89.8822 99.4776 88.39 99.4776 86.5495C99.4776 84.709 97.8195 83.2168 95.7743 83.2168C93.7291 83.2168 92.071 84.709 92.071 86.5495C92.071 88.39 93.7291 89.8822 95.7743 89.8822Z" fill="#F09F54"/>
<path d="M95.7743 89.8822C97.8195 89.8822 99.4776 88.39 99.4776 86.5495C99.4776 84.709 97.8195 83.2168 95.7743 83.2168C93.7291 83.2168 92.071 84.709 92.071 86.5495C92.071 88.39 93.7291 89.8822 95.7743 89.8822Z" stroke="#444E59" stroke-width="4" stroke-miterlimit="10" stroke-linecap="round" stroke-linejoin="round"/>
<path d="M69.672 57.2012H85.6798" stroke="#444E59" stroke-width="4" stroke-miterlimit="10" stroke-linecap="round" stroke-linejoin="round"/>
<path d="M61.1305 57.2012H65.3714" stroke="#444E59" stroke-width="4" stroke-miterlimit="10" stroke-linecap="round" stroke-linejoin="round"/>
<path d="M77.6759 50.5352H85.6798" stroke="#444E59" stroke-width="4" stroke-miterlimit="10" stroke-linecap="round" stroke-linejoin="round"/>
<path d="M71.225 50.5352H73.6142" stroke="#444E59" stroke-width="4" stroke-miterlimit="10" stroke-linecap="round" stroke-linejoin="round"/>
<path d="M52.3501 99.3428H64.8338" stroke="#444E59" stroke-width="4" stroke-miterlimit="10" stroke-linecap="round" stroke-linejoin="round"/>
<path d="M45.72 99.3428H49.0052" stroke="#444E59" stroke-width="4" stroke-miterlimit="10" stroke-linecap="round" stroke-linejoin="round"/>
<path d="M59.7567 92.6768H64.8338" stroke="#444E59" stroke-width="4" stroke-miterlimit="10" stroke-linecap="round" stroke-linejoin="round"/>
<path d="M53.5447 92.6768H55.4561" stroke="#444E59" stroke-width="4" stroke-miterlimit="10" stroke-linecap="round" stroke-linejoin="round"/>
</g>
</g>
<defs>
<clipPath id="clip0_50_325">
<rect width="374" height="171" fill="white"/>
</clipPath>
</defs>
</svg>
