<svg width="365" height="503" viewBox="0 0 365 503" fill="none" xmlns="http://www.w3.org/2000/svg">
<mask id="mask0_50_622" style="mask-type:alpha" maskUnits="userSpaceOnUse" x="-155" y="0" width="520" height="503">
<path d="M364.377 92.5013L-67.07 0L-155 410.126L276.447 502.627L364.377 92.5013Z" fill="white"/>
</mask>
<g mask="url(#mask0_50_622)">
<path d="M364.377 92.5013L-67.07 0L-155 410.126L276.447 502.627L364.377 92.5013Z" fill="#E2ECED"/>
<path d="M82.8312 140.67C62.0992 137.598 55.3068 163.596 13.0916 175.479C-21.2477 185.147 -34.7511 172.986 -46.9751 183.063C-78.6658 209.214 -42.8379 336.366 25.6977 356.636C58.9692 366.472 71.384 342.666 142.688 341.395C200.355 340.374 212.845 355.578 235.946 344.23C290.066 317.654 293.916 198.666 260.813 182.99C232.469 169.534 190.476 238.476 148.391 223.233C111.204 209.77 114.982 145.418 82.8312 140.67Z" fill="#E2ECED"/>
<path d="M169.934 199.368C169.338 210.566 164.043 226.847 174.612 238.379C184.674 249.33 194.917 249.338 194.917 249.338C196.943 245.569 220.381 209.498 169.934 199.368Z" fill="#022266"/>
<path d="M236.824 216.369C225.288 218.185 207.322 216.736 198.276 229.038C195.22 233.188 193.573 237.081 192.732 240.376C188.409 246.012 184.463 250.528 180.805 254.12C169.041 265.625 160.657 267.474 154.668 266.362C142.474 264.09 141.122 249.558 116.161 218.64C99.1945 197.586 89.257 185.632 71.4058 179.016C47.742 170.253 26.3507 176.992 23.2377 178.041C17.2627 180.02 0.17642 185.622 -9.16696 201.207C-27.6539 232.077 0.663388 270.493 3.86853 274.698C17.5567 292.732 35.0395 300.856 44.6861 305.327C50.9275 308.209 73.0419 317.884 103.141 317.259C120.458 316.896 153.458 316.207 178.06 291.968C190.933 279.284 197.078 264.515 199.976 252.053C213.413 254.419 238.759 254.491 236.824 216.369Z" fill="#32FD99"/>
<g opacity="0.15">
<g opacity="0.15">
<g opacity="0.15">
<path opacity="0.15" d="M236.824 216.369C235.277 216.638 233.575 216.788 231.822 216.97C232.379 251.836 208.094 251.863 195.045 249.581C192.234 262.062 186.176 276.849 173.423 289.601C149.011 314.01 115.975 314.863 98.6747 315.358C79.0258 315.864 62.7531 311.989 52.0925 308.459C62.3112 312.366 80.4782 317.72 103.141 317.259C120.458 316.896 153.458 316.207 178.06 291.968C190.933 279.285 197.078 264.516 199.976 252.053C213.413 254.419 238.76 254.491 236.824 216.369Z" fill="#515151"/>
</g>
</g>
</g>
<path opacity="0.2" d="M0.865962 217.558C3.48744 218.12 6.1079 216.262 6.7198 213.408C7.33171 210.554 5.70327 207.785 3.0818 207.223C0.460755 206.661 -2.16014 208.519 -2.77204 211.373C-3.38395 214.227 -1.75508 216.996 0.865962 217.558Z" fill="#515151"/>
<path opacity="0.2" d="M35.2728 219.571C37.9418 220.144 40.6129 218.239 41.2394 215.317C41.8658 212.395 40.2104 209.562 37.5414 208.99C34.8729 208.418 32.2013 210.323 31.5749 213.245C30.9484 216.167 32.6043 218.999 35.2728 219.571Z" fill="#515151"/>
<g opacity="0.16">
<g opacity="0.16">
<g opacity="0.16">
<path opacity="0.16" d="M15.7076 184.748C18.3275 183.894 40.0368 177.567 63.8756 185.723C85.1872 193.038 97.1938 208.181 108.839 222.904C131.176 251.115 141.604 270.467 154.626 270.771C160.731 270.921 165.109 268.814 173.266 260.868C173.664 260.482 174.063 260.095 174.419 259.7C165.93 266.245 159.484 267.265 154.668 266.361C142.474 264.09 141.122 249.558 116.162 218.64C99.1947 197.586 89.2572 185.631 71.406 179.016C47.7422 170.253 26.3509 176.992 23.2379 178.04C18.1881 179.703 5.32151 183.937 -4.20993 194.505C3.70547 188.738 11.9114 186.036 15.7076 184.748Z" fill="#515151"/>
</g>
</g>
</g>
<path d="M103.15 317.217C116.433 316.934 138.914 316.477 159.804 305.341C122.005 311.994 99.847 304.627 86.1684 295.388C53.7378 273.421 52.9727 229.63 22.8791 224.336C14.8789 222.921 3.67456 223.822 -2.88108 230.824C-10.8503 239.368 -7.75627 252.3 -7.24592 254.34C-5.32245 259.471 -1.93944 266.846 3.87726 274.656C17.126 292.425 34.143 300.406 44.6948 305.285C50.9275 308.209 73.0507 317.842 103.15 317.217Z" fill="#A6FFD0"/>
<path opacity="0.12" d="M21.4122 224.021C21.4122 224.021 31.8421 274.303 85.3404 297.355" stroke="#022266" stroke-width="6" stroke-miterlimit="10" stroke-linecap="round" stroke-linejoin="round"/>
<path opacity="0.08" d="M107.549 313.957C77.4503 314.582 55.3272 304.948 49.0945 302.025C38.5515 297.105 21.5257 289.164 8.27696 271.396C2.46026 263.585 -0.922746 256.211 -2.84621 251.08C-3.35657 249.04 -6.45059 236.108 1.51862 227.564C1.64009 227.418 1.80469 227.282 1.97809 227.104C0.186645 228.093 -1.43304 229.333 -2.83782 230.834C-10.807 239.378 -7.71301 252.31 -7.20265 254.349C-5.27918 259.481 -1.89618 266.855 3.92052 274.666C17.1693 292.434 34.1862 300.416 44.7381 305.295C50.9795 308.177 73.0939 317.852 103.193 317.227C116.476 316.943 138.958 316.486 159.848 305.35C158.439 305.606 157.039 305.821 155.639 306.035C137.337 313.308 118.976 313.704 107.549 313.957Z" fill="#515151"/>
<path opacity="0.12" d="M-2.17639 231.747C-2.17639 231.747 -0.389804 263.617 30.4945 287.955C53.268 305.922 92.5291 321.289 148.121 309.528" stroke="#022266" stroke-width="6" stroke-miterlimit="10" stroke-linecap="round" stroke-linejoin="round"/>
<path opacity="0.12" d="M6.0611 225.32C6.0611 225.32 16.4895 314.338 140.87 308.617" stroke="#022266" stroke-width="6" stroke-miterlimit="10" stroke-linecap="round" stroke-linejoin="round"/>
<path d="M103.15 317.217C116.433 316.934 138.914 316.477 159.804 305.341C122.005 311.994 99.847 304.627 86.1684 295.388C53.7378 273.421 52.9727 229.63 22.8791 224.336C14.8789 222.921 3.67456 223.822 -2.88108 230.824C-10.8503 239.368 -7.75627 252.3 -7.24592 254.34C-5.32245 259.471 -1.93944 266.846 3.87726 274.656C17.126 292.425 34.143 300.406 44.6948 305.285C50.9275 308.209 73.0507 317.842 103.15 317.217Z" stroke="#022266" stroke-width="6" stroke-miterlimit="10" stroke-linecap="round" stroke-linejoin="round"/>
<path d="M-0.330859 216.614C1.8376 217.079 4.05984 215.29 4.63288 212.617C5.20592 209.944 3.91274 207.4 1.74429 206.936C-0.424165 206.471 -2.64642 208.26 -3.21946 210.933C-3.7925 213.606 -2.49931 216.15 -0.330859 216.614Z" fill="#022266"/>
<path d="M0.217042 211.112C0.95568 211.27 1.71597 210.645 1.91505 209.717C2.11421 208.788 1.67671 207.907 0.938069 207.749C0.199431 207.59 -0.560766 208.214 -0.759927 209.143C-0.959001 210.072 -0.521596 210.953 0.217042 211.112Z" fill="white"/>
<path d="M33.9474 218.387C36.1159 218.852 38.3381 217.062 38.9111 214.389C39.4842 211.716 38.191 209.173 36.0225 208.708C33.8541 208.243 31.6318 210.033 31.0588 212.706C30.4858 215.378 31.7789 217.922 33.9474 218.387Z" fill="#022266"/>
<path d="M34.4673 213.437C35.2539 213.605 36.0801 212.861 36.3132 211.773C36.5463 210.686 36.098 209.668 35.3115 209.5C34.5254 209.331 33.6987 210.076 33.4656 211.163C33.2325 212.25 33.6812 213.268 34.4673 213.437Z" fill="white"/>
<path d="M34.4277 216.989C34.8091 217.07 35.2126 216.696 35.3291 216.152C35.4457 215.609 35.2312 215.102 34.8498 215.02C34.4688 214.938 34.065 215.313 33.9485 215.856C33.8319 216.4 34.0468 216.907 34.4277 216.989Z" fill="white"/>
<path d="M0.807135 214.884C1.18853 214.966 1.59189 214.592 1.70849 214.048C1.82499 213.504 1.6106 212.997 1.2292 212.916C0.84823 212.834 0.444355 213.208 0.327848 213.752C0.211253 214.296 0.426167 214.803 0.807135 214.884Z" fill="white"/>
<path d="M236.824 216.369C225.288 218.185 207.322 216.736 198.276 229.038C195.22 233.188 193.573 237.081 192.732 240.376C188.409 246.012 184.463 250.528 180.805 254.12C169.041 265.625 160.657 267.474 154.668 266.362C142.474 264.09 141.122 249.558 116.161 218.64C99.1945 197.586 89.257 185.632 71.4058 179.016C47.742 170.253 26.3507 176.992 23.2377 178.041C17.2627 180.02 0.176421 185.622 -9.16696 201.207C-27.6539 232.077 0.663388 270.493 3.86853 274.698C17.5567 292.732 35.0395 300.856 44.6861 305.327C50.9275 308.209 73.0419 317.884 103.141 317.259C120.458 316.896 153.458 316.207 178.06 291.968C190.933 279.284 197.078 264.515 199.976 252.053C213.413 254.419 238.76 254.491 236.824 216.369Z" stroke="#022266" stroke-width="6" stroke-miterlimit="10" stroke-linecap="round" stroke-linejoin="round"/>
<path d="M99.1938 276.732C99.1938 276.732 117.778 308.557 92.748 336.265C79.2442 344.523 76.6175 308.783 78.9036 298.12C81.1898 287.457 86.2791 282.242 86.2791 282.242" fill="#32FD99"/>
<path opacity="0.2" d="M99.1938 276.732L98.5538 276.98C102.458 288.027 106.504 309.571 88.8633 329.126C85.6951 331.063 83.1319 330.599 81.0843 328.573C83.3552 335.452 87.13 339.736 92.7481 336.264C117.778 308.557 99.1938 276.732 99.1938 276.732Z" fill="#515151"/>
<path d="M99.1938 276.732C99.1938 276.732 117.778 308.557 92.748 336.265C79.2442 344.523 76.6175 308.783 78.9036 298.12C81.1898 287.457 86.2791 282.242 86.2791 282.242" stroke="#022266" stroke-width="6" stroke-miterlimit="10" stroke-linecap="round" stroke-linejoin="round"/>
<path opacity="0.28" d="M163.83 153.745C163.83 153.745 146.844 146.672 143.151 163.897C139.458 181.122 167.23 190.508 176.579 184.791C185.928 179.074 202.322 169.333 196.242 160.437C190.161 151.54 163.83 153.745 163.83 153.745Z" fill="#E2ECED"/>
<path opacity="0.28" d="M-4.12654 141.072C-5.09249 140.736 -10.44 138.946 -13.1608 141.323C-16.54 144.245 -13.9177 151.799 -9.80566 155.984C-7.02704 158.811 -0.850422 162.837 3.76242 160.266C8.06364 157.885 8.68594 150.983 5.77566 146.455C2.65926 141.626 -3.50492 141.12 -4.12654 141.072Z" fill="#E2ECED"/>
</g>
</svg>
