<svg width="239" height="279" viewBox="0 0 239 279" fill="none" xmlns="http://www.w3.org/2000/svg">
<g clip-path="url(#clip0_50_192)">
<mask id="mask0_50_192" style="mask-type:alpha" maskUnits="userSpaceOnUse" x="-58" y="-233" width="748" height="711">
<path d="M690 -232.854H-57.5623V477.069H690V-232.854Z" fill="white"/>
</mask>
<g mask="url(#mask0_50_192)">
<path d="M690 -232.854H-57.5623V477.069H690V-232.854Z" fill="#54A3C4"/>
<path d="M622.57 240.167H13.9794C10.2416 240.167 7.25134 237.328 7.25134 233.778C7.25134 230.228 10.2416 227.389 13.9794 227.389H622.645C626.382 227.389 629.373 230.228 629.373 233.778C629.298 237.328 626.308 240.167 622.57 240.167Z" fill="#444E59"/>
<path d="M425.363 188.06H177.023C172.089 188.06 168.052 184.226 168.052 179.541V21.5826C168.052 16.8971 172.089 13.0635 177.023 13.0635H425.363C430.297 13.0635 434.334 16.8971 434.334 21.5826V179.47C434.334 184.226 430.372 188.06 425.363 188.06Z" fill="#BBBFC2"/>
<path d="M418.55 158.086V29.0928H184.862V158.086H418.55Z" fill="#28A8E0"/>
<path opacity="0.4" d="M186.965 123.031H168.052V176.063C168.052 182.665 174.033 188.06 181.06 188.06H202.814V138.366C202.739 130.06 195.637 123.031 186.965 123.031Z" fill="#848484"/>
<path d="M426.111 188.06H177.322C172.388 188.06 168.351 184.226 168.351 179.541V21.5826C168.351 16.8971 172.388 13.0635 177.322 13.0635H426.111C431.044 13.0635 435.081 16.8971 435.081 21.5826V179.47C435.081 184.226 431.044 188.06 426.111 188.06Z" stroke="#444E59" stroke-width="4" stroke-miterlimit="10" stroke-linecap="round" stroke-linejoin="round"/>
<path d="M418.25 158.085V29.0918H185.235V158.085H418.25Z" stroke="#444E59" stroke-width="4" stroke-miterlimit="10" stroke-linecap="round" stroke-linejoin="round"/>
<path d="M366.978 147.026H238.547C235.632 147.026 233.314 144.754 233.314 142.056V55.0906C233.314 52.3219 235.706 50.1211 238.547 50.1211H366.978C369.894 50.1211 372.211 52.3928 372.211 55.0906V142.056C372.286 144.825 369.894 147.026 366.978 147.026Z" fill="#AFB1B2"/>
<path d="M366.978 147.026H238.547C235.632 147.026 233.314 144.754 233.314 142.056V55.0906C233.314 52.3219 235.706 50.1211 238.547 50.1211H366.978C369.894 50.1211 372.211 52.3928 372.211 55.0906V142.056C372.286 144.825 369.894 147.026 366.978 147.026Z" stroke="#444E59" stroke-width="4" stroke-miterlimit="10" stroke-linecap="round" stroke-linejoin="round"/>
<path d="M356.438 138.081H228.006C225.091 138.081 222.774 135.809 222.774 133.112V46.0749C222.774 43.3062 225.166 41.1055 228.006 41.1055H356.438C359.353 41.1055 361.671 43.3772 361.671 46.0749V133.041C361.745 135.809 359.353 138.081 356.438 138.081Z" fill="white"/>
<path d="M356.438 138.081H228.006C225.091 138.081 222.774 135.809 222.774 133.112V46.0749C222.774 43.3062 225.166 41.1055 228.006 41.1055H356.438C359.353 41.1055 361.671 43.3772 361.671 46.0749V133.041C361.745 135.809 359.353 138.081 356.438 138.081Z" stroke="#444E59" stroke-width="4" stroke-miterlimit="10" stroke-linecap="round" stroke-linejoin="round"/>
<path d="M361.745 56.0855H222.774V46.2886C222.774 43.4489 225.241 41.0352 228.306 41.0352H356.587C359.428 41.0352 361.745 43.2359 361.745 45.9336V56.0855Z" fill="#BBBFC2"/>
<path d="M361.745 56.0855H222.774V46.2886C222.774 43.4489 225.241 41.0352 228.306 41.0352H356.587C359.428 41.0352 361.745 43.2359 361.745 45.9336V56.0855Z" stroke="#444E59" stroke-width="4" stroke-miterlimit="10" stroke-linecap="round" stroke-linejoin="round"/>
<path d="M236.155 50.9736C237.518 50.9736 238.622 49.9243 238.622 48.6308C238.622 47.3366 237.518 46.2881 236.155 46.2881C234.793 46.2881 233.688 47.3366 233.688 48.6308C233.688 49.9243 234.793 50.9736 236.155 50.9736Z" fill="#444E59"/>
<path d="M348.663 82.0685H234.809C233.987 82.0685 233.314 81.4296 233.314 80.6487V65.5273C233.314 64.7464 233.987 64.1074 234.809 64.1074H348.663C349.485 64.1074 350.158 64.7464 350.158 65.5273V80.6487C350.158 81.4296 349.485 82.0685 348.663 82.0685Z" fill="#6567C3"/>
<path opacity="0.2" d="M267.553 101.023H234.735C233.912 101.023 233.239 100.384 233.239 99.6035V91.4394C233.239 90.6585 233.912 90.0195 234.735 90.0195H267.553C268.375 90.0195 269.048 90.6585 269.048 91.4394V99.6035C269.048 100.384 268.45 101.023 267.553 101.023Z" fill="#444E59"/>
<path opacity="0.2" d="M238.547 109.046H264.861" stroke="#444E59" stroke-width="4" stroke-miterlimit="10" stroke-linecap="round" stroke-linejoin="round"/>
<path opacity="0.2" d="M238.547 117.067H264.861" stroke="#444E59" stroke-width="4" stroke-miterlimit="10" stroke-linecap="round" stroke-linejoin="round"/>
<path d="M113.779 202.613H53.5255C52.7779 202.613 52.1051 202.826 51.5818 203.323L37.0043 215.392C35.6587 216.528 35.6587 218.516 37.0043 219.58L51.5818 231.862C52.1051 232.288 52.7779 232.714 53.5255 232.714H113.779C117.218 232.714 120.059 229.732 120.059 226.467V208.364C119.984 205.24 117.218 202.613 113.779 202.613ZM51.8808 221C49.8624 221 48.143 219.438 48.143 217.451C48.143 215.463 49.7876 213.901 51.8808 213.901C53.974 213.901 55.6186 215.463 55.6186 217.451C55.6186 219.438 53.974 221 51.8808 221Z" fill="white"/>
<path d="M84.9231 202.613H67.3553V232.785H84.9231V202.613Z" fill="#F09F54"/>
<path d="M102.491 202.613H84.9231V232.785H102.491V202.613Z" fill="#ED8B3B"/>
<path d="M112.209 232.785H102.491V202.613H112.508C116.62 202.613 120.058 205.808 120.058 209.783V225.402C119.984 229.448 116.47 232.785 112.209 232.785Z" fill="#FF6C37"/>
<path opacity="0.4" d="M115.424 204.104C115.125 204.033 114.826 204.033 114.527 204.033H54.273C53.5255 204.033 52.8526 204.246 52.3293 204.743L37.7519 216.812C36.4063 217.948 36.4063 219.935 37.7519 221L46.8721 228.597L56.74 230.939C57.1885 231.081 57.7118 231.081 58.2351 231.081C59.2069 231.081 60.104 230.868 61.0011 230.442L114.676 204.459C114.9 204.388 115.199 204.246 115.424 204.104ZM52.6284 222.42C50.61 222.42 48.8906 220.858 48.8906 218.871C48.8906 216.883 50.5352 215.321 52.6284 215.321C54.7215 215.321 56.3662 216.883 56.3662 218.871C56.3662 220.858 54.7215 222.42 52.6284 222.42Z" fill="#848484"/>
<path d="M113.779 202.613H53.5255C52.7779 202.613 52.1051 202.826 51.5818 203.323L37.0043 215.392C35.6587 216.528 35.6587 218.516 37.0043 219.58L51.5818 231.862C52.1051 232.288 52.7779 232.714 53.5255 232.714H113.779C117.218 232.714 120.059 229.732 120.059 226.467V208.364C119.984 205.24 117.218 202.613 113.779 202.613ZM51.8808 221C49.8624 221 48.143 219.438 48.143 217.451C48.143 215.463 49.7876 213.901 51.8808 213.901C53.974 213.901 55.6186 215.463 55.6186 217.451C55.6186 219.438 53.974 221 51.8808 221Z" stroke="#444E59" stroke-width="4" stroke-miterlimit="10" stroke-linecap="round" stroke-linejoin="round"/>
<path d="M84.9231 202.613H67.3553V232.785H84.9231V202.613Z" stroke="#444E59" stroke-width="4" stroke-miterlimit="10" stroke-linecap="round" stroke-linejoin="round"/>
<path d="M102.491 202.613H84.9231V232.785H102.491V202.613Z" stroke="#444E59" stroke-width="4" stroke-miterlimit="10" stroke-linecap="round" stroke-linejoin="round"/>
<path d="M112.209 232.785H102.491V202.613H112.508C116.62 202.613 120.058 205.808 120.058 209.783V225.402C119.984 229.448 116.47 232.785 112.209 232.785Z" stroke="#444E59" stroke-width="4" stroke-miterlimit="10" stroke-linecap="round" stroke-linejoin="round"/>
<path d="M98.2297 173.932L44.5547 199.915C43.8819 200.199 43.4334 200.767 43.1343 201.406L35.9578 218.444C35.2849 220.006 36.2568 221.781 37.9762 222.207L56.74 226.75C57.4128 226.892 58.1604 226.821 58.8332 226.537L112.508 200.554C115.573 199.063 116.769 195.514 115.199 192.674L106.528 176.559C104.958 173.577 101.22 172.441 98.2297 173.932Z" fill="white"/>
<path d="M88.1197 178.795L72.4702 186.378L86.7404 212.938L102.39 205.356L88.1197 178.795Z" fill="#8D91DB"/>
<path d="M98.2297 173.932L44.5547 199.915C43.8819 200.199 43.4334 200.767 43.1343 201.406L35.9578 218.444C35.2849 220.006 36.2568 221.781 37.9762 222.207L56.74 226.75C57.4128 226.892 58.1604 226.821 58.8332 226.537L112.508 200.554C115.573 199.063 116.769 195.514 115.199 192.674L106.528 176.559C104.958 173.577 101.22 172.441 98.2297 173.932Z" stroke="#444E59" stroke-width="4" stroke-miterlimit="10" stroke-linecap="round" stroke-linejoin="round"/>
<path d="M50.2362 218.018C52.6306 218.018 54.5721 216.175 54.5721 213.901C54.5721 211.627 52.6306 209.783 50.2362 209.783C47.8418 209.783 45.9003 211.627 45.9003 213.901C45.9003 216.175 47.8418 218.018 50.2362 218.018Z" fill="#444E59"/>
<path d="M72.4365 186.416L56.787 193.999L71.0573 220.559L86.7067 212.976L72.4365 186.416Z" fill="#BECCD5" stroke="#444E59" stroke-width="4" stroke-miterlimit="10" stroke-linecap="round" stroke-linejoin="round"/>
<path d="M72.4365 186.416L56.787 193.999L71.0573 220.559L86.7067 212.976L72.4365 186.416Z" stroke="#444E59" stroke-width="4" stroke-miterlimit="10" stroke-linecap="round" stroke-linejoin="round"/>
<path d="M88.1197 178.795L72.4702 186.378L86.7404 212.938L102.39 205.356L88.1197 178.795Z" stroke="#444E59" stroke-width="4" stroke-miterlimit="10" stroke-linecap="round" stroke-linejoin="round"/>
<path d="M111.312 201.052L102.341 205.382L88.0628 178.831L97.0336 174.501C100.697 172.726 105.182 174.075 107.126 177.624L114.601 191.539C116.47 195.017 114.975 199.277 111.312 201.052Z" fill="#6567C3"/>
<path d="M111.312 201.052L102.341 205.382L88.0628 178.831L97.0336 174.501C100.697 172.726 105.182 174.075 107.126 177.624L114.601 191.539C116.47 195.017 114.975 199.277 111.312 201.052Z" stroke="#444E59" stroke-width="4" stroke-miterlimit="10" stroke-linecap="round" stroke-linejoin="round"/>
<path d="M186.891 232.997H136.58C132.468 232.997 129.104 229.803 129.104 225.898V130.13C129.104 126.225 132.468 123.03 136.58 123.03H186.891C191.002 123.03 194.366 126.225 194.366 130.13V225.898C194.366 229.874 191.002 232.997 186.891 232.997Z" fill="white"/>
<path d="M195.413 156.042H129.104V129.988C129.104 126.154 132.393 123.03 136.43 123.03H187.638C191.899 123.03 195.338 126.367 195.338 130.343V156.042H195.413Z" fill="#6567C3"/>
<path d="M186.891 232.997H136.58C132.468 232.997 129.104 229.803 129.104 225.898V130.13C129.104 126.225 132.468 123.03 136.58 123.03H186.891C191.002 123.03 194.366 126.225 194.366 130.13V225.898C194.366 229.874 191.002 232.997 186.891 232.997Z" stroke="#444E59" stroke-width="4" stroke-miterlimit="10" stroke-linecap="round" stroke-linejoin="round"/>
<path d="M186.965 232.997H136.804C132.543 232.997 129.029 229.661 129.029 225.614V211.983H194.366V225.969C194.366 229.873 191.002 232.997 186.965 232.997Z" fill="#BBBFC2"/>
<path d="M187.115 232.997H136.804C132.543 232.997 129.029 229.661 129.029 225.614V211.983H194.366V226.111C194.366 229.944 191.077 232.997 187.115 232.997Z" stroke="#444E59" stroke-width="4" stroke-miterlimit="10" stroke-linecap="round" stroke-linejoin="round"/>
<path d="M162.221 225.614C164.286 225.614 165.959 224.024 165.959 222.064C165.959 220.103 164.286 218.515 162.221 218.515C160.157 218.515 158.483 220.103 158.483 222.064C158.483 224.024 160.157 225.614 162.221 225.614Z" fill="#444E59"/>
<path opacity="0.3" d="M143.831 167.046H180.686" stroke="#444E59" stroke-width="4" stroke-miterlimit="10" stroke-linecap="round" stroke-linejoin="round"/>
<path opacity="0.3" d="M151.157 178.05H174.332" stroke="#444E59" stroke-width="4" stroke-miterlimit="10" stroke-linecap="round" stroke-linejoin="round"/>
<path opacity="0.3" d="M143.831 188.059H180.686" stroke="#444E59" stroke-width="4" stroke-miterlimit="10" stroke-linecap="round" stroke-linejoin="round"/>
<path opacity="0.62" d="M162.221 150.007C166.845 150.007 170.594 146.446 170.594 142.056C170.594 137.664 166.845 134.104 162.221 134.104C157.597 134.104 153.848 137.664 153.848 142.056C153.848 146.446 157.597 150.007 162.221 150.007Z" fill="white"/>
<path d="M174.332 199.064C174.332 201.264 172.463 203.039 170.145 203.039H154.372C152.054 203.039 150.185 201.264 150.185 199.064C150.185 196.863 152.054 195.088 154.372 195.088H170.145C172.463 195.017 174.332 196.792 174.332 199.064Z" fill="#ED8B3B"/>
</g>
</g>
<defs>
<clipPath id="clip0_50_192">
<rect width="690" height="279" fill="white"/>
</clipPath>
</defs>
</svg>
