<svg width="399" height="1026" viewBox="0 0 399 1026" fill="none" xmlns="http://www.w3.org/2000/svg">
<g clip-path="url(#clip0_45_73)">
<mask id="mask0_45_73" style="mask-type:alpha" maskUnits="userSpaceOnUse" x="0" y="0" width="1014" height="1025">
<path d="M685.08 0.0463921L0 319.476L328.824 1024.7L1013.9 705.274L685.08 0.0463921Z" fill="white"/>
</mask>
<g mask="url(#mask0_45_73)">
<path opacity="0.4" d="M812.901 298.51L682.49 359.316C681.164 356.912 679.799 354.522 678.396 352.145L729.522 328.307C731.993 327.154 733.905 325.068 734.837 322.506C735.77 319.944 735.647 317.117 734.494 314.645C733.342 312.175 731.256 310.262 728.694 309.33C726.132 308.397 723.305 308.52 720.833 309.673L666.952 334.795C658.34 323.21 648.557 313.162 637.394 306.021C615.524 292.033 591.241 291.328 570.901 298.297C550.56 305.265 533.441 319.238 516.844 333.432C494.776 352.36 467.892 372.674 437.823 358.139C420.02 349.515 404.887 328.843 399.684 307.106C398.489 301.739 397.573 296.315 396.939 290.853L464.143 259.519C466.614 258.366 468.526 256.28 469.458 253.718C470.391 251.156 470.267 248.328 469.115 245.857C467.963 243.387 465.877 241.474 463.315 240.542C460.752 239.609 457.926 239.732 455.454 240.885L393.163 269.929C392.294 266.84 391.17 263.829 389.803 260.925C386.413 253.981 381.539 247.866 375.527 243.011C369.515 238.156 362.512 234.679 355.009 232.826C341.642 229.691 328.928 232.31 316.767 235.619C289.572 242.937 263.021 253.695 242.534 273.696C207.7 259.496 171.121 266.257 148.159 291.362C141.542 298.398 136.693 306.906 134.013 316.185L189.571 290.281C191.975 289.16 194.725 289.04 197.217 289.947C199.71 290.854 201.739 292.715 202.86 295.118C203.981 297.522 204.101 300.272 203.194 302.765C202.287 305.257 200.426 307.287 198.023 308.407L132.768 338.834C134.919 354.381 142.359 370.243 149.561 385.145C150.347 386.831 151.179 388.495 151.992 390.169L178.293 377.905C180.765 376.753 183.592 376.63 186.154 377.562C188.716 378.495 190.803 380.407 191.955 382.878C193.107 385.348 193.23 388.176 192.297 390.738C191.365 393.3 189.453 395.387 186.982 396.539L161.016 408.646L165.877 418.693L226.845 390.266C229.317 389.113 232.143 388.99 234.706 389.923C237.268 390.855 239.354 392.768 240.506 395.238C241.658 397.709 241.782 400.537 240.849 403.099C239.916 405.661 238.005 407.747 235.533 408.9L174.81 437.213C175.803 439.343 176.867 441.484 177.909 443.624C185.184 458.658 192.599 474.134 195.275 490.143C203.495 539.459 165.387 570.06 158.231 615.434L256.114 569.795C258.585 568.643 261.412 568.519 263.974 569.452C266.536 570.385 268.623 572.297 269.775 574.768C270.927 577.239 271.05 580.066 270.118 582.628C269.185 585.19 267.274 587.277 264.802 588.429L157.43 638.493C157.638 641.147 157.944 643.814 158.348 646.495L227.546 614.23C230.016 613.078 232.844 612.955 235.406 613.887C237.968 614.82 240.055 616.732 241.207 619.203C242.359 621.674 242.482 624.501 241.55 627.063C240.617 629.625 238.705 631.712 236.234 632.864L163.121 666.954C170.004 688.216 181.931 707.497 197.884 723.148C232.897 756.97 279.394 760.712 313.602 743.967C347.811 727.223 372.113 693.35 393.502 658.363C409.656 631.909 426.061 603.13 453.254 593.441C480.985 583.557 514.247 595.521 545.449 599.685C596.265 606.466 644.842 591.596 680.63 558.314C696.454 543.599 710.128 524.7 715.359 500.282C720.407 476.534 717.107 449.816 709.29 423.372L744.972 406.735C747.375 405.614 749.235 403.584 750.142 401.092C751.05 398.6 750.93 395.849 749.809 393.445C748.688 391.042 746.659 389.181 744.166 388.275C741.675 387.368 738.923 387.487 736.52 388.608L702.977 404.248C699.76 395.597 696.155 387.061 692.302 378.751L691.803 377.681L821.598 317.162C824.069 316.01 825.981 313.924 826.913 311.362C827.846 308.8 827.723 305.973 826.571 303.501C825.419 301.031 823.332 299.118 820.77 298.186C818.208 297.253 815.381 297.376 812.909 298.528L812.901 298.51Z" fill="url(#paint0_linear_45_73)"/>
<path d="M451.04 655.235C451.04 655.235 432.799 729.699 462.324 808.427C462.628 809.225 462.644 810.103 462.372 810.911C462.1 811.72 461.555 812.409 460.83 812.86C460.106 813.31 459.248 813.496 458.403 813.384C457.556 813.272 456.776 812.869 456.194 812.246C420.126 773.818 327.294 657.38 388.728 531.297" fill="#26C8BC"/>
<path d="M463.785 813.24C464.339 813.85 465.084 814.253 465.897 814.385C465.603 814.872 465.199 815.284 464.719 815.588C464.237 815.892 463.692 816.08 463.127 816.138C462.56 816.195 461.989 816.121 461.457 815.919C460.925 815.718 460.447 815.395 460.06 814.977C423.992 776.549 331.16 660.111 392.594 534.028L394.092 537.004C337.195 661.269 428.173 775.294 463.785 813.24Z" fill="#F6DF9E"/>
<path opacity="0.8" d="M445.87 800.233C435.795 779.289 430.88 754.714 428.705 731.663C427.615 719.859 427.206 708.475 427.215 698.154C427.283 665.91 419.503 634.135 404.547 605.57C395.89 589.04 386.42 570.385 378.551 553.509C381.85 540.209 378.789 540.577 385.42 526.97L447.741 650.904C447.741 650.904 429.499 725.368 459.025 804.096C459.217 804.575 459.303 805.09 459.277 805.605C459.25 806.121 459.112 806.623 458.872 807.081" fill="#1B5A6E"/>
<path d="M387.89 656.81C387.521 656.982 387.109 657.041 386.706 656.979C386.304 656.918 385.928 656.738 385.628 656.463C385.327 656.187 385.116 655.829 385.019 655.433C384.923 655.037 384.945 654.622 385.085 654.239C385.224 653.856 385.473 653.523 385.802 653.282C386.13 653.041 386.523 652.903 386.93 652.885C387.337 652.868 387.74 652.971 388.088 653.183C388.437 653.394 388.714 653.704 388.886 654.073C389.118 654.569 389.142 655.135 388.956 655.648C388.769 656.161 388.386 656.579 387.89 656.81ZM386.648 654.146C386.49 654.219 386.358 654.338 386.268 654.487C386.177 654.635 386.133 654.808 386.14 654.982C386.148 655.155 386.207 655.323 386.31 655.464C386.413 655.605 386.555 655.71 386.719 655.771C386.882 655.83 387.06 655.839 387.229 655.798C387.398 655.757 387.551 655.667 387.668 655.538C387.786 655.41 387.863 655.25 387.889 655.077C387.916 654.905 387.891 654.729 387.817 654.572C387.719 654.36 387.54 654.196 387.321 654.116C387.102 654.037 386.86 654.047 386.648 654.146Z" fill="#274B5B"/>
<path opacity="0.2" d="M388.633 658.405C387.949 658.724 387.184 658.832 386.438 658.718C385.691 658.602 384.995 658.268 384.438 657.758C383.881 657.247 383.488 656.584 383.309 655.849C383.129 655.116 383.171 654.346 383.429 653.635C383.687 652.925 384.151 652.308 384.76 651.861C385.37 651.415 386.098 651.158 386.852 651.125C387.607 651.092 388.355 651.284 389 651.676C389.646 652.068 390.162 652.643 390.481 653.328C390.909 654.246 390.955 655.296 390.608 656.249C390.262 657.201 389.551 657.977 388.633 658.405ZM386.398 653.61C386.134 653.733 385.913 653.931 385.762 654.179C385.612 654.428 385.537 654.715 385.55 655.006C385.563 655.297 385.662 655.576 385.833 655.811C386.005 656.045 386.243 656.224 386.516 656.323C386.789 656.423 387.086 656.439 387.368 656.37C387.651 656.301 387.906 656.15 388.103 655.935C388.299 655.721 388.428 655.453 388.471 655.166C388.516 654.878 388.474 654.584 388.351 654.321C388.269 654.145 388.154 653.988 388.012 653.858C387.87 653.728 387.703 653.627 387.522 653.56C387.34 653.495 387.148 653.465 386.955 653.473C386.762 653.482 386.573 653.529 386.398 653.61Z" fill="#274B5B"/>
<path d="M373.494 597.396L371.364 598.389L452.805 773.056L454.935 772.063L373.494 597.396Z" fill="#274B5B"/>
<path opacity="0.2" d="M373.638 592.144L371.508 593.137L454.935 772.063L457.065 771.07L373.638 592.144Z" fill="#274B5B"/>
<path opacity="0.3" d="M371.364 598.389L369.234 599.382L450.675 774.049L452.805 773.056L371.364 598.389Z" fill="white"/>
<path d="M375.059 568.784L372.929 569.777L446.426 727.405L448.556 726.412L375.059 568.784Z" fill="#274B5B"/>
<path opacity="0.2" d="M377.189 567.791L375.059 568.784L448.556 726.412L450.686 725.419L377.189 567.791Z" fill="#274B5B"/>
<path opacity="0.3" d="M372.929 569.777L370.8 570.771L444.296 728.398L446.426 727.405L372.929 569.777Z" fill="white"/>
<path opacity="0.2" d="M413.611 985.171L375.808 1002.8C374.254 1003.52 372.476 1003.6 370.865 1003.01C369.253 1002.43 367.941 1001.22 367.217 999.67C366.492 998.117 366.414 996.338 367.001 994.727C367.588 993.116 368.79 991.803 370.344 991.079L408.147 973.452C409.701 972.728 411.479 972.651 413.09 973.237C414.701 973.823 416.014 975.026 416.738 976.58C417.463 978.134 417.54 979.912 416.954 981.524C416.367 983.135 415.165 984.447 413.611 985.171Z" fill="#F08778"/>
<path opacity="0.2" d="M421.389 953.178L409.671 958.642C399.215 936.148 398.108 910.426 406.593 887.118C415.077 863.809 432.461 844.818 454.929 834.309L471.841 826.424L477.305 838.143L460.402 846.024C441.036 855.079 426.054 871.446 418.74 891.534C411.427 911.622 412.38 933.791 421.389 953.178Z" fill="#F08778"/>
<path opacity="0.2" d="M355.034 1012.48C354.651 1012.66 354.25 1012.8 353.837 1012.9C353.428 1013 353.01 1013.06 352.589 1013.08C352.166 1013.1 351.743 1013.08 351.324 1013.02C350.899 1012.95 350.481 1012.85 350.075 1012.71C349.277 1012.42 348.544 1011.97 347.92 1011.4C347.612 1011.11 347.331 1010.79 347.082 1010.45C346.573 1009.77 346.209 1008.99 346.013 1008.16C345.913 1007.75 345.851 1007.33 345.827 1006.91C345.811 1006.49 345.832 1006.06 345.889 1005.65C346.018 1004.8 346.313 1004 346.755 1003.27C346.98 1002.91 347.236 1002.57 347.52 1002.26C347.809 1001.95 348.125 1001.67 348.465 1001.42C349.15 1000.91 349.93 1000.55 350.758 1000.35C351.168 1000.25 351.586 1000.19 352.007 1000.17C352.429 1000.15 352.853 1000.17 353.272 1000.23C354.114 1000.36 354.922 1000.65 355.65 1001.09C356.008 1001.32 356.345 1001.58 356.658 1001.86C356.967 1002.15 357.25 1002.46 357.505 1002.8C358.007 1003.49 358.37 1004.27 358.574 1005.09C358.668 1005.51 358.727 1005.92 358.75 1006.35C358.766 1006.77 358.746 1007.19 358.689 1007.61C358.627 1008.04 358.522 1008.45 358.377 1008.86C358.226 1009.26 358.037 1009.65 357.813 1010.02C357.587 1010.37 357.331 1010.71 357.047 1011.02C356.759 1011.33 356.443 1011.61 356.103 1011.86C355.769 1012.1 355.411 1012.31 355.034 1012.48Z" fill="#F08778"/>
<path d="M462.235 818.388C460.696 819.11 458.967 819.323 457.298 818.995C455.631 818.668 454.11 817.818 452.957 816.569C435.125 797.586 402.188 758.183 381.78 707.599C370.46 679.534 364.462 651.525 363.844 624.383C363.187 591.922 370.355 559.78 384.741 530.674L392.666 534.537C366.828 587.574 365.91 644.693 389.955 704.306C408.921 751.326 439.132 788.48 456.925 807.9C442.53 767.774 440.38 729.133 441.166 703.488C442.047 674.898 446.538 656.275 446.729 655.502L455.288 657.602C455.222 657.886 450.793 676.358 449.965 704.02C449.205 729.531 451.441 768.308 466.42 808.195C467.096 809.945 467.136 811.876 466.531 813.652C465.928 815.429 464.719 816.936 463.116 817.911C462.832 818.088 462.538 818.247 462.235 818.388Z" fill="#274B5B"/>
<path d="M332.348 174.996C330.651 174.257 328.816 173.888 326.965 173.912C325.114 173.936 323.289 174.353 321.611 175.135C319.934 175.917 318.441 177.047 317.233 178.45C316.024 179.852 315.128 181.495 314.602 183.27C302.528 224.13 273.889 350.788 334.543 480.872C393.913 608.201 448.189 652.505 467.091 664.931C471.13 667.583 477.262 667.648 482.727 665.1L593.362 613.514C598.854 610.954 602.746 606.237 603.284 601.429C605.917 578.962 606.898 508.893 547.529 381.564C486.875 251.48 371.418 192.009 332.348 174.996Z" fill="#26C8BC"/>
<path d="M374.377 286.457L372.247 287.45L536.123 638.912L538.253 637.919L374.377 286.457Z" fill="#274B5B"/>
<path opacity="0.2" d="M372.247 287.45L370.118 288.443L533.993 639.906L536.123 638.912L372.247 287.45Z" fill="#274B5B"/>
<path opacity="0.3" d="M376.507 285.463L374.377 286.457L538.252 637.919L540.382 636.926L376.507 285.463Z" fill="white"/>
<path d="M442.645 250.73L299.446 317.499C298.382 292.419 299.142 267.295 301.721 242.325C301.948 240.145 302.184 238.009 302.429 235.915C308.594 195.847 316.469 171.917 316.469 171.917C316.469 171.917 349.01 184.913 394.152 214.785L394.811 215.228C409.722 225.223 425.89 237.016 442.645 250.73Z" fill="#ECF2FA"/>
<path d="M440.858 249.69L432.503 252.217C410.75 239.332 356.98 217.411 305.195 235.08C305.307 232.954 307.31 227.783 307.46 225.738C309.112 210.801 311.909 199.974 313.701 190.069C314.173 187.42 315.266 184.921 316.892 182.777C318.518 180.632 320.629 178.905 323.053 177.736C325.477 176.567 328.143 175.99 330.834 176.053C333.523 176.116 336.16 176.816 338.527 178.096C356.582 187.767 373.974 198.63 390.585 210.613C390.787 210.762 392.062 210.421 392.277 210.575C406.427 220.925 424.508 222.954 440.858 249.69Z" fill="#8BBACC"/>
<path d="M314.641 293.839C314.179 294.053 313.67 294.144 313.163 294.102C312.656 294.061 312.168 293.889 311.748 293.602C311.327 293.315 310.989 292.925 310.764 292.468C310.54 292.011 310.439 291.504 310.469 290.996C310.838 285.02 311.448 278.899 312.126 272.945C312.732 267.146 313.372 261.231 313.744 255.497C313.821 254.741 314.188 254.044 314.767 253.552C315.347 253.061 316.094 252.812 316.852 252.86C317.611 252.907 318.321 253.247 318.835 253.806C319.349 254.366 319.626 255.103 319.608 255.863C319.242 261.727 318.594 267.744 317.938 273.578C317.282 279.412 316.663 285.515 316.301 291.366C316.27 291.889 316.1 292.393 315.808 292.828C315.516 293.263 315.113 293.612 314.641 293.839Z" fill="white"/>
<path d="M504.968 657.971L485.546 667.027C480.053 669.588 473.935 669.528 469.906 666.85C450.992 654.374 396.652 609.934 337.139 482.297C278.86 357.306 302.635 235.553 315.404 189.58C304.139 231.133 286.449 335.485 344.449 459.877L355.496 400.154C355.646 402.203 378.634 619.968 504.968 657.971Z" fill="#F6DF9E"/>
<path d="M490.816 661.647L485.487 664.132C479.994 666.693 473.876 666.633 469.847 663.955C450.933 651.479 396.593 607.039 337.08 479.402C278.801 354.411 302.576 232.658 315.299 186.729C308.905 210.332 300.403 254.359 304.928 310.728C305.774 360.414 315.053 418.295 342.365 476.871C401.882 604.517 456.223 648.957 475.132 661.424C479.214 664.144 485.333 664.204 490.816 661.647Z" fill="white"/>
<path opacity="0.8" d="M569.117 624.818L588.54 615.762C594.032 613.201 597.924 608.485 598.466 603.686C601.094 581.232 602.061 511.203 542.717 383.928C484.616 259.318 376.183 199.508 332.802 179.826C371.831 197.818 468.886 248.37 526.729 372.427L478.235 340.62C479.672 342.069 621.335 503.838 569.117 624.818Z" fill="#1B5A6E"/>
<g opacity="0.9">
<path opacity="0.9" d="M323.947 357.315C323.197 353.333 322.653 349.314 322.317 345.276C322.051 341.967 321.977 338.646 322.092 335.329C322.327 329.703 323.152 326.173 324.16 326.134C325.168 326.094 326.247 329.475 327.366 334.878C327.931 337.582 328.554 340.812 329.187 344.345L331.292 355.887L333.521 367.459C334.233 371.022 334.826 374.21 335.301 376.934C336.24 382.378 336.515 385.902 335.53 386.251C334.545 386.599 332.5 383.658 330.222 378.464C328.912 375.422 327.777 372.308 326.822 369.137C325.661 365.249 324.702 361.302 323.947 357.315Z" fill="white"/>
</g>
<g opacity="0.9">
<path opacity="0.9" d="M340.9 399.793C339.659 395.089 337.03 391.702 335.028 392.231C333.025 392.759 332.407 397 333.647 401.705C334.888 406.41 337.516 409.797 339.519 409.268C341.522 408.74 342.139 404.499 340.9 399.793Z" fill="white"/>
</g>
<g opacity="0.2">
<path opacity="0.2" d="M318.547 211.465C321.469 206.208 324.277 201.511 326.394 198.196C328.512 194.88 329.936 192.87 330.125 192.992C330.314 193.113 329.19 195.27 327.283 198.73L319.812 212.144L312.423 225.663C310.494 229.1 309.247 231.204 309.066 231.123C308.884 231.042 309.797 228.763 311.487 225.194C313.177 221.626 315.633 216.74 318.547 211.465Z" fill="#426270"/>
<path opacity="0.2" d="M322.596 215.89C330.566 207.639 336.929 200.865 337.248 201.147C337.401 201.285 335.985 203.17 333.58 206.035C331.175 208.9 327.655 212.803 323.677 216.931C319.698 221.059 315.917 224.686 313.115 227.196C310.313 229.705 308.483 231.176 308.349 231.029C308.044 230.73 314.635 224.137 322.596 215.89Z" fill="#426270"/>
</g>
<path d="M392.418 352.267C392.049 352.439 391.637 352.498 391.234 352.436C390.831 352.374 390.456 352.193 390.156 351.918C389.855 351.644 389.643 351.285 389.547 350.889C389.449 350.493 389.472 350.078 389.612 349.695C389.751 349.312 390.001 348.979 390.329 348.738C390.658 348.498 391.051 348.36 391.458 348.341C391.865 348.324 392.268 348.427 392.616 348.638C392.964 348.85 393.242 349.16 393.414 349.53C393.645 350.024 393.67 350.591 393.483 351.104C393.297 351.618 392.914 352.036 392.418 352.267ZM391.175 349.603C391.018 349.676 390.885 349.794 390.795 349.943C390.705 350.092 390.661 350.264 390.668 350.438C390.676 350.612 390.735 350.78 390.837 350.92C390.941 351.06 391.083 351.167 391.246 351.227C391.41 351.286 391.588 351.296 391.757 351.254C391.926 351.213 392.078 351.122 392.196 350.994C392.314 350.866 392.39 350.705 392.417 350.534C392.444 350.362 392.418 350.186 392.345 350.028C392.246 349.816 392.068 349.652 391.848 349.573C391.629 349.493 391.388 349.504 391.175 349.603Z" fill="#274B5B"/>
<path opacity="0.2" d="M393.162 353.864C392.477 354.183 391.714 354.292 390.967 354.177C390.22 354.062 389.524 353.728 388.968 353.218C388.411 352.707 388.017 352.044 387.837 351.31C387.658 350.576 387.7 349.805 387.959 349.095C388.217 348.384 388.68 347.768 389.29 347.32C389.899 346.874 390.627 346.618 391.382 346.585C392.137 346.552 392.883 346.744 393.53 347.136C394.176 347.528 394.691 348.102 395.01 348.787C395.438 349.705 395.485 350.756 395.138 351.708C394.791 352.66 394.081 353.436 393.162 353.864ZM390.927 349.069C390.663 349.192 390.442 349.39 390.291 349.639C390.141 349.887 390.067 350.175 390.079 350.465C390.093 350.756 390.191 351.036 390.363 351.271C390.535 351.505 390.772 351.684 391.046 351.782C391.318 351.882 391.615 351.899 391.897 351.83C392.179 351.76 392.435 351.609 392.632 351.394C392.828 351.181 392.957 350.912 393.001 350.626C393.046 350.338 393.003 350.044 392.88 349.78C392.801 349.602 392.687 349.443 392.544 349.309C392.402 349.177 392.234 349.073 392.052 349.005C391.87 348.938 391.675 348.907 391.481 348.915C391.287 348.923 391.095 348.969 390.918 349.051L390.927 349.069Z" fill="#274B5B"/>
<path d="M375.409 315.788C375.04 315.96 374.628 316.018 374.225 315.957C373.822 315.894 373.447 315.714 373.146 315.439C372.846 315.164 372.634 314.805 372.538 314.41C372.44 314.014 372.463 313.599 372.603 313.215C372.742 312.833 372.992 312.5 373.32 312.259C373.649 312.018 374.041 311.88 374.449 311.862C374.855 311.844 375.259 311.947 375.607 312.159C375.955 312.371 376.233 312.68 376.405 313.05C376.636 313.545 376.661 314.112 376.474 314.624C376.288 315.138 375.904 315.556 375.409 315.788ZM374.166 313.123C374.009 313.197 373.876 313.315 373.786 313.464C373.696 313.613 373.652 313.784 373.659 313.959C373.667 314.133 373.726 314.301 373.828 314.44C373.931 314.581 374.074 314.688 374.237 314.747C374.401 314.807 374.579 314.816 374.748 314.775C374.916 314.734 375.069 314.643 375.187 314.515C375.305 314.386 375.381 314.226 375.408 314.054C375.435 313.882 375.409 313.706 375.336 313.549C375.236 313.339 375.057 313.179 374.839 313.101C374.62 313.023 374.381 313.034 374.171 313.132L374.166 313.123Z" fill="#274B5B"/>
<path opacity="0.2" d="M376.157 317.392C375.472 317.711 374.708 317.82 373.961 317.705C373.215 317.59 372.519 317.257 371.962 316.746C371.405 316.236 371.011 315.571 370.831 314.837C370.652 314.103 370.695 313.333 370.953 312.623C371.211 311.913 371.674 311.295 372.284 310.849C372.893 310.402 373.621 310.146 374.376 310.113C375.131 310.08 375.878 310.272 376.524 310.663C377.17 311.056 377.685 311.63 378.005 312.315C378.433 313.233 378.479 314.283 378.132 315.236C377.785 316.188 377.075 316.964 376.157 317.392ZM373.921 312.597C373.657 312.72 373.436 312.918 373.285 313.166C373.135 313.415 373.061 313.703 373.074 313.993C373.087 314.284 373.185 314.564 373.356 314.798C373.529 315.033 373.766 315.212 374.04 315.31C374.313 315.41 374.609 315.427 374.891 315.357C375.174 315.288 375.43 315.137 375.627 314.923C375.823 314.709 375.951 314.44 375.995 314.153C376.04 313.866 375.997 313.571 375.875 313.308C375.71 312.955 375.411 312.682 375.045 312.548C374.679 312.415 374.275 312.433 373.921 312.597Z" fill="#274B5B"/>
<path d="M399.506 318.817C399.137 318.989 398.726 319.048 398.323 318.986C397.92 318.924 397.545 318.744 397.244 318.469C396.944 318.194 396.732 317.836 396.635 317.439C396.538 317.044 396.562 316.628 396.701 316.246C396.84 315.863 397.09 315.529 397.418 315.289C397.747 315.048 398.139 314.91 398.547 314.892C398.953 314.874 399.357 314.978 399.705 315.189C400.053 315.401 400.331 315.711 400.503 316.08C400.617 316.325 400.683 316.59 400.694 316.861C400.706 317.131 400.664 317.401 400.572 317.655C400.48 317.909 400.338 318.142 400.155 318.342C399.972 318.541 399.752 318.703 399.506 318.817ZM398.264 316.152C398.106 316.226 397.974 316.345 397.884 316.494C397.794 316.642 397.75 316.815 397.757 316.989C397.765 317.162 397.823 317.33 397.926 317.471C398.029 317.611 398.172 317.718 398.335 317.778C398.499 317.837 398.677 317.847 398.845 317.804C399.014 317.763 399.167 317.673 399.285 317.544C399.403 317.417 399.479 317.256 399.506 317.084C399.533 316.912 399.507 316.736 399.433 316.578C399.335 316.367 399.157 316.203 398.938 316.123C398.718 316.043 398.476 316.054 398.264 316.152Z" fill="#274B5B"/>
<path opacity="0.2" d="M400.254 320.421C399.569 320.741 398.806 320.849 398.059 320.735C397.313 320.62 396.616 320.286 396.059 319.775C395.503 319.265 395.109 318.601 394.929 317.867C394.75 317.133 394.792 316.362 395.051 315.652C395.309 314.943 395.772 314.325 396.382 313.879C396.991 313.431 397.719 313.176 398.474 313.143C399.228 313.11 399.977 313.301 400.622 313.694C401.268 314.085 401.783 314.66 402.102 315.345C402.53 316.263 402.577 317.314 402.23 318.266C401.883 319.218 401.172 319.993 400.254 320.421ZM398.019 315.627C397.755 315.75 397.534 315.948 397.383 316.197C397.233 316.445 397.159 316.733 397.172 317.023C397.184 317.313 397.283 317.594 397.454 317.828C397.626 318.063 397.864 318.241 398.138 318.341C398.41 318.44 398.707 318.456 398.989 318.387C399.272 318.318 399.528 318.167 399.724 317.952C399.92 317.738 400.049 317.47 400.093 317.183C400.137 316.895 400.095 316.601 399.972 316.338C399.808 315.985 399.509 315.712 399.143 315.578C398.777 315.444 398.372 315.462 398.019 315.627Z" fill="#274B5B"/>
<path d="M400.13 257.587C399.761 257.759 399.349 257.818 398.947 257.756C398.543 257.694 398.168 257.514 397.868 257.239C397.567 256.964 397.355 256.606 397.259 256.21C397.161 255.814 397.184 255.398 397.324 255.015C397.463 254.632 397.713 254.3 398.041 254.059C398.37 253.818 398.763 253.68 399.17 253.662C399.577 253.645 399.98 253.748 400.328 253.959C400.676 254.17 400.954 254.48 401.126 254.85C401.241 255.095 401.306 255.36 401.317 255.63C401.329 255.9 401.288 256.17 401.196 256.425C401.103 256.679 400.961 256.913 400.779 257.112C400.596 257.312 400.376 257.473 400.13 257.587ZM398.888 254.923C398.73 254.996 398.598 255.115 398.507 255.264C398.417 255.412 398.373 255.584 398.38 255.758C398.388 255.932 398.447 256.1 398.55 256.241C398.653 256.381 398.795 256.487 398.959 256.547C399.122 256.606 399.3 256.616 399.469 256.575C399.638 256.534 399.791 256.444 399.908 256.315C400.026 256.186 400.103 256.027 400.13 255.854C400.156 255.682 400.131 255.506 400.057 255.348C399.959 255.137 399.781 254.973 399.56 254.894C399.341 254.814 399.1 254.824 398.888 254.923Z" fill="#274B5B"/>
<path opacity="0.2" d="M400.875 259.185C400.189 259.504 399.426 259.613 398.679 259.498C397.933 259.383 397.237 259.049 396.68 258.539C396.123 258.028 395.729 257.364 395.55 256.631C395.371 255.896 395.413 255.125 395.671 254.416C395.929 253.706 396.393 253.089 397.002 252.641C397.611 252.195 398.339 251.939 399.094 251.906C399.849 251.873 400.596 252.065 401.242 252.457C401.888 252.849 402.403 253.424 402.722 254.108C403.151 255.026 403.197 256.077 402.85 257.029C402.504 257.981 401.793 258.756 400.875 259.185ZM398.639 254.39C398.375 254.513 398.154 254.711 398.003 254.96C397.853 255.208 397.779 255.496 397.792 255.787C397.805 256.077 397.903 256.357 398.075 256.592C398.247 256.826 398.484 257.004 398.758 257.104C399.031 257.203 399.327 257.219 399.61 257.151C399.892 257.082 400.148 256.93 400.344 256.715C400.54 256.501 400.669 256.234 400.713 255.946C400.758 255.659 400.716 255.365 400.593 255.101C400.428 254.748 400.129 254.474 399.763 254.342C399.397 254.208 398.993 254.225 398.639 254.39Z" fill="#274B5B"/>
<path d="M333.035 288.872C332.666 289.044 332.253 289.102 331.851 289.041C331.448 288.978 331.073 288.799 330.773 288.523C330.472 288.248 330.26 287.89 330.164 287.494C330.066 287.098 330.089 286.682 330.228 286.3C330.367 285.917 330.617 285.584 330.946 285.343C331.275 285.102 331.668 284.964 332.074 284.947C332.482 284.929 332.885 285.032 333.233 285.243C333.581 285.455 333.859 285.764 334.031 286.134C334.146 286.379 334.211 286.644 334.222 286.915C334.234 287.185 334.193 287.455 334.101 287.709C334.007 287.964 333.866 288.197 333.683 288.396C333.5 288.596 333.28 288.757 333.035 288.872ZM331.793 286.207C331.635 286.28 331.503 286.399 331.412 286.548C331.321 286.697 331.278 286.868 331.285 287.043C331.292 287.217 331.352 287.384 331.455 287.525C331.558 287.665 331.7 287.772 331.864 287.831C332.027 287.891 332.205 287.9 332.373 287.859C332.543 287.818 332.696 287.728 332.813 287.599C332.931 287.47 333.008 287.311 333.034 287.138C333.06 286.966 333.036 286.79 332.962 286.633C332.864 286.421 332.685 286.258 332.465 286.178C332.246 286.098 332.004 286.108 331.793 286.207Z" fill="#274B5B"/>
<path opacity="0.2" d="M333.78 290.468C333.095 290.787 332.331 290.897 331.584 290.781C330.838 290.667 330.142 290.333 329.585 289.823C329.028 289.312 328.634 288.648 328.455 287.914C328.275 287.18 328.318 286.409 328.576 285.7C328.834 284.99 329.298 284.372 329.907 283.925C330.516 283.479 331.244 283.223 331.999 283.19C332.754 283.157 333.502 283.349 334.147 283.741C334.793 284.133 335.308 284.708 335.627 285.392C336.056 286.31 336.102 287.361 335.755 288.313C335.409 289.265 334.698 290.04 333.78 290.468ZM331.544 285.674C331.28 285.797 331.059 285.995 330.908 286.244C330.758 286.492 330.684 286.78 330.697 287.071C330.71 287.361 330.808 287.641 330.98 287.876C331.152 288.11 331.389 288.288 331.663 288.388C331.936 288.487 332.232 288.503 332.515 288.434C332.798 288.365 333.053 288.213 333.249 287.999C333.445 287.785 333.574 287.518 333.618 287.23C333.663 286.942 333.621 286.649 333.498 286.385C333.333 286.032 333.034 285.758 332.669 285.625C332.302 285.492 331.898 285.509 331.544 285.674Z" fill="#274B5B"/>
<path d="M366.587 273.227C366.218 273.399 365.805 273.458 365.404 273.396C365 273.334 364.625 273.155 364.325 272.879C364.024 272.604 363.812 272.246 363.716 271.85C363.618 271.454 363.641 271.038 363.78 270.656C363.92 270.273 364.169 269.94 364.498 269.699C364.827 269.458 365.22 269.32 365.626 269.303C366.034 269.285 366.437 269.388 366.785 269.599C367.133 269.811 367.411 270.12 367.584 270.49C367.698 270.735 367.763 271 367.774 271.27C367.787 271.541 367.745 271.811 367.653 272.065C367.559 272.32 367.418 272.553 367.235 272.752C367.052 272.952 366.833 273.113 366.587 273.227ZM365.345 270.563C365.187 270.636 365.055 270.755 364.964 270.904C364.874 271.053 364.83 271.224 364.837 271.399C364.845 271.573 364.904 271.74 365.007 271.881C365.11 272.021 365.252 272.128 365.416 272.187C365.579 272.247 365.757 272.256 365.925 272.215C366.095 272.174 366.248 272.084 366.365 271.955C366.483 271.826 366.56 271.667 366.587 271.494C366.612 271.322 366.588 271.146 366.514 270.989C366.416 270.777 366.237 270.614 366.017 270.534C365.798 270.454 365.556 270.464 365.345 270.563Z" fill="#274B5B"/>
<path opacity="0.2" d="M367.332 274.824C366.647 275.143 365.883 275.253 365.136 275.137C364.39 275.023 363.694 274.689 363.137 274.179C362.58 273.668 362.186 273.004 362.007 272.27C361.828 271.536 361.87 270.765 362.128 270.056C362.386 269.346 362.85 268.728 363.459 268.281C364.068 267.835 364.796 267.579 365.551 267.546C366.306 267.513 367.054 267.705 367.699 268.097C368.345 268.488 368.86 269.064 369.179 269.748C369.608 270.666 369.654 271.717 369.307 272.669C368.961 273.621 368.25 274.396 367.332 274.824ZM365.096 270.03C364.832 270.153 364.611 270.351 364.461 270.599C364.31 270.848 364.236 271.136 364.249 271.427C364.262 271.716 364.36 271.997 364.532 272.232C364.704 272.466 364.941 272.644 365.215 272.744C365.488 272.843 365.784 272.859 366.067 272.79C366.35 272.721 366.605 272.569 366.801 272.355C366.997 272.141 367.126 271.874 367.17 271.586C367.215 271.298 367.173 271.005 367.05 270.741C366.885 270.387 366.586 270.114 366.221 269.981C365.854 269.848 365.45 269.865 365.096 270.03Z" fill="#274B5B"/>
<path opacity="0.6" d="M446.748 436.819C471.6 425.231 482.353 395.69 470.765 370.838C459.177 345.986 429.637 335.233 404.785 346.821C379.933 358.409 369.18 387.949 380.767 412.801C392.355 437.653 421.896 448.406 446.748 436.819Z" fill="#5C7869"/>
<path d="M439.587 420.064C464.439 408.476 475.192 378.936 463.604 354.084C452.016 329.232 422.476 318.479 397.624 330.066C372.772 341.654 362.019 371.194 373.606 396.047C385.194 420.899 414.735 431.652 439.587 420.064Z" fill="#94E0F7"/>
<path opacity="0.2" d="M437.815 417.659C430.073 421.269 421.435 422.502 412.991 421.202C404.548 419.903 396.681 416.128 390.384 410.357C384.086 404.586 379.641 397.077 377.611 388.779C375.581 380.482 376.056 371.769 378.978 363.742C381.9 355.715 387.137 348.735 394.026 343.684C400.915 338.634 409.147 335.739 417.681 335.367C426.215 334.994 434.668 337.16 441.97 341.593C449.273 346.025 455.097 352.522 458.707 360.264C463.538 370.647 464.05 382.522 460.132 393.283C456.216 404.044 448.19 412.811 437.815 417.659ZM402.558 342.045C395.343 345.409 389.289 350.837 385.157 357.642C381.028 364.448 379.008 372.325 379.356 380.279C379.703 388.232 382.4 395.904 387.108 402.323C391.815 408.743 398.319 413.624 405.8 416.347C413.28 419.069 421.401 419.514 429.133 417.621C436.865 415.73 443.863 411.587 449.242 405.718C454.621 399.849 458.138 392.517 459.349 384.649C460.561 376.781 459.411 368.731 456.047 361.515C451.529 351.845 443.359 344.362 433.33 340.71C423.301 337.058 412.233 337.535 402.554 342.036L402.558 342.045Z" fill="#274B5B"/>
<path d="M414.948 327.915L429.481 426.124C422.106 427.419 414.535 427.023 407.336 424.963L394.109 335.425C400.403 331.39 407.526 328.823 414.948 327.915Z" fill="white"/>
<path d="M432.88 329.056L446.313 419.888C444.879 420.743 443.401 421.525 441.887 422.228C440.07 423.076 438.203 423.814 436.297 424.437L421.959 327.594C425.642 327.675 429.305 328.165 432.88 329.056Z" fill="white"/>
<path opacity="0.8" d="M392.303 402.778C392.048 402.896 391.76 402.918 391.489 402.842C391.22 402.766 390.985 402.596 390.829 402.362C384.746 393.33 381.945 382.485 382.892 371.638C383.452 365.551 385.393 361.148 388.68 358.567C388.8 358.457 388.942 358.373 389.095 358.319C389.249 358.266 389.412 358.245 389.574 358.258C389.737 358.27 389.894 358.317 390.038 358.393C390.181 358.47 390.307 358.576 390.408 358.703C390.509 358.831 390.582 358.978 390.623 359.135C390.665 359.293 390.673 359.457 390.647 359.617C390.622 359.778 390.564 359.932 390.476 360.069C390.388 360.206 390.273 360.324 390.137 360.415C387.385 362.581 385.74 366.437 385.243 371.854C384.346 382.164 387.009 392.468 392.788 401.051C392.875 401.181 392.935 401.326 392.965 401.478C392.996 401.631 392.994 401.789 392.963 401.941C392.931 402.093 392.869 402.238 392.781 402.366C392.692 402.495 392.58 402.604 392.448 402.688L392.303 402.778Z" fill="white"/>
<path d="M443.147 429.097C433.142 433.762 421.977 435.356 411.065 433.676C400.154 431.997 389.985 427.119 381.846 419.66C373.706 412.201 367.962 402.496 365.338 391.772C362.715 381.048 363.329 369.787 367.106 359.413C370.882 349.038 377.65 340.017 386.553 333.489C395.457 326.961 406.097 323.22 417.126 322.739C428.155 322.258 439.08 325.058 448.519 330.786C457.956 336.514 465.484 344.911 470.149 354.917C476.389 368.337 477.051 383.684 471.988 397.591C466.927 411.498 456.555 422.829 443.147 429.097ZM401.184 339.099C393.391 342.733 386.849 348.597 382.388 355.948C377.927 363.3 375.745 371.809 376.12 380.401C376.495 388.992 379.409 397.28 384.494 404.215C389.578 411.15 396.605 416.422 404.686 419.364C412.767 422.305 421.538 422.784 429.892 420.74C438.245 418.697 445.805 414.222 451.615 407.882C457.425 401.542 461.224 393.621 462.533 385.122C463.841 376.622 462.6 367.926 458.965 360.132C454.081 349.693 445.255 341.617 434.424 337.676C423.593 333.735 411.641 334.25 401.189 339.108L401.184 339.099Z" fill="#274B5B"/>
<g opacity="0.4">
<path opacity="0.4" d="M370.466 248.04C371.306 240.896 371.542 235.06 371.99 235.05C372.437 235.039 372.803 240.959 371.947 248.21C371.091 255.461 369.379 261.136 368.992 261.041C368.606 260.945 369.653 255.194 370.466 248.04Z" fill="#426270"/>
<path opacity="0.4" d="M377.538 249.041C377.992 244.263 378.027 240.358 377.615 240.319C377.203 240.279 376.499 244.121 376.044 248.899C375.589 253.676 375.554 257.582 375.966 257.62C376.378 257.66 377.082 253.819 377.538 249.041Z" fill="#426270"/>
<path opacity="0.4" d="M373.528 251.104C379.473 250.793 384.302 250.24 384.358 250.666C384.413 251.093 379.611 252.317 373.59 252.609C367.569 252.901 362.622 252.206 362.668 251.832C362.714 251.457 367.587 251.425 373.528 251.104Z" fill="#426270"/>
<path opacity="0.4" d="M377.634 247.532C383.159 247.549 387.617 247.103 387.682 247.525C387.746 247.947 383.287 249.033 377.637 249.031C371.987 249.029 367.507 247.917 367.589 247.548C367.671 247.179 372.126 247.551 377.634 247.532Z" fill="#426270"/>
</g>
<path d="M432.28 250.059L299.151 312.133L300.393 314.797L433.523 252.724L432.28 250.059Z" fill="#8BBACC"/>
<path d="M448.654 254.295L299.927 323.642L298.017 314.812L444.025 246.733L448.654 254.295Z" fill="#274B5B"/>
<path d="M594.165 618.005L483.494 669.607C476.578 672.832 468.947 672.65 463.576 669.129C442.983 655.561 388.726 610.354 329.395 483.106C271.247 358.396 294.371 236.451 307.014 189.808C307.924 186.451 309.555 183.333 311.794 180.672C314.033 178.011 316.826 175.871 319.978 174.401C323.13 172.932 326.565 172.168 330.043 172.163C333.521 172.159 336.958 172.914 340.113 174.375C383.96 194.678 492.245 255.353 550.366 380.075C609.684 507.296 609.455 577.962 606.603 602.441C605.888 608.788 601.098 614.772 594.165 618.005ZM323.676 182.404C320.456 183.903 317.872 186.495 316.385 189.72C316.029 190.491 315.736 191.292 315.514 192.112C303.129 237.818 280.457 357.302 337.38 479.383C362.824 533.953 390.046 579.132 418.288 613.673C441.569 642.141 459.684 656.027 468.417 661.764C471.155 663.566 475.724 663.498 479.766 661.614L590.437 610.011C594.507 608.114 597.478 604.665 597.844 601.427C599.054 591.032 600.022 568.238 593.231 532.091C584.928 488.254 567.821 438.359 542.377 383.789C485.458 261.717 379.396 202.257 336.405 182.372C334.61 181.536 332.666 181.064 330.687 180.983C328.709 180.902 326.733 181.213 324.875 181.9C324.469 182.052 324.069 182.221 323.676 182.404Z" fill="#274B5B"/>
</g>
</g>
<defs>
<linearGradient id="paint0_linear_45_73" x1="115.916" y1="568.08" x2="800.996" y2="248.651" gradientUnits="userSpaceOnUse">
<stop stop-color="#C3F6EE"/>
<stop offset="0.38" stop-color="#C6EBFD"/>
</linearGradient>
<clipPath id="clip0_45_73">
<rect width="756" height="779" fill="white" transform="translate(0 319.476) rotate(-24.9981)"/>
</clipPath>
</defs>
</svg>
