<svg width="208" height="315" viewBox="0 0 208 315" fill="none" xmlns="http://www.w3.org/2000/svg">
<mask id="mask0_50_910" style="mask-type:alpha" maskUnits="userSpaceOnUse" x="-115" y="0" width="323" height="315">
<path d="M208 0H-115V315H208V0Z" fill="white"/>
</mask>
<g mask="url(#mask0_50_910)">
<path d="M208 0H-115V315H208V0Z" fill="#D9D9D9"/>
<path d="M46.5 232.785C100.641 232.785 144.53 228.779 144.53 223.839C144.53 218.898 100.641 214.893 46.5 214.893C-7.64063 214.893 -51.5305 218.898 -51.5305 223.839C-51.5305 228.779 -7.64063 232.785 46.5 232.785Z" fill="#E5E5E5"/>
<path d="M85.4215 212.909C88.2962 212.909 90.6218 210.641 90.6218 207.837V200.088C90.6218 197.285 88.2962 195.017 85.4215 195.017C82.5468 195.017 80.2212 197.285 80.2212 200.088V207.837C80.2212 210.641 82.5468 212.909 85.4215 212.909Z" stroke="#4D4D61" stroke-width="3" stroke-miterlimit="10" stroke-linecap="round" stroke-linejoin="round"/>
<path d="M85.4215 212.909C88.2962 212.909 90.6218 210.641 90.6218 207.837V200.088C90.6218 197.285 88.2962 195.017 85.4215 195.017C82.5468 195.017 80.2212 197.285 80.2212 200.088V207.837C80.2212 210.641 82.5468 212.909 85.4215 212.909Z" fill="#4D4D61"/>
<path d="M81.6747 209.663V201.914C81.6747 199.111 84.0003 196.843 86.875 196.843C88.1347 196.843 89.2652 197.284 90.1696 197.977C89.3621 196.213 87.5533 194.984 85.4215 194.984C82.5468 194.984 80.2212 197.252 80.2212 200.056V207.805C80.2212 209.411 80.9641 210.829 82.1592 211.742C81.8362 211.144 81.6747 210.419 81.6747 209.663Z" fill="#56566D"/>
<path d="M85.3569 197.064C86.9444 197.064 88.2316 196.613 88.2316 196.056C88.2316 195.499 86.9444 195.048 85.3569 195.048C83.7693 195.048 82.4822 195.499 82.4822 196.056C82.4822 196.613 83.7693 197.064 85.3569 197.064Z" fill="#4D4D61"/>
<path d="M85.4215 196.056C86.4874 196.056 87.3595 195.205 87.3595 194.166V185.44C87.3595 184.558 86.6166 183.834 85.7122 183.834H85.1631C84.2587 183.834 83.5158 184.558 83.5158 185.44V194.166C83.4835 195.205 84.3556 196.056 85.4215 196.056Z" fill="#4D4D61"/>
<path d="M85.4215 196.056C86.4874 196.056 87.3595 195.205 87.3595 194.166V185.409C87.3595 184.527 86.6489 183.834 85.7445 183.834H85.1308C84.2264 183.834 83.5158 184.527 83.5158 185.409V194.166C83.4835 195.205 84.3556 196.056 85.4215 196.056Z" stroke="#4D4D61" stroke-width="3" stroke-miterlimit="10" stroke-linecap="round" stroke-linejoin="round"/>
<path d="M44.7235 118.881H39.2002C38.1666 118.881 37.3268 118.062 37.3268 117.054C37.3268 116.046 38.1666 115.227 39.2002 115.227H41.5258C43.3669 115.227 44.8527 113.778 44.8527 111.983C44.8527 110.187 43.3669 108.738 41.5258 108.738H34.226C33.9353 108.738 33.6769 108.486 33.6769 108.203C33.6769 107.919 33.9353 107.667 34.226 107.667H35.0335C35.3565 107.667 35.6149 107.415 35.6149 107.1C35.6149 106.785 35.3565 106.533 35.0335 106.533H29.3164C28.9288 106.533 28.6058 106.848 28.6058 107.226C28.6058 107.604 28.9288 107.919 29.3164 107.919H31.5451C32.1911 107.919 32.7402 108.455 32.7402 109.085C32.7402 109.715 32.1911 110.25 31.5451 110.25H30.4792C28.9611 110.25 27.7014 111.447 27.7014 112.959C27.7014 114.471 28.9288 115.668 30.4792 115.668H32.7402C33.257 115.668 33.6769 116.078 33.6769 116.582C33.6769 117.086 33.257 117.495 32.7402 117.495H31.8681C30.8668 117.495 30.0593 118.283 30.0593 119.259C30.0593 120.236 30.8668 121.023 31.8681 121.023H43.6576C44.3036 121.023 44.8527 121.559 44.8204 122.189L44.7881 123.071H47.146V121.244C47.0814 119.921 46.0155 118.881 44.7235 118.881ZM37.0684 112.046C37.0684 111.762 37.2945 111.51 37.6175 111.51H40.8152C41.1059 111.51 41.3643 111.731 41.3643 112.046C41.3643 112.329 41.1382 112.581 40.8152 112.581H37.6175C37.2945 112.55 37.0684 112.329 37.0684 112.046Z" fill="#E5E5E5"/>
<path d="M27.6045 106.406H26.6355C26.2802 106.406 25.9895 106.123 25.9895 105.776C25.9895 105.43 26.2802 105.146 26.6355 105.146H27.6045C27.9598 105.146 28.2505 105.43 28.2505 105.776C28.2505 106.123 27.9598 106.406 27.6045 106.406Z" fill="#E5E5E5"/>
<path d="M105.351 177.313L103.994 175.14C103.703 174.667 103.865 174.037 104.349 173.722C104.834 173.439 105.48 173.596 105.803 174.069L107.159 176.242C107.45 176.715 107.289 177.345 106.804 177.66C106.287 177.975 105.641 177.817 105.351 177.313Z" fill="#4D4D61"/>
<path d="M107.935 176.494L105.738 175.14C105.254 174.825 105.092 174.195 105.415 173.722C105.738 173.25 106.384 173.092 106.869 173.407L109.065 174.762C109.55 175.077 109.711 175.707 109.388 176.179C109.097 176.652 108.451 176.778 107.935 176.494Z" fill="#4D4D61"/>
<path d="M109.711 174.792L107.127 174.446C106.546 174.383 106.158 173.847 106.223 173.28C106.287 172.713 106.836 172.335 107.418 172.398L110.002 172.745C110.583 172.808 110.971 173.343 110.906 173.91C110.809 174.477 110.293 174.855 109.711 174.792Z" fill="#4D4D61"/>
<path d="M110.615 172.713L108.031 173.06C107.45 173.154 106.933 172.745 106.836 172.178C106.739 171.611 107.159 171.107 107.741 171.012L110.325 170.666C110.906 170.571 111.423 170.981 111.52 171.548C111.584 172.115 111.197 172.619 110.615 172.713Z" fill="#4D4D61"/>
<path d="M111.003 170.572L108.516 171.328C107.967 171.485 107.385 171.202 107.192 170.635C107.03 170.099 107.321 169.532 107.902 169.343L110.389 168.587C110.938 168.43 111.52 168.713 111.714 169.28C111.843 169.847 111.552 170.414 111.003 170.572Z" fill="#4D4D61"/>
<path d="M111.068 168.367L108.645 169.28C108.096 169.469 107.482 169.217 107.289 168.682C107.095 168.146 107.353 167.548 107.902 167.359L110.325 166.445C110.874 166.256 111.488 166.508 111.681 167.044C111.875 167.579 111.617 168.146 111.068 168.367Z" fill="#4D4D61"/>
<path d="M111.003 166.162L108.677 167.327C108.161 167.579 107.515 167.39 107.256 166.886C106.998 166.382 107.192 165.752 107.708 165.5L110.034 164.335C110.551 164.083 111.197 164.272 111.455 164.776C111.714 165.28 111.52 165.91 111.003 166.162Z" fill="#4D4D61"/>
<path d="M110.809 164.681L108.484 165.847C107.967 166.099 107.321 165.91 107.063 165.406C106.804 164.902 106.998 164.272 107.515 164.02L109.84 162.854C110.357 162.602 111.003 162.791 111.262 163.295C111.52 163.799 111.326 164.429 110.809 164.681Z" fill="#4D4D61"/>
<path d="M48.7933 124.992C46.4354 124.992 44.5297 126.851 44.5297 129.15C44.5297 131.45 46.4354 133.308 48.7933 133.308C51.1512 133.308 53.0569 131.45 53.0569 129.15C53.0569 126.851 51.1512 124.992 48.7933 124.992ZM48.7933 131.702C47.3721 131.702 46.2093 130.568 46.2093 129.182C46.2093 127.796 47.3721 126.662 48.7933 126.662C50.2145 126.662 51.3773 127.796 51.3773 129.182C51.3773 130.568 50.2145 131.702 48.7933 131.702Z" stroke="#4D4D61" stroke-width="3" stroke-miterlimit="10" stroke-linecap="round" stroke-linejoin="round"/>
<path d="M52.314 126.977H51.8618H48.6318C47.6628 126.977 47.0168 127.985 47.5013 128.835C48.1796 130.095 49.5685 130.977 51.1512 130.977H51.5711V135.702H55.9962V130.536C55.9639 128.583 54.3166 126.977 52.314 126.977Z" fill="#F7E3CB"/>
<path d="M52.314 126.977H51.8618H50.4729C52.5078 126.977 54.1551 128.583 54.1551 130.568V135.734H55.9962V130.568C55.9639 128.583 54.3166 126.977 52.314 126.977Z" fill="#EDD6BC"/>
<path d="M52.314 126.977H51.8618H48.1473C47.469 126.977 47.0168 127.607 47.2106 128.205C47.7597 129.812 49.3101 130.977 51.1189 130.977H51.5388V135.702H55.9639V130.536C55.9639 128.583 54.3166 126.977 52.314 126.977Z" stroke="#4D4D61" stroke-width="3" stroke-miterlimit="10" stroke-linecap="round" stroke-linejoin="round"/>
<path d="M39.8785 135.103H46.0801C47.4367 135.103 48.5672 134.032 48.5672 132.677V123.259H37.3914V132.677C37.3914 134 38.4896 135.103 39.8785 135.103Z" fill="#FFD680"/>
<path d="M37.3914 131.702H38.8449C40.8475 131.702 42.4302 130.127 42.4302 128.205V126.851L43.1731 127.418" stroke="#4D4D61" stroke-width="2" stroke-miterlimit="10" stroke-linecap="round" stroke-linejoin="round"/>
<path d="M45.3049 123.228V132.646C45.3049 133.969 44.2067 135.072 42.8178 135.072H46.0478C47.4044 135.072 48.5349 134.001 48.5349 132.646V123.228H45.3049Z" fill="#EABD6C"/>
<path d="M39.8785 135.103H46.0801C47.4367 135.103 48.5672 134.032 48.5672 132.677V123.259H37.3914V132.677C37.3914 134 38.4896 135.103 39.8785 135.103Z" stroke="#4D4D61" stroke-width="3" stroke-miterlimit="10" stroke-linecap="round" stroke-linejoin="round"/>
<path d="M67.3981 136.048L69.0131 139.292L71.4033 137.686L67.3981 136.048Z" fill="#CA4361"/>
<path d="M67.3981 136.048L69.0131 139.292L71.4033 137.686L67.3981 136.048Z" stroke="#4D4D61" stroke-width="2" stroke-miterlimit="10" stroke-linecap="round" stroke-linejoin="round"/>
<path d="M72.8868 210.111L77.3045 207.436L58.8825 178.509L54.4648 181.185L72.8868 210.111Z" fill="#F7E3CB"/>
<path d="M72.8868 210.111L77.3045 207.436L58.8825 178.509L54.4648 181.185L72.8868 210.111Z" stroke="#4D4D61" stroke-width="3" stroke-miterlimit="10" stroke-linecap="round" stroke-linejoin="round"/>
<path d="M6.31879 201.6L40.5245 174.762L43.8191 178.636L9.61338 205.506L6.31879 201.6Z" fill="#F7E3CB"/>
<path d="M10.0656 198.67L13.1987 202.702L16.2995 200.339L13.1664 196.213L10.0656 198.67Z" fill="#EDD6BC"/>
<path d="M6.31879 201.6L40.5245 174.762L43.8191 178.636L9.61338 205.506L6.31879 201.6Z" stroke="#4D4D61" stroke-width="3" stroke-miterlimit="10" stroke-linecap="round" stroke-linejoin="round"/>
<path d="M79.9305 136.048L77.4757 133.276C76.4421 132.11 74.6333 131.984 73.4382 132.961C72.2108 133.969 72.0816 135.764 73.1152 136.93L75.57 139.702C79.446 144.08 78.9615 150.727 74.4395 154.507C69.9498 158.287 63.1345 157.814 59.2585 153.404C57.5789 151.483 56.6422 149.057 56.6422 146.537V135.134H50.8928V146.569C50.8928 150.443 52.314 154.16 54.898 157.09C60.8735 163.831 71.3064 164.587 78.2186 158.759C85.1308 152.995 85.8737 142.789 79.9305 136.048Z" stroke="#4D4D61" stroke-width="3" stroke-miterlimit="10" stroke-linecap="round" stroke-linejoin="round"/>
<path d="M70.6604 137.686C70.6604 137.686 74.3749 141.309 76.7651 144.585C79.123 147.829 80.8672 152.145 80.8672 152.995C82.2238 153.846 82.5791 154.318 82.8052 154.098C83.0313 153.877 83.0313 152.617 83.0313 151.515C83.0313 150.381 72.5338 136.458 70.6604 137.686Z" fill="#CA4361"/>
<path d="M70.6604 137.686C70.6604 137.686 74.3749 141.309 76.7651 144.585C79.123 147.829 80.8672 152.145 80.8672 152.995C82.2238 153.846 82.5791 154.318 82.8052 154.098C83.0313 153.877 83.0313 152.617 83.0313 151.515C83.0313 150.381 72.5338 136.458 70.6604 137.686Z" stroke="#4D4D61" stroke-width="2" stroke-miterlimit="10" stroke-linecap="round" stroke-linejoin="round"/>
<path d="M81.9654 210.829L56.7391 218.295C56.2869 218.421 55.8024 218.169 55.6409 217.728L55.6086 217.665C55.4794 217.224 55.7378 216.751 56.19 216.594L81.4163 209.128C81.8685 209.002 82.353 209.254 82.5145 209.695L82.5468 209.758C82.676 210.231 82.4176 210.703 81.9654 210.829Z" fill="#595D5C"/>
<path d="M81.9654 210.829L56.7391 218.295C56.2869 218.421 55.8024 218.169 55.6409 217.728L55.6086 217.665C55.4794 217.224 55.7378 216.751 56.19 216.594L81.4163 209.128C81.8685 209.002 82.353 209.254 82.5145 209.695L82.5468 209.758C82.676 210.231 82.4176 210.703 81.9654 210.829Z" stroke="#4D4D61" stroke-width="3" stroke-miterlimit="10" stroke-linecap="round" stroke-linejoin="round"/>
<path d="M77.9279 204.498L77.831 204.529C77.2819 205.474 76.1191 206.325 74.6333 206.766C73.5351 207.081 72.4369 207.144 71.5325 206.923C70.725 206.734 69.8852 206.703 69.0777 206.923L59.1293 209.632C57.9342 209.947 56.9975 210.829 56.513 212.058L55.4471 214.767C55.0918 215.68 55.8993 216.72 56.7714 216.468L81.1902 209.223L80.1566 205.947C79.8336 204.907 78.8323 204.277 77.9279 204.498Z" fill="#9B8462"/>
<path d="M56.513 212.089L56.3515 212.53C57.1913 213.16 58.3218 213.412 59.4523 213.097L74.6979 208.561C76.1514 208.12 77.0558 206.86 77.0881 205.442C76.4744 206.009 75.6346 206.482 74.6656 206.765C73.5674 207.08 72.4692 207.143 71.5648 206.923C70.7573 206.734 69.9175 206.702 69.11 206.923L59.1616 209.632C57.9342 209.947 56.9975 210.829 56.513 212.089Z" fill="#E1C885"/>
<path d="M77.9279 204.498L77.831 204.529C77.2819 205.474 76.1191 206.325 74.6333 206.766C73.5351 207.081 72.4369 207.144 71.5325 206.923C70.725 206.734 69.8852 206.703 69.0777 206.923L59.1293 209.632C57.9342 209.947 56.9975 210.829 56.513 212.058L55.4471 214.767C55.0918 215.68 55.8993 216.72 56.7714 216.468L81.1902 209.223L80.1566 205.947C79.8336 204.907 78.8323 204.277 77.9279 204.498Z" stroke="#4D4D61" stroke-width="3" stroke-miterlimit="10" stroke-linecap="round" stroke-linejoin="round"/>
<path d="M69.0777 209.758L70.7896 206.797L69.4976 206.828L69.0777 209.758Z" stroke="#4D4D61" stroke-width="3" stroke-miterlimit="10" stroke-linecap="round" stroke-linejoin="round"/>
<path d="M64.265 129.527C78.0248 137.906 87.4887 151.42 90.6541 166.729H95.1115C92.5921 151.105 83.5158 137.182 69.9821 128.299" fill="#F7E3CB"/>
<path d="M91.1063 183.046L94.6916 180.778H76.5713L80.1566 183.046C83.5158 185.157 87.7794 185.157 91.1063 183.046Z" stroke="#4D4D61" stroke-width="3" stroke-miterlimit="10" stroke-linecap="round" stroke-linejoin="round"/>
<path d="M91.1063 183.046L94.6916 180.778H76.5713L80.1566 183.046C83.5158 185.157 87.7794 185.157 91.1063 183.046Z" fill="#4D4D61"/>
<path d="M68.9485 128.771C72.663 127.259 75.3116 123.668 75.3116 119.479V116.077H76.0222C78.477 116.077 80.4796 114.124 80.4796 111.73C80.4796 109.336 78.7677 107.099 76.2806 107.099L75.0855 107.194L75.2793 101.839C75.2793 96.2633 70.6604 91.7588 64.9433 91.7588C59.2262 91.7588 54.6073 96.2633 54.6073 101.839V107.351H51.5388C50.6021 107.351 49.8269 108.107 49.8269 109.021C49.8269 111.478 51.8618 113.494 54.4135 113.494H54.6396V119.479C54.6396 124.802 58.9032 129.181 64.265 129.527" fill="#F7E3CB"/>
<path d="M101.862 174.699H67.0105C66.8813 174.699 66.7844 174.699 66.6552 174.731C63.9743 174.92 61.8748 177.219 62.0686 179.928C62.2301 182.354 64.2973 184.338 66.8167 184.464C67.818 184.496 68.7547 184.275 69.5299 183.834C72.8245 181.976 76.5067 180.842 80.3504 180.842H101.862C103.574 180.842 104.963 179.487 104.963 177.818C104.995 176.085 103.574 174.699 101.862 174.699Z" fill="#CA4361"/>
<path d="M67.4304 181.598C67.2366 178.889 69.3361 176.621 72.017 176.4C72.1139 176.4 72.2431 176.369 72.3723 176.369H104.672C104.155 175.361 103.122 174.699 101.894 174.699H67.0105C66.8813 174.699 66.7844 174.699 66.6552 174.731C63.9743 174.92 61.8748 177.219 62.0686 179.928C62.2301 182.354 64.2973 184.338 66.8167 184.464C67.3981 184.496 67.9472 184.433 68.464 184.275C67.8826 183.488 67.495 182.574 67.4304 181.598Z" fill="#D35375"/>
<path d="M101.862 174.699H67.0105C66.8813 174.699 66.7844 174.699 66.6552 174.731C63.9743 174.92 61.8748 177.219 62.0686 179.928C62.2301 182.354 64.2973 184.338 66.8167 184.464C67.818 184.496 68.7547 184.275 69.5299 183.834C72.8245 181.976 76.5067 180.842 80.3504 180.842H101.862C103.574 180.842 104.963 179.487 104.963 177.818C104.995 176.085 103.574 174.699 101.862 174.699Z" stroke="#4D4D61" stroke-width="3" stroke-miterlimit="10" stroke-linecap="round" stroke-linejoin="round"/>
<path d="M97.8505 215.612L98.7307 213.445L89.1215 209.733L88.2413 211.901L97.8505 215.612Z" fill="#4D4D61"/>
<path d="M73.8904 215.586L73.0183 213.444L81.5132 210.168C82.1269 209.948 82.8052 210.231 83.0636 210.83C83.2897 211.428 82.999 212.09 82.3853 212.342L73.8904 215.586Z" fill="#4D4D61"/>
<path d="M80.3504 112.612L78.8646 120.361C78.2509 123.479 75.3116 125.621 72.0816 125.243H72.0493L75.8607 109.588L80.3504 112.612Z" fill="#A3886C"/>
<path d="M80.3504 112.612L78.8646 120.361C78.2509 123.479 75.3116 125.621 72.0816 125.243H72.0493L75.8607 109.588L80.3504 112.612Z" stroke="#4D4D61" stroke-width="3" stroke-miterlimit="10" stroke-linecap="round" stroke-linejoin="round"/>
<path d="M54.6073 114.03V113.305C54.6073 112.297 53.7029 111.541 52.7016 111.73L51.5065 112.14L54.6073 114.03Z" fill="#EDD6BC"/>
<path d="M75.8607 107.351H75.2793V101.965C72.7922 105.713 68.9162 110.659 68.9162 110.659V117.085V117.431C68.9162 122.377 64.8141 126.377 59.743 126.377H57.3851C59.2585 128.33 61.9394 129.559 64.911 129.559C70.6281 129.559 75.247 125.054 75.247 119.479V116.077H75.9576C78.5093 116.077 80.5442 113.998 80.415 111.509C80.3504 109.147 78.2509 107.351 75.8607 107.351Z" fill="#EDD6BC"/>
<path d="M69.9821 128.299C73.1475 126.566 75.3116 123.29 75.3116 119.479V116.077H76.0222C78.477 116.077 80.4796 114.124 80.4796 111.73C80.4796 109.336 78.7677 107.099 76.2806 107.099L75.0855 107.194L75.2793 101.839C75.2793 96.2633 70.6604 91.7588 64.9433 91.7588C59.2262 91.7588 54.6073 96.2633 54.6073 101.839V107.351H51.5388C50.6021 107.351 49.8269 108.107 49.8269 109.021C49.8269 111.478 51.8618 113.494 54.4135 113.494H54.6396V119.479C54.6396 124.802 58.9032 129.181 64.265 129.527" stroke="#4D4D61" stroke-width="3" stroke-miterlimit="10" stroke-linecap="round" stroke-linejoin="round"/>
<path d="M58.6448 105.777C59.0017 105.777 59.2908 105.494 59.2908 105.147C59.2908 104.799 59.0017 104.517 58.6448 104.517C58.2882 104.517 57.9988 104.799 57.9988 105.147C57.9988 105.494 58.2882 105.777 58.6448 105.777Z" stroke="#4D4D61" stroke-width="2" stroke-miterlimit="10"/>
<path d="M64.7495 111.573V116.676C64.7495 119.921 62.0363 122.567 58.7094 122.567C56.4484 122.567 54.6396 120.771 54.6396 118.598" stroke="#4D4D61" stroke-width="2" stroke-miterlimit="10" stroke-linecap="round" stroke-linejoin="round"/>
<path d="M64.1681 111.289L65.3309 111.888" stroke="#4D4D61" stroke-width="2" stroke-miterlimit="10" stroke-linecap="round" stroke-linejoin="round"/>
<path d="M59.9691 99.2246L58.8063 101.43L63.3606 104.139L63.6513 102.249L59.9691 99.2246Z" fill="#B0977A"/>
<path d="M59.9691 99.2246L59.6138 99.9176C60.8735 100.264 61.8102 101.335 61.8102 102.658C61.8102 102.847 61.7779 103.036 61.7456 103.194L63.3606 104.17L63.6513 102.28L59.9691 99.2246Z" fill="#A3886C"/>
<path d="M59.9691 99.2246L58.8063 101.43L63.3606 104.139L63.6513 102.249L59.9691 99.2246Z" stroke="#4D4D61" stroke-width="2" stroke-miterlimit="10" stroke-linecap="round" stroke-linejoin="round"/>
<path d="M82.1592 96.2953C83.2574 96.9568 83.7419 97.1458 84.8078 97.1458C82.9667 94.6258 82.5145 89.6803 79.769 86.5618C78.5416 85.1443 77.1527 83.6008 74.5041 82.8133C69.9498 81.4903 65.6539 82.9708 65.1048 83.2543C61.7779 84.9868 58.451 88.9558 59.42 92.3578C59.5169 92.7358 59.1939 92.9878 59.42 93.2713C63.0699 90.5623 68.8193 91.3813 71.5325 95.0353C73.6966 97.9333 73.1152 102.658 71.0157 105.367C70.402 105.966 70.1436 107.982 69.2392 109.998L71.6617 108.549C74.1488 107.068 77.8956 107.509 79.9628 109.525C80.3181 110.124 80.5442 110.754 80.6411 111.384C80.8995 111.226 81.2225 111.037 81.6101 110.722C84.0003 108.769 84.4202 105.808 84.5171 105.052C85.2277 100.579 82.676 96.8623 82.1592 96.2953Z" fill="#B0977A"/>
<path d="M84.8401 97.1774C82.999 94.6574 82.5468 89.7119 79.8013 86.5934C78.7354 85.3649 77.5403 84.0104 75.4731 83.1914C77.7341 85.7429 79.123 89.0819 79.123 92.7359C79.123 98.4689 75.7315 103.414 70.7896 105.808C70.3374 106.659 70.0467 108.36 69.2715 110.061L71.694 108.612C74.1811 107.131 77.9279 107.572 79.9951 109.588C80.3504 110.187 80.5765 110.817 80.6734 111.447C80.9318 111.289 81.2548 111.1 81.6424 110.785C84.0326 108.832 84.4525 105.871 84.5494 105.115C85.1954 100.611 82.6114 96.8624 82.1269 96.3269C83.2897 96.9884 83.7742 97.1774 84.8401 97.1774Z" fill="#A3886C"/>
<path d="M82.1592 96.2953C83.2574 96.9568 83.7419 97.1458 84.8078 97.1458C82.9667 94.6258 82.5145 89.6803 79.769 86.5618C78.5416 85.1443 77.1527 83.6008 74.5041 82.8133C69.9498 81.4903 65.6539 82.9708 65.1048 83.2543C61.7779 84.9868 58.451 88.9558 59.42 92.3578C59.5169 92.7358 59.1939 92.9878 59.42 93.2713C63.0699 90.5623 68.8193 91.3813 71.5325 95.0353C73.6966 97.9333 73.1152 102.658 71.0157 105.367C70.402 105.966 70.1436 107.982 69.2392 109.998L72.8891 107.856C75.3116 106.407 78.5093 107.163 79.9628 109.557C80.3181 110.155 80.5442 110.785 80.6411 111.415C80.8995 111.258 81.2225 111.069 81.6101 110.754C84.0003 108.801 84.4202 105.84 84.5171 105.084C85.2277 100.579 82.676 96.8623 82.1592 96.2953Z" stroke="#4D4D61" stroke-width="3" stroke-miterlimit="10" stroke-linecap="round" stroke-linejoin="round"/>
<path d="M73.955 110.218L77.7987 112.895" stroke="#4D4D61" stroke-width="2" stroke-miterlimit="10" stroke-linecap="round" stroke-linejoin="round"/>
<path d="M77.3142 109.588L74.5687 113.336" stroke="#4D4D61" stroke-width="2" stroke-miterlimit="10" stroke-linecap="round" stroke-linejoin="round"/>
<path d="M55.3502 112.297L55.7055 112.612C55.7055 112.612 56.3515 111.951 57.1913 112.297C56.9652 111.856 55.0918 111.636 55.3502 112.297Z" stroke="#4D4D61" stroke-width="2" stroke-miterlimit="10" stroke-linecap="round" stroke-linejoin="round"/>
<path d="M64.265 129.527C78.0248 137.906 87.4887 151.42 90.6541 166.729H95.1115C92.5921 151.105 83.5158 137.182 69.9821 128.299" stroke="#4D4D61" stroke-width="3" stroke-miterlimit="10" stroke-linecap="round" stroke-linejoin="round"/>
<path d="M48.0058 173.673L67.7947 204.741L74.4075 200.735L54.6186 169.667L48.0058 173.673Z" fill="#475C80"/>
<path opacity="0.57" d="M51.9264 180.054L66.1707 202.198C67.0751 201.631 69.8206 202.86 69.2392 201.978L56.2223 182.983C55.6409 182.101 53.1538 179.802 52.2171 180.369L51.9264 180.054Z" fill="#6987AF"/>
<path d="M51.3127 178.856C51.3127 178.856 57.4174 176.998 59.5169 177.376C57.3851 173.375 56.6099 172.588 56.6099 172.588L48.438 175.171L51.3127 178.856Z" fill="#4D4D61"/>
<path d="M48.0058 173.673L67.7947 204.741L74.4075 200.735L54.6186 169.667L48.0058 173.673Z" stroke="#4D4D61" stroke-width="3" stroke-miterlimit="10" stroke-linecap="round" stroke-linejoin="round"/>
<path d="M36.1963 176.147L11.293 196.181L16.2349 202.04L38.9741 183.739C46.2739 177.848 55.4794 174.635 64.9433 174.635H93.1412C95.273 174.635 97.0172 172.934 97.0172 170.855V167.075H62.1332C52.6693 167.044 43.4961 170.257 36.1963 176.147Z" fill="#475C80"/>
<path opacity="0.57" d="M12.8434 194.922L15.0398 197.915L41.0413 175.203L39.717 173.597C38.4896 174.384 37.3268 175.235 36.1963 176.148L12.8434 194.922Z" fill="#6987AF"/>
<path opacity="0.57" d="M56.513 168.997L85.6153 169.375C87.1334 169.375 92.2368 168.493 92.2368 167.013H62.1978C59.097 167.013 49.3424 168.493 45.7571 170.383C44.8204 170.887 52.1525 168.997 56.513 168.997Z" fill="#6987AF"/>
<path d="M36.1963 176.147L11.293 196.181L16.2349 202.04L38.9741 183.739C46.2739 177.848 55.4794 174.635 64.9433 174.635H93.1412C95.273 174.635 97.0172 172.934 97.0172 170.855V167.075H62.1332C52.6693 167.044 43.4961 170.257 36.1963 176.147Z" stroke="#4D4D61" stroke-width="3" stroke-miterlimit="10" stroke-linecap="round" stroke-linejoin="round"/>
<path d="M97.0495 166.729C94.8208 152.554 87.2949 139.608 76.0868 130.441L69.0131 135.229C79.0584 143.23 86.0029 154.381 88.6515 166.729H97.0495Z" fill="#E5E5E5"/>
<path d="M88.6515 166.729H92.2045C89.459 153.688 82.2238 141.875 71.7909 133.339L69.0131 135.229C79.0584 143.198 86.0029 154.381 88.6515 166.729Z" fill="#D9D9D9"/>
<path d="M97.0495 166.729C94.8208 152.554 87.2949 139.608 76.0868 130.441L69.0131 135.229C79.0584 143.23 86.0029 154.381 88.6515 166.729H97.0495Z" stroke="#4D4D61" stroke-width="3" stroke-miterlimit="10" stroke-linecap="round" stroke-linejoin="round"/>
<path d="M45.4341 144.868C45.4341 144.868 42.7532 147.042 42.9793 142.569C43.0762 140.521 45.8217 140.584 45.8217 140.584L46.1124 142.506L45.4341 144.868Z" fill="#B0977A"/>
<path d="M45.4341 144.868C45.4341 144.868 42.7532 147.042 42.9793 142.569C43.0762 140.521 45.8217 140.584 45.8217 140.584L46.1124 142.506L45.4341 144.868Z" stroke="#4D4D61" stroke-width="3" stroke-miterlimit="10" stroke-linecap="round" stroke-linejoin="round"/>
<path d="M53.3476 140.017C52.0556 141.781 50.053 142.915 47.8243 143.135C46.1447 143.293 46.177 139.513 43.5607 143.986C42.5271 144.521 41.2997 143.45 40.7506 142.82C40.5891 142.631 40.5891 142.348 40.7829 142.19C41.2674 141.781 42.1718 140.804 42.5917 139.103C42.8824 137.465 43.4315 136.268 44.7558 136.961C45.9186 137.56 53.1538 136.709 53.3476 140.017Z" fill="#EDD6BC"/>
<path d="M53.3476 140.017C52.0556 141.781 50.053 142.915 47.8243 143.135C46.1447 143.293 46.177 139.513 43.5607 143.986C42.5271 144.521 41.332 143.45 40.7506 142.852C40.5568 142.663 40.5891 142.348 40.7829 142.19C41.2997 141.749 42.1718 140.804 42.5594 139.103C42.8501 137.465 43.3992 136.268 44.7235 136.961C45.9186 137.56 53.1538 136.709 53.3476 140.017Z" stroke="#4D4D61" stroke-width="3" stroke-miterlimit="10" stroke-linecap="round" stroke-linejoin="round"/>
<path d="M54.2843 143.734C54.2843 143.734 53.3476 141.088 50.8282 139.828C50.5698 140.805 49.2778 141.781 48.0181 142.128L48.7287 143.325C49.2778 144.301 48.8256 145.53 47.7597 145.876C46.823 146.191 45.8217 145.75 45.4341 144.868L43.8514 140.175C43.8514 140.175 46.9522 139.072 47.8889 138.127C48.5349 137.497 50.053 135.135 50.053 135.135C50.053 135.135 52.8631 135.796 54.7688 137.655C56.3515 139.198 57.7727 141.813 57.7727 141.813L54.2843 143.734Z" fill="#EDD6BC"/>
<path d="M47.3075 145.75L45.7248 141.057C45.7248 141.057 48.8256 139.954 49.7623 139.009C50.4083 138.379 51.9264 136.017 51.9264 136.017C51.9264 136.017 52.3463 136.111 52.9923 136.363C51.4742 135.481 50.0207 135.135 50.0207 135.135C50.0207 135.135 48.5026 137.497 47.8566 138.127C46.8876 139.041 43.8191 140.175 43.8191 140.175L45.4018 144.868C45.7248 145.656 46.5646 146.097 47.4044 145.939C47.3721 145.876 47.3398 145.813 47.3075 145.75Z" fill="#F7E3CB"/>
<path d="M52.7016 140.71C52.6693 140.836 52.6047 140.962 52.5401 141.088C53.7675 142.348 54.2843 143.734 54.2843 143.734L55.3825 143.135C54.8334 142.316 53.9613 141.34 52.7016 140.71Z" fill="#F7E3CB"/>
<path d="M54.2843 143.734C54.2843 143.734 53.3476 141.088 50.8282 139.828C50.5698 140.805 49.2778 141.781 48.0181 142.128L48.7287 143.325C49.2778 144.301 48.8256 145.53 47.7597 145.876C46.823 146.191 45.8217 145.75 45.4341 144.868L43.8514 140.175C43.8514 140.175 46.9522 139.072 47.8889 138.127C48.5349 137.497 50.053 135.135 50.053 135.135C50.053 135.135 52.8631 135.796 54.7688 137.655C56.3515 139.198 57.7727 141.813 57.7727 141.813L54.2843 143.734Z" stroke="#4D4D61" stroke-width="3" stroke-miterlimit="10" stroke-linecap="round" stroke-linejoin="round"/>
<path d="M45.4341 143.987L46.4031 143.703C46.4031 143.703 46.8876 144.176 46.8876 144.617C46.8876 145.058 45.7571 145.404 45.7571 145.404C45.7571 145.404 45.0142 144.365 45.4341 143.987Z" stroke="#4D4D61" stroke-width="2" stroke-miterlimit="10" stroke-linecap="round" stroke-linejoin="round"/>
<path d="M41.655 141.372L42.4302 142.002C42.4302 142.002 42.301 142.663 41.9134 142.884C41.5581 143.104 40.6214 142.411 40.6214 142.411C40.6214 142.411 41.1059 141.246 41.655 141.372Z" stroke="#4D4D61" stroke-width="2" stroke-miterlimit="10" stroke-linecap="round" stroke-linejoin="round"/>
<path d="M58.3218 141.12L66.5583 156.523C67.7534 158.76 69.7237 160.492 72.1462 161.437C77.6695 163.579 83.9357 160.933 86.1321 155.547C88.3285 150.16 85.6153 144.049 80.092 141.907L76.6036 140.553C75.1178 139.986 74.4072 138.316 74.9886 136.899C75.57 135.481 77.2496 134.788 78.7354 135.355L82.2238 136.71C90.7187 139.986 94.8531 149.373 91.4939 157.626C88.1347 165.91 78.5093 169.942 70.0467 166.666C66.3645 165.249 63.3283 162.571 61.4872 159.138L53.3799 143.986L58.3218 141.12Z" fill="#E5E5E5"/>
<path d="M60.5505 145.278L58.3218 141.12L53.3476 143.987L55.544 148.082L60.5505 145.278Z" fill="#E5E5E5"/>
<path d="M53.3476 143.986L61.4549 159.138C61.7456 159.673 62.0686 160.209 62.4239 160.713C62.2301 159.61 63.3929 161.973 63.3929 161.973L55.1241 142.915L53.3476 143.986Z" fill="#D9D9D9"/>
<path d="M60.5505 145.278L58.3218 141.12L53.3476 143.987L55.544 148.082L60.5505 145.278Z" stroke="#4D4D61" stroke-width="3" stroke-miterlimit="10" stroke-linecap="round" stroke-linejoin="round"/>
<path d="M75.4085 138.694C75.9899 137.277 77.6695 136.584 79.1553 137.151L82.6437 138.505C87.6179 140.427 91.1063 144.459 92.4629 149.152C91.5585 143.734 87.844 138.883 82.2561 136.71L78.7677 135.355C77.2819 134.788 75.6346 135.481 75.0209 136.899C74.6656 137.749 74.7625 138.694 75.247 139.419C75.247 139.167 75.3116 138.946 75.4085 138.694Z" fill="#D9D9D9"/>
<path d="M58.7417 141.908L65.4924 156.933C67.2043 159.957 69.3038 162.32 71.694 163.233C77.2173 165.375 84.291 162.729 86.4874 157.343C87.4241 155.012 87.4564 152.554 86.7458 150.349C86.9719 152.05 86.7781 153.846 86.0675 155.547C83.8711 160.933 77.6049 163.58 72.0816 161.438C69.6914 160.493 67.6888 158.76 66.4937 156.524L58.3218 141.12" fill="#D9D9D9"/>
<path d="M58.3218 141.12L66.5583 156.523C67.7534 158.76 69.7237 160.492 72.1462 161.437C77.6695 163.579 83.9357 160.933 86.1321 155.547C88.3285 150.16 85.6153 144.049 80.092 141.907L76.6036 140.553C75.1178 139.986 74.4072 138.316 74.9886 136.899C75.57 135.481 77.2496 134.788 78.7354 135.355L82.2238 136.71C90.7187 139.986 94.8531 149.373 91.4939 157.626C88.1347 165.91 78.5093 169.942 70.0467 166.666C66.3645 165.249 63.3283 162.571 61.4872 159.138L53.3799 143.986L58.3218 141.12Z" stroke="#4D4D61" stroke-width="3" stroke-miterlimit="10" stroke-linecap="round" stroke-linejoin="round"/>
<path d="M76.216 129.559L71.0157 138.348L65.1371 134.568L73.8258 128.614L76.216 129.559Z" fill="#E5E5E5"/>
<path d="M71.8555 129.969L65.1371 134.568L67.7857 136.269C67.818 136.237 67.8503 136.237 67.8826 136.206C70.8219 134.631 72.5015 131.953 71.8555 129.969Z" fill="#D9D9D9"/>
<path d="M76.216 129.559L71.0157 138.348L65.1371 134.568L73.8258 128.614L76.216 129.559Z" stroke="#4D4D61" stroke-width="3" stroke-miterlimit="10" stroke-linecap="round" stroke-linejoin="round"/>
<path d="M69.0454 221.886C72.5419 221.886 75.3762 219.122 75.3762 215.712C75.3762 212.302 72.5419 209.538 69.0454 209.538C65.5489 209.538 62.7146 212.302 62.7146 215.712C62.7146 219.122 65.5489 221.886 69.0454 221.886Z" fill="#56566D"/>
<path opacity="0.44" d="M65.3955 218.799C65.3955 215.397 68.2379 212.625 71.7263 212.625C72.8891 212.625 73.9873 212.94 74.924 213.476C73.9873 211.176 71.694 209.538 69.0131 209.538C65.5247 209.538 62.6823 212.31 62.6823 215.712C62.6823 217.98 63.942 219.965 65.8154 221.036C65.557 220.343 65.3955 219.587 65.3955 218.799Z" fill="#66667C"/>
<path d="M69.0454 221.886C72.5419 221.886 75.3762 219.122 75.3762 215.712C75.3762 212.302 72.5419 209.538 69.0454 209.538C65.5489 209.538 62.7146 212.302 62.7146 215.712C62.7146 219.122 65.5489 221.886 69.0454 221.886Z" stroke="#4D4D61" stroke-width="3" stroke-miterlimit="10" stroke-linecap="round" stroke-linejoin="round"/>
<path d="M69.0454 218.767C70.7757 218.767 72.1785 217.399 72.1785 215.712C72.1785 214.024 70.7757 212.656 69.0454 212.656C67.3151 212.656 65.9123 214.024 65.9123 215.712C65.9123 217.399 67.3151 218.767 69.0454 218.767Z" stroke="#4D4D61" stroke-width="3" stroke-miterlimit="10" stroke-linecap="round" stroke-linejoin="round"/>
<path d="M69.0454 218.767C70.7757 218.767 72.1785 217.399 72.1785 215.712C72.1785 214.024 70.7757 212.656 69.0454 212.656C67.3151 212.656 65.9123 214.024 65.9123 215.712C65.9123 217.399 67.3151 218.767 69.0454 218.767Z" fill="#4D4D61"/>
<path d="M76.4098 212.656C75.3439 212.656 74.3749 212.215 73.632 211.459C72.4692 210.262 70.8542 209.537 69.0454 209.537C67.2689 209.537 65.6862 210.23 64.5234 211.396C63.7159 212.183 62.6823 212.656 61.5518 212.656H61.5195C62.7469 209.789 65.6539 207.773 69.0454 207.773C72.4369 207.773 75.3439 209.789 76.5713 212.656H76.4098Z" fill="#CA4361"/>
<path d="M67.0751 207.994C64.5557 208.592 62.5208 210.356 61.5195 212.656H61.5518C62.65 212.656 63.6836 212.246 64.4265 211.49C65.0725 210.829 66.3968 210.293 67.4627 209.978C68.3994 209.695 68.464 208.372 67.5273 208.057C67.4304 207.994 67.2366 207.962 67.0751 207.994Z" fill="#D35375"/>
<path d="M76.4098 212.656C75.3439 212.656 74.3749 212.215 73.632 211.459C72.4692 210.262 70.8542 209.537 69.0454 209.537C67.2689 209.537 65.6862 210.23 64.5234 211.396C63.7159 212.183 62.6823 212.656 61.5518 212.656H61.5195C62.7469 209.789 65.6539 207.773 69.0454 207.773C72.4369 207.773 75.3439 209.789 76.5713 212.656H76.4098Z" stroke="#4D4D61" stroke-width="3" stroke-miterlimit="10" stroke-linecap="round" stroke-linejoin="round"/>
<path d="M102.993 221.886C106.489 221.886 109.323 219.122 109.323 215.712C109.323 212.302 106.489 209.538 102.993 209.538C99.4962 209.538 96.6619 212.302 96.6619 215.712C96.6619 219.122 99.4962 221.886 102.993 221.886Z" fill="#56566D"/>
<path opacity="0.44" d="M99.5689 218.799C99.5689 215.397 102.411 212.625 105.9 212.625C107.063 212.625 108.161 212.94 109.097 213.476C108.161 211.176 105.867 209.538 103.187 209.538C99.6981 209.538 96.8557 212.31 96.8557 215.712C96.8557 217.98 98.1154 219.965 99.9888 221.036C99.7304 220.343 99.5689 219.587 99.5689 218.799Z" fill="#66667C"/>
<path d="M102.993 221.886C106.489 221.886 109.323 219.122 109.323 215.712C109.323 212.302 106.489 209.538 102.993 209.538C99.4962 209.538 96.6619 212.302 96.6619 215.712C96.6619 219.122 99.4962 221.886 102.993 221.886Z" stroke="#4D4D61" stroke-width="3" stroke-miterlimit="10" stroke-linecap="round" stroke-linejoin="round"/>
<path d="M102.993 218.767C104.723 218.767 106.126 217.399 106.126 215.712C106.126 214.024 104.723 212.656 102.993 212.656C101.262 212.656 99.8596 214.024 99.8596 215.712C99.8596 217.399 101.262 218.767 102.993 218.767Z" stroke="#4D4D61" stroke-width="3" stroke-miterlimit="10" stroke-linecap="round" stroke-linejoin="round"/>
<path d="M110.357 212.656C109.291 212.656 108.322 212.215 107.579 211.459C106.416 210.262 104.802 209.537 102.993 209.537C101.216 209.537 99.6335 210.23 98.4707 211.396C97.6632 212.183 96.6296 212.656 95.4991 212.656H95.4668C96.6942 209.789 99.6012 207.773 102.993 207.773C106.384 207.773 109.291 209.789 110.519 212.656H110.357Z" fill="#CA4361"/>
<path d="M102.993 218.767C104.723 218.767 106.126 217.399 106.126 215.712C106.126 214.024 104.723 212.656 102.993 212.656C101.262 212.656 99.8596 214.024 99.8596 215.712C99.8596 217.399 101.262 218.767 102.993 218.767Z" fill="#4D4D61"/>
<path d="M110.357 212.656C109.291 212.656 108.322 212.215 107.579 211.459C106.416 210.262 104.802 209.537 102.993 209.537C101.216 209.537 99.6335 210.23 98.4707 211.396C97.6632 212.183 96.6296 212.656 95.4991 212.656H95.4668C96.6942 209.789 99.6012 207.773 102.993 207.773C106.384 207.773 109.291 209.789 110.519 212.656H110.357Z" stroke="#4D4D61" stroke-width="3" stroke-miterlimit="10" stroke-linecap="round" stroke-linejoin="round"/>
<path d="M58.7094 158.949H-36.1234C-36.8986 158.949 -37.5123 158.35 -37.5123 157.594V155.043C-37.5123 154.287 -36.8986 153.688 -36.1234 153.688H58.7094C59.4846 153.688 60.0983 154.287 60.0983 155.043V157.594C60.0983 158.35 59.4846 158.949 58.7094 158.949Z" fill="#B98C78"/>
<path d="M-1.33629 156.586C-15.1284 156.586 -27.5316 157.499 -36.0265 158.948H33.3862C24.859 157.499 12.4558 156.586 -1.33629 156.586Z" fill="#C9A08F"/>
<path d="M58.7094 158.949H-36.1234C-36.8986 158.949 -37.5123 158.35 -37.5123 157.594V155.043C-37.5123 154.287 -36.8986 153.688 -36.1234 153.688H58.7094C59.4846 153.688 60.0983 154.287 60.0983 155.043V157.594C60.0983 158.35 59.4846 158.949 58.7094 158.949Z" stroke="#4D4D61" stroke-width="3" stroke-miterlimit="10" stroke-linecap="round" stroke-linejoin="round"/>
<path d="M48.4703 165.69H-25.9166C-27.8223 165.69 -29.3727 164.178 -29.3727 162.32C-29.3727 160.461 -27.8223 158.949 -25.9166 158.949H48.4703C50.376 158.949 51.9264 160.461 51.9264 162.32C51.9264 164.178 50.376 165.69 48.4703 165.69Z" stroke="#4D4D61" stroke-width="3" stroke-miterlimit="10" stroke-linecap="round" stroke-linejoin="round"/>
<path d="M48.4703 165.69H-25.9166C-27.8223 165.69 -29.3727 164.178 -29.3727 162.32C-29.3727 160.461 -27.8223 158.949 -25.9166 158.949H48.4703C50.376 158.949 51.9264 160.461 51.9264 162.32C51.9264 164.178 50.376 165.69 48.4703 165.69Z" fill="#4D4D61"/>
<path d="M1.60299 164.115C-9.02371 164.115 -18.1323 164.777 -22.1375 165.69H25.3435C21.3383 164.745 12.2297 164.115 1.60299 164.115Z" fill="#575770"/>
<path d="M2.92732 148.554C4.08689 148.554 5.02682 147.637 5.02682 146.506C5.02682 145.376 4.08689 144.459 2.92732 144.459C1.76775 144.459 0.82782 145.376 0.82782 146.506C0.82782 147.637 1.76775 148.554 2.92732 148.554Z" fill="#83ABBA"/>
<path d="M2.92732 148.554C4.08689 148.554 5.02682 147.637 5.02682 146.506C5.02682 145.376 4.08689 144.459 2.92732 144.459C1.76775 144.459 0.82782 145.376 0.82782 146.506C0.82782 147.637 1.76775 148.554 2.92732 148.554Z" stroke="#4D4D61" stroke-width="3" stroke-miterlimit="10" stroke-linecap="round" stroke-linejoin="round"/>
<path d="M2.31362 145.687L2.47512 145.656L-5.43838 102.784L-5.59988 102.816C-7.11798 103.099 -8.15158 104.517 -7.86088 105.997L-0.948682 143.482C-0.690282 144.963 0.76322 145.939 2.31362 145.687Z" fill="#92B4C3"/>
<path d="M2.31362 145.687L2.47512 145.656L-5.43838 102.784L-5.59988 102.816C-7.11798 103.099 -8.15158 104.517 -7.86088 105.997L-0.948682 143.482C-0.690282 144.963 0.763219 145.939 2.31362 145.687Z" stroke="#4D4D61" stroke-width="3" stroke-miterlimit="10" stroke-linecap="round" stroke-linejoin="round"/>
<path d="M40.4276 165.06H36.0348V223.87H40.4276V165.06Z" stroke="#4D4D61" stroke-width="3" stroke-miterlimit="10" stroke-linecap="round" stroke-linejoin="round"/>
<path d="M40.4276 165.06H36.0348V223.87H40.4276V165.06Z" fill="#4D4D61"/>
<path d="M6.99711 151.483H47.3721C49.3424 151.483 50.9574 149.908 50.9574 147.986V146.506H3.4118V147.986C3.4118 149.908 5.02681 151.483 6.99711 151.483Z" fill="#92B4C3"/>
<path d="M47.3721 150.38H6.99711C5.02681 150.38 3.4118 148.805 3.4118 146.884V147.986C3.4118 149.908 5.02681 151.483 6.99711 151.483H47.3721C49.3424 151.483 50.9574 149.908 50.9574 147.986V146.884C50.9574 148.805 49.3424 150.38 47.3721 150.38Z" fill="#83ABBA"/>
<path d="M6.99711 151.483H47.3721C49.3424 151.483 50.9574 149.908 50.9574 147.986V146.506H3.4118V147.986C3.4118 149.908 5.02681 151.483 6.99711 151.483Z" stroke="#4D4D61" stroke-width="3" stroke-miterlimit="10" stroke-linecap="round" stroke-linejoin="round"/>
<path d="M9.38635 153.663H44.981V151.458H9.38635V153.663Z" stroke="#4D4D61" stroke-width="3" stroke-miterlimit="10" stroke-linecap="round" stroke-linejoin="round"/>
<path d="M9.38635 153.663H44.981V151.458H9.38635V153.663Z" fill="#4D4D61"/>
<path d="M27.2485 148.951H30.4462V147.911H27.2485V148.951Z" stroke="#4D4D61" stroke-width="2" stroke-miterlimit="10" stroke-linecap="round" stroke-linejoin="round"/>
<path d="M22.6913 148.951H25.889V147.911H22.6913V148.951Z" stroke="#4D4D61" stroke-width="2" stroke-miterlimit="10" stroke-linecap="round" stroke-linejoin="round"/>
<path d="M7.57853 148.994C7.89959 148.994 8.15992 148.741 8.15992 148.427C8.15992 148.114 7.89959 147.86 7.57853 147.86C7.25747 147.86 6.99713 148.114 6.99713 148.427C6.99713 148.741 7.25747 148.994 7.57853 148.994Z" stroke="#4D4D61" stroke-width="2" stroke-miterlimit="10" stroke-linecap="round" stroke-linejoin="round"/>
<path d="M121.436 130.346C121.92 126.724 119.272 123.417 115.525 123.07C111.94 122.724 108.774 125.306 108.29 128.803L103.865 160.901C103.671 162.35 104.705 163.674 106.19 163.863L110.099 164.366C111.584 164.555 112.941 163.547 113.135 162.098L113.781 157.374C114.976 148.711 117.172 140.143 120.919 132.205C121.145 131.638 121.339 131.008 121.436 130.346Z" fill="#CA4361"/>
<path d="M112.457 157.374L111.811 162.099C111.649 163.201 110.809 164.083 109.743 164.304L110.099 164.335C111.585 164.524 112.941 163.516 113.135 162.067L113.781 157.342C114.976 148.68 117.172 140.112 120.919 132.174C121.178 131.607 121.371 130.977 121.468 130.347C121.953 126.724 119.304 123.417 115.557 123.071C115.138 123.039 114.685 123.039 114.298 123.071C118.045 123.449 120.693 126.756 120.209 130.347C120.112 131.008 119.918 131.607 119.66 132.174" fill="#D35375"/>
<path d="M108.29 128.803L104.866 153.688C107.838 145.404 110.712 136.489 110.712 129.559C110.712 124.866 116.559 123.291 118.174 124.866C117.108 122.944 113.716 122.755 111.875 123.795C109.873 124.897 108.484 127.26 108.29 128.803Z" fill="#D35375"/>
<path d="M121.436 130.346C121.92 126.724 119.272 123.417 115.525 123.07C111.94 122.724 108.774 125.306 108.29 128.803L103.865 160.901C103.671 162.35 104.705 163.674 106.19 163.863L110.099 164.366C111.584 164.555 112.941 163.547 113.135 162.098L113.781 157.374C114.976 148.711 117.172 140.143 120.919 132.205C121.145 131.638 121.339 131.008 121.436 130.346Z" stroke="#4D4D61" stroke-width="3" stroke-miterlimit="10" stroke-linecap="round" stroke-linejoin="round"/>
<path d="M10.647 211.838L-11.5108 197.914C-11.9307 197.662 -12.0276 197.127 -11.7692 196.749L-11.7369 196.686C-11.4785 196.277 -10.9294 196.182 -10.5418 196.434L11.616 210.357C12.0359 210.609 12.1328 211.145 11.8744 211.523L11.8421 211.586C11.616 211.964 11.0669 212.09 10.647 211.838Z" fill="#595D5C"/>
<path d="M10.647 211.838L-11.5108 197.914C-11.9307 197.662 -12.0276 197.127 -11.7692 196.749L-11.7369 196.686C-11.4785 196.277 -10.9294 196.182 -10.5418 196.434L11.616 210.357C12.0359 210.609 12.1328 211.145 11.8744 211.523L11.8421 211.586C11.616 211.964 11.0669 212.09 10.647 211.838Z" stroke="#4D4D61" stroke-width="3" stroke-miterlimit="10" stroke-linecap="round" stroke-linejoin="round"/>
<path d="M13.0049 204.749L12.908 204.686C11.8098 204.875 10.3886 204.56 9.09662 203.741C8.12762 203.143 7.38472 202.324 6.96482 201.536C6.57722 200.812 6.06042 200.15 5.38212 199.709L-3.17738 194.071C-4.17868 193.409 -5.50299 193.283 -6.76269 193.693L-9.54049 194.638C-10.4772 194.953 -10.7679 196.244 -10.025 196.717L11.4222 210.199L13.3279 207.301C13.9093 206.387 13.7801 205.253 13.0049 204.749Z" fill="#9B8462"/>
<path opacity="0.74" d="M-6.76271 193.693L-7.2149 193.85C-7.1826 194.89 -6.63351 195.898 -5.66451 196.528L7.73999 204.938C8.99969 205.726 10.6147 205.6 11.7129 204.718C10.8731 204.623 9.96869 204.308 9.09659 203.773C8.12759 203.174 7.38469 202.355 6.96479 201.568C6.57719 200.843 6.06039 200.182 5.38209 199.741L-3.1774 194.102C-4.1787 193.378 -5.50301 193.252 -6.76271 193.693Z" fill="#E1C885"/>
<path d="M13.0049 204.749L12.908 204.686C11.8098 204.875 10.3886 204.56 9.09662 203.741C8.12762 203.143 7.38472 202.324 6.96482 201.536C6.57722 200.812 6.06042 200.15 5.38212 199.709L-3.17738 194.071C-4.17868 193.409 -5.50299 193.283 -6.76269 193.693L-9.54049 194.638C-10.4772 194.953 -10.7679 196.244 -10.025 196.717L11.4222 210.199L13.3279 207.301C13.9093 206.387 13.7801 205.253 13.0049 204.749Z" stroke="#4D4D61" stroke-width="3" stroke-miterlimit="10" stroke-linecap="round" stroke-linejoin="round"/>
<path d="M3.18567 201.537L6.57717 200.907L5.70507 199.962L3.18567 201.537Z" stroke="#4D4D61" stroke-width="3" stroke-miterlimit="10" stroke-linecap="round" stroke-linejoin="round"/>
<path d="M12.4881 192.748L9.80719 195.331L16.3641 203.364L19.5941 200.749L12.4881 192.748Z" fill="#92B4C3"/>
<path d="M12.2943 192.938L9.80719 195.331L13.3602 199.679C13.9416 198.86 14.2969 197.883 14.2969 196.844C14.2969 195.269 13.5217 193.851 12.2943 192.938Z" fill="#9EC0CC"/>
<path d="M12.4881 192.748L9.80719 195.331L16.3641 203.364L19.5941 200.749L12.4881 192.748Z" stroke="#4D4D61" stroke-width="3" stroke-miterlimit="10" stroke-linecap="round" stroke-linejoin="round"/>
<path d="M65.3955 203.017L67.4304 206.136L76.862 201.537L74.924 197.914L65.3955 203.017Z" fill="#92B4C3"/>
<path d="M65.3955 203.017L67.4304 206.136L76.862 201.537L74.924 197.914L65.3955 203.017Z" fill="#92B4C3"/>
<path d="M69.0454 203.395C69.0454 202.702 68.6578 202.104 68.0118 201.6L65.3955 203.017L67.172 205.726C68.3025 205.191 69.0454 204.34 69.0454 203.395Z" fill="#9EC0CC"/>
<path d="M65.3955 203.017L67.4304 206.136L76.862 201.537L74.924 197.914L65.3955 203.017Z" stroke="#4D4D61" stroke-width="3" stroke-miterlimit="10" stroke-linecap="round" stroke-linejoin="round"/>
<path d="M39.071 127.953C39.2138 127.953 39.3294 127.769 39.3294 127.543C39.3294 127.317 39.2138 127.134 39.071 127.134C38.9283 127.134 38.8126 127.317 38.8126 127.543C38.8126 127.769 38.9283 127.953 39.071 127.953Z" stroke="#4D4D61" stroke-width="2" stroke-miterlimit="10" stroke-linecap="round" stroke-linejoin="round"/>
<path d="M12.4881 149.972H10.8731C10.4532 149.972 10.0979 149.625 10.0979 149.216V148.271C10.0979 147.861 10.4532 147.515 10.8731 147.515H12.4881C12.908 147.515 13.2633 147.861 13.2633 148.271V149.216C13.2633 149.625 12.908 149.972 12.4881 149.972Z" fill="#4D4D61"/>
</g>
</svg>
