<svg width="802" height="888" viewBox="0 0 802 888" fill="none" xmlns="http://www.w3.org/2000/svg">
<path d="M129.79 376.671C129.79 376.671 82.7964 235.231 246.711 252.493C410.625 269.756 332.309 207.152 394.248 168.302C456.187 129.452 638.688 250.318 562.335 366.894C485.983 483.471 684.355 376.831 725.735 552.14C751.27 660.325 687.916 739.952 635.65 785.089" stroke="#CCDDE2" stroke-width="5.47" stroke-miterlimit="10"/>
<path d="M651.635 649.929C639.317 577.37 595.701 512.44 524.84 489.201C506.713 483.29 488.177 478.763 469.387 475.659V475.757C468.408 481.78 466.087 487.497 462.604 492.469C455.218 502.761 445.039 511.214 433.254 515.619C421.224 520.148 406.321 520.734 395.156 513.612C388.434 509.332 381.912 501.793 380.734 493.659C379.389 484.495 383.981 475.819 390.442 469.763C335.687 470.216 284.18 479.38 242.905 489.814C244.335 495.906 246.316 501.851 248.824 507.574C252.332 515.551 257.29 522.782 263.438 528.886C271.105 521.159 277.818 512.512 283.429 503.134C288.796 504.92 293.53 508.273 297.039 512.775C300.548 517.276 302.68 522.727 303.168 528.451V528.744C305.333 549.532 285.655 565.152 269.121 574.76C250.02 585.931 228.727 594.296 207.81 601.249C199.185 604.126 187.975 606.577 178.87 603.575C177.89 603.258 176.933 602.869 176.007 602.412C166.927 597.883 160.851 588.391 156.111 579.715C142.606 555.073 133.823 528.211 127.869 500.638C86.5503 506.011 81.8187 477.55 79.3655 470.571L44.0178 571.083C42.1635 578.308 41.9636 585.87 43.4311 593.186C44.8995 600.502 47.9978 607.379 52.4876 613.287C56.9766 619.194 62.7384 623.976 69.3286 627.265C75.9198 630.555 83.1639 632.262 90.505 632.258H236.837L303.307 805.684L322.147 854.906H429.753C421.023 854.906 416.247 852.739 412.782 849.205C409.202 845.562 407.188 840.626 407.177 835.477C407.177 824.821 415.776 816.083 429.753 816.083H430.739C429.683 816.083 428.67 815.985 427.614 815.887C428.269 815.815 428.918 815.705 429.561 815.559C428.868 815.542 428.178 815.489 427.492 815.399C433.796 814.641 439.638 811.655 443.996 806.96C448.354 802.266 450.951 796.163 451.333 789.718C451.351 789.383 451.351 789.048 451.333 788.715V788.199C451.183 781.592 448.7 775.26 444.339 770.36C439.977 765.46 434.028 762.321 427.579 761.515C428.312 761.453 429.011 761.391 429.718 761.391C429.081 761.231 428.373 761.133 427.71 761.036C428.758 760.938 429.814 760.867 430.827 760.867L509.554 761.293L524.037 761.355H541.226C542.021 761.355 542.824 761.355 543.583 761.453L569.119 761.586L586.177 761.684C593.307 761.744 600.121 764.675 605.132 769.834C610.143 774.992 612.942 781.96 612.917 789.212C612.908 793.313 611.973 797.356 610.185 801.031C617.504 800.078 624.29 796.635 629.443 791.263C641.726 778.503 647.016 759.402 650.674 742.423C657.143 712.178 656.759 680.307 651.635 649.929ZM452.73 651.971C437.898 675.193 412.642 673.106 412.642 673.106C412.642 673.106 410.547 675.184 405.658 666.339C400.769 657.495 386.845 651.447 386.845 651.447C385.736 660.327 383.44 673.825 360.655 656.331C337.87 638.838 344.74 613.334 346.687 599.864C348.634 586.393 356.395 581.926 356.395 581.926L365.561 577.006C365.561 577.006 339.048 570.071 337.774 569.814C336.499 569.556 312.884 549.443 336.848 544.133C360.812 538.822 398.168 559.939 405.387 564.113C412.607 568.286 454.799 604.588 454.799 604.588C454.799 604.588 467.641 628.786 452.73 651.971Z" fill="#353642"/>
<path d="M127.834 500.655C127.834 500.655 147.817 498.186 155.299 483.676L148.778 520.892C148.778 520.892 228.273 493.364 242.852 489.812C242.852 489.812 247.549 520.617 266.249 528.884L285.542 503.932C285.542 503.932 309.733 510.148 303.115 543.678C296.498 577.209 204.973 605.235 189.451 604.586C173.929 603.938 157.22 594.223 140.109 542.018L127.834 500.655Z" fill="#353642"/>
<path d="M160.389 417.752C165.452 426.135 170.542 434.5 175.797 442.758C179.036 447.846 184.937 455.101 178.661 460.42C176.618 462.013 174.151 462.942 171.581 463.084C167.547 463.448 163.313 462.463 160.86 458.937L148.638 438.336C146.202 434.227 142.334 431.202 137.805 429.862C133.275 428.523 128.416 428.968 124.194 431.107" stroke="black" stroke-width="5.47" stroke-miterlimit="10"/>
<path d="M206.614 444.886C209.809 452.612 207.644 457.594 203.908 460.098C197.797 464.174 189.617 462.22 185.287 456.27L160.432 417.793" stroke="black" stroke-width="5.47" stroke-miterlimit="10"/>
<path d="M181.428 406.563C190.472 417.752 201.882 438.531 208.194 447.207C214.506 455.882 224.266 450.652 224.266 450.652C232.193 446.31 230.848 439.108 227.383 430.361C218.845 408.889 206.658 394.61 193.065 385.251C150.943 356.267 107.729 377.65 94.87 427.68L44.0178 571.083C42.1635 578.308 41.9636 585.87 43.4311 593.186C44.8995 600.502 47.9978 607.379 52.4876 613.287C56.9766 619.195 62.7384 623.976 69.3286 627.266C75.9198 630.554 83.1639 632.261 90.505 632.257H236.837L322.173 854.914" stroke="black" stroke-width="5.47" stroke-miterlimit="10"/>
<path d="M233.677 420.513C244.153 416.819 243.673 399.822 228.806 394.086C212.385 387.745 183.226 378.777 175.902 376.539C175.856 376.503 175.801 376.482 175.745 376.477C175.23 376.317 174.872 376.184 174.592 376.121L174.182 375.988" stroke="black" stroke-width="5.47" stroke-miterlimit="10"/>
<path d="M388.46 590.448C379.293 579.242 354.203 572.893 337.826 569.82C335.073 569.294 332.563 567.873 330.673 565.77C328.784 563.667 327.618 560.997 327.35 558.161C327.16 556.248 327.377 554.316 327.987 552.495C328.963 549.701 330.834 547.321 333.299 545.737C335.763 544.152 338.68 543.455 341.58 543.757C369.516 546.634 398.325 555.577 419.635 574.837C419.635 574.837 522.937 655.024 535.272 662.829C540.362 665.973 545.111 662.261 541.663 657.324L540.58 655.441C534.508 644.842 527.322 634.945 519.148 625.924" stroke="black" stroke-width="5.47" stroke-miterlimit="10"/>
<path d="M390.372 469.752C260.452 470.853 148.778 520.883 148.778 520.883L159.926 457.32" stroke="black" stroke-width="5.47" stroke-miterlimit="10"/>
<path d="M592.157 815.689C592.157 815.689 578.006 812.43 574.243 823.957C570.48 835.483 566.552 853.82 593.606 854.903C620.66 855.987 604.772 850.579 603.209 841.672C601.646 832.766 592.157 815.689 592.157 815.689Z" fill="#353642"/>
<path d="M375.976 605.075C375.976 605.075 360.707 593.301 346.958 605.235C346.379 605.754 345.873 606.351 345.456 607.011" stroke="black" stroke-width="5.47" stroke-miterlimit="10"/>
<g opacity="0.77">
<path opacity="0.77" d="M185.234 456.229C189.599 462.188 197.771 464.132 203.855 460.047C207.548 457.561 209.713 452.606 206.597 444.951C207.164 445.795 207.679 446.541 208.185 447.225C214.488 455.936 224.257 450.688 224.257 450.688C232.184 446.346 230.849 439.144 227.383 430.388C223.991 421.716 219.541 413.512 214.139 405.968C217.675 402.603 221.874 399.202 226.3 400.694C231.075 402.31 232.411 408.401 232.952 413.481C233.206 415.843 233.459 418.178 233.712 420.54L237.536 455.314C238.81 466.858 240.085 478.571 242.852 489.84C244.283 495.932 246.264 501.878 248.771 507.6C252.28 515.577 257.238 522.808 263.385 528.912C271.053 521.185 277.766 512.538 283.377 503.16C288.744 504.946 293.478 508.3 296.987 512.801C300.496 517.302 302.627 522.753 303.115 528.477V528.77C305.281 549.558 285.603 565.178 269.068 574.786C249.967 585.957 228.675 594.322 207.758 601.275C199.132 604.152 187.923 606.603 178.818 603.602C177.837 603.284 176.881 602.895 175.954 602.438C166.875 597.909 160.799 588.417 156.059 579.741C133.361 538.227 123.932 490.559 118.965 443.353C128.9 441.959 138.799 440.405 148.577 438.265C148.577 438.265 148.577 438.336 148.638 438.362L159.909 457.375L160.834 458.955C163.278 462.507 167.512 463.457 171.554 463.102C174.124 462.973 176.593 462.043 178.626 460.438C184.894 455.11 179.01 447.882 175.762 442.794" fill="white"/>
<path opacity="0.77" d="M185.234 456.229C189.599 462.188 197.771 464.132 203.855 460.047C207.548 457.561 209.713 452.606 206.597 444.951C207.164 445.795 207.679 446.541 208.185 447.225C214.488 455.936 224.257 450.688 224.257 450.688C232.184 446.346 230.849 439.144 227.383 430.388C223.991 421.716 219.541 413.512 214.139 405.968C217.675 402.603 221.874 399.202 226.3 400.694C231.075 402.31 232.411 408.401 232.952 413.481C233.206 415.843 233.459 418.178 233.712 420.54L237.536 455.314C238.81 466.858 240.085 478.571 242.852 489.84C244.283 495.932 246.264 501.878 248.771 507.6C252.28 515.577 257.238 522.808 263.385 528.912C271.053 521.185 277.766 512.538 283.377 503.16C288.744 504.946 293.478 508.3 296.987 512.801C300.496 517.302 302.627 522.753 303.115 528.477V528.77C305.281 549.558 285.603 565.178 269.068 574.786C249.967 585.957 228.675 594.322 207.758 601.275C199.132 604.152 187.923 606.603 178.818 603.602C177.837 603.284 176.881 602.895 175.954 602.438C166.875 597.909 160.799 588.417 156.059 579.741C133.361 538.227 123.932 490.559 118.965 443.353C128.9 441.959 138.799 440.405 148.577 438.265C148.577 438.265 148.577 438.336 148.638 438.362L159.909 457.375L160.834 458.955C163.278 462.507 167.512 463.457 171.554 463.102C174.124 462.973 176.593 462.043 178.626 460.438C184.894 455.11 179.01 447.882 175.762 442.794" fill="#EFC375"/>
<path opacity="0.77" d="M187.914 459.044C191.782 464.372 198.39 463.697 203.855 460.047C207.155 457.827 209.862 458.476 207.077 451.629C207.592 452.375 207.662 449.853 208.116 450.413C213.746 458.191 208.185 447.198 208.185 447.198C216.042 457.295 233.144 447.784 230.01 439.979C226.693 431.569 223.201 419.137 218.775 412.921C222.267 409.565 221.595 410.062 226.038 412.735C227.232 413.514 228.231 414.567 228.957 415.807C229.683 417.048 230.115 418.443 230.22 419.883C230.578 423.266 230.936 426.508 231.294 429.811L234.698 460.891C235.842 471.218 236.977 481.652 239.448 491.705C240.725 497.14 242.496 502.443 244.738 507.547C247.863 514.571 257.903 526.266 263.385 531.62C270.203 524.738 278.375 512.084 283.377 503.675C292.98 506.676 292.561 516.018 293.242 526.221V526.488C295.18 545.038 277.615 558.971 262.896 567.558C245.838 577.53 226.833 584.989 208.159 591.205C200.459 593.78 190.455 596 182.327 593.283C181.451 593.001 180.595 592.653 179.769 592.244C171.668 588.195 166.238 579.732 162.004 571.98C143.47 538.12 134.871 499.679 130.139 461.14C129.792 458.255 130.559 455.348 132.279 453.029C133.999 450.709 136.537 449.16 139.358 448.708C144.675 447.82 149.974 446.932 155.238 445.742L155.386 445.813L165.443 462.782C167.635 465.935 167.993 463.466 171.598 463.146C173.877 462.942 178.294 462.489 180.057 460.989C185.653 456.247 182.493 454.284 179.595 449.747" fill="#EFC375"/>
</g>
<path d="M374.134 622.215C374.134 622.215 345.142 612.518 344.705 628.821" stroke="black" stroke-width="5.47" stroke-miterlimit="10"/>
<path opacity="0.54" d="M114.617 788.294L57.7588 640.122C57.0543 637.255 57.0019 634.262 57.6042 631.371C58.2075 628.48 59.4506 625.767 61.2385 623.437C63.0273 621.108 65.3137 619.224 67.9257 617.928C70.5369 616.633 73.4047 615.959 76.31 615.959H302.155C307.226 615.959 312.15 617.695 316.134 620.888C320.116 624.08 322.926 628.544 324.111 633.56L386.356 781.696C387.029 784.553 387.056 787.529 386.436 790.399C385.816 793.269 384.565 795.959 382.776 798.266C380.987 800.574 378.708 802.439 376.109 803.722C373.51 805.004 370.659 805.671 367.77 805.672H136.521C131.487 805.675 126.597 803.966 122.629 800.817C118.66 797.668 115.84 793.26 114.617 788.294Z" fill="white"/>
<path d="M383.571 647.208C383.571 647.208 388.277 651.595 386.487 657.864C385.16 662.508 380.62 665.439 376.124 663.849C361.807 658.814 348.913 650.263 345.77 635.726C344.285 628.367 343.964 620.812 344.819 613.349C345.508 606.431 346.512 598.963 348.8 592.383C352.292 582.278 362.986 575.236 373.366 580.102" stroke="black" stroke-width="5.47" stroke-miterlimit="10"/>
<path d="M114.617 788.294L57.7588 640.122C57.0543 637.255 57.0019 634.262 57.6042 631.371C58.2075 628.48 59.4506 625.767 61.2385 623.437C63.0273 621.108 65.3137 619.224 67.9257 617.928C70.5369 616.633 73.4047 615.959 76.31 615.959H302.155C307.226 615.959 312.15 617.695 316.134 620.888C320.116 624.08 322.926 628.544 324.111 633.56L386.356 781.696C387.029 784.553 387.056 787.529 386.436 790.399C385.816 793.269 384.565 795.959 382.776 798.266C380.987 800.574 378.708 802.439 376.109 803.722C373.51 805.004 370.659 805.671 367.77 805.672H136.521C131.487 805.675 126.597 803.966 122.629 800.817C118.66 797.668 115.84 793.26 114.617 788.294Z" fill="#EFC375"/>
<path d="M114.617 788.294L57.7588 640.122C57.0543 637.255 57.0019 634.262 57.6042 631.371C58.2075 628.48 59.4506 625.767 61.2385 623.437C63.0273 621.108 65.3137 619.224 67.9257 617.928C70.5369 616.633 73.4047 615.959 76.31 615.959H302.155C307.226 615.959 312.15 617.695 316.134 620.888C320.116 624.08 322.926 628.544 324.111 633.56L386.356 781.696C387.029 784.553 387.056 787.529 386.436 790.399C385.816 793.269 384.565 795.959 382.776 798.266C380.987 800.574 378.708 802.439 376.109 803.722C373.51 805.004 370.659 805.671 367.77 805.672H136.521C131.487 805.675 126.597 803.966 122.629 800.817C118.66 797.668 115.84 793.26 114.617 788.294Z" stroke="black" stroke-width="5.47" stroke-linecap="square" stroke-linejoin="round"/>
<path d="M122.937 782.326L70.4784 645.574C69.8298 642.929 69.7826 640.168 70.3396 637.502C70.8966 634.835 72.0437 632.332 73.6946 630.184C75.3445 628.036 77.4546 626.298 79.8632 625.102C82.2726 623.907 84.9178 623.286 87.5979 623.286H295.948C300.626 623.284 305.168 624.885 308.842 627.83C312.517 630.774 315.11 634.892 316.202 639.518L373.636 776.19C374.256 778.828 374.281 781.573 373.708 784.221C373.135 786.869 371.979 789.351 370.329 791.479C368.679 793.608 366.575 795.329 364.177 796.511C361.778 797.695 359.147 798.31 356.482 798.31H143.138C138.502 798.315 133.997 796.744 130.338 793.849C126.679 790.953 124.075 786.899 122.937 782.326Z" fill="#EFC375"/>
<path d="M568.839 760.874L608.788 854.904" stroke="black" stroke-width="5.47" stroke-miterlimit="10"/>
<path d="M758.35 854.904H-27.35" stroke="black" stroke-width="5.47" stroke-miterlimit="10"/>
<path d="M386.775 430.511C380.297 437.02 370.625 437.011 365.116 430.99" stroke="black" stroke-width="5.47" stroke-miterlimit="10"/>
<path d="M214.139 405.939C217.675 402.574 221.874 399.173 226.3 400.665C231.075 402.281 232.411 408.373 232.952 413.452C234.483 427.411 236.011 441.356 237.536 455.286C239.474 473.046 241.517 491.232 248.771 507.553C252.28 515.53 257.238 522.761 263.385 528.865" stroke="black" stroke-width="5.47" stroke-miterlimit="10"/>
<path d="M303.115 528.759V528.466C302.627 522.743 300.496 517.291 296.987 512.79C293.478 508.29 288.744 504.936 283.377 503.149C277.766 512.527 271.053 521.175 263.385 528.901C243.283 549.233 217.458 562.699 189.495 567.431C190.839 572.875 193.606 577.83 195.518 583.069C197.43 588.308 198.382 594.373 196.059 599.426C193.126 605.873 184.71 605.029 178.861 603.599C178.8 603.599 178.765 603.599 178.704 603.599" stroke="black" stroke-width="5.47" stroke-miterlimit="10"/>
<path d="M148.594 438.256C138.817 440.396 128.917 441.95 118.982 443.344C123.95 490.55 133.343 538.218 156.076 579.732C160.816 588.408 166.893 597.901 175.972 602.429C176.898 602.887 177.855 603.276 178.835 603.593C187.941 606.638 199.15 604.143 207.775 601.266C228.727 594.304 249.985 585.948 269.086 574.777C285.577 565.16 305.254 549.549 303.133 528.761C302.928 526.472 302.468 524.213 301.762 522.03" stroke="black" stroke-width="5.47" stroke-miterlimit="10"/>
<path d="M312.09 344.089C313.555 350.304 316.899 355.893 321.653 360.07C326.406 364.248 332.329 366.802 338.585 367.373C339.105 364.81 340.232 362.413 341.868 360.394C348.852 352.02 351.829 367.729 374.169 356.451C405.125 340.787 416.876 349.774 416.876 349.774C417.906 350.555 417.749 357.765 417.924 359.079C418.797 366.565 419.582 374.015 420.447 381.492C420.97 386.056 421.485 390.586 421.974 395.115C422.396 394.344 422.862 393.599 423.371 392.885C426.191 382.735 431.228 370.748 442.088 375.907C444.287 376.998 446.202 378.601 447.675 380.586C454.878 390.212 449.421 399.51 441.887 406.392C439.999 408.527 437.888 410.447 435.593 412.12C436.833 414.731 441.896 425.094 441.896 425.129C442.42 426.177 460.116 405.805 461.434 403.585C463.403 398.147 464.46 392.411 464.559 386.617C464.847 362.792 455.314 335.059 436.344 321.392C431.639 318.009 433.14 314.75 432.852 310.15C432.832 309.901 432.738 309.665 432.583 309.472C432.429 309.278 432.219 309.137 431.984 309.067C431.748 308.997 431.498 309.001 431.265 309.078C431.032 309.156 430.827 309.304 430.678 309.503C424.733 316.465 410.014 315.772 410.014 315.772C358.926 302.754 341.754 325.86 331.444 329.98C327.237 331.601 322.607 331.679 318.349 330.202C318.099 331.635 317.468 332.972 316.525 334.068C315.581 335.163 314.362 335.976 312.998 336.418L313.26 338.824C313.482 340.664 313.069 342.526 312.09 344.089Z" fill="#EFC375"/>
<path d="M338.62 367.412C332.364 366.84 326.441 364.286 321.688 360.109C316.934 355.932 313.589 350.342 312.125 344.129C311.551 341.745 311.189 339.314 311.042 336.865L311.444 336.82C311.993 336.779 312.533 336.659 313.05 336.465C314.415 336.023 315.633 335.21 316.577 334.115C317.52 333.02 318.151 331.682 318.402 330.249C318.561 329.454 318.594 328.638 318.498 327.834L317.188 316.077C317.188 316.077 326.425 323.065 336.674 318.98C346.923 314.896 364.129 291.79 415.244 304.772C415.244 304.772 426.785 305.465 432.704 298.503C432.853 298.304 433.057 298.157 433.29 298.08C433.523 298.001 433.774 297.998 434.01 298.068C434.244 298.138 434.454 298.279 434.608 298.472C434.764 298.666 434.857 298.903 434.877 299.151C435.183 303.76 436.859 307.019 441.573 310.393C460.544 324.069 470.077 351.792 469.78 375.617C469.693 385.501 466.462 395.26 461.478 403.633C460.159 405.853 442.464 426.224 441.94 425.176C441.94 425.176 436.877 414.778 435.637 412.167L435.34 411.59L435.907 411.208C438.015 409.753 440.027 408.16 441.931 406.44C449.456 399.558 454.921 390.26 447.719 380.634C446.245 378.649 444.331 377.045 442.132 375.955C431.237 370.795 426.235 382.783 423.415 392.933C422.867 394.872 422.53 396.868 422.411 398.883C422.28 397.639 422.149 396.441 422.018 395.197C421.529 390.669 421.014 386.14 420.49 381.576C419.617 374.099 418.797 366.648 417.967 359.162C417.836 357.884 417.967 350.638 416.92 349.856C416.92 349.856 405.16 340.87 374.213 356.534C351.872 367.812 348.896 352.094 341.912 360.477C340.276 362.497 339.149 364.893 338.629 367.456C338.469 368.28 338.367 369.113 338.324 369.952C338.307 370.06 338.307 370.171 338.324 370.28C338.219 372.118 338.184 373.948 338.14 375.741C337.974 393.049 339.843 411.128 346.521 427.201C354.64 446.684 376.124 465.9 398.465 456.816C405.449 453.965 411.708 449.374 417.435 444.499" stroke="black" stroke-width="5.47" stroke-miterlimit="10"/>
<path d="M353.908 409.622C356.13 408.865 357.202 406.035 356.303 403.301C355.404 400.566 352.873 398.962 350.65 399.719C348.428 400.475 347.356 403.305 348.256 406.04C349.156 408.775 351.687 410.379 353.908 409.622Z" fill="black"/>
<path d="M387.149 408.539C389.37 407.784 390.443 404.954 389.543 402.219C388.643 399.484 386.113 397.88 383.891 398.637C381.669 399.393 380.597 402.223 381.496 404.957C382.395 407.692 384.926 409.296 387.149 408.539Z" fill="black"/>
<path d="M374.44 414.396C374.44 414.396 363.379 420.781 362.706 414.156C362.497 412.114 359.791 392.107 359.791 392.107C359.791 392.107 350.851 382.472 337.154 389.594" stroke="black" stroke-width="5.47" stroke-miterlimit="10"/>
<path d="M371.952 386.501C371.952 386.501 389.813 377.426 401.634 390.506" stroke="black" stroke-width="5.47" stroke-miterlimit="10"/>
<path d="M388.329 459.044L390.381 469.753C383.912 475.818 379.337 484.512 380.673 493.667C381.86 501.783 388.39 509.34 395.086 513.594C406.278 520.698 421.163 520.138 433.21 515.618C444.987 511.178 455.175 502.751 462.56 492.468C466.038 487.497 468.355 481.785 469.335 475.765V475.658" stroke="black" stroke-width="5.47" stroke-miterlimit="10"/>
<path d="M390.381 469.752L394.379 489.093" stroke="black" stroke-width="5.47" stroke-miterlimit="10"/>
<path d="M446.925 420.514L452.966 461.317C453.561 465.311 455.547 468.956 458.56 471.587C461.574 474.219 465.415 475.664 469.387 475.658C488.189 478.758 506.736 483.281 524.875 489.192C595.736 512.439 639.351 577.37 651.669 649.92C656.794 680.298 657.178 712.159 650.744 742.369C647.086 759.374 641.796 778.475 629.513 791.209C613.563 807.815 589.084 800.977 570.236 793.474C511.719 770.324 463.049 729.138 421.023 681.985C398.552 656.766 369.516 636.555 369.516 636.555" stroke="black" stroke-width="5.47" stroke-miterlimit="10"/>
<path d="M142.274 751.721C135.709 751.658 129.991 746.268 128.515 738.765C125.6 724.006 124.831 701.184 146.106 696.203C172.689 689.987 193.135 719.433 203.157 738.045C206.527 744.261 202.712 752.253 196.435 752.253L142.274 751.721Z" fill="#D7E8F0"/>
<path d="M151.05 683.672C156.693 679.851 156.781 669.893 151.243 661.43C145.707 652.966 136.643 649.2 130.999 653.021C125.355 656.841 125.269 666.799 130.805 675.262C136.343 683.727 145.406 687.492 151.05 683.672Z" fill="#D7E8F0"/>
<path d="M587.914 816.177C587.504 816.239 587.041 816.301 586.64 816.399H586.483L524.386 816.07L431.211 815.582C430.853 815.582 430.504 815.582 430.154 815.582C429.462 815.565 428.772 815.512 428.085 815.422C434.398 814.676 440.25 811.689 444.611 806.987C448.972 802.285 451.563 796.168 451.927 789.714C451.944 789.381 451.944 789.046 451.927 788.711V788.196C451.902 781.881 449.738 775.768 445.801 770.885C441.865 766.003 436.395 762.648 430.312 761.387C429.674 761.227 428.976 761.13 428.304 761.032C429.36 760.934 430.408 760.863 431.429 760.863L510.147 761.29L524.639 761.352L544.186 761.449C550.878 762.071 557.103 765.209 561.641 770.251C566.179 775.292 568.706 781.875 568.726 788.711C568.727 790.001 568.631 791.29 568.438 792.565C567.507 799.073 564.311 805.025 559.431 809.338C554.551 813.652 548.311 816.041 541.846 816.07H589.145C586.421 816.07 587.181 816.07 587.914 816.177Z" fill="white"/>
<path d="M461.958 849.205C463.732 851.02 465.842 852.458 468.166 853.437C470.491 854.415 472.983 854.914 475.498 854.906H429.77C421.04 854.906 416.274 852.74 412.799 849.205C409.229 845.558 407.218 840.624 407.203 835.477C407.203 824.821 415.794 816.083 429.77 816.083H475.498C471.723 816.077 468.031 817.211 464.89 819.342C461.749 821.472 459.3 824.503 457.856 828.051C456.41 831.598 456.032 835.503 456.77 839.269C457.508 843.035 459.329 846.493 462.001 849.205H461.958Z" fill="#D7E8F0"/>
<path d="M612.978 789.2C612.967 793.301 612.028 797.345 610.237 801.019C608.957 803.797 607.201 806.319 605.051 808.469C601.506 812.043 597.054 814.542 592.192 815.689C590.188 816.159 588.138 816.398 586.081 816.399C586.5 816.301 586.954 816.239 587.356 816.177C586.622 816.106 585.863 816.079 588.595 816.079H541.287C547.757 816.055 554.003 813.666 558.886 809.35C563.77 805.035 566.967 799.078 567.896 792.565C568.089 791.29 568.185 790.002 568.184 788.711C568.164 781.875 565.637 775.291 561.097 770.249C556.556 765.207 550.33 762.07 543.636 761.45L569.171 761.583L586.229 761.681C593.358 761.742 600.173 764.671 605.185 769.827C610.198 774.984 612.999 781.948 612.978 789.2Z" fill="#EFC375"/>
<path d="M612.978 789.193C612.925 796.448 610.047 803.386 604.974 808.488C599.902 813.589 593.048 816.438 585.915 816.41L430.591 815.593C429.552 815.593 428.513 815.513 427.466 815.406C434.013 814.652 440.06 811.48 444.463 806.493C448.865 801.506 451.315 795.049 451.35 788.346C451.384 781.645 449 775.162 444.65 770.128C440.299 765.094 434.285 761.858 427.745 761.034C428.783 760.923 429.826 760.87 430.87 760.874L586.194 761.691C593.327 761.741 600.149 764.662 605.169 769.816C610.189 774.97 612.996 781.938 612.978 789.193Z" stroke="black" stroke-width="5.47" stroke-linecap="square" stroke-linejoin="round"/>
<path d="M568.167 788.703C568.153 795.957 565.314 802.91 560.271 808.04C555.228 813.17 548.393 816.057 541.261 816.072H430.748C429.704 816.065 428.661 816.006 427.623 815.894C434.165 815.104 440.196 811.9 444.572 806.89C448.947 801.879 451.364 795.41 451.364 788.708C451.364 782.006 448.947 775.537 444.572 770.526C440.196 765.516 434.165 762.312 427.623 761.522C428.662 761.424 429.709 761.353 430.748 761.353H541.261C548.389 761.369 555.22 764.256 560.263 769.381C565.304 774.506 568.146 781.453 568.167 788.703Z" stroke="black" stroke-width="5.47" stroke-linecap="square" stroke-linejoin="round"/>
<path d="M407.203 835.482C407.202 838.029 407.696 840.551 408.654 842.904C409.614 845.256 411.018 847.394 412.79 849.193C416.282 852.745 421.023 854.903 429.762 854.903H588.586C585.854 854.903 586.596 854.849 587.338 854.778C582.691 854.222 578.406 851.95 575.297 848.393C572.187 844.836 570.47 840.242 570.47 835.482C570.47 830.722 572.187 826.129 575.297 822.571C578.406 819.015 582.691 816.743 587.338 816.186C586.596 816.115 585.854 816.062 588.586 816.062H429.762C415.776 816.07 407.203 824.808 407.203 835.482Z" stroke="black" stroke-width="5.47" stroke-linecap="square" stroke-linejoin="round"/>
<path d="M456.353 835.482C456.364 840.63 458.38 845.563 461.958 849.202C465.536 852.842 470.386 854.891 475.446 854.903H585.121C585.854 854.903 586.596 854.849 587.338 854.778C582.691 854.222 578.406 851.95 575.297 848.393C572.187 844.836 570.47 840.242 570.47 835.482C570.47 830.722 572.187 826.129 575.297 822.571C578.406 819.015 582.691 816.743 587.338 816.186C586.596 816.115 585.854 816.062 585.121 816.062H475.446C470.387 816.076 465.538 818.126 461.96 821.765C458.383 825.404 456.367 830.336 456.353 835.482Z" stroke="black" stroke-width="5.47" stroke-linecap="square" stroke-linejoin="round"/>
<path d="M278.567 687.312H229.574C227.332 687.308 225.14 686.641 223.265 685.392C221.39 684.144 219.912 682.368 219.011 680.279C218.663 679.502 218.514 678.648 218.578 677.796C218.642 676.945 218.917 676.124 219.377 675.409C219.837 674.695 220.468 674.111 221.21 673.71C221.952 673.311 222.78 673.108 223.62 673.122H275.703C273.25 677.322 274.499 683.156 278.567 687.312Z" fill="#D7E8F0"/>
<path d="M310.248 682.178C310.245 683.537 309.715 684.838 308.77 685.798C307.826 686.759 306.546 687.3 305.211 687.302H278.567C274.499 683.155 273.25 677.321 275.703 673.094H299.231C301.47 673.095 303.66 673.756 305.537 674.998C307.413 676.24 308.896 678.01 309.803 680.091C310.085 680.751 310.236 681.46 310.248 682.178Z" fill="#EFC375"/>
<path d="M297.991 687.311C297.853 687.582 297.692 687.84 297.511 688.084C294.019 692.941 286.432 693.412 280.54 689.025C279.843 688.502 279.184 687.929 278.567 687.311C274.499 683.164 273.25 677.33 275.703 673.103C275.841 672.832 276.002 672.574 276.183 672.331C279.675 667.438 287.227 667.003 293.12 671.354C293.829 671.894 294.497 672.488 295.119 673.13C299.152 677.259 300.409 683.058 297.991 687.311Z" fill="white"/>
<path d="M322.566 713.465C322.556 714.824 322.019 716.125 321.07 717.083C320.122 718.041 318.839 718.58 317.502 718.58H266.092C268.571 714.335 267.331 708.545 263.254 704.372H311.549C313.791 704.372 315.984 705.037 317.862 706.283C319.739 707.531 321.219 709.307 322.121 711.396C322.409 712.047 322.56 712.751 322.566 713.465Z" fill="#EFC375"/>
<path d="M266.092 718.577H241.901C239.661 718.579 237.469 717.918 235.592 716.676C233.715 715.433 232.234 713.663 231.329 711.579C231.043 710.928 230.892 710.224 230.883 709.51C230.883 708.839 231.012 708.173 231.264 707.551C231.516 706.931 231.887 706.367 232.354 705.891C232.821 705.416 233.376 705.039 233.986 704.783C234.597 704.526 235.251 704.395 235.912 704.396H263.254C267.331 708.542 268.597 714.332 266.092 718.577Z" fill="#D7E8F0"/>
<path d="M266.092 718.578C265.978 718.857 265.828 719.12 265.646 719.359C262.154 724.243 254.594 724.687 248.71 720.327C247.998 719.787 247.327 719.193 246.702 718.551C242.66 714.404 241.421 708.615 243.839 704.343C243.978 704.07 244.139 703.809 244.319 703.562C247.811 698.705 255.397 698.234 261.281 702.63C261.982 703.147 262.641 703.72 263.254 704.343C267.331 708.544 268.597 714.333 266.092 718.578Z" fill="white"/>
<path d="M283.22 749.633H252.438C250.199 749.63 248.01 748.968 246.134 747.726C244.257 746.484 242.775 744.716 241.866 742.635C241.519 741.856 241.372 741 241.436 740.147C241.502 739.294 241.777 738.472 242.237 737.755C242.698 737.039 243.328 736.452 244.07 736.05C244.813 735.647 245.642 735.442 246.484 735.452H280.356C277.929 739.705 279.178 745.486 283.22 749.633Z" fill="#EFC375"/>
<path d="M333.103 744.552C333.096 745.903 332.563 747.197 331.621 748.149C330.678 749.101 329.402 749.634 328.075 749.632H283.22C279.178 745.485 277.929 739.695 280.356 735.424H322.086C324.328 735.424 326.521 736.089 328.399 737.336C330.276 738.583 331.756 740.359 332.658 742.448C332.945 743.111 333.097 743.827 333.103 744.552Z" fill="#D7E8F0"/>
<path d="M302.644 749.633C302.504 749.905 302.344 750.167 302.164 750.414C298.672 755.298 291.12 755.742 285.228 751.382C284.52 750.84 283.852 750.246 283.228 749.606C279.187 745.459 277.938 739.669 280.365 735.398C280.499 735.124 280.656 734.862 280.836 734.617C284.328 729.759 291.915 729.342 297.808 733.684C298.508 734.202 299.168 734.775 299.781 735.398C303.849 739.598 305.088 745.424 302.644 749.633Z" fill="white"/>
<path d="M70.0856 466.53L70.8538 466.752L70.5657 467.888C70.3833 467.444 70.2226 466.991 70.0856 466.53Z" fill="#353642"/>
<path d="M206.707 537.573C218.199 534.142 224.236 520.003 220.193 505.994C216.151 491.986 203.558 483.411 192.066 486.842C180.574 490.274 174.536 504.412 178.579 518.421C182.622 532.43 195.215 541.004 206.707 537.573Z" fill="#D7E8F0"/>
</svg>
