<svg width="309" height="473" viewBox="0 0 309 473" fill="none" xmlns="http://www.w3.org/2000/svg">
<mask id="mask0_50_744" style="mask-type:alpha" maskUnits="userSpaceOnUse" x="0" y="0" width="497" height="473">
<path d="M496.583 124.279L112.567 0L1.01773e-05 347.827L384.015 472.106L496.583 124.279Z" fill="white"/>
</mask>
<g mask="url(#mask0_50_744)">
<path d="M496.583 124.279L112.567 0L0.000480007 347.825L384.016 472.104L496.583 124.279Z" fill="#E2ECED"/>
<path d="M326.407 190.785C321.241 179.353 312.602 168.949 301.362 160.815C294.169 155.644 285.913 151.397 276.812 148.451C267.711 145.506 258.532 144.111 249.673 144.087C235.81 144.058 222.702 147.463 211.817 153.7C199.287 160.827 186.79 207.043 184.477 217.208C183.756 221.662 183.724 225.956 184.195 229.874C184.223 229.921 184.2 229.991 184.227 230.038C184.828 234.997 186.203 239.4 187.817 242.804C185.835 252.73 181.349 267.378 179.206 277.406C181.093 284.818 182.027 288.617 186.029 296.175L187.793 299.244C189.286 301.841 190.888 304.626 192.571 307.553L193.602 309.347C193.602 309.347 193.684 309.489 193.851 309.889C193.96 310.077 194.03 310.254 194.1 310.43C194.485 311.208 195.08 312.515 195.994 314.54C196.243 315.082 196.519 315.671 196.757 316.247L220.105 323.803L243.453 331.359C243.984 331.032 244.541 330.751 245.071 330.423C246.988 329.352 248.236 328.642 249.014 328.202C249.175 328.1 249.373 328.011 249.533 327.909C249.892 327.718 250.052 327.616 250.052 327.616L251.939 326.767C255.018 325.381 257.91 324.049 260.679 322.832L263.907 321.379C271.579 317.599 274.551 315.102 280.433 310.166C284.534 300.772 289.519 286.285 293.728 277.08C297.03 275.267 300.713 272.539 304.117 268.838C304.166 268.816 304.178 268.781 304.239 268.724C306.916 265.824 309.406 262.326 311.432 258.294C315.424 248.712 332.375 203.937 326.407 190.785ZM300.468 251.403C297.845 252.168 284.601 249.572 280.143 247.746C268.751 243.098 263.388 239.48 262.338 238.794C261.57 234.088 261.32 232.893 261.32 232.893L250.606 229.425L239.892 225.958C239.892 225.958 238.99 226.78 235.61 230.144C234.318 230.072 227.891 229.875 215.936 226.966C211.254 225.835 199 220.179 197.322 218.022C197.074 212.101 198.107 205.634 198.107 205.634C198.107 205.634 200.304 203.04 202.139 200.253C206.829 208.572 244.538 222.351 251.049 224.65C251.241 224.712 251.383 224.797 251.498 224.834C251.537 224.846 251.537 224.846 251.575 224.859C251.871 224.993 252.025 225.043 252.025 225.043C252.025 225.043 252.178 225.093 252.497 225.157C252.535 225.17 252.535 225.17 252.573 225.182C252.689 225.219 252.842 225.269 253.045 225.296C259.718 227.225 298.301 238.175 306.975 234.181C306.841 237.48 307.09 240.904 307.09 240.904C307.09 240.904 304.138 246.75 300.468 251.403Z" fill="#DD2E2E"/>
<path d="M307.045 241.042C307.045 241.042 304.093 246.888 300.423 251.541C297.8 252.306 284.556 249.71 280.098 247.883C268.706 243.236 263.31 239.722 262.27 239.001C261.502 234.295 261.219 233.205 261.219 233.205L239.791 226.27C239.791 226.27 238.922 226.988 235.543 230.351C234.251 230.279 227.835 230.047 215.88 227.139C211.197 226.008 198.955 220.316 197.277 218.16C197.03 212.239 198.073 205.737 198.073 205.737C198.073 205.737 200.27 203.143 202.106 200.356C206.795 208.675 244.482 222.524 250.981 224.858C251.173 224.92 251.293 225.074 251.408 225.111L251.485 225.136C251.792 225.235 251.935 225.32 251.935 225.32C251.935 225.32 252.099 225.335 252.407 225.434L252.483 225.459C252.599 225.496 252.786 225.442 252.978 225.504C259.651 227.433 298.256 238.313 306.93 234.319C306.773 237.688 307.045 241.042 307.045 241.042Z" fill="#B8FFFF" stroke="black" stroke-width="2.3141" stroke-miterlimit="10"/>
<path d="M306.919 241.039C306.919 241.039 303.978 246.85 300.32 251.468C297.708 252.198 284.501 249.615 280.044 247.788C268.69 243.153 263.294 239.639 262.243 238.953C261.464 234.282 261.181 233.192 261.181 233.192L239.829 226.282C239.829 226.282 238.961 227 235.592 230.328C234.301 230.256 227.896 229.99 215.979 227.093C211.297 225.962 199.092 220.283 197.403 218.161C197.145 212.275 198.166 205.843 198.166 205.843C198.166 205.843 200.363 203.249 202.176 200.531C206.888 208.781 244.482 222.523 250.959 224.926C251.151 224.989 251.27 225.143 251.386 225.18L251.462 225.205C251.77 225.304 251.912 225.389 251.912 225.389C251.912 225.389 252.077 225.404 252.384 225.503L252.461 225.528C252.576 225.565 252.763 225.511 252.955 225.573C259.612 227.42 298.118 238.344 306.77 234.42C306.636 237.719 306.919 241.039 306.919 241.039Z" fill="#B9FFFF"/>
<path d="M306.754 241.025C306.754 241.025 303.835 246.766 300.188 251.35C297.576 252.08 284.409 249.509 279.99 247.695C268.636 243.06 263.305 239.605 262.216 238.907C261.425 234.271 261.142 233.18 261.142 233.18L239.829 226.283C239.829 226.283 238.961 227 235.604 230.295C234.312 230.222 227.946 229.968 216.04 227.037C211.358 225.906 199.18 220.274 197.53 218.165C197.287 212.361 198.259 205.951 198.259 205.951C198.259 205.951 200.444 203.392 202.257 200.674C206.953 208.841 244.471 222.559 250.947 224.962C251.139 225.024 251.259 225.178 251.374 225.216L251.451 225.241C251.758 225.34 251.912 225.39 251.912 225.39C251.912 225.39 252.066 225.439 252.373 225.539L252.45 225.564C252.565 225.601 252.752 225.546 252.944 225.608C259.601 227.455 297.981 238.378 306.621 234.488C306.46 237.74 306.754 241.025 306.754 241.025Z" fill="#BAFFFF"/>
<path d="M306.628 241.023C306.628 241.023 303.72 246.73 300.134 251.256C297.522 251.986 284.404 249.393 279.985 247.579C268.669 242.956 263.339 239.502 262.238 238.838C261.437 234.237 261.153 233.146 261.153 233.146L239.917 226.273C239.917 226.273 239.06 226.956 235.703 230.25C234.45 230.191 228.056 229.889 216.178 227.005C211.534 225.887 199.395 220.268 197.706 218.146C197.452 212.376 198.439 206.048 198.439 206.048C198.439 206.048 200.614 203.524 202.415 200.841C207.123 208.974 244.536 222.619 250.974 225.01C251.167 225.072 251.286 225.226 251.402 225.263L251.478 225.288C251.786 225.388 251.939 225.437 251.939 225.437C251.939 225.437 252.093 225.487 252.4 225.587L252.477 225.611C252.592 225.649 252.779 225.594 252.971 225.656C259.578 227.525 297.893 238.388 306.472 234.555C306.333 237.738 306.628 241.023 306.628 241.023Z" fill="#BBFFFF"/>
<path d="M306.463 241.007C306.463 241.007 303.578 246.644 300.003 251.135C297.441 251.843 284.323 249.25 279.904 247.436C268.615 242.86 263.285 239.406 262.234 238.72C261.421 234.153 261.165 233.11 261.165 233.11L239.967 226.25C239.967 226.25 239.11 226.933 235.814 230.17C234.56 230.11 228.205 229.821 216.376 226.915C211.732 225.796 199.632 220.189 197.932 218.102C197.667 212.368 198.631 206.109 198.631 206.109C198.631 206.109 200.795 203.62 202.596 200.937C207.326 209 244.613 222.643 251.063 224.999C251.255 225.061 251.375 225.215 251.49 225.252L251.567 225.277C251.874 225.377 252.027 225.426 252.027 225.426C252.027 225.426 252.181 225.476 252.488 225.575L252.565 225.6C252.68 225.638 252.868 225.583 253.06 225.645C259.667 227.514 297.854 238.374 306.423 234.577C306.157 237.757 306.463 241.007 306.463 241.007Z" fill="#BCFFFF"/>
<path d="M306.298 240.992C306.298 240.992 303.424 246.595 299.872 251.017C297.31 251.725 284.241 249.109 279.849 247.342C268.599 242.779 263.257 239.359 262.207 238.673C261.383 234.141 261.126 233.098 261.126 233.098L240.005 226.263C240.005 226.263 239.148 226.946 235.863 230.148C234.61 230.088 228.266 229.764 216.476 226.871C211.832 225.752 199.758 220.192 198.097 218.118C197.809 212.453 198.762 206.229 198.762 206.229C198.762 206.229 200.914 203.775 202.705 201.126C207.407 209.142 244.629 222.725 251.04 225.069C251.232 225.131 251.352 225.285 251.467 225.322L251.544 225.347C251.851 225.447 252.005 225.496 252.005 225.496C252.005 225.496 252.158 225.546 252.466 225.646L252.542 225.67C252.658 225.708 252.845 225.653 253.037 225.715C259.644 227.584 297.717 238.407 306.224 234.667C306.019 237.79 306.298 240.992 306.298 240.992Z" fill="#BDFFFF"/>
<path d="M306.171 240.99C306.171 240.99 303.32 246.523 299.779 250.91C297.217 251.618 284.187 249.015 279.806 247.213C268.556 242.65 263.253 239.243 262.191 238.592C261.394 234.107 261.099 233.051 261.099 233.051L240.017 226.228C240.017 226.228 239.159 226.911 235.886 230.079C234.632 230.019 228.338 229.673 216.548 226.779C211.942 225.673 199.869 220.113 198.207 218.038C197.908 212.408 198.839 206.254 198.839 206.254C198.839 206.254 200.991 203.8 202.759 201.221C207.484 209.167 244.591 222.713 251.002 225.057C251.155 225.107 251.314 225.273 251.429 225.31L251.506 225.335C251.813 225.435 251.928 225.472 251.928 225.472C251.928 225.472 252.082 225.522 252.35 225.609L252.427 225.633C252.542 225.671 252.73 225.616 252.922 225.678C259.49 227.535 297.475 238.368 305.971 234.662C305.843 237.81 306.171 240.99 306.171 240.99Z" fill="#BEFFFF"/>
<path d="M306.007 240.975C306.007 240.975 303.178 246.438 299.648 250.79C297.097 251.463 284.105 248.873 279.725 247.071C268.513 242.52 263.198 239.148 262.148 238.462C261.339 234.012 261.045 232.956 261.045 232.956L240.039 226.158C240.039 226.158 239.193 226.806 235.919 229.974C234.666 229.914 228.372 229.568 216.62 226.687C212.014 225.58 199.98 220.033 198.306 217.993C197.996 212.398 198.905 206.313 198.905 206.313C198.905 206.313 201.045 203.893 202.813 201.315C207.511 209.214 244.552 222.7 250.963 225.044C251.117 225.093 251.275 225.26 251.39 225.297L251.467 225.322C251.774 225.421 251.889 225.459 251.889 225.459C251.889 225.459 252.043 225.508 252.312 225.595L252.389 225.62C252.504 225.658 252.691 225.603 252.883 225.665C259.452 227.522 297.321 238.317 305.795 234.681C305.705 237.841 306.007 240.975 306.007 240.975Z" fill="#BFFFFF"/>
<path d="M305.869 241.007C305.869 241.007 303.051 246.436 299.583 250.731C297.031 251.404 284.089 248.791 279.698 247.024C268.524 242.486 263.237 239.161 262.186 238.475C261.367 234.06 261.061 233.038 261.061 233.038L240.093 226.253C240.093 226.253 239.247 226.901 235.996 229.999C234.754 229.904 228.46 229.558 216.785 226.702C212.191 225.561 200.172 220.096 198.499 218.056C198.166 212.53 199.101 206.493 199.101 206.493C199.101 206.493 201.231 204.108 202.949 201.551C207.67 209.381 244.595 222.83 250.968 225.161C251.121 225.211 251.28 225.377 251.395 225.415L251.472 225.439C251.779 225.539 251.894 225.576 251.894 225.576C251.894 225.576 252.048 225.626 252.317 225.713L252.393 225.738C252.509 225.775 252.696 225.72 252.888 225.782C259.418 227.627 297.211 238.397 305.623 234.818C305.529 237.862 305.869 241.007 305.869 241.007Z" fill="#C0FFFF"/>
<path d="M305.704 240.993C305.704 240.993 302.909 246.352 299.452 250.612C296.912 251.25 284.008 248.65 279.655 246.895C268.508 242.404 263.232 239.044 262.17 238.393C261.339 234.013 261.034 232.991 261.034 232.991L240.105 226.218C240.105 226.218 239.259 226.867 236.019 229.93C234.777 229.835 228.521 229.501 216.857 226.61C212.301 225.482 200.282 220.017 198.647 217.989C198.303 212.498 199.217 206.53 199.217 206.53C199.217 206.53 201.296 204.168 203.053 201.624C207.758 209.371 244.606 222.795 250.979 225.126C251.133 225.176 251.291 225.343 251.406 225.38L251.483 225.405C251.79 225.504 251.905 225.542 251.905 225.542C251.905 225.542 252.059 225.591 252.328 225.678L252.405 225.703C252.52 225.74 252.707 225.686 252.899 225.748C259.429 227.592 297.134 238.373 305.497 234.816C305.392 237.894 305.704 240.993 305.704 240.993Z" fill="#C1FFFF"/>
<path d="M305.578 240.989C305.578 240.989 302.794 246.313 299.359 250.504C296.819 251.142 283.954 248.554 279.612 246.765C268.504 242.286 263.216 238.961 262.154 238.31C261.312 233.964 261.045 232.956 261.045 232.956L240.193 226.207C240.193 226.207 239.347 226.856 236.157 229.896C234.914 229.802 228.67 229.433 217.033 226.589C212.477 225.461 200.535 220.02 198.851 218.015C198.534 212.571 199.386 206.661 199.386 206.661C199.386 206.661 201.466 204.298 203.2 201.824C207.916 209.536 244.661 222.888 251.033 225.22C251.187 225.27 251.345 225.436 251.46 225.473L251.537 225.498C251.844 225.598 251.96 225.635 251.96 225.635C251.96 225.635 252.113 225.685 252.382 225.772L252.459 225.796C252.574 225.834 252.761 225.779 252.953 225.841C259.445 227.673 297.073 238.429 305.414 234.942C305.227 237.878 305.578 240.989 305.578 240.989Z" fill="#C2FFFF"/>
<path d="M305.413 240.975C305.413 240.975 302.652 246.229 299.228 250.386C296.726 251.036 283.872 248.413 279.519 246.659C268.411 242.18 263.151 238.902 262.1 238.216C261.247 233.905 260.968 232.931 260.968 232.931L240.154 226.195C240.154 226.195 239.308 226.844 236.141 229.815C234.899 229.72 228.693 229.364 217.067 226.486C212.511 225.357 200.596 219.964 198.912 217.959C198.572 212.584 199.425 206.674 199.425 206.674C199.425 206.674 201.493 204.346 203.227 201.872C207.966 209.515 244.595 222.829 250.93 225.148C251.083 225.198 251.241 225.365 251.357 225.402L251.433 225.427C251.741 225.526 251.856 225.563 251.856 225.563C251.856 225.563 252.009 225.613 252.278 225.7L252.355 225.725C252.47 225.762 252.658 225.708 252.85 225.77C259.341 227.602 296.843 238.355 305.134 234.89C305.089 237.911 305.413 240.975 305.413 240.975Z" fill="#C3FFFF"/>
<path d="M305.248 240.96C305.248 240.96 302.509 246.145 299.097 250.267C296.606 250.883 283.791 248.272 279.438 246.517C268.368 242.051 263.108 238.773 262.046 238.122C261.181 233.846 260.902 232.872 260.902 232.872L240.127 226.149C240.127 226.149 239.292 226.762 236.125 229.733C234.883 229.639 228.688 229.248 217.101 226.382C212.545 225.253 200.668 219.872 198.973 217.902C198.622 212.563 199.452 206.721 199.452 206.721C199.452 206.721 201.509 204.428 203.232 201.989C207.943 209.585 244.507 222.84 250.841 225.159C250.995 225.208 251.153 225.375 251.268 225.412L251.345 225.437C251.652 225.536 251.768 225.574 251.768 225.574C251.768 225.574 251.921 225.623 252.19 225.71L252.267 225.735C252.382 225.773 252.569 225.718 252.762 225.78C259.253 227.612 296.639 238.328 304.908 234.933C304.913 237.932 305.248 240.96 305.248 240.96Z" fill="#C4FFFF"/>
<path d="M305.121 240.958C305.121 240.958 302.394 246.108 299.004 250.16C296.514 250.776 283.748 248.143 279.433 246.401C268.391 241.982 263.13 238.704 262.107 238.065C261.269 233.837 260.952 232.85 260.952 232.85L240.254 226.151C240.254 226.151 239.457 226.777 236.262 229.701C235.02 229.607 228.864 229.228 217.326 226.34C212.809 225.224 200.932 219.843 199.275 217.885C198.902 212.615 199.72 206.809 199.72 206.809C199.72 206.809 201.766 204.55 203.489 202.111C208.223 209.637 244.672 222.855 250.968 225.162C251.121 225.211 251.28 225.378 251.395 225.415L251.472 225.44C251.779 225.539 251.894 225.577 251.894 225.577C251.894 225.577 252.048 225.626 252.317 225.713L252.393 225.738C252.509 225.775 252.696 225.721 252.888 225.783C259.341 227.602 296.639 238.328 304.858 234.955C304.775 237.964 305.121 240.958 305.121 240.958Z" fill="#C5FFFF"/>
<path d="M304.957 240.943C304.957 240.943 302.29 246.036 298.911 250.053C296.421 250.669 283.705 248.013 279.379 246.306C268.375 241.899 263.114 238.621 262.091 237.983C261.242 233.789 260.925 232.802 260.925 232.802L240.265 226.116C240.265 226.116 239.468 226.742 236.285 229.631C235.043 229.537 228.898 229.123 217.387 226.282C212.87 225.166 201.032 219.798 199.363 217.874C198.979 212.639 199.813 206.915 199.813 206.915C199.813 206.915 201.859 204.657 203.559 202.287C208.266 209.766 244.65 222.924 250.945 225.23C251.099 225.28 251.257 225.447 251.334 225.471L251.411 225.496C251.718 225.596 251.833 225.633 251.833 225.633C251.833 225.633 251.987 225.683 252.256 225.77L252.332 225.795C252.448 225.832 252.635 225.777 252.789 225.827C259.242 227.647 296.425 238.335 304.621 235.032C304.599 237.983 304.957 240.943 304.957 240.943Z" fill="#C6FFFF"/>
<path d="M304.83 240.94C304.83 240.94 302.175 245.998 298.807 249.981C296.328 250.562 283.639 247.954 279.325 246.211C268.321 241.805 263.126 238.587 262.064 237.936C261.204 233.776 260.875 232.825 260.875 232.825L240.292 226.163C240.292 226.163 239.496 226.789 236.335 229.609C235.093 229.514 228.986 229.113 217.487 226.237C212.969 225.121 201.158 219.8 199.49 217.877C199.094 212.677 199.906 207.022 199.906 207.022C199.906 207.022 201.941 204.798 203.603 202.416C208.332 209.825 244.6 222.946 250.896 225.253C251.049 225.302 251.208 225.469 251.284 225.494L251.361 225.519C251.668 225.618 251.784 225.655 251.784 225.655C251.784 225.655 251.937 225.705 252.206 225.792L252.283 225.817C252.398 225.854 252.585 225.8 252.739 225.849C259.154 227.656 296.26 238.32 304.434 235.086C304.461 238.016 304.83 240.94 304.83 240.94Z" fill="#C7FFFF"/>
<path d="M304.665 240.925C304.665 240.925 302.033 245.914 298.676 249.861C296.197 250.443 283.558 247.812 279.281 246.082C268.316 241.688 263.11 238.505 262.048 237.854C261.177 233.729 260.887 232.79 260.887 232.79L240.342 226.141C240.342 226.141 239.557 226.732 236.434 229.564C235.23 229.482 229.097 229.034 217.636 226.17C213.157 225.067 201.346 219.746 199.715 217.835C199.297 212.704 200.098 207.084 200.098 207.084C200.098 207.084 202.121 204.895 203.772 202.548C208.474 209.91 244.677 222.971 250.934 225.265C251.088 225.315 251.246 225.482 251.323 225.506L251.4 225.531C251.707 225.631 251.822 225.668 251.822 225.668C251.822 225.668 251.976 225.718 252.244 225.805L252.321 225.83C252.436 225.867 252.624 225.812 252.777 225.862C259.192 227.669 296.172 238.33 304.296 235.119C304.285 238.036 304.665 240.925 304.665 240.925Z" fill="#C8FFFF"/>
<path d="M304.539 240.922C304.539 240.922 301.917 245.876 298.584 249.754C296.116 250.301 283.515 247.683 279.227 245.988C268.3 241.606 263.094 238.422 262.059 237.819C261.177 233.729 260.887 232.79 260.887 232.79L240.38 226.153C240.38 226.153 239.595 226.744 236.484 229.542C235.28 229.459 229.185 229.024 217.773 226.138C213.294 225.034 201.522 219.725 199.88 217.849C199.451 212.753 200.229 207.203 200.229 207.203C200.229 207.203 202.241 205.049 203.881 202.736C208.605 210.029 244.731 223.065 250.95 225.347C251.104 225.397 251.223 225.551 251.339 225.588L251.415 225.613C251.723 225.712 251.838 225.75 251.838 225.75C251.838 225.75 251.991 225.799 252.26 225.886L252.337 225.911C252.452 225.948 252.64 225.894 252.793 225.943C259.17 227.738 296.073 238.375 304.174 235.233C304.159 238.033 304.539 240.922 304.539 240.922Z" fill="#C9FFFF"/>
<path d="M304.363 240.942C304.363 240.942 301.764 245.826 298.441 249.669C296.012 250.228 283.422 247.575 279.134 245.88C268.234 241.546 263.028 238.362 262.005 237.724C261.111 233.669 260.821 232.73 260.821 232.73L240.391 226.118C240.391 226.118 239.606 226.709 236.506 229.472C235.302 229.39 229.218 228.919 217.834 226.08C213.355 224.977 201.648 219.728 199.968 217.839C199.566 212.79 200.283 207.297 200.283 207.297C200.283 207.297 202.295 205.143 203.924 202.865C208.632 210.076 244.681 223.087 250.9 225.369C251.054 225.419 251.174 225.573 251.289 225.61L251.366 225.635C251.635 225.722 251.788 225.772 251.788 225.772C251.788 225.772 251.942 225.821 252.211 225.908L252.287 225.933C252.403 225.97 252.59 225.916 252.744 225.966C259.109 227.795 295.896 238.394 303.987 235.287C303.983 238.052 304.363 240.942 304.363 240.942Z" fill="#CAFFFF"/>
<path d="M304.198 240.928C304.198 240.928 301.621 245.742 298.349 249.563C295.919 250.122 283.368 247.482 279.091 245.752C268.191 241.417 263.012 238.281 261.989 237.642C261.084 233.622 260.783 232.718 260.783 232.718L240.391 226.119C240.391 226.119 239.606 226.71 236.529 229.403C235.325 229.321 229.279 228.863 217.907 225.989C213.477 224.863 201.759 219.649 200.079 217.76C199.654 212.781 200.398 207.335 200.398 207.335C200.398 207.335 202.399 205.216 204.016 202.972C208.736 210.149 244.681 223.088 250.862 225.357C251.016 225.407 251.135 225.561 251.251 225.598L251.327 225.623C251.596 225.71 251.75 225.76 251.75 225.76C251.75 225.76 251.903 225.809 252.172 225.896L252.249 225.921C252.364 225.959 252.552 225.904 252.705 225.954C259.071 227.783 295.743 238.345 303.772 235.295C303.845 238.085 304.198 240.928 304.198 240.928Z" fill="#CBFFFF"/>
<path d="M304.071 240.926C304.071 240.926 301.506 245.706 298.256 249.457C295.838 249.981 283.325 247.353 279.075 245.67C268.214 241.348 263.035 238.212 262 237.608C261.122 233.635 260.783 232.718 260.783 232.718L240.468 226.144C240.468 226.144 239.694 226.7 236.617 229.393C235.413 229.311 229.379 228.818 218.044 225.957C213.615 224.831 201.935 219.629 200.282 217.788C199.846 212.844 200.568 207.467 200.568 207.467C200.568 207.467 202.558 205.383 204.174 203.139C208.917 210.246 244.747 223.148 250.927 225.417C251.081 225.467 251.201 225.621 251.316 225.658L251.393 225.683C251.662 225.77 251.815 225.82 251.815 225.82C251.815 225.82 251.969 225.87 252.238 225.957L252.315 225.981C252.43 226.019 252.617 225.964 252.771 226.014C259.098 227.831 295.682 238.403 303.7 235.387C303.669 238.105 304.071 240.926 304.071 240.926Z" fill="#CCFFFF"/>
<path d="M303.906 240.91C303.906 240.91 301.364 245.62 298.125 249.337C295.707 249.86 283.243 247.21 278.994 245.528C268.171 241.218 263.019 238.129 261.996 237.49C261.106 233.552 260.767 232.635 260.767 232.635L240.491 226.073C240.491 226.073 239.717 226.63 236.651 229.288C235.458 229.171 229.451 228.725 218.155 225.877C213.725 224.751 202.073 219.596 200.42 217.755C199.973 212.845 200.672 207.538 200.672 207.538C200.672 207.538 202.612 205.476 204.256 203.28C208.971 210.339 244.724 223.217 250.878 225.439C251.031 225.488 251.151 225.642 251.267 225.68L251.343 225.705C251.612 225.792 251.766 225.841 251.766 225.841C251.766 225.841 251.919 225.891 252.188 225.978L252.265 226.003C252.38 226.04 252.568 225.985 252.721 226.035C259.048 227.852 295.517 238.387 303.474 235.429C303.531 238.137 303.906 240.91 303.906 240.91Z" fill="#CDFFFF"/>
<path d="M303.78 240.909C303.78 240.909 301.249 245.584 298.032 249.231C295.614 249.755 283.2 247.083 278.951 245.4C268.155 241.137 263.003 238.048 261.98 237.41C261.079 233.506 260.778 232.602 260.778 232.602L240.54 226.052C240.54 226.052 239.766 226.609 236.75 229.245C235.557 229.128 229.561 228.647 218.304 225.811C213.874 224.685 202.26 219.543 200.607 217.702C200.137 212.861 200.825 207.589 200.825 207.589C200.825 207.589 202.754 205.562 204.36 203.354C209.098 210.343 244.736 223.183 250.889 225.405C251.043 225.455 251.163 225.609 251.278 225.646L251.355 225.671C251.623 225.758 251.777 225.808 251.777 225.808C251.777 225.808 251.931 225.858 252.199 225.945L252.276 225.969C252.391 226.007 252.567 225.987 252.732 226.002C259.021 227.806 295.413 238.316 303.348 235.427C303.355 238.158 303.78 240.909 303.78 240.909Z" fill="#CEFFFF"/>
<path d="M303.615 240.893C303.615 240.893 301.106 245.499 297.901 249.111C295.494 249.6 283.108 246.975 278.908 245.27C268.15 241.02 262.999 237.931 261.964 237.327C261.052 233.458 260.74 232.589 260.74 232.589L240.579 226.064C240.579 226.064 239.805 226.621 236.811 229.187C235.618 229.07 229.622 228.59 218.414 225.731C214.023 224.617 202.409 219.475 200.783 217.681C200.302 212.876 200.968 207.673 200.968 207.673C200.968 207.673 202.897 205.646 204.48 203.507C209.19 210.449 244.763 223.23 250.916 225.452C251.07 225.501 251.19 225.656 251.305 225.693L251.382 225.718C251.651 225.805 251.804 225.854 251.804 225.854C251.804 225.854 251.958 225.904 252.227 225.991L252.303 226.016C252.419 226.053 252.595 226.033 252.76 226.048C259.048 227.853 295.314 238.36 303.237 235.506C303.217 238.19 303.615 240.893 303.615 240.893Z" fill="#CFFFFF"/>
<path d="M303.45 240.878C303.45 240.878 300.953 245.449 297.808 249.004C295.401 249.493 283.065 246.846 278.854 245.176C268.096 240.925 262.971 237.884 261.937 237.28C261.002 233.481 260.701 232.576 260.701 232.576L240.579 226.064C240.579 226.064 239.805 226.621 236.822 229.152C235.63 229.035 229.683 228.532 218.475 225.674C214.084 224.56 202.497 219.465 200.872 217.671C200.379 212.901 201.06 207.78 201.06 207.78C201.06 207.78 202.978 205.787 204.561 203.648C209.294 210.521 244.751 223.265 250.867 225.474C251.02 225.524 251.14 225.678 251.255 225.715L251.332 225.74C251.601 225.827 251.754 225.877 251.754 225.877C251.754 225.877 251.908 225.926 252.177 226.013L252.254 226.038C252.369 226.076 252.545 226.056 252.71 226.071C258.96 227.863 295.149 238.345 303.011 235.548C303.041 238.209 303.45 240.878 303.45 240.878Z" fill="#D0FFFF"/>
<path d="M303.324 240.875C303.324 240.875 300.849 245.377 297.716 248.897C295.347 249.399 283.022 246.716 278.811 245.046C268.091 240.808 262.967 237.767 261.932 237.163C260.987 233.398 260.685 232.494 260.685 232.494L240.64 226.007C240.64 226.007 239.877 226.528 236.894 229.06C235.702 228.943 229.755 228.44 218.586 225.594C214.195 224.48 202.684 219.41 201.02 217.604C200.544 212.915 201.176 207.817 201.176 207.817C201.176 207.817 203.082 205.859 204.654 203.755C209.371 210.546 244.751 223.264 250.867 225.474C251.02 225.523 251.151 225.643 251.266 225.68L251.343 225.705C251.612 225.792 251.766 225.842 251.766 225.842C251.766 225.842 251.919 225.891 252.188 225.978L252.265 226.003C252.38 226.04 252.556 226.021 252.721 226.035C258.971 227.828 295.072 238.32 302.885 235.546C302.915 238.207 303.324 240.875 303.324 240.875Z" fill="#D1FFFF"/>
<path d="M303.159 240.859C303.159 240.859 300.706 245.291 297.584 248.777C295.227 249.244 282.94 246.574 278.729 244.903C268.037 240.713 262.913 237.671 261.916 237.08C260.959 233.35 260.647 232.481 260.647 232.481L240.64 226.006C240.64 226.006 239.877 226.527 236.917 228.989C235.724 228.872 229.828 228.347 218.696 225.513C214.344 224.412 202.833 219.342 201.158 217.57C200.67 212.917 201.291 207.853 201.291 207.853C201.291 207.853 203.186 205.93 204.758 203.826C209.486 210.582 244.763 223.229 250.878 225.438C251.031 225.488 251.163 225.607 251.278 225.644L251.355 225.669C251.623 225.756 251.777 225.806 251.777 225.806C251.777 225.806 251.931 225.856 252.199 225.943L252.276 225.968C252.391 226.005 252.567 225.985 252.732 226C258.983 227.792 294.968 238.247 302.758 235.542C302.739 238.226 303.159 240.859 303.159 240.859Z" fill="#D2FFFF"/>
<path d="M303.032 240.858C303.032 240.858 300.591 245.255 297.492 248.671C295.135 249.138 282.897 246.446 278.713 244.823C268.06 240.645 262.924 237.638 261.927 237.046C260.959 233.352 260.685 232.494 260.685 232.494L240.717 226.032C240.717 226.032 239.954 226.553 237.043 228.993C235.851 228.876 229.954 228.351 218.872 225.495C214.52 224.394 203.037 219.371 201.4 217.611C200.901 212.992 201.499 207.999 201.499 207.999C201.499 207.999 203.394 206.076 204.943 204.041C209.656 210.715 244.855 223.337 250.932 225.534C251.086 225.583 251.217 225.703 251.332 225.74L251.409 225.765C251.678 225.852 251.831 225.902 251.831 225.902C251.831 225.902 251.985 225.951 252.254 226.038L252.33 226.063C252.446 226.1 252.622 226.081 252.787 226.095C258.998 227.875 294.896 238.34 302.637 235.658C302.601 238.259 303.032 240.858 303.032 240.858Z" fill="#D3FFFF"/>
<path d="M302.856 240.878C302.856 240.878 300.438 245.206 297.349 248.587C295.004 249.019 282.793 246.374 278.621 244.716C267.967 240.538 262.908 237.556 261.873 236.952C260.932 233.305 260.62 232.435 260.62 232.435L240.728 225.997C240.728 225.997 239.965 226.519 237.066 228.924C235.912 228.819 230.026 228.259 218.945 225.403C214.592 224.302 203.147 219.291 201.51 217.532C200.989 212.983 201.576 208.024 201.576 208.024C201.576 208.024 203.459 206.136 204.997 204.136C209.721 210.775 244.817 223.324 250.894 225.522C251.047 225.571 251.178 225.691 251.294 225.728L251.37 225.753C251.639 225.84 251.793 225.889 251.793 225.889C251.793 225.889 251.946 225.939 252.215 226.026L252.292 226.051C252.407 226.088 252.583 226.068 252.737 226.118C258.949 227.898 294.731 238.325 302.449 235.713C302.425 238.279 302.856 240.878 302.856 240.878Z" fill="#D4FFFF"/>
<path d="M302.73 240.876C302.73 240.876 300.361 245.181 297.295 248.493C294.949 248.925 282.789 246.257 278.616 244.6C268.001 240.434 262.93 237.487 261.896 236.883C260.944 233.27 260.631 232.4 260.631 232.4L240.777 225.975C240.777 225.975 240.026 226.462 237.127 228.867C235.973 228.762 230.087 228.202 219.044 225.359C214.73 224.27 203.285 219.259 201.637 217.535C201.104 213.02 201.707 208.143 201.707 208.143C201.707 208.143 203.579 206.29 205.117 204.29C209.864 210.86 244.844 223.372 250.882 225.557C251.036 225.606 251.167 225.726 251.282 225.763L251.359 225.788C251.628 225.875 251.782 225.924 251.782 225.924C251.782 225.924 251.935 225.974 252.204 226.061L252.281 226.086C252.396 226.123 252.572 226.103 252.726 226.153C258.899 227.92 294.605 238.323 302.262 235.767C302.287 238.312 302.73 240.876 302.73 240.876Z" fill="#D5FFFF"/>
<path d="M302.565 240.86C302.565 240.86 300.218 245.096 297.153 248.408C294.807 248.84 282.696 246.15 278.55 244.539C267.974 240.386 262.892 237.474 261.896 236.882C260.932 233.304 260.609 232.47 260.609 232.47L240.832 226.069C240.832 226.069 240.08 226.556 237.203 228.891C236.049 228.787 230.214 228.205 219.209 225.373C214.906 224.25 203.488 219.286 201.867 217.609C201.312 213.164 201.903 208.322 201.903 208.322C201.903 208.322 203.765 206.503 205.253 204.526C209.972 211.048 244.887 223.501 250.925 225.685C251.079 225.735 251.21 225.854 251.325 225.892L251.402 225.916C251.671 226.003 251.825 226.053 251.825 226.053C251.825 226.053 251.978 226.103 252.247 226.19L252.324 226.215C252.439 226.252 252.615 226.232 252.769 226.282C258.942 228.049 294.521 238.449 302.167 235.929C302.111 238.331 302.565 240.86 302.565 240.86Z" fill="#D6FFFF"/>
<path d="M302.4 240.845C302.4 240.845 300.076 245.012 297.022 248.288C294.687 248.686 282.614 246.008 278.469 244.398C267.919 240.292 262.849 237.344 261.841 236.788C260.867 233.244 260.543 232.41 260.543 232.41L240.805 226.022C240.805 226.022 240.053 226.508 237.188 228.809C236.033 228.704 230.198 228.122 219.243 225.268C214.94 224.145 203.549 219.229 201.94 217.517C201.373 213.107 201.942 208.334 201.942 208.334C201.942 208.334 203.803 206.515 205.28 204.573C210.022 211.026 244.822 223.441 250.86 225.625C251.014 225.675 251.145 225.794 251.26 225.832L251.337 225.857C251.606 225.944 251.759 225.993 251.759 225.993C251.759 225.993 251.913 226.043 252.182 226.13L252.258 226.155C252.374 226.192 252.55 226.172 252.703 226.222C258.838 227.977 294.341 238.352 301.964 235.901C301.973 238.363 302.4 240.845 302.4 240.845Z" fill="#D7FFFF"/>
<path d="M302.274 240.842C302.274 240.842 299.961 244.974 296.929 248.181C294.633 248.591 282.56 245.913 278.426 244.268C267.876 240.162 262.833 237.262 261.837 236.671C260.851 233.162 260.527 232.327 260.527 232.327L240.827 225.952C240.827 225.952 240.076 226.439 237.221 228.704C236.067 228.6 230.281 227.995 219.315 225.176C215.05 224.065 203.698 219.162 202.039 217.472C201.461 213.096 202.007 208.393 202.007 208.393C202.007 208.393 203.857 206.609 205.323 204.701C210.049 211.073 244.772 223.463 250.772 225.635C250.926 225.685 251.057 225.804 251.172 225.841L251.249 225.866C251.517 225.953 251.671 226.003 251.671 226.003C251.671 226.003 251.786 226.04 252.093 226.14L252.17 226.164C252.285 226.202 252.462 226.182 252.615 226.232C258.739 228.021 294.126 238.359 301.7 235.93C301.808 238.348 302.274 240.842 302.274 240.842Z" fill="#D8FFFF"/>
<path d="M302.109 240.828C302.109 240.828 299.818 244.89 296.798 248.062C294.502 248.472 282.479 245.772 278.333 244.161C267.822 240.068 262.768 237.203 261.771 236.611C260.774 233.138 260.489 232.315 260.489 232.315L240.866 225.964C240.866 225.964 240.125 226.417 237.309 228.695C236.167 228.555 230.369 227.986 219.453 225.144C215.188 224.033 203.874 219.142 202.204 217.487C201.642 213.194 202.138 208.513 202.138 208.513C202.138 208.513 203.977 206.764 205.443 204.856C210.18 211.192 244.799 223.51 250.799 225.682C250.953 225.732 251.084 225.851 251.199 225.889L251.276 225.914C251.545 226.001 251.698 226.05 251.698 226.05C251.698 226.05 251.813 226.088 252.121 226.187L252.197 226.212C252.313 226.249 252.489 226.229 252.642 226.279C258.728 228.056 294.038 238.369 301.589 236.01C301.671 238.38 302.109 240.828 302.109 240.828Z" fill="#D9FFFF"/>
<path d="M301.982 240.825C301.982 240.825 299.703 244.852 296.705 247.955C294.42 248.33 282.436 245.643 278.329 244.044C267.856 239.963 262.84 237.11 261.832 236.554C260.824 233.115 260.527 232.327 260.527 232.327L240.942 225.989C240.942 225.989 240.202 226.441 237.409 228.65C236.266 228.51 230.518 227.918 219.64 225.089C215.375 223.978 204.089 219.134 202.457 217.492C201.883 213.233 202.358 208.622 202.358 208.622C202.358 208.622 204.147 206.895 205.64 205.034C210.361 211.289 244.903 223.582 250.865 225.742C251.018 225.792 251.149 225.911 251.265 225.948L251.341 225.973C251.61 226.06 251.764 226.11 251.764 226.11C251.764 226.11 251.879 226.147 252.186 226.246L252.263 226.271C252.378 226.309 252.554 226.289 252.708 226.338C258.793 228.116 293.988 238.392 301.479 236.089C301.495 238.4 301.982 240.825 301.982 240.825Z" fill="#DAFFFF"/>
<path d="M301.818 240.81C301.818 240.81 299.561 244.768 296.613 247.848C294.328 248.223 282.354 245.501 278.286 243.915C267.84 239.881 262.824 237.028 261.827 236.437C260.846 233.045 260.511 232.245 260.511 232.245L240.965 225.919C240.965 225.919 240.225 226.371 237.442 228.545C236.3 228.406 230.552 227.814 219.723 224.962C215.459 223.851 204.21 219.02 202.578 217.377C201.994 213.153 202.484 208.624 202.484 208.624C202.484 208.624 204.262 206.932 205.755 205.072C210.487 211.291 244.926 223.512 250.887 225.672C251.041 225.722 251.172 225.841 251.287 225.878L251.364 225.903C251.633 225.99 251.786 226.04 251.786 226.04C251.786 226.04 251.901 226.077 252.209 226.177L252.285 226.202C252.401 226.239 252.577 226.219 252.73 226.269C258.816 228.046 293.884 238.319 301.363 236.052C301.357 238.432 301.818 240.81 301.818 240.81Z" fill="#DBFFFF"/>
<path d="M301.691 240.808C301.691 240.808 299.446 244.731 296.52 247.742C294.246 248.082 282.3 245.407 278.231 243.821C267.824 239.8 262.808 236.947 261.8 236.39C260.808 233.034 260.473 232.233 260.473 232.233L241.003 225.932C241.003 225.932 240.263 226.385 237.492 228.523C236.349 228.384 230.613 227.757 219.811 224.953C215.585 223.855 204.337 219.023 202.694 217.415C202.087 213.261 202.565 208.766 202.565 208.766C202.565 208.766 204.343 207.075 205.814 205.284C210.569 211.433 244.93 223.63 250.853 225.777C251.007 225.827 251.138 225.946 251.253 225.984L251.33 226.008C251.599 226.095 251.752 226.145 251.752 226.145C251.752 226.145 251.868 226.182 252.175 226.282L252.252 226.307C252.367 226.344 252.543 226.324 252.697 226.374C258.744 228.139 293.735 238.387 301.192 236.189C301.181 238.453 301.691 240.808 301.691 240.808Z" fill="#DBFFFF"/>
<path d="M301.515 240.828C301.515 240.828 299.292 244.682 296.377 247.658C294.104 247.998 282.207 245.301 278.139 243.715C267.731 239.694 262.742 236.888 261.735 236.331C260.731 233.009 260.396 232.209 260.396 232.209L240.965 225.92C240.965 225.92 240.225 226.373 237.465 228.477C236.322 228.337 230.624 227.723 219.834 224.884C215.608 223.785 204.387 219.001 202.743 217.393C202.125 213.274 202.581 208.849 202.581 208.849C202.581 208.849 204.348 207.192 205.78 205.388C210.508 211.491 244.804 223.628 250.688 225.763C250.842 225.812 250.973 225.932 251.088 225.969L251.165 225.994C251.434 226.081 251.588 226.131 251.588 226.131C251.588 226.131 251.703 226.168 252.01 226.267L252.087 226.292C252.202 226.329 252.378 226.31 252.532 226.359C258.579 228.124 293.444 238.37 300.851 236.195C301.043 238.485 301.515 240.828 301.515 240.828Z" fill="#DCFFFF"/>
<path d="M301.35 240.812C301.35 240.812 299.15 244.596 296.246 247.537C293.973 247.878 282.126 245.158 278.096 243.585C267.727 239.576 262.727 236.805 261.719 236.248C260.704 232.961 260.358 232.195 260.358 232.195L241.003 225.932C241.003 225.932 240.274 226.349 237.526 228.418C236.383 228.279 230.696 227.63 219.945 224.804C215.718 223.705 204.536 218.933 202.931 217.338C202.301 213.253 202.735 208.897 202.735 208.897C202.735 208.897 204.49 207.275 205.911 205.506C210.662 211.54 244.831 223.674 250.727 225.774C250.881 225.824 251.012 225.943 251.127 225.98L251.204 226.005C251.472 226.092 251.626 226.142 251.626 226.142C251.626 226.142 251.741 226.179 252.048 226.279L252.125 226.303C252.24 226.341 252.417 226.321 252.57 226.371C258.579 228.123 293.367 238.344 300.752 236.238C300.867 238.504 301.35 240.812 301.35 240.812Z" fill="#DDFFFF"/>
<path d="M301.224 240.811C301.224 240.811 299.035 244.56 296.154 247.431C293.93 247.749 282.083 245.029 278.041 243.491C267.711 239.494 262.711 236.723 261.741 236.179C260.715 232.927 260.407 232.174 260.407 232.174L241.091 225.923C241.091 225.923 240.401 226.352 237.664 228.387C236.521 228.248 230.872 227.611 220.17 224.762C215.983 223.676 204.838 218.916 203.184 217.343C202.532 213.328 202.954 209.008 202.954 209.008C202.954 209.008 204.698 207.42 206.108 205.686C210.842 211.637 244.935 223.747 250.831 225.847C250.984 225.897 251.116 226.016 251.231 226.053L251.308 226.078C251.576 226.165 251.73 226.215 251.73 226.215C251.73 226.215 251.845 226.252 252.152 226.351L252.229 226.376C252.344 226.414 252.521 226.394 252.674 226.443C258.683 228.196 293.345 238.414 300.718 236.343C300.74 238.502 301.224 240.811 301.224 240.811Z" fill="#DEFFFF"/>
<path d="M301.059 240.796C301.059 240.796 298.892 244.475 296.061 247.325C293.837 247.642 282.029 244.935 277.998 243.362C267.695 239.413 262.695 236.642 261.725 236.097C260.688 232.88 260.38 232.127 260.38 232.127L241.141 225.9C241.141 225.9 240.45 226.33 237.724 228.33C236.582 228.191 230.945 227.519 220.27 224.718C216.082 223.631 204.965 218.919 203.31 217.346C202.647 213.366 203.085 209.127 203.085 209.127C203.085 209.127 204.829 207.54 206.228 205.84C210.973 211.757 244.962 223.794 250.82 225.882C250.973 225.932 251.104 226.051 251.219 226.088L251.296 226.113C251.565 226.2 251.68 226.237 251.68 226.237C251.68 226.237 251.796 226.275 252.064 226.362L252.141 226.386C252.256 226.424 252.432 226.404 252.586 226.454C258.556 228.194 293.141 238.387 300.454 236.373C300.564 238.522 301.059 240.796 301.059 240.796Z" fill="#DFFFFF"/>
<path d="M300.932 240.793C300.932 240.793 298.777 244.438 295.968 247.217C293.744 247.535 281.985 244.806 277.994 243.245C267.69 239.295 262.756 236.584 261.748 236.027C260.699 232.844 260.38 232.126 260.38 232.126L241.179 225.912C241.179 225.912 240.489 226.342 237.785 228.272C236.681 228.145 231.044 227.474 220.38 224.638C216.204 223.517 205.114 218.852 203.497 217.291C202.861 213.358 203.25 209.142 203.25 209.142C203.25 209.142 204.983 207.589 206.37 205.924C211.1 211.759 245.012 223.771 250.869 225.859C251.023 225.909 251.154 226.028 251.269 226.065L251.346 226.09C251.615 226.177 251.73 226.214 251.73 226.214C251.73 226.214 251.845 226.252 252.114 226.339L252.191 226.364C252.306 226.401 252.482 226.381 252.636 226.431C258.606 228.171 293.114 238.34 300.366 236.383C300.427 238.554 300.932 240.793 300.932 240.793Z" fill="#E0FFFF"/>
<path d="M300.767 240.778C300.767 240.778 298.635 244.353 295.837 247.098C293.624 247.381 281.904 244.664 277.901 243.138C267.636 239.201 262.701 236.489 261.682 235.967C260.661 232.832 260.303 232.101 260.303 232.101L241.179 225.912C241.179 225.912 240.5 226.307 237.797 228.237C236.692 228.11 231.066 227.404 220.441 224.58C216.303 223.472 205.213 218.807 203.585 217.281C202.927 213.417 203.304 209.236 203.304 209.236C203.304 209.236 205.026 207.718 206.413 206.053C211.154 211.853 244.962 223.793 250.781 225.869C250.935 225.918 251.066 226.038 251.181 226.075L251.258 226.1C251.527 226.187 251.642 226.224 251.642 226.224C251.642 226.224 251.757 226.261 252.026 226.348L252.103 226.373C252.218 226.41 252.394 226.391 252.548 226.44C258.518 228.18 292.9 238.347 300.101 236.412C300.25 238.574 300.767 240.778 300.767 240.778Z" fill="#E1FFFF"/>
<path d="M300.603 240.763C300.603 240.763 298.481 244.303 295.706 246.979C293.493 247.261 281.823 244.522 277.82 242.996C267.593 239.071 262.647 236.395 261.678 235.851C260.645 232.75 260.287 232.019 260.287 232.019L241.202 225.843C241.202 225.843 240.523 226.237 237.83 228.133C236.726 228.006 231.139 227.312 220.552 224.501C216.414 223.392 205.362 218.739 203.723 217.248C203.053 213.42 203.408 209.308 203.408 209.308C203.408 209.308 205.119 207.825 206.494 206.195C211.22 211.913 244.951 223.828 250.77 225.903C250.924 225.953 251.055 226.072 251.17 226.11L251.247 226.135C251.515 226.222 251.631 226.259 251.631 226.259C251.631 226.259 251.746 226.296 252.015 226.383L252.091 226.408C252.207 226.445 252.383 226.425 252.536 226.475C258.468 228.203 292.773 238.344 299.953 236.479C300.113 238.606 300.603 240.763 300.603 240.763Z" fill="#E2FFFF"/>
<path d="M300.476 240.761C300.476 240.761 298.377 244.231 295.602 246.907C293.401 247.155 281.768 244.428 277.765 242.902C267.566 239.024 262.62 236.348 261.651 235.804C260.607 232.738 260.249 232.007 260.249 232.007L241.202 225.843C241.202 225.843 240.523 226.238 237.842 228.098C236.737 227.972 231.161 227.243 220.613 224.444C216.474 223.335 205.45 218.73 203.823 217.204C203.141 213.41 203.474 209.368 203.474 209.368C203.474 209.368 205.184 207.885 206.51 206.277C211.247 211.96 244.874 223.803 250.693 225.879C250.847 225.929 250.978 226.048 251.093 226.085L251.17 226.11C251.439 226.197 251.554 226.234 251.554 226.234C251.554 226.234 251.669 226.272 251.938 226.359L252.015 226.383C252.13 226.421 252.306 226.401 252.46 226.451C258.391 228.178 292.57 238.317 299.738 236.487C299.937 238.626 300.476 240.761 300.476 240.761Z" fill="#E3FFFF"/>
<path d="M300.311 240.746C300.311 240.746 298.273 244.16 295.51 246.801C293.308 247.049 281.714 244.334 277.749 242.82C267.55 238.943 262.642 236.279 261.662 235.77C260.607 232.738 260.276 232.055 260.276 232.055L241.306 225.916C241.306 225.916 240.627 226.311 238.007 228.114C236.913 227.952 231.364 227.271 220.827 224.437C216.689 223.328 205.703 218.735 204.103 217.257C203.399 213.532 203.759 209.537 203.759 209.537C203.759 209.537 205.458 208.089 206.773 206.516C211.532 212.13 245.043 223.936 250.824 225.999C250.978 226.049 251.109 226.168 251.224 226.205L251.301 226.23C251.57 226.317 251.685 226.354 251.685 226.354C251.685 226.354 251.8 226.392 252.069 226.479L252.146 226.503C252.261 226.541 252.437 226.521 252.591 226.571C258.484 228.286 292.586 238.4 299.693 236.627C299.799 238.659 300.311 240.746 300.311 240.746Z" fill="#E4FFFF"/>
<path d="M300.185 240.744C300.185 240.744 298.158 244.123 295.417 246.694C293.215 246.942 281.671 244.205 277.706 242.691C267.545 238.826 262.627 236.197 261.657 235.653C260.591 232.656 260.26 231.973 260.26 231.973L241.328 225.846C241.328 225.846 240.66 226.206 238.04 228.01C236.947 227.848 231.409 227.132 220.911 224.31C216.811 223.214 205.825 218.621 204.213 217.177C203.498 213.488 203.835 209.562 203.835 209.562C203.835 209.562 205.485 208.136 206.838 206.576C211.581 212.107 245.016 223.889 250.797 225.952C250.951 226.001 251.082 226.121 251.197 226.158L251.274 226.183C251.543 226.27 251.658 226.307 251.658 226.307C251.658 226.307 251.773 226.344 252.042 226.431L252.119 226.456C252.234 226.493 252.372 226.461 252.564 226.523C258.457 228.238 292.432 238.35 299.528 236.612C299.634 238.644 300.185 240.744 300.185 240.744Z" fill="#E5FFFF"/>
<path d="M300.009 240.763C300.009 240.763 298.004 244.072 295.275 246.609C293.123 246.835 281.578 244.098 277.614 242.584C267.491 238.732 262.611 236.115 261.63 235.605C260.552 232.643 260.222 231.96 260.222 231.96L241.367 225.858C241.367 225.858 240.699 226.218 238.09 227.987C236.997 227.825 231.498 227.121 221.037 224.312C216.937 223.216 206.017 218.683 204.378 217.192C203.641 213.572 203.967 209.681 203.967 209.681C203.967 209.681 205.605 208.29 206.947 206.765C211.701 212.261 245.032 223.97 250.813 226.033C250.967 226.083 251.098 226.202 251.175 226.227L251.251 226.252C251.52 226.339 251.635 226.376 251.635 226.376C251.635 226.376 251.751 226.413 252.019 226.5L252.096 226.525C252.211 226.563 252.349 226.53 252.503 226.58C258.346 228.318 292.256 238.37 299.33 236.701C299.496 238.676 300.009 240.763 300.009 240.763Z" fill="#E6FFFF"/>
<path d="M299.882 240.761C299.882 240.761 297.889 244.035 295.182 246.502C293.03 246.728 281.535 243.969 277.598 242.502C267.513 238.662 262.622 236.08 261.641 235.571C260.552 232.644 260.222 231.96 260.222 231.96L241.405 225.871C241.405 225.871 240.737 226.231 238.14 227.965C237.046 227.803 231.558 227.064 221.136 224.268C217.037 223.172 206.154 218.651 204.543 217.207C203.794 213.622 204.097 209.801 204.097 209.801C204.097 209.801 205.724 208.444 207.066 206.919C211.805 212.333 245.059 224.018 250.802 226.068C250.955 226.118 251.086 226.237 251.163 226.262L251.24 226.287C251.509 226.374 251.624 226.411 251.624 226.411C251.624 226.411 251.739 226.448 252.008 226.535L252.085 226.56C252.2 226.598 252.338 226.565 252.491 226.615C258.335 228.353 292.13 238.367 299.142 236.756C299.32 238.696 299.882 240.761 299.882 240.761Z" fill="#E7FFFF"/>
<path d="M299.717 240.746C299.717 240.746 297.747 243.951 295.051 246.383C292.899 246.608 281.443 243.862 277.516 242.36C267.421 238.555 262.568 235.985 261.587 235.476C260.487 232.584 260.145 231.935 260.145 231.935L241.405 225.87C241.405 225.87 240.737 226.231 238.162 227.895C237.069 227.733 231.619 227.007 221.208 224.176C217.147 223.092 206.265 218.571 204.642 217.162C203.921 213.624 204.163 209.86 204.163 209.86C204.163 209.86 205.79 208.504 207.11 207.048C211.859 212.427 245.01 224.04 250.763 226.055C250.917 226.105 251.048 226.224 251.125 226.249L251.202 226.274C251.47 226.361 251.586 226.398 251.586 226.398C251.586 226.398 251.701 226.436 251.97 226.523L252.046 226.548C252.162 226.585 252.299 226.553 252.453 226.602C258.297 228.34 291.965 238.352 298.966 236.775C299.182 238.728 299.717 240.746 299.717 240.746Z" fill="#E8FFFF"/>
<path d="M299.553 240.73C299.553 240.73 297.593 243.9 294.958 246.275C292.817 246.466 281.4 243.731 277.473 242.23C267.416 238.437 262.563 235.867 261.582 235.358C260.509 232.513 260.168 231.864 260.168 231.864L241.466 225.812C241.466 225.812 240.809 226.137 238.273 227.814C237.18 227.653 231.741 226.892 221.369 224.073C217.307 222.989 206.452 218.515 204.841 217.071C204.097 213.603 204.366 209.886 204.366 209.886C204.366 209.886 205.982 208.564 207.29 207.143C212.024 212.441 245.098 224.029 250.813 226.032C250.967 226.082 251.098 226.201 251.174 226.226L251.251 226.251C251.52 226.338 251.635 226.375 251.635 226.375C251.635 226.375 251.751 226.412 252.019 226.499L252.096 226.524C252.211 226.561 252.349 226.529 252.503 226.579C258.308 228.304 291.899 238.291 298.84 236.772C299.006 238.747 299.553 240.73 299.553 240.73Z" fill="#E9FFFF"/>
<path d="M299.426 240.728C299.426 240.728 297.489 243.829 294.865 246.169C292.725 246.36 281.357 243.603 277.419 242.137C267.4 238.356 262.536 235.821 261.555 235.312C260.471 232.502 260.129 231.853 260.129 231.853L241.466 225.813C241.466 225.813 240.809 226.138 238.284 227.78C237.191 227.619 231.752 226.858 221.418 224.051C217.357 222.968 206.54 218.506 204.918 217.097C204.162 213.664 204.409 210.016 204.409 210.016C204.409 210.016 206.014 208.729 207.284 207.296C212.029 212.559 244.998 224.074 250.714 226.078C250.867 226.127 250.998 226.247 251.075 226.272L251.152 226.296C251.421 226.383 251.536 226.421 251.536 226.421C251.536 226.421 251.651 226.458 251.92 226.545L251.997 226.57C252.112 226.607 252.25 226.575 252.403 226.624C258.209 228.35 291.674 238.334 298.602 236.85C298.869 238.78 299.426 240.728 299.426 240.728Z" fill="#EAFFFF"/>
<path d="M299.261 240.713C299.261 240.713 297.347 243.744 294.734 246.049C292.605 246.206 281.275 243.461 277.376 242.007C267.396 238.239 262.52 235.739 261.578 235.242C260.482 232.467 260.141 231.818 260.141 231.818L241.554 225.803C241.554 225.803 240.897 226.128 238.383 227.736C237.29 227.574 231.901 226.791 221.606 223.997C217.594 222.89 206.766 218.464 205.171 217.102C204.404 213.703 204.629 210.125 204.629 210.125C204.629 210.125 206.222 208.873 207.48 207.475C212.21 212.656 245.102 224.146 250.818 226.15C250.971 226.199 251.102 226.319 251.179 226.343L251.256 226.368C251.525 226.455 251.64 226.493 251.64 226.493C251.64 226.493 251.755 226.53 252.024 226.617L252.101 226.642C252.216 226.679 252.354 226.647 252.507 226.696C258.274 228.409 291.662 238.369 298.569 236.954C298.692 238.8 299.261 240.713 299.261 240.713Z" fill="#EBFFFF"/>
<path d="M299.135 240.711C299.135 240.711 297.232 243.707 294.641 245.943C292.512 246.099 281.221 243.367 277.333 241.878C267.38 238.158 262.515 235.623 261.573 235.126C260.455 232.42 260.113 231.771 260.113 231.771L241.565 225.769C241.565 225.769 240.909 226.094 238.417 227.632C237.324 227.47 231.935 226.687 221.689 223.87C217.678 222.764 206.877 218.385 205.292 216.988C204.503 213.659 204.717 210.116 204.717 210.116C204.717 210.116 206.31 208.864 207.557 207.5C212.309 212.612 245.086 224.065 250.763 226.056C250.917 226.105 251.048 226.225 251.125 226.249L251.202 226.274C251.47 226.361 251.586 226.399 251.586 226.399C251.586 226.399 251.701 226.436 251.97 226.523L252.046 226.548C252.162 226.585 252.299 226.553 252.453 226.602C258.22 228.315 291.482 238.273 298.338 236.88C298.566 238.798 299.135 240.711 299.135 240.711Z" fill="#ECFFFF"/>
<path d="M298.97 240.696C298.97 240.696 297.089 243.623 294.51 245.824C292.42 245.993 281.139 243.226 277.24 241.772C267.287 238.051 262.488 235.576 261.508 235.066C260.378 232.395 260.037 231.747 260.037 231.747L241.527 225.756C241.527 225.756 240.87 226.082 238.39 227.585C237.335 227.436 231.958 226.617 221.7 223.836C217.689 222.73 206.965 218.375 205.331 217.001C204.53 213.706 204.721 210.233 204.721 210.233C204.721 210.233 206.303 209.016 207.539 207.687C212.302 212.763 245.014 224.157 250.653 226.135C250.806 226.185 250.937 226.304 251.014 226.329L251.091 226.354C251.36 226.441 251.475 226.478 251.475 226.478C251.475 226.478 251.59 226.516 251.859 226.603L251.936 226.627C252.051 226.665 252.189 226.632 252.342 226.682C258.071 228.382 291.256 238.315 298.09 236.992C298.39 238.818 298.97 240.696 298.97 240.696Z" fill="#EDFFFF"/>
<path d="M298.805 240.681C298.805 240.681 296.936 243.573 294.418 245.717C292.338 245.851 281.096 243.096 277.197 241.642C267.282 237.934 262.483 235.459 261.492 234.984C260.351 232.348 260.009 231.699 260.009 231.699L241.577 225.734C241.577 225.734 240.931 226.025 238.451 227.527C237.396 227.378 232.018 226.56 221.811 223.756C217.799 222.65 207.114 218.308 205.468 216.969C204.657 213.709 204.864 210.317 204.864 210.317C204.864 210.317 206.434 209.135 207.67 207.806C212.417 212.8 245.041 224.204 250.691 226.148C250.845 226.197 250.976 226.317 251.053 226.341L251.129 226.366C251.398 226.453 251.513 226.491 251.513 226.491C251.513 226.491 251.629 226.528 251.897 226.615L251.974 226.64C252.089 226.677 252.227 226.645 252.381 226.694C258.109 228.395 291.179 238.29 297.991 237.036C298.252 238.85 298.805 240.681 298.805 240.681Z" fill="#EEFFFF"/>
<path d="M298.678 240.679C298.678 240.679 296.832 243.501 294.325 245.61C292.245 245.744 281.053 242.967 277.193 241.526C267.316 237.83 262.506 235.389 261.553 234.927C260.401 232.326 260.086 231.724 260.086 231.724L241.692 225.771C241.692 225.771 241.046 226.062 238.627 227.508C237.572 227.358 232.244 226.518 222.075 223.726C218.102 222.633 207.405 218.325 205.798 216.998C204.964 213.808 205.171 210.417 205.171 210.417C205.171 210.417 206.73 209.269 207.955 207.975C212.713 212.935 245.233 224.266 250.845 226.197C250.998 226.247 251.129 226.366 251.206 226.391L251.283 226.416C251.552 226.503 251.667 226.54 251.667 226.54C251.667 226.54 251.782 226.578 252.051 226.665L252.128 226.689C252.243 226.727 252.381 226.694 252.534 226.744C258.263 228.444 291.206 238.337 297.968 237.106C298.076 238.87 298.678 240.679 298.678 240.679Z" fill="#EFFFFF"/>
<path d="M298.502 240.698C298.502 240.698 296.678 243.451 294.183 245.525C292.103 245.659 280.961 242.86 277.1 241.419C267.251 237.77 262.44 235.33 261.498 234.833C260.374 232.278 260.021 231.664 260.021 231.664L241.703 225.736C241.703 225.736 241.058 226.027 238.649 227.438C237.606 227.254 232.267 226.448 222.147 223.634C218.174 222.541 207.516 218.246 205.909 216.919C205.102 213.776 205.248 210.442 205.248 210.442C205.248 210.442 206.807 209.294 208.021 208.034C212.763 212.912 245.206 224.219 250.818 226.15C250.971 226.2 251.102 226.319 251.179 226.344L251.256 226.369C251.525 226.456 251.64 226.493 251.64 226.493C251.64 226.493 251.755 226.53 252.024 226.617L252.101 226.642C252.216 226.679 252.354 226.647 252.507 226.697C258.197 228.385 291.102 238.265 297.803 237.091C297.938 238.902 298.502 240.698 298.502 240.698Z" fill="#F0FFFF"/>
<path d="M298.376 240.695C298.376 240.695 296.563 243.413 294.079 245.452C292.01 245.551 280.895 242.799 277.034 241.358C267.185 237.709 262.413 235.281 261.46 234.819C260.324 232.299 259.971 231.686 259.971 231.686L241.692 225.77C241.692 225.77 241.046 226.061 238.65 227.437C237.606 227.253 232.317 226.425 222.186 223.646C218.213 222.552 207.593 218.27 205.974 216.977C205.156 213.869 205.279 210.604 205.279 210.604C205.279 210.604 206.789 209.479 208.03 208.267C212.784 213.11 245.123 224.344 250.696 226.263C250.849 226.313 250.981 226.432 251.057 226.457L251.134 226.482C251.403 226.569 251.518 226.606 251.518 226.606C251.518 226.606 251.633 226.643 251.902 226.73L251.979 226.755C252.094 226.793 252.221 226.795 252.385 226.81C258.076 228.498 290.854 238.376 297.505 237.224C297.762 238.921 298.376 240.695 298.376 240.695Z" fill="#F1FFFF"/>
<path d="M298.211 240.68C298.211 240.68 296.421 243.329 293.948 245.334C291.879 245.433 280.814 242.658 276.991 241.229C267.18 237.593 262.398 235.2 261.444 234.738C260.297 232.253 259.944 231.639 259.944 231.639L241.703 225.736C241.703 225.736 241.069 225.992 238.672 227.368C237.629 227.184 232.339 226.356 222.258 223.554C218.323 222.473 207.703 218.191 206.112 216.946C205.271 213.907 205.383 210.677 205.383 210.677C205.383 210.677 206.882 209.586 208.084 208.362C212.822 213.123 245.085 224.332 250.657 226.251C250.811 226.301 250.942 226.42 251.019 226.445L251.096 226.47C251.365 226.557 251.48 226.594 251.48 226.594C251.48 226.594 251.595 226.632 251.864 226.719L251.941 226.743C252.056 226.781 252.182 226.783 252.347 226.798C257.999 228.473 290.7 238.327 297.329 237.244C297.625 238.954 298.211 240.68 298.211 240.68Z" fill="#F2FFFF"/>
<path d="M298.085 240.677C298.085 240.677 296.306 243.291 293.855 245.226C291.787 245.325 280.771 242.529 276.948 241.099C267.176 237.476 262.42 235.13 261.478 234.633C260.319 232.183 259.955 231.604 259.955 231.604L241.791 225.725C241.791 225.725 241.157 225.981 238.783 227.288C237.739 227.104 232.499 226.253 222.457 223.464C218.522 222.383 207.929 218.148 206.349 216.868C205.497 213.864 205.587 210.704 205.587 210.704C205.587 210.704 207.074 209.648 208.265 208.458C213.025 213.15 245.173 224.322 250.745 226.241C250.899 226.29 251.041 226.375 251.118 226.4L251.195 226.425C251.464 226.512 251.579 226.549 251.579 226.549C251.579 226.549 251.694 226.586 251.963 226.673L252.04 226.698C252.155 226.735 252.282 226.738 252.446 226.753C258.098 228.428 290.673 238.279 297.291 237.231C297.46 238.938 298.085 240.677 298.085 240.677Z" fill="#F3FFFF"/>
<path d="M297.92 240.663C297.92 240.663 296.202 243.219 293.762 245.12C291.744 245.196 280.728 242.4 276.894 241.005C267.16 237.394 262.404 235.048 261.451 234.586C260.281 232.171 259.917 231.592 259.917 231.592L241.791 225.726C241.791 225.726 241.157 225.981 238.794 227.253C237.75 227.069 232.511 226.219 222.518 223.407C218.583 222.326 208.067 218.116 206.437 216.859C205.574 213.889 205.679 210.811 205.679 210.811C205.679 210.811 207.155 209.79 208.335 208.635C213.107 213.292 245.15 224.392 250.685 226.298C250.838 226.348 250.981 226.432 251.057 226.457L251.134 226.482C251.403 226.569 251.518 226.606 251.518 226.606C251.518 226.606 251.633 226.644 251.902 226.731L251.979 226.756C252.094 226.793 252.221 226.795 252.385 226.81C257.999 228.473 290.497 238.299 297.054 237.308C297.322 238.971 297.92 240.663 297.92 240.663Z" fill="#F4FFFF"/>
<path d="M297.755 240.649C297.755 240.649 296.048 243.17 293.631 245.001C291.613 245.078 280.635 242.294 276.851 240.877C267.106 237.3 262.388 234.967 261.435 234.505C260.254 232.124 259.928 231.558 259.928 231.558L241.879 225.717C241.879 225.717 241.245 225.972 238.932 227.222C237.888 227.038 232.698 226.165 222.694 223.388C218.797 222.32 208.281 218.109 206.641 216.887C205.755 213.987 205.849 210.944 205.849 210.944C205.849 210.944 207.325 209.923 208.493 208.802C213.249 213.377 245.216 224.452 250.75 226.359C250.904 226.408 251.008 226.481 251.123 226.518L251.161 226.53C251.43 226.617 251.545 226.655 251.545 226.655C251.545 226.655 251.661 226.692 251.929 226.779L251.968 226.791C252.083 226.829 252.209 226.831 252.363 226.881C257.965 228.578 290.359 238.332 296.894 237.411C297.146 238.991 297.755 240.649 297.755 240.649Z" fill="#F5FFFF"/>
<path d="M297.628 240.646C297.628 240.646 295.944 243.098 293.539 244.894C291.531 244.936 280.592 242.164 276.808 240.747C267.101 237.183 262.372 234.884 261.419 234.422C260.227 232.077 259.901 231.51 259.901 231.51L241.891 225.681C241.891 225.681 241.267 225.902 238.954 227.152C237.911 226.968 232.72 226.095 222.766 223.296C218.881 222.193 208.38 218.064 206.789 216.819C205.892 213.954 205.964 210.98 205.964 210.98C205.964 210.98 207.429 209.994 208.586 208.909C213.353 213.449 245.216 224.452 250.75 226.358C250.904 226.408 251.008 226.48 251.123 226.517L251.161 226.53C251.43 226.617 251.545 226.654 251.545 226.654C251.545 226.654 251.66 226.691 251.929 226.778L251.968 226.791C252.083 226.828 252.209 226.831 252.363 226.88C257.965 228.578 290.233 238.329 296.756 237.443C297.008 239.023 297.628 240.646 297.628 240.646Z" fill="#F6FFFF"/>
<path d="M297.464 240.631C297.464 240.631 295.802 243.014 293.407 244.775C291.4 244.817 280.51 242.023 276.715 240.641C267.047 237.089 262.318 234.79 261.365 234.328C260.199 232.03 259.824 231.486 259.824 231.486L241.89 225.682C241.89 225.682 241.267 225.903 238.977 227.083C237.933 226.899 232.793 226.003 222.838 223.205C218.953 222.101 208.491 217.985 206.889 216.775C205.98 213.945 206.029 211.04 206.029 211.04C206.029 211.04 207.483 210.089 208.64 209.003C213.391 213.461 245.177 224.44 250.673 226.334C250.827 226.384 250.931 226.456 251.046 226.493L251.084 226.505C251.353 226.592 251.468 226.63 251.468 226.63C251.468 226.63 251.584 226.667 251.852 226.754L251.891 226.766C252.006 226.804 252.132 226.806 252.286 226.856C257.85 228.541 290.041 238.267 296.503 237.438C296.832 239.043 297.464 240.631 297.464 240.631Z" fill="#F7FFFF"/>
<path d="M297.337 240.628C297.337 240.628 295.686 242.976 293.315 244.668C291.307 244.71 280.467 241.893 276.672 240.511C267.042 236.972 262.302 234.708 261.387 234.258C260.211 231.995 259.835 231.45 259.835 231.45L241.94 225.659C241.94 225.659 241.317 225.88 239.037 227.025C237.994 226.841 232.853 225.946 222.976 223.172C219.09 222.068 208.667 217.965 207.054 216.789C206.161 214.041 206.161 211.159 206.161 211.159C206.161 211.159 207.603 210.243 208.749 209.192C213.511 213.615 245.193 224.521 250.689 226.415C250.843 226.465 250.947 226.537 251.062 226.574L251.1 226.587C251.369 226.674 251.484 226.711 251.484 226.711C251.484 226.711 251.6 226.748 251.868 226.835L251.907 226.848C252.022 226.885 252.148 226.888 252.302 226.937C257.866 228.623 289.93 238.347 296.381 237.552C296.694 239.075 297.337 240.628 297.337 240.628Z" fill="#F8FFFF"/>
<path d="M297.161 240.648C297.161 240.648 295.533 242.926 293.211 244.596C291.215 244.603 280.402 241.834 276.656 240.429C267.053 236.937 262.363 234.651 261.398 234.223C260.211 231.995 259.835 231.451 259.835 231.451L241.979 225.672C241.979 225.672 241.394 225.905 239.087 227.003C238.044 226.819 232.914 225.889 223.075 223.127C219.228 222.036 208.794 217.967 207.23 216.77C206.326 214.056 206.341 211.256 206.341 211.256C206.341 211.256 207.783 210.34 208.88 209.311C213.626 213.652 245.231 224.534 250.689 226.416C250.843 226.465 250.947 226.537 251.062 226.575L251.1 226.587C251.369 226.674 251.484 226.711 251.484 226.711C251.484 226.711 251.6 226.749 251.868 226.836L251.907 226.848C252.022 226.885 252.148 226.888 252.302 226.938C257.827 228.61 289.815 238.309 296.205 237.572C296.518 239.095 297.161 240.648 297.161 240.648Z" fill="#F9FFFF"/>
<path d="M297.034 240.645C297.034 240.645 295.418 242.889 293.118 244.488C291.122 244.496 280.359 241.704 276.602 240.335C266.999 236.843 262.336 234.603 261.383 234.141C260.184 231.947 259.847 231.415 259.847 231.415L242.067 225.661C242.067 225.661 241.482 225.895 239.225 226.97C238.22 226.799 233.09 225.869 223.262 223.072C219.416 221.981 209.019 217.925 207.444 216.762C206.518 214.118 206.522 211.353 206.522 211.353C206.522 211.353 207.953 210.471 209.038 209.477C213.807 213.749 245.297 224.593 250.755 226.475C250.908 226.524 251.012 226.596 251.127 226.634L251.166 226.646C251.435 226.733 251.55 226.77 251.55 226.77C251.55 226.77 251.665 226.808 251.934 226.895L251.972 226.907C252.087 226.944 252.214 226.947 252.368 226.997C257.893 228.67 289.754 238.366 296.133 237.664C296.392 239.092 297.034 240.645 297.034 240.645Z" fill="#FAFFFF"/>
<path d="M296.87 240.63C296.87 240.63 295.275 242.804 292.987 244.369C291.029 244.389 280.277 241.562 276.521 240.193C266.956 236.713 262.282 234.509 261.328 234.047C260.118 231.887 259.77 231.39 259.77 231.39L242.028 225.649C242.028 225.649 241.455 225.847 239.209 226.888C238.204 226.717 233.086 225.752 223.296 222.968C219.449 221.877 209.092 217.833 207.505 216.705C206.568 214.096 206.549 211.4 206.549 211.4C206.549 211.4 207.969 210.553 209.054 209.559C213.796 213.784 245.22 224.568 250.678 226.45C250.832 226.5 250.935 226.572 251.051 226.609L251.089 226.621C251.358 226.708 251.473 226.746 251.473 226.746C251.473 226.746 251.588 226.783 251.857 226.87L251.896 226.882C252.011 226.92 252.137 226.922 252.291 226.972C257.778 228.632 289.562 238.304 295.918 237.671C296.216 239.112 296.87 240.63 296.87 240.63Z" fill="#FBFFFF"/>
<path d="M296.705 240.615C296.705 240.615 295.122 242.755 292.856 244.25C290.909 244.235 280.196 241.421 276.439 240.051C266.913 236.584 262.239 234.38 261.312 233.965C260.091 231.84 259.743 231.343 259.743 231.343L242.039 225.614C242.039 225.614 241.466 225.813 239.231 226.819C238.226 226.647 233.147 225.695 223.395 222.923C219.587 221.844 209.256 217.848 207.643 216.672C206.694 214.098 206.653 211.472 206.653 211.472C206.653 211.472 208.061 210.66 209.135 209.701C213.9 213.856 245.209 224.603 250.628 226.472C250.782 226.522 250.886 226.594 251.001 226.631L251.039 226.644C251.27 226.718 251.423 226.768 251.423 226.768C251.423 226.768 251.539 226.805 251.807 226.892L251.846 226.905C251.961 226.942 252.087 226.944 252.241 226.994C257.728 228.655 289.397 238.289 295.692 237.713C296.078 239.145 296.705 240.615 296.705 240.615Z" fill="#FCFFFF"/>
<path d="M296.578 240.613C296.578 240.613 295.018 242.683 292.763 244.144C290.817 244.128 280.142 241.327 276.423 239.97C266.935 236.515 262.25 234.345 261.324 233.93C260.091 231.841 259.743 231.344 259.743 231.344L242.116 225.639C242.116 225.639 241.543 225.838 239.319 226.809C238.326 226.603 233.246 225.651 223.533 222.891C219.725 221.813 209.432 217.828 207.846 216.7C206.875 214.196 206.823 211.604 206.823 211.604C206.823 211.604 208.231 210.792 209.294 209.868C214.069 213.988 245.274 224.663 250.694 226.532C250.847 226.582 250.951 226.654 251.066 226.691L251.105 226.704C251.335 226.778 251.489 226.828 251.489 226.828C251.489 226.828 251.604 226.865 251.873 226.952L251.911 226.965C252.027 227.002 252.153 227.005 252.307 227.054C257.755 228.702 289.336 238.347 295.62 237.806C295.902 239.165 296.578 240.613 296.578 240.613Z" fill="#FDFFFF"/>
<path d="M296.414 240.599C296.414 240.599 294.875 242.599 292.671 244.037C290.735 243.987 280.099 241.198 276.38 239.841C266.881 236.421 262.234 234.264 261.319 233.814C260.075 231.759 259.715 231.297 259.715 231.297L242.128 225.605C242.128 225.605 241.554 225.803 239.353 226.705C238.36 226.499 233.318 225.559 223.617 222.765C219.808 221.686 209.554 217.714 207.957 216.621C206.974 214.151 206.949 211.607 206.949 211.607C206.949 211.607 208.308 210.817 209.398 209.94C214.157 213.978 245.286 224.629 250.705 226.498C250.859 226.547 250.963 226.62 251.078 226.657L251.116 226.669C251.347 226.744 251.5 226.794 251.5 226.794C251.5 226.794 251.615 226.831 251.884 226.918L251.923 226.93C251.999 226.955 252.164 226.97 252.318 227.02C257.766 228.668 289.232 238.275 295.494 237.803C295.764 239.197 296.414 240.599 296.414 240.599Z" fill="#FEFFFF"/>
<path d="M296.287 240.596C296.287 240.596 294.76 242.561 292.578 243.93C290.642 243.88 280.056 241.068 276.337 239.711C266.877 236.304 262.229 234.146 261.303 233.731C260.086 231.724 259.688 231.249 259.688 231.249L242.177 225.582C242.177 225.582 241.615 225.746 239.414 226.647C238.42 226.441 233.39 225.467 223.727 222.685C219.957 221.619 209.703 217.647 208.106 216.553C207.15 214.131 207.064 211.644 207.064 211.644C207.064 211.644 208.412 210.889 209.49 210.047C214.261 214.05 245.313 224.675 250.667 226.485C250.82 226.535 250.924 226.607 251.039 226.644L251.078 226.656C251.308 226.731 251.462 226.781 251.462 226.781C251.462 226.781 251.577 226.818 251.846 226.905L251.884 226.917C251.961 226.942 252.126 226.957 252.279 227.007C257.717 228.69 289.068 238.259 295.279 237.811C295.588 239.217 296.287 240.596 296.287 240.596Z" fill="white"/>
<path opacity="0.2" d="M327.633 197.484C327.467 197.737 327.25 198.013 327.049 198.371C316.49 214.743 310.446 249.675 310.446 249.675C309.709 253.394 310.157 257.382 311.506 257.934C315.296 248.978 328.109 214.891 327.633 197.484Z" fill="black"/>
<path opacity="0.2" d="M206.873 157.44C206.86 157.743 206.874 158.093 206.827 158.501C205.792 177.955 190.223 209.805 190.223 209.805C188.641 213.251 185.941 216.22 184.525 215.877C186.702 206.398 196.3 171.233 206.873 157.44Z" fill="black"/>
<path opacity="0.1" d="M186.217 239.096C186.217 239.096 196.473 257.479 191.223 278.028C187.581 292.296 185.863 293.278 187.661 295.589C192.432 301.82 237.146 301.036 241.141 294.721C245.136 288.406 207.745 249.522 197.379 241.441C187.013 233.36 186.872 232.353 186.217 239.096Z" fill="black"/>
<path opacity="0.1" d="M296.467 274.777C296.467 274.777 277.385 283.664 269.6 303.394C264.192 317.09 265.009 318.892 262.198 319.711C254.681 321.966 218.905 295.133 219.367 287.674C219.83 280.216 272.912 270.612 286.048 270.137C299.222 269.674 299.887 268.929 296.467 274.777Z" fill="black"/>
<path d="M310.845 258.142C308.586 262.368 306.119 265.796 303.651 268.571C303.602 268.593 303.579 268.663 303.529 268.685C299.753 272.881 296.028 275.48 293.141 276.928C292.225 277.4 291.353 277.732 290.604 277.951C281.239 280.8 269.531 292.073 265.639 307.375L254.598 311.602C254.598 311.602 250.368 301.472 250.942 299.698C254.686 293.11 264.101 286.435 275.002 280.933C285.904 275.431 295.361 265.35 299.03 260.697C299.03 260.697 303.817 252.985 306.553 240.729C306.553 240.729 306.292 237.34 306.438 234.006C306.499 233.949 306.587 233.939 306.636 233.916C308.239 226.212 311.659 218.135 314.897 211.536C315.143 211.039 315.378 210.577 315.612 210.115C316.912 207.539 318.123 205.241 319.171 203.313C320.325 201.189 322.588 197.08 323.023 196.26C323.034 196.225 323.084 196.203 323.107 196.133C323.118 196.098 323.118 196.098 323.118 196.098C323.118 196.098 316.584 213.927 311.513 235.495C308.583 247.957 311.453 249.577 310.845 258.142Z" fill="#DB6833" stroke="#171717" stroke-width="4" stroke-miterlimit="10" stroke-linecap="round" stroke-linejoin="round"/>
<path d="M265.92 310.31L253.638 315.096L248.983 302.868C248.983 302.868 243.216 310.724 240.252 316.605L249.641 327.444L263.496 321.207L265.92 310.31Z" fill="#DB6833" stroke="#171717" stroke-width="4" stroke-miterlimit="10" stroke-linecap="round" stroke-linejoin="round"/>
<path d="M306.63 240.754C306.63 240.754 303.677 246.6 300.008 251.253C297.384 252.018 284.14 249.422 279.683 247.596C268.29 242.948 262.928 239.33 261.877 238.644C261.109 233.938 260.859 232.743 260.859 232.743L250.606 229.424L250.145 229.275L239.892 225.957C239.892 225.957 238.99 226.779 235.61 230.143C234.318 230.071 227.891 229.874 215.936 226.965C211.254 225.834 199 220.178 197.322 218.021C197.074 212.1 198.107 205.633 198.107 205.633C193.143 217.168 192.504 226.222 192.504 226.222C192.752 232.143 194.47 245.84 200.119 256.699C205.769 267.557 209.449 278.47 208.623 286.003L229.591 292.788L230.051 292.938L251.019 299.723C254.763 293.135 264.178 286.46 275.079 280.958C285.97 275.491 295.437 265.375 299.107 260.722C299.118 260.687 303.893 253.01 306.63 240.754Z" fill="#E7A24E" stroke="#171717" stroke-width="2.3141" stroke-miterlimit="10" stroke-linecap="round" stroke-linejoin="round"/>
<path d="M230.063 292.903L251.12 299.41C254.864 292.821 264.234 286.286 275.136 280.784C286.026 275.317 295.471 265.27 299.141 260.617C299.141 260.617 303.916 252.94 306.652 240.684C306.652 240.684 303.688 246.565 300.019 251.218C299.082 251.491 292.912 250.762 290.039 250.332C288.987 252.797 285.344 259.072 282.65 261.89C272.941 271.966 268.662 269.851 250.287 285.73C244.569 290.681 241.14 296.296 230.063 292.903Z" fill="#E38F3E"/>
<path d="M184.465 217.241C183.82 221.989 183.81 226.213 184.184 229.907C184.211 229.955 184.189 230.024 184.216 230.071C184.818 235.684 186.315 239.973 187.806 242.838C188.272 243.757 188.783 244.537 189.262 245.153C195.182 252.948 198.065 268.944 192.254 283.625L198.724 293.52C198.724 293.52 208.088 287.789 208.662 286.015C209.488 278.482 205.769 267.557 200.158 256.711C194.536 245.899 192.79 232.155 192.543 226.234C192.543 226.234 193.182 217.18 198.145 205.645C198.145 205.645 200.342 203.051 202.178 200.264C202.162 200.182 202.096 200.122 202.069 200.075C205.284 192.892 207.245 184.343 208.487 177.098C208.579 176.552 208.66 176.04 208.74 175.528C209.196 172.678 209.562 170.107 209.842 167.93C210.151 165.533 210.725 160.877 210.852 159.957C210.864 159.923 210.836 159.875 210.859 159.806C210.87 159.771 210.87 159.771 210.87 159.771C210.87 159.771 205.719 178.047 197.192 198.496C192.265 210.313 188.99 209.944 184.465 217.241Z" fill="#DC8640" stroke="#171717" stroke-width="4" stroke-miterlimit="10" stroke-linecap="round" stroke-linejoin="round"/>
<path d="M202.961 183.688C201.699 190.734 199.762 198.945 196.675 205.862C196.703 205.909 196.768 205.968 196.784 206.05C194.96 208.803 191.154 225.939 191.154 225.939C191.401 231.86 188.698 236.018 195.52 254.788C199.405 265.46 203.864 282.619 203.377 290.415C205.826 288.748 208.353 286.838 208.635 285.969C209.46 278.435 205.742 267.51 200.131 256.664C194.52 245.818 192.763 232.108 192.515 226.187C192.515 226.187 193.155 217.134 198.118 205.598C198.118 205.598 200.315 203.005 202.15 200.217C202.135 200.135 202.069 200.076 202.042 200.029C205.257 192.846 207.218 184.297 208.46 177.052C208.552 176.505 208.632 175.994 208.713 175.482C209.169 172.632 209.534 170.06 209.815 167.884C210.124 165.486 210.697 160.83 210.825 159.911C210.836 159.876 210.809 159.829 210.832 159.76C210.843 159.725 210.843 159.725 210.843 159.725C210.843 159.725 207.99 169.983 202.961 183.688Z" fill="#D87A3A"/>
<path d="M190.422 285.876L197.571 296.951L208.507 289.77C208.507 289.77 208.578 299.514 207.534 306.016L193.575 309.299L186.002 296.127L190.422 285.876Z" fill="#DC9740" stroke="#171717" stroke-width="4" stroke-miterlimit="10" stroke-linecap="round" stroke-linejoin="round"/>
<path d="M228.926 296.417L208.496 289.806C208.496 289.806 208.567 299.55 207.523 306.052L217.239 309.196L220.334 306.317L225.211 307.896L230.088 309.474L230.909 313.621L240.625 316.765C243.578 310.919 249.355 303.029 249.355 303.029L228.926 296.417Z" fill="#E7A24E" stroke="#171717" stroke-width="2.3141" stroke-miterlimit="10" stroke-linecap="round" stroke-linejoin="round"/>
<path d="M240.625 316.764L230.91 313.62L230.088 309.473L225.211 307.894L220.334 306.316L217.239 309.195L207.523 306.051L193.564 309.334C193.564 309.334 194.295 310.877 196.73 316.199L220.078 323.755L243.426 331.311C248.518 328.425 250.014 327.603 250.014 327.603L240.625 316.764Z" fill="#B1171C" stroke="#171717" stroke-width="2.3141" stroke-miterlimit="10" stroke-linecap="round" stroke-linejoin="round"/>
<path opacity="0.4" d="M236.87 312.898L229.689 310.574L229.074 307.493L225.465 306.325L221.855 305.156L219.551 307.293L212.332 304.956L208.047 304.3C208.047 304.3 207.585 308.876 206.1 319.232L220.04 323.743L234.901 328.553C240.74 316.802 240.203 316.628 240.203 316.628L236.87 312.898Z" fill="white"/>
<path d="M240.241 316.639L236.909 312.909L233.76 311.89C232.196 315.15 229.088 324.096 225.965 325.621L234.989 328.542C240.779 316.813 240.241 316.639 240.241 316.639Z" fill="#C71A1F"/>
<path d="M228.926 296.417L208.496 289.806C208.496 289.806 208.567 299.55 207.523 306.052L217.239 309.196L220.334 306.317L225.211 307.896L230.088 309.474L230.909 313.621L240.625 316.765C243.578 310.919 249.355 303.029 249.355 303.029L228.926 296.417Z" fill="#E7A24E" stroke="#171717" stroke-width="4" stroke-miterlimit="10" stroke-linecap="round" stroke-linejoin="round"/>
<path d="M232.344 313.776L240.677 316.473C243.629 310.628 249.407 302.737 249.407 302.737L240.421 299.829C237.404 304.694 236.743 311.588 232.344 313.776Z" fill="#E38F3E"/>
<path d="M288.883 179.447L281.221 190.801C281.221 190.801 272.633 189.021 264.992 186.547L264.032 186.237C256.39 183.764 248.388 180.175 248.388 180.175L248.86 166.917C255.815 166.401 263.254 167.272 270.627 169.658C277.616 171.92 283.766 175.332 288.883 179.447Z" fill="#B1171C" stroke="#171717" stroke-width="4" stroke-miterlimit="10" stroke-linecap="round" stroke-linejoin="round"/>
<path opacity="0.4" d="M282.993 178.771L277.53 191.72C277.53 191.72 269.026 192.695 263.151 190.794L260.604 190.93C254.728 189.029 251.785 181.082 251.785 181.082L252.22 169.119C257.574 168.7 263.288 169.396 268.971 171.236C274.259 172.986 279.013 175.6 282.993 178.771Z" fill="white"/>
<path d="M323.644 196.308C323.622 196.377 323.572 196.4 323.561 196.435C323.349 196.827 323.137 197.22 322.925 197.612C320.829 201.468 318.433 205.726 316.111 210.278C315.877 210.74 315.631 211.237 315.385 211.734C311.874 218.782 308.639 226.419 307.124 234.114C307.075 234.136 306.987 234.146 306.926 234.203C304.432 235.356 299.461 235.246 293.506 234.509C278.71 232.642 257.764 226.708 252.996 225.319C252.804 225.256 252.639 225.242 252.524 225.204L252.447 225.179C252.128 225.115 251.975 225.065 251.975 225.065C251.975 225.065 251.821 225.015 251.525 224.881L251.449 224.856C251.333 224.819 251.18 224.769 250.999 224.672C246.513 223.067 227.279 216.035 214.166 209.102C208.228 205.95 203.544 202.859 202.101 200.24C202.085 200.158 202.019 200.098 201.992 200.051C205.312 192.941 207.164 184.856 208.41 177.075C208.502 176.528 208.583 176.016 208.675 175.47C209.46 170.421 210.013 165.566 210.574 161.213C210.632 160.771 210.69 160.329 210.748 159.887C210.76 159.852 210.732 159.805 210.755 159.735L210.766 159.7C217.997 157.545 225.748 156.403 233.722 156.409C238.765 156.427 243.914 156.902 249.081 157.844L248.745 166.881L248.25 180.208C248.25 180.208 256.229 183.866 263.849 186.409L264.809 186.72C272.462 189.158 281.083 190.834 281.083 190.834L288.79 179.341L293.55 172.236C298.29 174.5 302.742 177.132 306.839 180.071C313.435 184.858 319.047 190.324 323.644 196.308Z" fill="#E7A24E" stroke="#171717" stroke-width="4" stroke-miterlimit="10" stroke-linecap="round" stroke-linejoin="round"/>
<path d="M306.63 240.754C306.63 240.754 303.677 246.6 300.008 251.253C297.384 252.018 284.14 249.422 279.683 247.596C268.29 242.948 262.928 239.33 261.877 238.644C261.109 233.938 260.859 232.743 260.859 232.743L250.606 229.424L250.145 229.275L239.892 225.957C239.892 225.957 238.99 226.779 235.61 230.143C234.318 230.071 227.891 229.874 215.936 226.965C211.254 225.834 199 220.178 197.322 218.021C197.074 212.1 198.107 205.633 198.107 205.633C193.143 217.168 192.504 226.222 192.504 226.222C192.752 232.143 194.47 245.84 200.119 256.699C205.769 267.557 209.449 278.47 208.623 286.003L229.591 292.788L230.051 292.938L251.019 299.723C254.763 293.135 264.178 286.46 275.079 280.958C285.97 275.491 295.437 265.375 299.107 260.722C299.118 260.687 303.893 253.01 306.63 240.754Z" stroke="#171717" stroke-width="4" stroke-miterlimit="10" stroke-linecap="round" stroke-linejoin="round"/>
<g opacity="0.1">
<g opacity="0.1">
<g opacity="0.1">
<path opacity="0.1" d="M277.667 154.72C294.18 160.064 308.442 168.56 319.528 178.873C314.712 172.127 308.593 165.996 301.4 160.825C294.207 155.654 285.951 151.406 276.85 148.461C267.749 145.516 258.57 144.121 249.712 144.097C235.848 144.068 222.741 147.473 211.856 153.71C211.756 153.755 211.695 153.812 211.596 153.856C230.71 147.362 254.242 147.139 277.667 154.72Z" fill="black"/>
</g>
</g>
</g>
<path opacity="0.6" d="M215.572 274.495C215.875 277.36 215.875 277.36 215.875 277.36" stroke="white" stroke-width="4.6282" stroke-miterlimit="10" stroke-linecap="round" stroke-linejoin="round"/>
<path opacity="0.6" d="M200.97 230.344C200.97 230.344 200.635 239.112 208.687 254.475C210.683 258.272 213.666 265.962 214.468 269.91" stroke="white" stroke-width="4.6282" stroke-miterlimit="10" stroke-linecap="round" stroke-linejoin="round"/>
<path opacity="0.5" d="M215.346 170.98C215.067 177.346 214.339 187.331 212.072 192.631" stroke="white" stroke-width="4.6282" stroke-miterlimit="10" stroke-linecap="round" stroke-linejoin="round"/>
<path opacity="0.5" d="M215.482 165.184C215.482 165.184 215.424 165.626 215.383 167.457" stroke="white" stroke-width="4.6282" stroke-miterlimit="10" stroke-linecap="round" stroke-linejoin="round"/>
<path opacity="0.5" d="M288.164 189.666L286.784 191.832" stroke="white" stroke-width="4.6282" stroke-miterlimit="10" stroke-linecap="round" stroke-linejoin="round"/>
<path opacity="0.5" d="M295.188 179.759L290.683 186.601" stroke="white" stroke-width="4.6282" stroke-miterlimit="10" stroke-linecap="round" stroke-linejoin="round"/>
<path d="M240.625 316.764L230.91 313.62L230.088 309.473L225.211 307.894L220.334 306.316L217.239 309.195L207.523 306.051L193.564 309.334C193.564 309.334 194.295 310.877 196.73 316.199L220.078 323.755L243.426 331.311C248.518 328.425 250.014 327.603 250.014 327.603L240.625 316.764Z" stroke="#171717" stroke-width="4" stroke-miterlimit="10" stroke-linecap="round" stroke-linejoin="round"/>
<path d="M316.122 210.242C318.444 205.691 320.84 201.433 322.936 197.577C323.148 197.184 323.36 196.792 323.572 196.399C323.583 196.364 323.633 196.342 323.655 196.273L323.667 196.238C321.455 193.37 314.892 187.826 312.25 185.242C319.437 191.872 301.736 211.043 298.732 223.866C297.738 228.117 297.134 231.687 296.726 234.783C301.265 235.176 304.951 235.062 306.987 234.145C307.048 234.088 307.136 234.078 307.185 234.056C308.661 226.349 311.897 218.712 315.446 211.676C315.642 211.201 315.877 210.739 316.122 210.242Z" fill="#E38F3E"/>
<path opacity="0.6" d="M213.023 302.297C212.897 302.948 213.003 302.752 212.838 303.39" stroke="white" stroke-width="4.6282" stroke-miterlimit="10" stroke-linecap="round" stroke-linejoin="round"/>
<path opacity="0.6" d="M213.836 296.374C213.836 296.374 213.774 297.353 213.48 299.179" stroke="white" stroke-width="4.6282" stroke-miterlimit="10" stroke-linecap="round" stroke-linejoin="round"/>
<path d="M202.339 307.256L207.523 306.051C208.555 299.584 208.496 289.805 208.496 289.805L203.804 292.898C204.092 295.68 204.115 300.722 202.339 307.256Z" fill="#D87A3A"/>
<path opacity="0.1" d="M212.908 311.829L211.946 316.898L215.479 318.041" stroke="black" stroke-width="4.6282" stroke-miterlimit="10" stroke-linecap="round" stroke-linejoin="round"/>
<path opacity="0.1" d="M218.398 318.984L219.396 319.308" stroke="black" stroke-width="4.6282" stroke-miterlimit="10" stroke-linecap="round" stroke-linejoin="round"/>
<path opacity="0.2" d="M223.353 228.559L235.622 230.109L239.982 225.679L256.994 231.185C256.994 231.185 255.798 231.605 252.663 230.936C247.908 229.897 240.668 227.362 240.668 227.362C240.668 227.362 238.575 229.374 236.407 231.746C232.249 231.092 223.353 228.559 223.353 228.559Z" fill="black"/>
<path d="M326.407 190.785C321.241 179.353 312.602 168.949 301.362 160.815C294.169 155.644 285.913 151.397 276.812 148.451C267.711 145.506 258.532 144.111 249.673 144.087C235.81 144.058 222.702 147.463 211.817 153.7C199.287 160.827 186.79 207.043 184.477 217.208C183.756 221.662 183.724 225.956 184.195 229.874C184.223 229.921 184.2 229.991 184.227 230.038C184.828 234.997 186.203 239.4 187.817 242.804C185.835 252.73 181.349 267.378 179.206 277.406C181.093 284.818 182.027 288.617 186.029 296.175L187.793 299.244C189.286 301.84 190.888 304.626 192.571 307.553L193.602 309.347C193.602 309.347 193.684 309.489 193.851 309.889C193.96 310.078 194.03 310.254 194.1 310.43C194.485 311.208 195.08 312.515 195.994 314.54C196.243 315.082 196.519 315.671 196.757 316.247L220.105 323.803L243.453 331.359C243.984 331.032 244.541 330.751 245.071 330.423C246.988 329.352 248.236 328.642 249.014 328.202C249.175 328.1 249.373 328.011 249.533 327.909C249.892 327.718 250.052 327.616 250.052 327.616L251.939 326.767C255.018 325.381 257.91 324.049 260.679 322.832L263.907 321.379C271.579 317.599 274.551 315.102 280.433 310.166C284.534 300.772 289.519 286.285 293.728 277.08C297.03 275.267 300.713 272.539 304.117 268.838C304.166 268.816 304.178 268.781 304.239 268.724C306.916 265.824 309.406 262.326 311.432 258.294C315.424 248.712 332.375 203.937 326.407 190.785ZM300.468 251.403C297.845 252.168 284.601 249.572 280.143 247.746C268.751 243.098 263.388 239.48 262.338 238.794C261.57 234.088 261.32 232.893 261.32 232.893L250.606 229.425L239.892 225.958C239.892 225.958 238.99 226.78 235.61 230.144C234.318 230.072 227.891 229.875 215.936 226.966C211.254 225.835 199 220.179 197.322 218.022C197.074 212.101 198.107 205.634 198.107 205.634C198.107 205.634 200.304 203.04 202.139 200.253C206.829 208.572 244.538 222.351 251.049 224.65C251.241 224.712 251.383 224.797 251.498 224.834C251.537 224.846 251.537 224.846 251.575 224.859C251.871 224.993 252.025 225.043 252.025 225.043C252.025 225.043 252.178 225.093 252.497 225.157C252.535 225.17 252.535 225.17 252.573 225.182C252.689 225.219 252.842 225.269 253.045 225.296C259.718 227.225 298.301 238.175 306.975 234.181C306.841 237.48 307.09 240.904 307.09 240.904C307.09 240.904 304.138 246.75 300.468 251.403Z" stroke="#171717" stroke-width="4" stroke-miterlimit="10" stroke-linecap="round" stroke-linejoin="round"/>
</g>
</svg>
