<svg width="736" height="624" viewBox="0 0 736 624" fill="none" xmlns="http://www.w3.org/2000/svg">
<g clip-path="url(#clip0_14_1056)">
<path d="M436.791 297.582V616.088" stroke="#2A272D" stroke-width="1.9882" stroke-miterlimit="10"/>
<path d="M691.547 297.582V616.088" stroke="#2A272D" stroke-width="1.9882" stroke-miterlimit="10"/>
<path d="M286.162 395.934C286.162 395.934 335.048 385.912 342.408 414.691C348.764 439.387 282.273 438.441 282.273 438.441L136.077 439.235C136.077 439.235 81.0022 444.984 53.7786 387.538C26.555 330.092 0.334995 179.651 0.334995 179.651C0.334995 179.651 -3.59592 158.965 15.4732 155.939C37.8877 152.385 42.2786 196.178 42.2786 196.178C42.2786 196.178 76.1513 381.865 125.33 390.942C132.899 392.341 138.92 397.522 146.657 397.446L286.162 395.934Z" fill="#FFEEE3"/>
<path d="M416.09 245.937L462.258 243.063C466.022 242.836 469.618 244.386 471.751 247.147L497.553 282.431L475.598 283.377L463.22 266.17C463.22 266.17 427.549 274.225 414.376 266.17L416.09 245.937Z" fill="#F2C09E"/>
<path d="M230.125 131.625L291.806 235.285L419.98 238.991V277.112L284.614 282.482C266.716 283.2 249.737 275.448 239.701 262.022L178.103 161.993L230.125 131.625Z" fill="#EFC375"/>
<path d="M419.98 238.966V277.087L405.677 277.654V238.55L419.98 238.966Z" fill="#F7E5DA"/>
<path d="M352.818 546.238L360.053 592.074L396.518 590.032L391.291 542.721L352.818 546.238Z" fill="#FCC9A7"/>
<path d="M351.899 587.422C352.694 585.267 355.537 584.397 357.586 585.721C361.601 588.292 368.668 591.355 378.83 590.183C389.41 588.973 393.132 583.867 394.428 580.275C395.097 578.384 397.356 577.363 399.405 578.081L465.144 601.377C469.158 602.777 472.336 605.575 474.051 609.13C475.64 612.458 473.005 616.202 468.949 616.278L357.628 617.753C353.237 617.828 349.725 614.538 349.892 610.567L350.686 591.129C350.686 590.788 350.77 590.486 350.896 590.183L351.899 587.422Z" fill="#1F252A"/>
<path d="M242.042 122.732L252.497 137.897C253.166 139.334 253.458 142.813 250.573 144.099L246.517 146.746L237.818 134.72L242.042 122.732Z" fill="#FFEEE3"/>
<path d="M222.555 138.768L219.251 137.331C208.379 132.528 203.862 120.653 209.173 110.82L244.468 45.4702L283.651 62.7909L242.879 135.969C238.53 144.1 231.546 142.739 222.555 138.768Z" fill="#FCC9A7"/>
<path d="M312.882 75.697C301.382 96.9508 272.988 105.8 249.486 95.4002C225.984 85.0002 216.199 59.3595 227.699 38.0679C239.199 16.8139 267.552 7.96449 291.095 18.3645C314.639 28.7645 324.382 54.4432 312.882 75.697Z" fill="#FCC9A7"/>
<path d="M255.676 117.963C244.511 113.047 239.869 100.832 245.347 90.7341L265.252 53.8613L313.26 75.0773L297.034 105.143C289.507 118.984 270.981 124.77 255.676 117.963Z" fill="#FCC9A7"/>
<path d="M307.029 83.7612L309.621 100.25C309.831 102.859 306.778 104.561 304.101 103.389L292.309 100.477L307.029 83.7612Z" fill="#FCC9A7"/>
<path d="M265.46 75.5066C265.46 75.5066 282.062 76.4899 284.78 53.3074C284.78 53.3074 313.635 69.9474 325.386 63.3292C325.386 63.3292 328.982 -2.24744 269.057 0.059469C209.131 2.36638 204.447 60.871 204.447 60.871L238.069 88.327L265.46 75.5066Z" fill="#1C2226"/>
<path d="M267.844 76.4555C264.707 82.3173 256.887 84.7376 250.406 81.8635C243.966 78.9893 241.247 71.9551 244.426 66.0933C247.562 60.2315 255.382 57.8111 261.864 60.6853C268.304 63.5595 270.98 70.5936 267.844 76.4555Z" fill="#FCC9A7"/>
<path d="M231.254 67.7478L222.347 86.5434C222.347 86.5434 241.918 100.725 251.787 82.4591L237.569 78.8285L231.254 67.7478Z" fill="#1C2226"/>
<path d="M284.78 53.2976C284.78 53.2976 323.88 80.6023 339.311 57.7223C351.606 39.4561 337.931 27.6192 318.193 30.569C309.662 31.8548 305.438 26.6359 298.747 22.5137L284.78 53.2976Z" fill="#1C2226"/>
<path d="M249.653 155.921C249.653 155.921 248.775 139.243 242.921 133.457C237.066 127.671 205.87 111.711 205.87 111.711C205.87 111.711 160.999 123.473 133.441 169.838C111.988 205.954 91.7897 297.361 91.7897 297.361L221.259 314.341C232.424 246.042 253.333 214.917 249.653 155.921Z" fill="#FFD686"/>
<path d="M208.044 108.485L202.649 110.679C200.726 111.473 200.307 113.818 201.897 115.104L236.104 142.635C237.484 143.77 239.658 143.429 240.62 141.992L244.467 135.979C245.178 134.845 244.886 133.408 243.757 132.576L211.055 108.901C210.218 108.221 209.047 108.069 208.044 108.485Z" fill="#FFEEE3"/>
<path d="M401.83 252.141L447.998 249.267C451.762 249.04 455.358 250.591 457.491 253.351L481.16 283.795L459.038 286.367L448.96 272.336C448.96 272.336 413.288 280.391 400.115 272.336L401.83 252.141Z" fill="#FCC9A7"/>
<path d="M203.905 139.336L273.574 245.643L405.719 248.933V283.31L263.119 288.945C249.737 289.474 236.983 283.688 229.456 273.628L151.883 169.704L203.905 139.336Z" fill="#FFD686"/>
<path d="M405.718 248.92V283.259L391.417 283.826V248.92H405.718Z" fill="#FFEEE3"/>
<path d="M91.7905 297.345L346.463 330.739C365.95 333.311 381.005 347.568 382.887 365.305L401.872 561.468L345 564.796L317.65 394.765L157.738 398.509C114.33 398.509 81.0432 363.641 87.3578 324.801L91.7905 297.345Z" fill="#54585A"/>
<path d="M543.176 282.484H408.856V290.35H543.176V282.484Z" fill="#2A272D"/>
<path d="M543.218 290.354L586.667 175.576L577.551 173.609L534.938 283.849L543.218 290.354Z" fill="#2A272D"/>
<path d="M253.542 116.932C253.542 116.932 241.457 110.465 241.457 96.8501C241.457 96.8501 233.93 111.599 249.277 124.571L253.542 116.932Z" fill="#F2C09E"/>
<path d="M55.2845 623.497C57.2917 623.497 59.1317 622.249 59.6754 620.396L126.166 383.314C131.686 363.687 151.132 349.959 173.546 349.959C195.292 349.959 214.612 363.158 220.55 382.066C243.801 456.152 297.914 617.787 298.457 619.413C299.168 621.568 301.719 622.816 304.103 622.136C306.486 621.493 307.866 619.186 307.114 617.03C306.57 615.404 252.457 453.845 229.248 379.835C222.223 357.409 199.306 341.752 173.504 341.752C146.95 341.752 123.866 358.014 117.343 381.272L50.8517 618.392C50.2245 620.585 51.6881 622.816 54.1136 623.384C54.5317 623.459 54.9081 623.497 55.2845 623.497Z" fill="#1F252A"/>
<path d="M229.499 273.61L189.562 220.173" stroke="#EFC375" stroke-width="0.7847" stroke-miterlimit="10" stroke-linecap="round" stroke-linejoin="round"/>
<path d="M735.54 290.343H387.572V304.525H735.54V290.343Z" fill="#FFEEE3"/>
<path d="M436.791 338.975H691.547" stroke="#2A272D" stroke-width="1.9882" stroke-miterlimit="10"/>
<path d="M252.917 211.486L214.653 155.705" stroke="#EFC375" stroke-width="0.7847" stroke-miterlimit="10" stroke-linecap="round" stroke-linejoin="round"/>
</g>
<defs>
<clipPath id="clip0_14_1056">
<rect width="736" height="624" fill="white"/>
</clipPath>
</defs>
</svg>
