<svg width="217" height="505" viewBox="0 0 217 505" fill="none" xmlns="http://www.w3.org/2000/svg">
<g clip-path="url(#clip0_15_72)">
<path d="M-45.3465 405.31V420.705C-45.3578 423.404 -44.3599 426.043 -42.4794 428.291C-40.599 430.539 -37.9208 432.293 -34.7844 433.328C-32.9433 433.945 -30.8116 434.638 -28.4859 435.254L-27.323 437.486V449.417C-27.3294 451.492 -26.5592 453.524 -25.1097 455.25C-23.6604 456.977 -21.5977 458.323 -19.1834 459.117L-15.0166 460.348V463.273C-14.4653 472.952 -9.23731 482.089 -0.420475 488.783C8.39636 495.478 20.123 499.214 32.3193 499.214C44.5156 499.214 56.243 495.478 65.0587 488.783C73.8763 482.089 79.1043 472.952 79.6558 463.273L81.206 459.963L84.0155 459.117C86.43 458.323 88.4935 456.977 89.9414 455.25C91.3913 453.524 92.1613 451.492 92.1553 449.417V437.563V438.41V435.869L100.199 433.406C103.335 432.369 106.012 430.615 107.894 428.369C109.775 426.121 110.771 423.48 110.761 420.781V405.386L-45.3465 405.31Z" fill="#D9E1E4"/>
<path d="M32.4629 478.044C17.1185 478.055 1.88268 476 -12.5957 471.963C-13.745 471.586 -14.6677 470.872 -15.1728 469.969C-15.6778 469.065 -15.7265 468.043 -15.309 467.112C-14.8355 466.201 -13.9313 465.473 -12.7903 465.084C-11.6492 464.696 -10.3619 464.678 -9.20424 465.035C16.5259 472.145 44.524 472.145 70.2546 465.035C70.8261 464.847 71.4398 464.753 72.0574 464.756C72.6771 464.761 73.2867 464.861 73.8562 465.056C74.4238 465.248 74.9391 465.53 75.3683 465.884C75.7974 466.238 76.1343 466.655 76.3589 467.112C76.8142 468.024 76.8041 469.038 76.3349 469.943C75.8636 470.848 74.9692 471.571 73.8402 471.963C60.6669 476.081 46.6192 478.146 32.4629 478.044Z" fill="#94B5BF"/>
<path d="M34.015 426.883C7.11189 426.958 -19.616 423.443 -45.0558 416.491C-46.2123 416.134 -47.1428 415.427 -47.6425 414.524C-48.1422 413.622 -48.1703 412.599 -47.7205 411.68C-47.2709 410.761 -46.3801 410.022 -45.2443 409.625C-44.1086 409.228 -42.8208 409.206 -41.6643 409.563C-40.889 409.563 33.5305 432.041 102.718 409.563C103.291 409.386 103.901 409.3 104.514 409.311C105.13 409.322 105.736 409.429 106.297 409.625C106.861 409.823 107.368 410.105 107.793 410.457C108.218 410.81 108.551 411.225 108.774 411.68C108.996 412.136 109.105 412.62 109.091 413.109C109.077 413.597 108.942 414.078 108.696 414.524C108.449 414.971 108.092 415.374 107.649 415.712C107.206 416.05 106.682 416.314 106.109 416.491C83.1472 423.617 58.6655 427.146 34.015 426.883Z" fill="#94B5BF"/>
<path d="M90.2161 435.409V437.95V437.102V445.416L88.3752 445.955C69.3863 451.494 49.3886 454.537 29.1688 454.962C9.33425 454.632 -10.3014 451.747 -28.9714 446.417V437.102L-29.5528 435.949C-10.91 441.378 8.73586 444.317 28.5875 444.647L90.2161 435.409Z" fill="#94B5BF"/>
<path d="M122.29 395.939V366.149C122.29 366.149 117.834 310.957 150.101 269.697C182.369 228.437 211.634 203.496 211.634 144.917C211.634 86.3371 148.067 4.97217 30.7196 4.97217C-86.627 4.97217 -150.291 86.3371 -150.291 144.917C-150.291 203.496 -121.22 228.515 -88.6619 269.697C-69.5017 293.65 -59.8151 321.615 -60.8513 349.984V396.17C-60.8796 397.489 -60.4284 398.786 -59.5518 399.906C-58.6751 401.026 -57.4105 401.92 -55.9095 402.483C-28.6524 412.106 0.843491 417.079 30.6713 417.079C60.4984 417.079 89.9955 412.106 117.253 402.483C118.817 401.916 120.134 400.989 121.033 399.825C121.929 398.659 122.368 397.306 122.29 395.939Z" fill="#FBE481"/>
<path opacity="0.5" d="M146.9 271.527C127.741 295.481 118.055 323.445 119.089 351.814V398C119.085 399.323 118.61 400.618 117.72 401.735C116.827 402.851 115.556 403.745 114.052 404.312C93.9521 411.559 72.5267 416.209 50.5818 418.092C50.5818 412.626 50.0003 405.929 49.515 398V351.814C48.3338 323.464 57.9215 295.487 77.0347 271.527C109.303 230.344 138.568 205.403 138.568 146.747C138.568 94.2482 87.5008 23.5831 -7.65552 9.4192C3.90427 7.6547 15.6512 6.77826 27.4225 6.80198C144.867 6.80198 208.433 88.167 208.433 147.055C208.433 205.943 179.072 230.344 146.9 271.527Z" fill="#F8A547"/>
<path d="M145.352 270.218C130.947 289.41 123.471 311.381 123.744 333.724C123.744 345.578 123.744 352.506 123.744 352.506L117.251 396.46C117.247 397.782 116.771 399.078 115.881 400.194C114.989 401.313 113.717 402.206 112.213 402.772C92.2035 409.977 70.8763 414.602 49.0337 416.474C49.0337 415.935 49.0337 415.551 49.0337 415.011C66.3481 413.794 83.3698 410.686 99.6153 405.775C102.716 404.62 104.46 406.468 104.46 403.774V350.429C103.416 322.093 113.067 294.159 132.175 270.218C164.441 229.034 193.9 204.095 193.9 145.438C193.9 86.7808 132.271 8.49494 18.8973 5.5698C21.3198 5.5698 23.8394 5.5698 26.2619 5.5698C143.318 5.41584 206.981 86.7808 206.981 145.36C206.981 203.94 177.62 228.958 145.352 270.218Z" fill="#FCA100"/>
<path d="M-88.6619 270.232C-69.5203 294.165 -59.8346 322.101 -60.8513 350.443V396.629C-60.8387 397.961 -60.349 399.261 -59.4393 400.379C-58.5299 401.497 -57.2382 402.386 -55.7157 402.941C-35.6373 410.116 -14.242 414.69 7.65735 416.49C7.65735 415.951 7.65735 415.566 7.65735 415.027C-9.7433 412.685 -26.6833 408.545 -42.7309 402.71C-45.9287 401.556 -47.7698 406.482 -47.7698 403.788L-39.2426 374.384C-30.1205 341.723 -35.8535 307.551 -55.425 277.93C-57.1692 275.391 -59.1072 272.85 -61.1421 270.232C-93.3131 228.972 -122.771 204.033 -122.771 145.375C-122.771 86.7188 -75.5802 8.50983 38.2778 5.58471C35.9522 5.58471 33.4329 5.58471 30.9135 5.58471C3.9091 5.26965 -22.8262 9.88025 -47.2354 19.0617C-71.6446 28.2431 -93.0769 41.7507 -109.883 58.545C-135.027 83.1616 -149.231 113.686 -150.291 145.375C-150.291 204.033 -120.93 228.972 -88.6619 270.232Z" fill="white"/>
<path d="M122.773 337.498C121.394 337.381 120.124 336.841 119.238 335.994C118.352 335.145 117.916 334.055 118.025 332.956C118.813 326.743 120.074 320.573 121.805 314.483C126.515 297.827 134.739 281.925 146.126 267.449C151.069 261.136 155.816 255.133 160.759 249.358C186.534 218.029 206.883 193.243 206.883 144.901C206.883 88.0148 145.835 9.19013 31.2023 9.19013C-11.6408 8.67583 -53.1439 21.0499 -84.9814 43.8298C-85.4735 44.2891 -86.0836 44.6597 -86.7704 44.9165C-87.4572 45.1733 -88.2053 45.3106 -88.9645 45.319C-89.7235 45.3276 -90.4761 45.2072 -91.172 44.966C-91.8679 44.7247 -92.4907 44.3681 -92.9989 43.9202C-93.5071 43.472 -93.8891 42.943 -94.1191 42.3682C-94.3489 41.7936 -94.4217 41.1863 -94.3325 40.5875C-94.243 39.9885 -93.9938 39.4118 -93.6009 38.8957C-93.2083 38.3795 -92.6813 37.936 -92.0552 37.5948C-58.3945 13.5237 -14.5694 0.389251 30.7178 0.799617C152.23 0.799617 216.96 84.4739 216.96 144.901C216.96 195.782 194.77 222.726 169.092 253.9C164.441 259.674 159.402 265.601 154.557 271.913C143.832 285.623 136.069 300.661 131.591 316.407C129.957 322.139 128.792 327.951 128.104 333.803C127.937 334.831 127.304 335.774 126.321 336.454C125.338 337.134 124.077 337.507 122.773 337.498Z" fill="#3E3126"/>
<path d="M31.7874 421.168C0.821609 421.066 -29.7754 415.822 -58.0394 405.773C-60.4769 404.895 -62.5427 403.476 -63.9871 401.687C-65.4314 399.898 -66.1929 397.814 -66.179 395.689V361.048C-66.0055 360.033 -65.3749 359.103 -64.4039 358.429C-63.4327 357.755 -62.1871 357.384 -60.8979 357.384C-59.6086 357.384 -58.3631 357.755 -57.3921 358.429C-56.4209 359.103 -55.7902 360.033 -55.6167 361.048V395.689C-55.6123 396.2 -55.4288 396.702 -55.0867 397.137C-54.7446 397.572 -54.2571 397.924 -53.6787 398.152C-27.1319 407.552 1.60793 412.411 30.6732 412.411C59.7384 412.411 88.4774 407.552 115.025 398.152C115.628 397.942 116.144 397.597 116.505 397.161C116.866 396.723 117.058 396.211 117.06 395.689V344.807C117.06 343.696 117.608 342.63 118.586 341.839C119.565 341.047 120.896 340.593 122.292 340.572C123.706 340.572 125.061 341.018 126.06 341.813C127.061 342.607 127.622 343.683 127.622 344.807V395.92C127.598 398.058 126.812 400.148 125.354 401.946C123.896 403.745 121.827 405.179 119.386 406.08C91.8866 416.04 62.0105 421.186 31.7874 421.168Z" fill="#3E3126"/>
<path d="M149.98 201.745C154.224 192.612 151.031 183.264 142.847 180.863C134.663 178.464 124.588 183.924 120.345 193.057C116.101 202.19 119.294 211.538 127.478 213.938C135.662 216.338 145.737 210.88 149.98 201.745Z" fill="#FFB320"/>
<path d="M153.006 171.31C158.359 171.31 162.696 167.864 162.696 163.612C162.696 159.36 158.359 155.915 153.006 155.915C147.654 155.915 143.316 159.36 143.316 163.612C143.316 167.864 147.654 171.31 153.006 171.31Z" fill="#FFB320"/>
<path opacity="0.75" d="M127.229 172.39C129.371 172.39 131.106 171.012 131.106 169.31C131.106 167.611 129.371 166.233 127.229 166.233C125.09 166.233 123.355 167.611 123.355 169.31C123.355 171.012 125.09 172.39 127.229 172.39Z" fill="#FFB320"/>
<path d="M111.339 214.247C114.872 214.247 117.734 211.972 117.734 209.167C117.734 206.36 114.872 204.085 111.339 204.085C107.807 204.085 104.944 206.36 104.944 209.167C104.944 211.972 107.807 214.247 111.339 214.247Z" fill="#FFB320"/>
<path opacity="0.35" d="M144.289 145.751C148.25 145.751 151.458 143.201 151.458 140.055C151.458 136.909 148.25 134.358 144.289 134.358C140.328 134.358 137.118 136.909 137.118 140.055C137.118 143.201 140.328 145.751 144.289 145.751Z" fill="#FFB320"/>
<path opacity="0.35" d="M121.033 156.055C124.404 156.055 127.137 153.884 127.137 151.206C127.137 148.527 124.404 146.356 121.033 146.356C117.66 146.356 114.926 148.527 114.926 151.206C114.926 153.884 117.66 156.055 121.033 156.055Z" fill="#FFB320"/>
<path opacity="0.35" d="M106.01 185.008C108.848 185.008 111.146 183.181 111.146 180.928C111.146 178.674 108.848 176.849 106.01 176.849C103.175 176.849 100.875 178.674 100.875 180.928C100.875 183.181 103.175 185.008 106.01 185.008Z" fill="#FFB320"/>
<path opacity="0.75" d="M89.827 101.879C91.9688 101.879 93.7034 100.5 93.7034 98.7997C93.7034 97.0991 91.9688 95.7205 89.827 95.7205C87.6873 95.7205 85.9526 97.0991 85.9526 98.7997C85.9526 100.5 87.6873 101.879 89.827 101.879Z" fill="#E2AB63"/>
<path opacity="0.35" d="M72.7713 75.2393C76.732 75.2393 79.9426 72.689 79.9426 69.543C79.9426 66.397 76.732 63.8467 72.7713 63.8467C68.8127 63.8467 65.6021 66.397 65.6021 69.543C65.6021 72.689 68.8127 75.2393 72.7713 75.2393Z" fill="#E2AB63"/>
<path opacity="0.35" d="M68.4136 95.7928C71.7847 95.7928 74.518 93.6216 74.518 90.9433C74.518 88.2649 71.7847 86.0938 68.4136 86.0938C65.0426 86.0938 62.3093 88.2649 62.3093 90.9433C62.3093 93.6216 65.0426 95.7928 68.4136 95.7928Z" fill="#E2AB63"/>
<path opacity="0.35" d="M87.3063 123.271C90.1439 123.271 92.4421 121.444 92.4421 119.191C92.4421 116.938 90.1439 115.111 87.3063 115.111C84.4707 115.111 82.1705 116.938 82.1705 119.191C82.1705 121.444 84.4707 123.271 87.3063 123.271Z" fill="#E2AB63"/>
<path d="M43.0266 416.012C42.484 416.012 41.9467 415.926 41.4464 415.758C40.9462 415.591 40.4932 415.346 40.114 415.038C39.7348 414.729 39.437 414.365 39.2383 413.963C39.0395 413.562 38.9439 413.133 38.9567 412.701V295.081H18.2201V411.393C18.0687 412.176 17.5702 412.888 16.8149 413.402C16.0595 413.917 15.0971 414.2 14.1019 414.2C13.1064 414.2 12.144 413.917 11.3886 413.402C10.6334 412.888 10.1348 412.176 9.98343 411.393V295.081H-10.1718C-17.6248 295.081 -24.7724 292.73 -30.0423 288.543C-35.3124 284.357 -38.2729 278.677 -38.2729 272.757V268.601C-38.2729 262.68 -35.3124 257.002 -30.0423 252.816C-24.7724 248.629 -17.6248 246.278 -10.1718 246.278C-2.71883 246.278 4.42873 248.629 9.69865 252.816C14.9688 257.002 17.9293 262.68 17.9293 268.601V288.538H38.6661V268.601C39.0874 262.896 42.2369 257.536 47.4695 253.617C52.7015 249.696 59.6241 247.512 66.8154 247.512C74.0087 247.512 80.9292 249.696 86.1612 253.617C91.3953 257.536 94.5437 262.896 94.9649 268.601V272.757C94.9408 278.606 92.039 284.215 86.8792 288.387C81.7193 292.558 74.7085 294.96 67.3488 295.081H47.9689V412.701C47.9789 413.194 47.8526 413.681 47.5959 414.129C47.3392 414.576 46.9622 414.973 46.4889 415.29C46.0156 415.607 45.4581 415.837 44.8605 415.962C44.2611 416.087 43.6348 416.104 43.0266 416.012ZM47.1928 288.538H66.5727C69.2038 288.557 71.8108 288.166 74.2493 287.382C76.6879 286.6 78.9058 285.441 80.7788 283.976C82.6518 282.509 84.1418 280.763 85.1626 278.838C86.1833 276.912 86.7167 274.846 86.7288 272.757V268.601C86.3778 264.596 84.1258 260.846 80.4299 258.108C76.734 255.371 71.8689 253.848 66.8154 253.848C61.7618 253.848 56.8968 255.371 53.2009 258.108C49.505 260.846 47.255 264.596 46.902 268.601L47.1928 288.538ZM-10.1718 252.82C-15.2731 252.917 -20.1313 254.571 -23.7396 257.437C-27.3477 260.304 -29.429 264.163 -29.552 268.216V272.372C-29.5534 276.492 -27.5271 280.449 -23.906 283.397C-20.2849 286.346 -15.3559 288.052 -10.1718 288.153H9.20834V268.601C9.20975 264.481 7.18352 260.524 3.56241 257.576C-0.0587006 254.627 -4.98792 252.921 -10.1718 252.82Z" fill="#3E3126"/>
<path d="M134.88 114.873C149.327 111.877 157.061 97.3438 152.154 82.4119C147.249 67.4798 131.559 57.8037 117.112 60.7995C102.665 63.7954 94.9307 78.3289 99.8379 93.2608C104.745 108.193 120.433 117.869 134.88 114.873Z" fill="#FFB320"/>
<path d="M-3.58338 441.716H-4.55238C-15.1989 439.826 -25.6341 437.252 -35.7542 434.018C-39.6581 432.975 -42.9469 430.834 -44.9998 427.998C-47.0527 425.162 -47.7279 421.826 -46.8979 418.623C-46.7515 417.648 -46.1335 416.757 -45.1747 416.139C-44.2159 415.523 -42.9918 415.225 -41.7621 415.312C-41.1543 415.351 -40.5623 415.484 -40.0213 415.709C-39.4802 415.932 -39.0011 416.24 -38.6125 416.612C-38.224 416.987 -37.9337 417.418 -37.759 417.882C-37.5843 418.346 -37.5286 418.833 -37.5954 419.314C-38.3706 425.473 -33.0412 427.012 -32.7504 427.012C-22.9325 429.965 -12.8615 432.358 -2.61438 434.171C-1.39833 434.392 -0.340477 434.985 0.330521 435.82C1.00152 436.655 1.23153 437.666 0.971031 438.636C0.788742 439.493 0.232254 440.271 -0.600578 440.835C-1.43361 441.397 -2.48965 441.709 -3.58338 441.716Z" fill="white"/>
<path d="M1.26264 446.022H0.487354C-12.792 444.064 -25.7813 441.02 -38.273 436.94C-42.1267 435.689 -45.4269 433.559 -47.7558 430.819C-50.0846 428.077 -51.337 424.85 -51.3544 421.543V406.147C-51.4459 405.676 -51.4078 405.195 -51.2427 404.736C-51.0777 404.277 -50.7897 403.852 -50.3987 403.49C-50.0074 403.127 -49.5223 402.837 -48.9764 402.638C-48.4306 402.437 -47.837 402.335 -47.2362 402.335C-46.6354 402.335 -46.0418 402.437 -45.4959 402.638C-44.9501 402.837 -44.465 403.127 -44.0737 403.49C-43.6827 403.852 -43.3947 404.277 -43.2296 404.736C-43.0646 405.195 -43.0265 405.676 -43.1179 406.147V421.543C-43.134 423.591 -42.3882 425.595 -40.9746 427.308C-39.561 429.021 -37.5424 430.362 -35.172 431.166C-23.1334 434.897 -10.6736 437.708 2.03772 439.555C2.56694 439.63 3.07229 439.786 3.5247 440.017C3.97712 440.247 4.36776 440.546 4.67418 440.897C4.9804 441.247 5.19639 441.642 5.30929 442.06C5.42219 442.477 5.43001 442.909 5.33234 443.328C5.15266 444.083 4.64832 444.763 3.90593 445.255C3.16334 445.746 2.22903 446.019 1.26264 446.022Z" fill="#3E3126"/>
<path d="M28.5863 448.418C27.6024 448.298 26.7054 447.901 26.0573 447.301C25.4093 446.702 25.053 445.937 25.053 445.145C25.053 444.355 25.4093 443.591 26.0573 442.992C26.7054 442.391 27.6024 441.994 28.5863 441.875C51.8653 441.62 74.877 437.886 96.4167 430.867C98.8051 430.075 100.845 428.738 102.276 427.026C103.708 425.312 104.466 423.301 104.46 421.245V405.849C104.368 405.378 104.406 404.895 104.571 404.436C104.737 403.978 105.024 403.552 105.415 403.191C105.806 402.829 106.291 402.537 106.837 402.338C107.384 402.139 107.978 402.036 108.577 402.036C109.179 402.036 109.773 402.139 110.318 402.338C110.863 402.537 111.349 402.829 111.74 403.191C112.131 403.552 112.42 403.978 112.584 404.436C112.749 404.895 112.787 405.378 112.696 405.849V421.245C112.67 424.56 111.403 427.794 109.057 430.535C106.71 433.277 103.389 435.402 99.517 436.64C77.0287 444.104 52.9562 448.101 28.5863 448.418Z" fill="#3E3126"/>
<path d="M32.0781 471.507C13.3248 471.292 -5.21212 468.289 -22.5739 462.655C-25.7438 461.602 -28.449 459.827 -30.3467 457.552C-32.2444 455.276 -33.2489 452.606 -33.2328 449.877V438.021C-33.3243 437.55 -33.2862 437.069 -33.1211 436.61C-32.9561 436.151 -32.6681 435.726 -32.2771 435.362C-31.8858 435.001 -31.4007 434.711 -30.8549 434.51C-30.309 434.311 -29.7154 434.208 -29.1146 434.208C-28.5138 434.208 -27.9202 434.311 -27.3743 434.51C-26.8285 434.711 -26.3434 435.001 -25.9521 435.362C-25.5611 435.726 -25.2731 436.151 -25.1081 436.61C-24.943 437.069 -24.9049 437.55 -24.9964 438.021V449.877C-25.0204 451.303 -24.5075 452.703 -23.5234 453.896C-22.5392 455.089 -21.1288 456.021 -19.473 456.572C-3.10649 461.92 14.383 464.767 32.0781 464.963C32.6719 464.891 33.2783 464.922 33.856 465.052C34.4336 465.183 34.9688 465.412 35.4248 465.723C35.8807 466.034 36.2466 466.419 36.4975 466.852C36.7486 467.286 36.8783 467.757 36.8783 468.235C36.8783 468.713 36.7486 469.185 36.4975 469.618C36.2466 470.051 35.8807 470.437 35.4248 470.748C34.9688 471.058 34.4336 471.288 33.856 471.418C33.2783 471.549 32.6719 471.579 32.0781 471.507Z" fill="#3E3126"/>
<path d="M29.3614 471.507C28.7676 471.579 28.161 471.549 27.5834 471.418C27.0057 471.288 26.4706 471.058 26.0146 470.748C25.5588 470.437 25.1928 470.051 24.9419 469.618C24.6909 469.185 24.5611 468.713 24.5611 468.235C24.5611 467.757 24.6909 467.286 24.9419 466.852C25.1928 466.419 25.5588 466.034 26.0146 465.723C26.4706 465.412 27.0057 465.183 27.5834 465.052C28.161 464.922 28.7676 464.891 29.3614 464.963C47.0263 464.77 64.4831 461.924 80.8149 456.572C82.4794 456.029 83.8972 455.099 84.8838 453.904C85.8685 452.709 86.3758 451.304 86.3397 449.877V438.021C86.2475 437.55 86.2856 437.069 86.45 436.61C86.6165 436.151 86.9032 435.726 87.2943 435.362C87.6853 435.001 88.1706 434.711 88.7161 434.51C89.2636 434.311 89.8572 434.208 90.4568 434.208C91.0584 434.208 91.652 434.311 92.1974 434.51C92.7429 434.711 93.2282 435.001 93.6192 435.362C94.0103 435.726 94.2991 436.151 94.4635 436.61C94.628 437.069 94.6661 437.55 94.5758 438.021V449.877C94.5858 452.595 93.5912 455.255 91.7141 457.527C89.8351 459.798 87.1579 461.583 84.0135 462.655C66.6509 468.289 48.1152 471.292 29.3614 471.507Z" fill="#3E3126"/>
<path d="M30.7171 504.697C17.0706 504.697 3.98308 500.39 -5.66639 492.725C-15.3161 485.06 -20.737 474.662 -20.737 463.823C-20.8284 463.349 -20.7903 462.868 -20.6253 462.41C-20.4603 461.951 -20.1723 461.525 -19.7812 461.164C-19.39 460.801 -18.9049 460.511 -18.359 460.311C-17.8132 460.112 -17.2196 460.009 -16.6188 460.009C-16.0179 460.009 -15.4244 460.112 -14.8785 460.311C-14.3326 460.511 -13.8475 460.801 -13.4563 461.164C-13.0652 461.525 -12.7773 461.951 -12.6122 462.41C-12.4472 462.868 -12.4091 463.349 -12.5005 463.823C-12.5005 472.927 -7.94731 481.66 0.157619 488.098C8.26255 494.537 19.2552 498.153 30.7171 498.153C42.1793 498.153 53.1728 494.537 61.2765 488.098C69.3822 481.66 73.9344 472.927 73.9344 463.823C73.8442 463.349 73.8823 462.868 74.0467 462.41C74.2112 461.951 74.4999 461.525 74.891 461.164C75.282 460.801 75.7673 460.511 76.3128 460.311C76.8583 460.112 77.4518 460.009 78.0535 460.009C78.6531 460.009 79.2467 460.112 79.7941 460.311C80.3396 460.511 80.8249 460.801 81.2159 461.164C81.607 461.525 81.8937 461.951 82.0602 462.41C82.2246 462.868 82.2627 463.349 82.1705 463.823C82.1705 469.19 80.8409 474.504 78.254 479.463C75.6691 484.422 71.8789 488.929 67.1001 492.725C62.3233 496.52 56.6501 499.531 50.4073 501.586C44.1652 503.64 37.4743 504.697 30.7171 504.697Z" fill="#3E3126"/>
</g>
<defs>
<clipPath id="clip0_15_72">
<rect width="373" height="505" fill="white" transform="translate(-156)"/>
</clipPath>
</defs>
</svg>
