<svg width="46" height="46" viewBox="0 0 46 46" fill="none" xmlns="http://www.w3.org/2000/svg">
<g clip-path="url(#clip0_6_20)">
<path fill-rule="evenodd" clip-rule="evenodd" d="M42 34H28.195C28.741 36.799 30.3095 39.2944 32.595 41H35C35.2652 41 35.5196 41.1054 35.7071 41.2929C35.8946 41.4804 36 41.7348 36 42C36 42.2652 35.8946 42.5196 35.7071 42.7071C35.5196 42.8946 35.2652 43 35 43H11C10.7348 43 10.4804 42.8946 10.2929 42.7071C10.1054 42.5196 10 42.2652 10 42C10 41.7348 10.1054 41.4804 10.2929 41.2929C10.4804 41.1054 10.7348 41 11 41H13.4C15.6855 39.2944 17.254 36.799 17.8 34H4C2.93913 34 1.92172 33.5786 1.17157 32.8284C0.421427 32.0783 0 31.0609 0 30V7C0 5.93913 0.421427 4.92172 1.17157 4.17157C1.92172 3.42143 2.93913 3 4 3H42C43.0609 3 44.0783 3.42143 44.8284 4.17157C45.5786 4.92172 46 5.93913 46 7V30C46 31.0609 45.5786 32.0783 44.8284 32.8284C44.0783 33.5786 43.0609 34 42 34ZM16.4 41H29.6C27.7432 39.0859 26.5334 36.6377 26.141 34H19.856C19.4644 36.6374 18.2557 39.0855 16.4 41ZM44 7C44 6.46957 43.7893 5.96086 43.4142 5.58579C43.0391 5.21071 42.5304 5 42 5H4C3.46957 5 2.96086 5.21071 2.58579 5.58579C2.21071 5.96086 2 6.46957 2 7V26H44V7ZM44 28H2V30C2 30.5304 2.21071 31.0391 2.58579 31.4142C2.96086 31.7893 3.46957 32 4 32H42C42.5304 32 43.0391 31.7893 43.4142 31.4142C43.7893 31.0391 44 30.5304 44 30V28ZM23 31C22.8022 31 22.6089 30.9414 22.4444 30.8315C22.28 30.7216 22.1518 30.5654 22.0761 30.3827C22.0004 30.2 21.9806 29.9989 22.0192 29.8049C22.0578 29.6109 22.153 29.4327 22.2929 29.2929C22.4327 29.153 22.6109 29.0578 22.8049 29.0192C22.9989 28.9806 23.2 29.0004 23.3827 29.0761C23.5654 29.1518 23.7216 29.28 23.8315 29.4444C23.9414 29.6089 24 29.8022 24 30C24 30.2652 23.8946 30.5196 23.7071 30.7071C23.5196 30.8946 23.2652 31 23 31Z" fill="black"/>
<path d="M28.803 24V22.735H30.057V17.565H28.803V16.3H32.741V17.565H31.476V22.735H32.741V24H28.803ZM33.73 24L36.733 16.3H38.064L41.045 24H39.571L37.91 19.6C37.8806 19.5193 37.833 19.3837 37.767 19.193C37.7083 19.0023 37.6423 18.7933 37.569 18.566C37.4956 18.3387 37.426 18.1297 37.36 17.939C37.3013 17.7483 37.261 17.6053 37.239 17.51L37.514 17.499C37.47 17.6457 37.4186 17.8143 37.36 18.005C37.3013 18.1883 37.239 18.379 37.173 18.577C37.107 18.775 37.041 18.9657 36.975 19.149C36.909 19.3323 36.8503 19.4973 36.799 19.644L35.149 24H33.73ZM35.094 22.229L35.578 20.997H39.087L39.626 22.229H35.094Z" fill="black"/>
<g clip-path="url(#clip1_6_20)">
<path d="M12.2508 13.4587C12.0834 13.6293 12.0834 13.9052 12.2508 14.0759C12.6364 14.4692 12.8492 14.9921 12.8492 15.5474C12.8492 16.1026 12.6364 16.6255 12.2508 17.0188C12.0834 17.1895 12.0834 17.4654 12.2508 17.636C12.3342 17.7212 12.4438 17.7639 12.5534 17.7639C12.663 17.7639 12.7725 17.7212 12.856 17.636C13.4035 17.0778 13.7052 16.3357 13.7052 15.5474C13.7052 14.759 13.4035 14.017 12.856 13.4587C12.6886 13.288 12.4181 13.288 12.2508 13.4587Z" fill="black"/>
<path d="M17.817 9.30705C16.7079 9.5061 15.6485 8.74832 15.4538 7.61776C15.1777 6.0136 13.6731 4.94153 12.0997 5.21872C11.8668 5.26062 11.711 5.48673 11.7521 5.72419C11.7928 5.96122 12.0136 6.11705 12.2478 6.07907C13.3572 5.88134 14.4162 6.63868 14.611 7.7688C14.858 9.20098 16.0834 10.2124 17.4626 10.2124C17.6282 10.2124 17.7964 10.198 17.9651 10.1674C18.1979 10.1255 18.3538 9.89939 18.3127 9.66193C18.2716 9.42447 18.0486 9.26689 17.817 9.30705Z" fill="black"/>
<path d="M21.1322 9.40177C20.8009 8.87665 20.6159 7.73823 20.657 7.0455C20.7533 5.42736 19.9101 3.82058 18.6072 3.13875C18.3559 3.00693 18.1299 2.94058 17.9304 2.88208C17.5876 2.78125 17.4459 2.73935 17.3162 2.46478C16.633 1.01732 15.8797 0.813909 14.4436 0.909068C14.3101 0.911687 14.1303 0.708274 13.9458 0.507481C13.6286 0.16133 13.2049 -0.300932 12.5328 -0.379504L12.3167 -0.401329C11.5967 -0.401329 10.9003 -0.182638 10.4063 0.198433C10.2668 0.305814 10.0934 0.306687 9.97531 0.201052C9.38846 -0.324067 8.50371 -0.712996 7.89589 -0.3699C7.229 -0.235892 6.80182 0.195377 6.48635 0.514028C6.23681 0.765893 6.07972 0.926092 5.93804 0.908631C4.50539 0.814782 3.74904 1.01732 3.06546 2.46435C2.93619 2.73891 2.79451 2.78081 2.45165 2.88165C2.25261 2.94014 2.02661 3.00649 1.77492 3.13831C0.471968 3.82058 -0.370842 5.42693 -0.274961 7.04506C-0.233869 7.73823 -0.418782 8.87621 -0.750085 9.40133C-1.56678 10.6973 -1.56678 12.5066 -0.750085 13.8022C-0.623813 14.0021 -0.4389 14.2348 -0.22488 14.5045C0.156931 14.9856 0.796422 15.7901 0.774592 16.1585C0.677427 17.7893 1.65336 19.6684 2.94989 20.3472C3.18317 20.4694 3.22255 20.593 3.31073 20.967C3.35952 21.1739 3.42031 21.4311 3.55129 21.7078C3.90356 22.4547 4.45616 22.6686 4.85938 22.8257C5.26002 22.9807 5.42567 23.0453 5.48645 23.4931C5.62728 24.5333 6.17303 25.2348 6.98331 25.4177C7.119 25.4478 7.25897 25.4631 7.40065 25.4631C8.31323 25.4631 9.30885 24.8454 9.93935 23.8476C10.0151 23.728 10.141 23.7144 10.191 23.7144C10.2411 23.7144 10.367 23.7275 10.4427 23.8476C11.1712 25.0004 12.3869 25.6434 13.3988 25.4181C14.2095 25.2352 14.7548 24.5338 14.8956 23.4936C14.9564 23.0457 15.1221 22.9811 15.5227 22.8261C15.9259 22.6694 16.4785 22.4551 16.8312 21.7082C16.9618 21.4315 17.0226 21.1739 17.0713 20.9675C17.16 20.5938 17.1989 20.4699 17.4322 20.3476C18.7283 19.6689 19.7042 17.7901 19.6075 16.1589C19.5857 15.7905 20.2251 14.9856 20.607 14.505C20.821 14.2352 21.0059 14.0026 21.1322 13.8026C21.9489 12.5071 21.9489 10.6978 21.1322 9.40177ZM20.4118 13.3303C20.3112 13.4901 20.1318 13.7162 19.9418 13.9554C19.7402 14.209 19.5309 14.4744 19.3438 14.7424C18.8263 13.4822 17.6051 12.5944 16.184 12.5944C14.7676 12.5944 13.6158 11.4197 13.6158 9.97534C13.6158 9.73395 13.424 9.53883 13.1877 9.53883C12.9515 9.53883 12.7597 9.73395 12.7597 9.97534C12.7597 11.9008 14.2959 13.4674 16.184 13.4674C17.6004 13.4674 18.7523 14.642 18.7523 16.0864C18.7523 16.0974 18.7578 16.107 18.7583 16.1179C18.7574 16.1493 18.751 16.1812 18.7527 16.2122C18.828 17.4846 18.0284 19.0547 17.041 19.5711C16.9532 19.6169 16.8787 19.6671 16.8107 19.7195C16.3595 18.6134 15.2894 17.8329 14.0434 17.8329C13.8071 17.8329 13.6154 18.028 13.6154 18.2694C13.6154 18.5108 13.8071 18.7059 14.0434 18.7059C15.2235 18.7059 16.1836 19.685 16.1836 20.8885C16.1836 20.9064 16.1917 20.9216 16.1934 20.9391C16.1601 21.0679 16.1215 21.198 16.059 21.3302C15.8544 21.7632 15.5736 21.8724 15.2179 22.0107C14.7788 22.181 14.1769 22.4145 14.0472 23.3748C13.9835 23.8471 13.787 24.4373 13.2139 24.5661C12.5551 24.7149 11.6922 24.2138 11.1623 23.3748C10.9512 23.0413 10.5883 22.8418 10.191 22.8418C10.0969 22.8418 10.0048 22.8549 9.91581 22.8763C9.86787 22.8576 9.81693 22.8449 9.763 22.8449C9.54769 22.8449 9.37733 23.0095 9.34694 23.2203C9.302 23.2696 9.25577 23.3172 9.21939 23.3744C9.13934 23.5014 9.04946 23.6175 8.95614 23.728C8.93902 23.7258 8.92447 23.7179 8.90692 23.7179C8.67064 23.7179 8.47888 23.9135 8.47888 24.1544C8.47888 24.1627 8.48316 24.1697 8.48359 24.178C8.08508 24.4761 7.64977 24.6241 7.26795 24.5757C7.46785 24.539 7.6228 24.3687 7.6228 24.1544C7.6228 23.9135 7.43104 23.7179 7.19476 23.7179C6.95848 23.7179 6.76672 23.9135 6.76672 24.1544C6.76672 24.2627 6.80952 24.3587 6.87373 24.4351C6.62418 24.2684 6.48079 23.9907 6.40246 23.7048C6.60749 23.6725 6.76715 23.4997 6.76715 23.2814C6.76715 23.0405 6.57539 22.8449 6.33911 22.8449C6.2886 22.8449 6.24152 22.858 6.19657 22.8741C6.11824 22.693 6.01893 22.5498 5.90508 22.4381C5.90593 22.4276 5.91107 22.4189 5.91107 22.4084C5.91107 22.1674 5.71931 21.9719 5.48303 21.9719C5.39828 21.9719 5.32337 22.0037 5.25702 22.047C5.22578 22.0347 5.1941 22.0216 5.16457 22.0103C5.05927 21.9693 4.96168 21.9304 4.86965 21.8855C4.97923 21.8064 5.05499 21.6825 5.05499 21.5354C5.05499 21.2944 4.86323 21.0989 4.62695 21.0989C4.49255 21.0989 4.3774 21.1661 4.29907 21.2652C4.22716 21.0945 4.18222 20.926 4.14369 20.7628C4.0461 20.3503 3.93524 19.8819 3.34155 19.5715C2.68194 19.2262 2.11307 18.41 1.82586 17.5274C1.89392 17.5736 1.97096 17.6072 2.05871 17.6072C2.29499 17.6072 2.48675 17.4117 2.48675 17.1707C2.48675 16.9298 2.29499 16.7342 2.05871 16.7342C1.89563 16.7342 1.75908 16.8303 1.68675 16.9669C1.6418 16.7111 1.61569 16.4557 1.62982 16.2122C1.6525 15.8267 1.4663 15.4072 1.20092 14.9878C1.20135 14.9878 1.20178 14.9882 1.20263 14.9882C1.43891 14.9882 1.63067 14.7926 1.63067 14.5517C1.63067 14.3107 1.43891 14.1152 1.20263 14.1152C1.01301 14.1152 0.857204 14.2431 0.801131 14.4172C0.711671 14.2994 0.620926 14.1833 0.53061 14.0689C0.674003 13.9982 0.774592 13.8515 0.774592 13.6787C0.774592 13.4377 0.58283 13.2422 0.346553 13.2422C0.213432 13.2422 0.0995737 13.3076 0.0212425 13.4045C0.00412095 13.3797 -0.0147129 13.353 -0.0288382 13.3308C-0.67047 12.3137 -0.67047 10.892 -0.0288382 9.87451C0.417607 9.16649 0.631627 7.85347 0.580262 6.99268C0.505355 5.72986 1.17224 4.43605 2.16658 3.9153C2.33779 3.82581 2.50687 3.77518 2.67038 3.72673C2.56209 3.80617 2.48675 3.92927 2.48675 4.0755C2.48675 4.31645 2.67851 4.512 2.91479 4.512C3.15107 4.512 3.34283 4.31645 3.34283 4.0755C3.34283 3.84153 3.16134 3.65427 2.93448 3.64292C3.09114 3.58835 3.24866 3.51633 3.39719 3.40371C3.4691 3.54165 3.60693 3.63899 3.77087 3.63899C4.00715 3.63899 4.19891 3.44343 4.19891 3.20248C4.19891 2.99601 4.05552 2.83101 3.86675 2.78562C3.98789 2.5355 4.10346 2.34474 4.22502 2.19764C4.21175 2.23954 4.19891 2.28232 4.19891 2.32903C4.19891 2.56998 4.39067 2.76554 4.62695 2.76554C4.86323 2.76554 5.05499 2.56998 5.05499 2.32903C5.05499 2.08808 4.86323 1.89252 4.62695 1.89252C4.61154 1.89252 4.59827 1.89994 4.58329 1.90169C4.74851 1.81831 4.94241 1.77772 5.18126 1.7655C5.25874 1.84407 5.36532 1.89252 5.48303 1.89252C5.5956 1.89252 5.69619 1.84625 5.77238 1.77379C5.80962 1.77597 5.84387 1.77728 5.88325 1.7799C6.24665 1.80304 6.5283 1.64066 6.77143 1.43462C6.771 1.44204 6.76715 1.44859 6.76715 1.45601C6.76715 1.69696 6.95891 1.89252 7.19519 1.89252C7.43147 1.89252 7.62323 1.69696 7.62323 1.45601C7.62323 1.21812 7.43617 1.02649 7.20375 1.02125C7.34072 0.885496 7.48283 0.762838 7.63949 0.664623C7.67802 0.864981 7.84324 1.0195 8.05127 1.0195C8.28755 1.0195 8.47931 0.823949 8.47931 0.582996C8.47931 0.504861 8.45362 0.43502 8.4181 0.371727C8.63169 0.369108 9.04518 0.529306 9.41115 0.857123C9.83662 1.23732 10.4586 1.2526 10.923 0.894663C11.226 0.660695 11.6678 0.5101 12.1309 0.477798L12.3312 0.481727C12.722 0.481727 12.9656 0.716568 13.3204 1.10375C13.6261 1.43681 13.9762 1.80522 14.4988 1.78034C15.6939 1.70308 16.0505 1.79605 16.5449 2.84367C16.5774 2.91308 16.6129 2.97419 16.6493 3.03224C15.6554 3.22038 14.8995 4.10736 14.8995 5.17462C14.8995 5.41601 15.0912 5.61113 15.3275 5.61113C15.5638 5.61113 15.7556 5.41601 15.7556 5.17462C15.7556 4.45264 16.3317 3.8651 17.0397 3.8651C17.2032 3.8651 17.3402 3.76863 17.4125 3.63113C17.5071 3.66562 17.6017 3.69399 17.6929 3.72105C17.8624 3.77125 18.0383 3.82276 18.2159 3.91573C19.2098 4.43605 19.8771 5.7303 19.8022 6.99312C19.7509 7.85391 19.9649 9.16649 20.4113 9.87494C21.0534 10.8916 21.0534 12.3133 20.4118 13.3303Z" fill="black"/>
<path d="M7.19519 22.8449C7.43159 22.8449 7.62323 22.6495 7.62323 22.4084C7.62323 22.1673 7.43159 21.9719 7.19519 21.9719C6.95879 21.9719 6.76715 22.1673 6.76715 22.4084C6.76715 22.6495 6.95879 22.8449 7.19519 22.8449Z" fill="black"/>
<path d="M8.90734 22.8449C9.14374 22.8449 9.33538 22.6495 9.33538 22.4084C9.33538 22.1673 9.14374 21.9719 8.90734 21.9719C8.67095 21.9719 8.47931 22.1673 8.47931 22.4084C8.47931 22.6495 8.67095 22.8449 8.90734 22.8449Z" fill="black"/>
<path d="M8.05127 21.9719C8.28767 21.9719 8.47931 21.7765 8.47931 21.5354C8.47931 21.2943 8.28767 21.0989 8.05127 21.0989C7.81487 21.0989 7.62323 21.2943 7.62323 21.5354C7.62323 21.7765 7.81487 21.9719 8.05127 21.9719Z" fill="black"/>
<path d="M6.33911 21.9719C6.57551 21.9719 6.76715 21.7765 6.76715 21.5354C6.76715 21.2943 6.57551 21.0989 6.33911 21.0989C6.10271 21.0989 5.91107 21.2943 5.91107 21.5354C5.91107 21.7765 6.10271 21.9719 6.33911 21.9719Z" fill="black"/>
<path d="M9.76342 21.9719C9.99982 21.9719 10.1915 21.7765 10.1915 21.5354C10.1915 21.2943 9.99982 21.0989 9.76342 21.0989C9.52702 21.0989 9.33538 21.2943 9.33538 21.5354C9.33538 21.7765 9.52702 21.9719 9.76342 21.9719Z" fill="black"/>
<path d="M6.33911 20.2259C6.57551 20.2259 6.76715 20.0304 6.76715 19.7894C6.76715 19.5483 6.57551 19.3528 6.33911 19.3528C6.10271 19.3528 5.91107 19.5483 5.91107 19.7894C5.91107 20.0304 6.10271 20.2259 6.33911 20.2259Z" fill="black"/>
<path d="M9.76342 20.2259C9.99982 20.2259 10.1915 20.0304 10.1915 19.7894C10.1915 19.5483 9.99982 19.3528 9.76342 19.3528C9.52702 19.3528 9.33538 19.5483 9.33538 19.7894C9.33538 20.0304 9.52702 20.2259 9.76342 20.2259Z" fill="black"/>
<path d="M8.90734 19.3528C9.14374 19.3528 9.33538 19.1574 9.33538 18.9163C9.33538 18.6753 9.14374 18.4798 8.90734 18.4798C8.67095 18.4798 8.47931 18.6753 8.47931 18.9163C8.47931 19.1574 8.67095 19.3528 8.90734 19.3528Z" fill="black"/>
<path d="M8.05127 18.4798C8.28767 18.4798 8.47931 18.2844 8.47931 18.0433C8.47931 17.8022 8.28767 17.6068 8.05127 17.6068C7.81487 17.6068 7.62323 17.8022 7.62323 18.0433C7.62323 18.2844 7.81487 18.4798 8.05127 18.4798Z" fill="black"/>
<path d="M6.33911 18.4798C6.57551 18.4798 6.76715 18.2844 6.76715 18.0433C6.76715 17.8022 6.57551 17.6068 6.33911 17.6068C6.10271 17.6068 5.91107 17.8022 5.91107 18.0433C5.91107 18.2844 6.10271 18.4798 6.33911 18.4798Z" fill="black"/>
<path d="M9.76342 18.4798C9.99982 18.4798 10.1915 18.2844 10.1915 18.0433C10.1915 17.8022 9.99982 17.6068 9.76342 17.6068C9.52702 17.6068 9.33538 17.8022 9.33538 18.0433C9.33538 18.2844 9.52702 18.4798 9.76342 18.4798Z" fill="black"/>
<path d="M7.19519 17.6068C7.43159 17.6068 7.62323 17.4114 7.62323 17.1703C7.62323 16.9292 7.43159 16.7338 7.19519 16.7338C6.95879 16.7338 6.76715 16.9292 6.76715 17.1703C6.76715 17.4114 6.95879 17.6068 7.19519 17.6068Z" fill="black"/>
<path d="M9.76342 16.7338C9.99982 16.7338 10.1915 16.5384 10.1915 16.2973C10.1915 16.0562 9.99982 15.8608 9.76342 15.8608C9.52702 15.8608 9.33538 16.0562 9.33538 16.2973C9.33538 16.5384 9.52702 16.7338 9.76342 16.7338Z" fill="black"/>
<path d="M7.19519 15.8608C7.43159 15.8608 7.62323 15.6653 7.62323 15.4243C7.62323 15.1832 7.43159 14.9878 7.19519 14.9878C6.95879 14.9878 6.76715 15.1832 6.76715 15.4243C6.76715 15.6653 6.95879 15.8608 7.19519 15.8608Z" fill="black"/>
<path d="M8.90734 15.8608C9.14374 15.8608 9.33538 15.6653 9.33538 15.4243C9.33538 15.1832 9.14374 14.9878 8.90734 14.9878C8.67095 14.9878 8.47931 15.1832 8.47931 15.4243C8.47931 15.6653 8.67095 15.8608 8.90734 15.8608Z" fill="black"/>
<path d="M9.76342 14.9878C9.99982 14.9878 10.1915 14.7923 10.1915 14.5513C10.1915 14.3102 9.99982 14.1147 9.76342 14.1147C9.52702 14.1147 9.33538 14.3102 9.33538 14.5513C9.33538 14.7923 9.52702 14.9878 9.76342 14.9878Z" fill="black"/>
<path d="M8.90734 14.1147C9.14374 14.1147 9.33538 13.9193 9.33538 13.6782C9.33538 13.4372 9.14374 13.2417 8.90734 13.2417C8.67095 13.2417 8.47931 13.4372 8.47931 13.6782C8.47931 13.9193 8.67095 14.1147 8.90734 14.1147Z" fill="black"/>
<path d="M8.05127 13.2417C8.28767 13.2417 8.47931 13.0463 8.47931 12.8052C8.47931 12.5641 8.28767 12.3687 8.05127 12.3687C7.81487 12.3687 7.62323 12.5641 7.62323 12.8052C7.62323 13.0463 7.81487 13.2417 8.05127 13.2417Z" fill="black"/>
<path d="M6.33911 13.2417C6.57551 13.2417 6.76715 13.0463 6.76715 12.8052C6.76715 12.5641 6.57551 12.3687 6.33911 12.3687C6.10271 12.3687 5.91107 12.5641 5.91107 12.8052C5.91107 13.0463 6.10271 13.2417 6.33911 13.2417Z" fill="black"/>
<path d="M9.76342 13.2417C9.99982 13.2417 10.1915 13.0463 10.1915 12.8052C10.1915 12.5641 9.99982 12.3687 9.76342 12.3687C9.52702 12.3687 9.33538 12.5641 9.33538 12.8052C9.33538 13.0463 9.52702 13.2417 9.76342 13.2417Z" fill="black"/>
<path d="M7.19519 12.3687C7.43159 12.3687 7.62323 12.1733 7.62323 11.9322C7.62323 11.6911 7.43159 11.4957 7.19519 11.4957C6.95879 11.4957 6.76715 11.6911 6.76715 11.9322C6.76715 12.1733 6.95879 12.3687 7.19519 12.3687Z" fill="black"/>
<path d="M8.05127 11.4957C8.28767 11.4957 8.47931 11.3003 8.47931 11.0592C8.47931 10.8181 8.28767 10.6227 8.05127 10.6227C7.81487 10.6227 7.62323 10.8181 7.62323 11.0592C7.62323 11.3003 7.81487 11.4957 8.05127 11.4957Z" fill="black"/>
<path d="M6.33911 11.4957C6.57551 11.4957 6.76715 11.3003 6.76715 11.0592C6.76715 10.8181 6.57551 10.6227 6.33911 10.6227C6.10271 10.6227 5.91107 10.8181 5.91107 11.0592C5.91107 11.3003 6.10271 11.4957 6.33911 11.4957Z" fill="black"/>
<path d="M9.76342 11.4957C9.99982 11.4957 10.1915 11.3003 10.1915 11.0592C10.1915 10.8181 9.99982 10.6227 9.76342 10.6227C9.52702 10.6227 9.33538 10.8181 9.33538 11.0592C9.33538 11.3003 9.52702 11.4957 9.76342 11.4957Z" fill="black"/>
<path d="M8.90734 10.6227C9.14374 10.6227 9.33538 10.4272 9.33538 10.1862C9.33538 9.9451 9.14374 9.74966 8.90734 9.74966C8.67095 9.74966 8.47931 9.9451 8.47931 10.1862C8.47931 10.4272 8.67095 10.6227 8.90734 10.6227Z" fill="black"/>
<path d="M8.05127 9.74966C8.28767 9.74966 8.47931 9.55423 8.47931 9.31316C8.47931 9.07208 8.28767 8.87665 8.05127 8.87665C7.81487 8.87665 7.62323 9.07208 7.62323 9.31316C7.62323 9.55423 7.81487 9.74966 8.05127 9.74966Z" fill="black"/>
<path d="M7.19519 8.87665C7.43159 8.87665 7.62323 8.68122 7.62323 8.44014C7.62323 8.19906 7.43159 8.00363 7.19519 8.00363C6.95879 8.00363 6.76715 8.19906 6.76715 8.44014C6.76715 8.68122 6.95879 8.87665 7.19519 8.87665Z" fill="black"/>
<path d="M8.90734 8.87665C9.14374 8.87665 9.33538 8.68122 9.33538 8.44014C9.33538 8.19906 9.14374 8.00363 8.90734 8.00363C8.67095 8.00363 8.47931 8.19906 8.47931 8.44014C8.47931 8.68122 8.67095 8.87665 8.90734 8.87665Z" fill="black"/>
<path d="M9.76342 8.00363C9.99982 8.00363 10.1915 7.8082 10.1915 7.56712C10.1915 7.32605 9.99982 7.13062 9.76342 7.13062C9.52702 7.13062 9.33538 7.32605 9.33538 7.56712C9.33538 7.8082 9.52702 8.00363 9.76342 8.00363Z" fill="black"/>
<path d="M7.19519 7.13062C7.43159 7.13062 7.62323 6.93518 7.62323 6.69411C7.62323 6.45303 7.43159 6.2576 7.19519 6.2576C6.95879 6.2576 6.76715 6.45303 6.76715 6.69411C6.76715 6.93518 6.95879 7.13062 7.19519 7.13062Z" fill="black"/>
<path d="M8.90734 7.13062C9.14374 7.13062 9.33538 6.93518 9.33538 6.69411C9.33538 6.45303 9.14374 6.2576 8.90734 6.2576C8.67095 6.2576 8.47931 6.45303 8.47931 6.69411C8.47931 6.93518 8.67095 7.13062 8.90734 7.13062Z" fill="black"/>
<path d="M8.05127 6.2576C8.28767 6.2576 8.47931 6.06217 8.47931 5.82109C8.47931 5.58001 8.28767 5.38458 8.05127 5.38458C7.81487 5.38458 7.62323 5.58001 7.62323 5.82109C7.62323 6.06217 7.81487 6.2576 8.05127 6.2576Z" fill="black"/>
<path d="M6.33911 6.2576C6.57551 6.2576 6.76715 6.06217 6.76715 5.82109C6.76715 5.58001 6.57551 5.38458 6.33911 5.38458C6.10271 5.38458 5.91107 5.58001 5.91107 5.82109C5.91107 6.06217 6.10271 6.2576 6.33911 6.2576Z" fill="black"/>
<path d="M7.19519 5.38458C7.43159 5.38458 7.62323 5.18915 7.62323 4.94807C7.62323 4.707 7.43159 4.51157 7.19519 4.51157C6.95879 4.51157 6.76715 4.707 6.76715 4.94807C6.76715 5.18915 6.95879 5.38458 7.19519 5.38458Z" fill="black"/>
<path d="M8.90734 5.38458C9.14374 5.38458 9.33538 5.18915 9.33538 4.94807C9.33538 4.707 9.14374 4.51157 8.90734 4.51157C8.67095 4.51157 8.47931 4.707 8.47931 4.94807C8.47931 5.18915 8.67095 5.38458 8.90734 5.38458Z" fill="black"/>
<path d="M5.48303 21.0989C5.71943 21.0989 5.91107 20.9034 5.91107 20.6624C5.91107 20.4213 5.71943 20.2259 5.48303 20.2259C5.24663 20.2259 5.05499 20.4213 5.05499 20.6624C5.05499 20.9034 5.24663 21.0989 5.48303 21.0989Z" fill="black"/>
<path d="M4.62695 20.2259C4.86335 20.2259 5.05499 20.0304 5.05499 19.7894C5.05499 19.5483 4.86335 19.3528 4.62695 19.3528C4.39055 19.3528 4.19891 19.5483 4.19891 19.7894C4.19891 20.0304 4.39055 20.2259 4.62695 20.2259Z" fill="black"/>
<path d="M3.77087 19.3528C4.00727 19.3528 4.19891 19.1574 4.19891 18.9163C4.19891 18.6753 4.00727 18.4798 3.77087 18.4798C3.53447 18.4798 3.34283 18.6753 3.34283 18.9163C3.34283 19.1574 3.53447 19.3528 3.77087 19.3528Z" fill="black"/>
<path d="M2.91479 18.4798C3.15119 18.4798 3.34283 18.2844 3.34283 18.0433C3.34283 17.8022 3.15119 17.6068 2.91479 17.6068C2.67839 17.6068 2.48675 17.8022 2.48675 18.0433C2.48675 18.2844 2.67839 18.4798 2.91479 18.4798Z" fill="black"/>
<path d="M4.62695 18.4798C4.86335 18.4798 5.05499 18.2844 5.05499 18.0433C5.05499 17.8022 4.86335 17.6068 4.62695 17.6068C4.39055 17.6068 4.19891 17.8022 4.19891 18.0433C4.19891 18.2844 4.39055 18.4798 4.62695 18.4798Z" fill="black"/>
<path d="M3.77087 17.6068C4.00727 17.6068 4.19891 17.4114 4.19891 17.1703C4.19891 16.9292 4.00727 16.7338 3.77087 16.7338C3.53447 16.7338 3.34283 16.9292 3.34283 17.1703C3.34283 17.4114 3.53447 17.6068 3.77087 17.6068Z" fill="black"/>
<path d="M2.91479 16.7338C3.15119 16.7338 3.34283 16.5384 3.34283 16.2973C3.34283 16.0562 3.15119 15.8608 2.91479 15.8608C2.67839 15.8608 2.48675 16.0562 2.48675 16.2973C2.48675 16.5384 2.67839 16.7338 2.91479 16.7338Z" fill="black"/>
<path d="M3.77087 15.8608C4.00727 15.8608 4.19891 15.6653 4.19891 15.4243C4.19891 15.1832 4.00727 14.9878 3.77087 14.9878C3.53447 14.9878 3.34283 15.1832 3.34283 15.4243C3.34283 15.6653 3.53447 15.8608 3.77087 15.8608Z" fill="black"/>
<path d="M2.05871 15.8608C2.29511 15.8608 2.48675 15.6653 2.48675 15.4243C2.48675 15.1832 2.29511 14.9878 2.05871 14.9878C1.82231 14.9878 1.63067 15.1832 1.63067 15.4243C1.63067 15.6653 1.82231 15.8608 2.05871 15.8608Z" fill="black"/>
<path d="M5.48303 15.8608C5.71943 15.8608 5.91107 15.6653 5.91107 15.4243C5.91107 15.1832 5.71943 14.9878 5.48303 14.9878C5.24663 14.9878 5.05499 15.1832 5.05499 15.4243C5.05499 15.6653 5.24663 15.8608 5.48303 15.8608Z" fill="black"/>
<path d="M3.77087 14.1147C4.00727 14.1147 4.19891 13.9193 4.19891 13.6782C4.19891 13.4372 4.00727 13.2417 3.77087 13.2417C3.53447 13.2417 3.34283 13.4372 3.34283 13.6782C3.34283 13.9193 3.53447 14.1147 3.77087 14.1147Z" fill="black"/>
<path d="M2.05871 14.1147C2.29511 14.1147 2.48675 13.9193 2.48675 13.6782C2.48675 13.4372 2.29511 13.2417 2.05871 13.2417C1.82231 13.2417 1.63067 13.4372 1.63067 13.6782C1.63067 13.9193 1.82231 14.1147 2.05871 14.1147Z" fill="black"/>
<path d="M5.48303 14.1147C5.71943 14.1147 5.91107 13.9193 5.91107 13.6782C5.91107 13.4372 5.71943 13.2417 5.48303 13.2417C5.24663 13.2417 5.05499 13.4372 5.05499 13.6782C5.05499 13.9193 5.24663 14.1147 5.48303 14.1147Z" fill="black"/>
<path d="M3.77087 12.3687C4.00727 12.3687 4.19891 12.1733 4.19891 11.9322C4.19891 11.6911 4.00727 11.4957 3.77087 11.4957C3.53447 11.4957 3.34283 11.6911 3.34283 11.9322C3.34283 12.1733 3.53447 12.3687 3.77087 12.3687Z" fill="black"/>
<path d="M2.05871 12.3687C2.29511 12.3687 2.48675 12.1733 2.48675 11.9322C2.48675 11.6911 2.29511 11.4957 2.05871 11.4957C1.82231 11.4957 1.63067 11.6911 1.63067 11.9322C1.63067 12.1733 1.82231 12.3687 2.05871 12.3687Z" fill="black"/>
<path d="M4.62695 11.4957C4.86335 11.4957 5.05499 11.3003 5.05499 11.0592C5.05499 10.8181 4.86335 10.6227 4.62695 10.6227C4.39055 10.6227 4.19891 10.8181 4.19891 11.0592C4.19891 11.3003 4.39055 11.4957 4.62695 11.4957Z" fill="black"/>
<path d="M3.77087 10.6227C4.00727 10.6227 4.19891 10.4272 4.19891 10.1862C4.19891 9.9451 4.00727 9.74966 3.77087 9.74966C3.53447 9.74966 3.34283 9.9451 3.34283 10.1862C3.34283 10.4272 3.53447 10.6227 3.77087 10.6227Z" fill="black"/>
<path d="M2.91479 9.74966C3.15119 9.74966 3.34283 9.55423 3.34283 9.31316C3.34283 9.07208 3.15119 8.87665 2.91479 8.87665C2.67839 8.87665 2.48675 9.07208 2.48675 9.31316C2.48675 9.55423 2.67839 9.74966 2.91479 9.74966Z" fill="black"/>
<path d="M4.62695 9.74966C4.86335 9.74966 5.05499 9.55423 5.05499 9.31316C5.05499 9.07208 4.86335 8.87665 4.62695 8.87665C4.39055 8.87665 4.19891 9.07208 4.19891 9.31316C4.19891 9.55423 4.39055 9.74966 4.62695 9.74966Z" fill="black"/>
<path d="M3.77087 8.87665C4.00727 8.87665 4.19891 8.68122 4.19891 8.44014C4.19891 8.19906 4.00727 8.00363 3.77087 8.00363C3.53447 8.00363 3.34283 8.19906 3.34283 8.44014C3.34283 8.68122 3.53447 8.87665 3.77087 8.87665Z" fill="black"/>
<path d="M5.48303 8.87665C5.71943 8.87665 5.91107 8.68122 5.91107 8.44014C5.91107 8.19906 5.71943 8.00363 5.48303 8.00363C5.24663 8.00363 5.05499 8.19906 5.05499 8.44014C5.05499 8.68122 5.24663 8.87665 5.48303 8.87665Z" fill="black"/>
<path d="M2.91479 8.00363C3.15119 8.00363 3.34283 7.8082 3.34283 7.56712C3.34283 7.32605 3.15119 7.13062 2.91479 7.13062C2.67839 7.13062 2.48675 7.32605 2.48675 7.56712C2.48675 7.8082 2.67839 8.00363 2.91479 8.00363Z" fill="black"/>
<path d="M2.05871 7.13062C2.29511 7.13062 2.48675 6.93518 2.48675 6.69411C2.48675 6.45303 2.29511 6.2576 2.05871 6.2576C1.82231 6.2576 1.63067 6.45303 1.63067 6.69411C1.63067 6.93518 1.82231 7.13062 2.05871 7.13062Z" fill="black"/>
<path d="M2.91479 6.2576C3.15119 6.2576 3.34283 6.06217 3.34283 5.82109C3.34283 5.58001 3.15119 5.38458 2.91479 5.38458C2.67839 5.38458 2.48675 5.58001 2.48675 5.82109C2.48675 6.06217 2.67839 6.2576 2.91479 6.2576Z" fill="black"/>
<path d="M4.62695 6.2576C4.86335 6.2576 5.05499 6.06217 5.05499 5.82109C5.05499 5.58001 4.86335 5.38458 4.62695 5.38458C4.39055 5.38458 4.19891 5.58001 4.19891 5.82109C4.19891 6.06217 4.39055 6.2576 4.62695 6.2576Z" fill="black"/>
<path d="M2.05871 5.38458C2.29511 5.38458 2.48675 5.18915 2.48675 4.94807C2.48675 4.707 2.29511 4.51157 2.05871 4.51157C1.82231 4.51157 1.63067 4.707 1.63067 4.94807C1.63067 5.18915 1.82231 5.38458 2.05871 5.38458Z" fill="black"/>
<path d="M5.48303 5.38458C5.71943 5.38458 5.91107 5.18915 5.91107 4.94807C5.91107 4.707 5.71943 4.51157 5.48303 4.51157C5.24663 4.51157 5.05499 4.707 5.05499 4.94807C5.05499 5.18915 5.24663 5.38458 5.48303 5.38458Z" fill="black"/>
<path d="M1.20263 11.4957C1.43903 11.4957 1.63067 11.3003 1.63067 11.0592C1.63067 10.8181 1.43903 10.6227 1.20263 10.6227C0.966233 10.6227 0.774593 10.8181 0.774593 11.0592C0.774593 11.3003 0.966233 11.4957 1.20263 11.4957Z" fill="black"/>
<path d="M1.20263 9.74966C1.43903 9.74966 1.63067 9.55423 1.63067 9.31316C1.63067 9.07208 1.43903 8.87665 1.20263 8.87665C0.966233 8.87665 0.774593 9.07208 0.774593 9.31316C0.774593 9.55423 0.966233 9.74966 1.20263 9.74966Z" fill="black"/>
<path d="M1.20263 8.00363C1.43903 8.00363 1.63067 7.8082 1.63067 7.56712C1.63067 7.32605 1.43903 7.13062 1.20263 7.13062C0.966233 7.13062 0.774593 7.32605 0.774593 7.56712C0.774593 7.8082 0.966233 8.00363 1.20263 8.00363Z" fill="black"/>
<path d="M1.20263 6.2576C1.43903 6.2576 1.63067 6.06217 1.63067 5.82109C1.63067 5.58001 1.43903 5.38458 1.20263 5.38458C0.966233 5.38458 0.774593 5.58001 0.774593 5.82109C0.774593 6.06217 0.966233 6.2576 1.20263 6.2576Z" fill="black"/>
</g>
</g>
<defs>
<clipPath id="clip0_6_20">
<rect width="46" height="46" fill="white"/>
</clipPath>
<clipPath id="clip1_6_20">
<rect width="23" height="22" fill="white" transform="translate(1 5)"/>
</clipPath>
</defs>
</svg>
