<svg width="344" height="355" viewBox="0 0 344 355" fill="none" xmlns="http://www.w3.org/2000/svg">
<g clip-path="url(#clip0_45_6)">
<mask id="mask0_45_6" style="mask-type:alpha" maskUnits="userSpaceOnUse" x="0" y="0" width="726" height="355">
<path d="M723.442 0.00388597L0 5.05176L2.43488 354.01L725.877 348.963L723.442 0.00388597Z" fill="white"/>
</mask>
<g mask="url(#mask0_45_6)">
<path d="M686.742 211.384C661.56 266.837 613.83 315.599 547.211 337.347C538.546 340.172 529.695 342.578 520.703 344.555C473.138 355.028 421 351.864 376.96 333.692C358.268 325.974 341.201 315.721 322.443 308.116C303.685 300.51 282.29 295.596 261.959 299.556C244.453 302.967 229.73 312.492 214.898 320.99C179.934 341.023 137.836 356.978 96.2231 350.471C77.0751 347.481 58.1811 338.96 49.1977 324.56C29.3422 292.724 66.103 254.453 58.3577 219.146C53.4013 196.549 31.3667 179.754 17.6028 159.878C-5.95267 125.879 -3.5129 80.4811 23.603 48.28C50.7188 16.0788 101.071 -1.25323 147.396 5.68554C203.885 14.1505 246.826 53.726 301.794 67.4531C336.171 76.03 373.409 73.1397 406.101 61.2999C458.922 42.1658 531.468 12.8794 591.09 17.1512C622.795 19.4243 653.957 30.9501 675.012 50.8557C701.628 75.9837 709.804 111.866 705.627 145.274C702.758 167.889 696.41 190.109 686.742 211.384Z" fill="url(#paint0_linear_45_6)"/>
<path d="M32.8163 258.508C28.9521 258.465 25.2682 257.15 22.5644 254.85C19.8606 252.55 18.3552 249.45 18.3749 246.223C18.3946 242.996 19.9378 239.903 22.6697 237.614C25.4015 235.325 29.1013 234.027 32.966 234C36.8307 233.973 40.5483 235.22 43.3118 237.47C46.0752 239.72 47.6615 242.792 47.7262 246.019C47.791 249.245 46.3289 252.365 43.6575 254.703C40.9861 257.041 37.3209 258.406 33.4576 258.504L32.8163 258.508ZM32.6847 239.64L32.3528 239.643C30.2663 239.695 28.2866 240.432 26.8435 241.695C25.4005 242.957 24.6107 244.642 24.6454 246.385C24.6801 248.128 25.5367 249.786 27.0292 251.002C28.5216 252.217 30.5294 252.891 32.6167 252.876C34.704 252.862 36.7022 252.16 38.1775 250.924C39.6529 249.688 40.4863 248.017 40.4967 246.275C40.5071 244.531 39.6938 242.857 38.2333 241.615C36.7728 240.373 34.783 239.664 32.6959 239.64L32.6847 239.64Z" fill="#E7F6FF"/>
<path d="M22.4962 279.146C26.012 278.995 28.7226 276.493 28.5504 273.557C28.3782 270.622 25.3885 268.365 21.8726 268.516C18.3568 268.668 15.6462 271.169 15.8184 274.105C15.9906 277.04 18.9803 279.297 22.4962 279.146Z" fill="#E7F6FF"/>
<path d="M108.199 76.1644C108.184 73.6059 107.565 71.076 106.378 68.7197C105.192 66.3633 103.46 64.2264 101.281 62.4313C99.1035 60.6361 96.5221 59.2177 93.6846 58.2577C90.8476 57.2971 87.8098 56.8134 84.7456 56.8343C84.2281 56.8379 83.7162 56.8414 83.2102 56.8873C83.241 56.4643 83.2549 56.0367 83.2519 55.6046C83.232 52.8371 82.5058 50.106 81.1213 47.5939C79.7373 45.0818 77.7268 42.8463 75.2243 41.0365C72.7212 39.2267 69.7843 37.884 66.6082 37.0981C63.4321 36.3121 60.0901 36.101 56.8052 36.4787C53.5204 36.8563 50.3678 37.8142 47.5576 39.2883C44.7476 40.7625 42.3446 42.7191 40.5089 45.0276C38.6732 47.3362 37.447 49.9439 36.912 52.6765C36.3769 55.4093 36.5454 58.2045 37.4061 60.8754C34.5754 59.1882 31.3267 58.0525 27.8982 57.5522C24.4697 57.0515 20.9485 57.1986 17.593 57.9821C14.2375 58.766 11.1329 60.1668 8.50704 62.0818C5.88112 63.9969 3.80055 66.3775 2.418 69.0486C1.03547 71.7202 0.386028 74.6145 0.517365 77.5198C0.648699 80.4246 1.55747 83.2667 3.17699 85.837C4.79651 88.4078 7.08569 90.6414 9.8765 92.374C12.6673 94.1066 15.889 95.2951 19.305 95.8509C20.7209 98.9234 23.0481 101.644 26.0689 103.757C29.0898 105.871 32.7053 107.309 36.5773 107.936C40.4493 108.563 44.451 108.359 48.208 107.344C51.9649 106.328 55.3542 104.534 58.0587 102.129C60.8549 103.864 64.0833 105.052 67.5059 105.606C70.9284 106.161 74.4584 106.066 77.8354 105.33C81.2124 104.595 84.351 103.236 87.0196 101.355C89.6883 99.4742 91.8191 97.1186 93.2554 94.4612C97.6705 93.032 101.464 90.5165 104.133 87.2487C106.802 83.981 108.22 80.1151 108.199 76.1644Z" fill="white"/>
<path d="M539.194 350.265L203.642 352.607L203.6 346.5L539.152 344.159C540.122 344.152 541.054 344.468 541.743 345.035C542.433 345.603 542.824 346.377 542.83 347.187C542.835 347.996 542.455 348.776 541.774 349.353C541.092 349.93 540.164 350.259 539.194 350.265Z" fill="#426572"/>
<path d="M188.634 352.711L168.118 352.855C167.148 352.861 166.216 352.546 165.527 351.978C164.837 351.411 164.446 350.637 164.44 349.827C164.435 349.017 164.815 348.238 165.496 347.66C166.178 347.083 167.106 346.755 168.076 346.748L188.591 346.605C189.561 346.598 190.493 346.914 191.183 347.481C191.873 348.049 192.263 348.823 192.269 349.633C192.275 350.443 191.895 351.222 191.213 351.799C190.531 352.376 189.604 352.705 188.634 352.711Z" fill="#426572"/>
<path d="M154.803 352.947L148.266 352.993C147.297 353 146.364 352.684 145.675 352.116C144.985 351.549 144.594 350.775 144.589 349.965C144.583 349.155 144.963 348.376 145.645 347.798C146.326 347.222 147.254 346.893 148.224 346.887L154.76 346.841C155.73 346.834 156.662 347.149 157.352 347.717C158.042 348.285 158.433 349.059 158.438 349.869C158.444 350.678 158.064 351.457 157.382 352.035C156.7 352.612 155.773 352.94 154.803 352.947Z" fill="#426572"/>
<path d="M129.568 353.123L26.427 353.843L26.3844 347.737L129.525 347.017C130.495 347.01 131.427 347.326 132.117 347.893C132.807 348.461 133.197 349.235 133.203 350.045C133.209 350.854 132.829 351.634 132.147 352.211C131.465 352.788 130.538 353.117 129.568 353.123Z" fill="#426572"/>
<path d="M398.497 256.624L310.741 257.236C307.013 257.262 304.009 259.807 304.03 262.92L304.522 333.376C304.544 336.489 307.584 338.991 311.312 338.965L399.067 338.353C402.795 338.327 405.8 335.782 405.778 332.669L405.287 262.213C405.265 259.1 402.225 256.598 398.497 256.624Z" fill="#E8EDF7"/>
<path d="M405.483 290.396L304.227 291.102L304.407 316.936L405.663 316.229L405.483 290.396Z" fill="#C1CEDE"/>
<path d="M397.693 342.12L309.937 342.732C307.252 342.751 304.67 341.878 302.76 340.306C300.85 338.734 299.768 336.59 299.752 334.348L299.261 263.892C299.245 261.65 300.297 259.492 302.185 257.893C304.073 256.295 306.642 255.386 309.327 255.367L397.083 254.755C399.768 254.736 402.35 255.609 404.26 257.181C406.17 258.753 407.252 260.896 407.268 263.139L407.759 333.594C407.775 335.837 406.723 337.995 404.835 339.594C402.947 341.193 400.378 342.101 397.693 342.12ZM309.367 261.003C308.472 261.01 307.615 261.312 306.986 261.846C306.357 262.379 306.006 263.098 306.011 263.845L306.503 334.301C306.508 335.049 306.869 335.763 307.505 336.287C308.142 336.811 309.003 337.102 309.898 337.096L397.653 336.483C398.548 336.477 399.405 336.174 400.034 335.641C400.663 335.109 401.014 334.389 401.009 333.642L400.517 263.186C400.512 262.438 400.151 261.724 399.515 261.2C398.878 260.676 398.017 260.385 397.122 260.391L309.367 261.003Z" fill="#426572"/>
<path d="M609.5 61.1448L611.014 278.149C611.05 283.328 609.032 288.375 605.281 292.506C601.529 296.637 596.25 299.62 590.263 300.991C587.921 301.525 585.504 301.802 583.074 301.816L127.381 304.996C119.921 305.048 112.75 302.623 107.445 298.256C102.139 293.889 99.134 287.936 99.0905 281.707L97.5763 64.7027C97.5382 60.365 98.9458 56.1004 101.642 52.3862C101.993 51.914 102.367 51.4417 102.757 50.9694C105.83 47.3451 110.066 44.5179 114.976 42.8142C118.317 41.6536 121.895 41.0463 125.511 41.0261L581.192 37.8466C584.888 37.8189 588.555 38.3998 591.978 39.556C595.4 40.7121 598.518 42.421 601.143 44.5847C603.774 46.7485 605.862 49.3245 607.3 52.1662C608.732 55.008 609.479 58.0588 609.5 61.1448Z" fill="#E8EDF7"/>
<path d="M579.719 305.62L124.066 308.8C115.711 308.858 107.679 306.143 101.737 301.251C95.7949 296.359 92.4292 289.692 92.3806 282.716L90.8664 65.7117C90.8116 59.0673 93.7833 52.6475 99.1795 47.7523C99.5373 47.421 99.9399 47.0753 100.432 46.6726C106.255 41.9229 114.054 39.2428 122.185 39.1977L577.838 36.0184C586.192 35.9601 594.227 38.6754 600.168 43.567C606.109 48.4587 609.475 55.1261 609.524 62.1021L611.038 279.106C611.068 282.561 610.276 285.989 608.717 289.193C607.159 292.397 604.862 295.315 601.953 297.778C599.04 300.242 595.582 302.204 591.766 303.551C587.95 304.898 583.86 305.604 579.719 305.63L579.719 305.62ZM122.224 44.8248C115.835 44.8593 109.707 46.9673 105.135 50.7029C104.749 51.0156 104.442 51.2808 104.168 51.5317C99.918 55.384 97.5798 60.4387 97.6281 65.6692L99.1423 282.673C99.1805 288.154 101.825 293.393 106.494 297.237C111.163 301.08 117.473 303.214 124.038 303.168L579.691 299.988C582.943 299.969 586.162 299.415 589.159 298.357C592.156 297.298 594.873 295.757 597.161 293.821C599.448 291.885 601.255 289.593 602.481 287.075C603.706 284.557 604.323 281.863 604.299 279.149L602.784 62.1445C602.746 56.663 600.099 51.4247 595.431 47.5812C590.763 43.7377 584.454 41.6043 577.889 41.6501L122.224 44.8248Z" fill="#426572"/>
<path d="M572.679 52.9552L128.693 56.0532C119.413 56.1179 111.934 62.4523 111.988 70.2005L113.444 278.872C113.498 286.621 121.065 292.85 130.345 292.785L574.331 289.687C583.613 289.622 591.09 283.288 591.036 275.54L589.58 66.8681C589.526 59.1198 581.961 52.8905 572.679 52.9552Z" fill="#C1CEDE"/>
<path d="M131.271 63.5511L570.195 60.4885C572.709 60.4709 575.123 61.2874 576.911 62.7588C578.699 64.2297 579.709 66.2345 579.723 68.3322L581.002 251.593L123.132 254.787L121.854 71.527C121.839 69.4293 122.823 67.4106 124.589 65.9149C126.355 64.4187 128.759 63.5686 131.271 63.5511Z" fill="#F1F6FE"/>
<path d="M589.737 250.592L589.905 274.608C589.931 278.328 588.184 281.909 585.052 284.562C581.92 287.215 577.655 288.723 573.2 288.755L129.213 291.853C124.757 291.884 120.473 290.436 117.303 287.827C114.134 285.218 112.339 281.661 112.313 277.94L112.145 253.924L122.006 253.856L122.013 254.795L579.882 251.6L579.876 250.661L589.737 250.592Z" fill="#E8EDF7"/>
<path d="M589.995 249.651L113.528 252.976L113.587 261.43L590.054 258.106L589.995 249.651Z" fill="#C1CEDE"/>
<path d="M589.436 247.776L114.657 251.089L114.696 256.725L589.476 253.413L589.436 247.776Z" fill="#426572"/>
<path d="M520.16 77.2778L175.888 79.6799C172.16 79.706 169.155 82.2508 169.177 85.3635L170.187 230.033C170.208 233.146 173.248 235.648 176.976 235.622L521.248 233.22C524.976 233.194 527.98 230.65 527.959 227.537L526.949 82.8671C526.928 79.7544 523.888 77.2518 520.16 77.2778Z" fill="white"/>
<path d="M174.953 106.931L528.225 104.466L528.087 84.6536L521.285 77.27L211.891 79.4288L181.514 79.6407L170.315 87.15L170.453 106.962L174.953 106.931Z" fill="#E2F2FF"/>
<path d="M522.392 236.031L178.121 238.433C175.436 238.452 172.854 237.579 170.944 236.007C169.034 234.435 167.952 232.291 167.936 230.049L166.927 85.3795C166.911 83.1371 167.963 80.9794 169.851 79.3804C171.739 77.7819 174.308 76.8729 176.994 76.8542L521.265 74.452C523.951 74.4332 526.532 75.3063 528.442 76.8783C530.352 78.4508 531.434 80.5937 531.45 82.836L532.459 227.505C532.475 229.748 531.423 231.906 529.535 233.505C527.647 235.104 525.078 236.012 522.392 236.031ZM177.033 82.4906C176.138 82.4969 175.282 82.7997 174.652 83.333C174.023 83.8659 173.672 84.5851 173.677 85.3324L174.687 230.002C174.692 230.75 175.053 231.464 175.689 231.988C176.326 232.512 177.187 232.803 178.082 232.797L522.353 230.394C523.248 230.388 524.104 230.085 524.734 229.552C525.363 229.02 525.714 228.3 525.709 227.553L524.699 82.8831C524.694 82.1358 524.334 81.4215 523.697 80.8975C523.06 80.3731 522.199 80.0822 521.304 80.0884L177.033 82.4906Z" fill="#426572"/>
<path d="M435.383 328.235L271.303 329.38C267.575 329.406 264.57 331.95 264.592 335.063L264.634 341.169C264.656 344.283 267.696 346.785 271.424 346.759L435.504 345.614C439.232 345.588 442.237 343.044 442.215 339.93L442.173 333.824C442.151 330.711 439.111 328.209 435.383 328.235Z" fill="#E8EDF7"/>
<path d="M436.27 348.897L272.19 350.042C269.504 350.06 266.923 349.188 265.012 347.615C263.102 346.043 262.021 343.9 262.005 341.658L261.962 335.551C261.947 333.309 262.998 331.151 264.886 329.552C266.774 327.954 269.343 327.045 272.029 327.026L436.109 325.881C438.795 325.862 441.376 326.735 443.286 328.307C445.197 329.88 446.278 332.023 446.294 334.265L446.336 340.371C446.352 342.614 445.3 344.772 443.412 346.371C441.524 347.969 438.955 348.878 436.27 348.897ZM272.068 332.662C271.173 332.669 270.317 332.972 269.687 333.505C269.058 334.038 268.708 334.757 268.713 335.504L268.755 341.61C268.761 342.358 269.121 343.073 269.758 343.597C270.395 344.121 271.255 344.411 272.15 344.405L436.23 343.26C437.125 343.254 437.982 342.951 438.611 342.418C439.241 341.886 439.591 341.166 439.586 340.418L439.543 334.312C439.538 333.565 439.178 332.851 438.541 332.327C437.904 331.802 437.043 331.511 436.148 331.518L272.068 332.662Z" fill="#426572"/>
<path d="M190.93 98.0122C193.415 97.9949 195.418 96.2988 195.404 94.2232C195.389 92.148 193.363 90.4796 190.877 90.4969C188.392 90.5143 186.389 92.2108 186.403 94.286C186.418 96.3616 188.444 98.0296 190.93 98.0122Z" fill="#CADCE8"/>
<path d="M204.431 97.918C206.916 97.9006 208.919 96.2046 208.905 94.1289C208.89 92.0538 206.863 90.3853 204.378 90.4027C201.893 90.42 199.89 92.1166 199.904 94.1917C199.919 96.2674 201.945 97.9353 204.431 97.918Z" fill="#CADCE8"/>
<path d="M217.931 97.8237C220.417 97.8064 222.42 96.1103 222.405 94.0347C222.391 91.9595 220.364 90.2911 217.879 90.3084C215.394 90.3258 213.39 92.0223 213.405 94.0975C213.419 96.1731 215.446 97.8411 217.931 97.8237Z" fill="#CADCE8"/>
<path d="M510.678 88.2651L236.724 90.1766C234.704 90.1907 233.077 91.569 233.089 93.2552L233.099 94.6644C233.11 96.3506 234.757 97.706 236.776 97.6919L510.731 95.7804C512.75 95.7663 514.378 94.388 514.366 92.7018L514.356 91.2927C514.344 89.6064 512.698 88.251 510.678 88.2651Z" fill="#CADCE8"/>
<path d="M504.408 116.845L197.264 118.988C193.536 119.014 190.531 121.559 190.553 124.672L190.848 166.945C190.87 170.058 193.91 172.561 197.638 172.535L504.782 170.391C508.51 170.365 511.515 167.821 511.493 164.708L511.198 122.434C511.176 119.322 508.136 116.819 504.408 116.845Z" fill="#87D6FE"/>
<path d="M504.246 174.153L197.102 176.296C194.416 176.315 191.835 175.443 189.924 173.87C188.014 172.298 186.933 170.155 186.917 167.912L186.622 125.639C186.606 123.396 187.658 121.239 189.546 119.64C191.434 118.041 194.003 117.132 196.689 117.113L503.833 114.97C506.518 114.952 509.1 115.825 511.01 117.397C512.92 118.969 514.002 121.112 514.017 123.354L514.312 165.628C514.328 167.87 513.276 170.028 511.388 171.627C509.5 173.226 506.931 174.135 504.246 174.153ZM196.728 122.75C195.833 122.756 194.977 123.059 194.347 123.592C193.718 124.125 193.367 124.844 193.372 125.592L193.667 167.865C193.673 168.613 194.033 169.327 194.67 169.851C195.307 170.375 196.167 170.666 197.062 170.66L504.206 168.517C505.101 168.511 505.958 168.208 506.587 167.675C507.217 167.142 507.567 166.423 507.562 165.675L507.267 123.401C507.262 122.654 506.901 121.94 506.265 121.416C505.627 120.891 504.767 120.601 503.872 120.607L196.728 122.75Z" fill="#426572"/>
<path d="M282.673 188.382L200.087 188.958C196.359 188.984 193.354 191.529 193.376 194.642L193.504 212.96C193.526 216.074 196.566 218.576 200.294 218.55L282.879 217.973C286.607 217.947 289.612 215.403 289.59 212.29L289.463 193.971C289.441 190.859 286.401 188.356 282.673 188.382Z" fill="#A8EF9E"/>
<path d="M281.698 221.269L199.107 221.846C196.422 221.865 193.84 220.992 191.93 219.419C190.02 217.847 188.938 215.704 188.922 213.462L188.795 195.143C188.779 192.901 189.831 190.743 191.719 189.144C193.607 187.546 196.176 186.637 198.861 186.618L281.453 186.042C284.138 186.023 286.72 186.896 288.63 188.468C290.54 190.04 291.622 192.183 291.637 194.426L291.765 212.744C291.781 214.986 290.729 217.145 288.841 218.743C286.953 220.342 284.384 221.251 281.698 221.269ZM198.906 192.254C198.011 192.261 197.155 192.563 196.525 193.097C195.896 193.629 195.545 194.349 195.551 195.096L195.679 213.415C195.684 214.162 196.044 214.877 196.681 215.401C197.318 215.925 198.178 216.216 199.073 216.209L281.659 215.633C282.554 215.627 283.41 215.324 284.04 214.791C284.669 214.258 285.02 213.539 285.015 212.791L284.887 194.473C284.882 193.725 284.521 193.011 283.885 192.487C283.247 191.963 282.387 191.672 281.492 191.678L198.906 192.254Z" fill="#426572"/>
<path d="M392.66 187.614L310.074 188.191C306.346 188.217 303.341 190.762 303.363 193.874L303.491 212.193C303.512 215.306 306.552 217.808 310.28 217.782L392.866 217.206C396.594 217.18 399.599 214.636 399.577 211.522L399.449 193.204C399.428 190.091 396.388 187.588 392.66 187.614Z" fill="#A8EF9E"/>
<path d="M391.685 220.502L309.094 221.079C306.408 221.097 303.827 220.225 301.917 218.652C300.006 217.08 298.925 214.937 298.909 212.695L298.781 194.376C298.766 192.134 299.817 189.976 301.705 188.377C303.593 186.778 306.163 185.869 308.848 185.851L391.439 185.274C394.125 185.256 396.707 186.129 398.617 187.701C400.527 189.273 401.608 191.416 401.624 193.659L401.752 211.977C401.768 214.219 400.716 216.378 398.828 217.976C396.94 219.575 394.371 220.484 391.685 220.502ZM308.893 191.487C307.998 191.493 307.142 191.796 306.512 192.33C305.883 192.862 305.532 193.582 305.538 194.329L305.665 212.647C305.671 213.395 306.031 214.11 306.668 214.634C307.305 215.158 308.165 215.448 309.06 215.442L391.646 214.866C392.541 214.86 393.397 214.557 394.027 214.024C394.656 213.491 395.007 212.772 395.001 212.024L394.874 193.706C394.868 192.958 394.508 192.244 393.871 191.72C393.234 191.196 392.374 190.905 391.479 190.911L308.893 191.487Z" fill="#426572"/>
<path d="M574.339 291.566L130.358 294.664C125.008 294.697 119.867 292.956 116.062 289.824C112.257 286.691 110.1 282.423 110.062 277.956L108.606 69.2849C108.581 64.8179 110.679 60.5208 114.44 57.3356C118.2 54.1504 123.317 52.3382 128.667 52.2957L572.648 49.1978C577.997 49.1657 583.14 50.9063 586.942 54.0387C590.75 57.171 592.907 61.4385 592.943 65.9054L594.399 274.572C594.425 279.04 592.328 283.339 588.57 286.525C584.806 289.711 579.688 291.524 574.339 291.566ZM128.706 57.9322C125.147 57.9608 121.742 59.1673 119.239 61.2864C116.737 63.4059 115.341 66.2654 115.357 69.2378L116.813 277.905C116.838 280.877 118.274 283.717 120.806 285.801C123.338 287.885 126.759 289.044 130.319 289.023L574.299 285.925C577.86 285.896 581.267 284.69 583.766 282.571C586.266 280.451 587.664 277.592 587.649 274.619L586.193 65.9525C586.167 62.9802 584.729 60.1404 582.2 58.056C579.671 55.9721 576.248 54.8132 572.687 54.8343L128.706 57.9322Z" fill="#426572"/>
<path opacity="0.1" d="M63.1394 94.981C64.0227 95.3168 64.9842 95.4862 65.9557 95.478L63.143 95.4976L63.1394 94.981Z" fill="#606060"/>
<path opacity="0.2" d="M223.156 40.363L223.557 97.7844C223.567 99.2795 222.866 100.718 221.607 101.784C220.349 102.85 218.636 103.455 216.846 103.468L94.4999 104.322L94.4278 93.9881L63.134 94.2065L62.6776 28.8C62.6672 27.3052 63.3682 25.8665 64.6271 24.8007C65.8855 23.7348 67.5982 23.129 69.3887 23.1165L207.277 22.1543L207.405 40.4729L223.156 40.363Z" fill="#606060"/>
<path d="M54.126 93.2074L200.948 92.1829C204.676 92.1569 207.68 89.6121 207.659 86.4993L207.177 17.4524C207.155 14.3395 204.115 11.837 200.387 11.863L53.5656 12.8875C49.8375 12.9135 46.8328 15.4581 46.8545 18.571L47.3363 87.618C47.358 90.7307 50.3979 93.2334 54.126 93.2074Z" fill="white"/>
<path d="M206.525 85.3378L102.457 86.064L102.493 91.2307L206.562 90.5046L206.525 85.3378Z" fill="#DEE6F1"/>
<path d="M48.533 88.2017L48.0512 19.155C48.0408 17.6601 48.742 16.2215 50.0006 15.1556C51.2591 14.0898 52.972 13.4839 54.7623 13.4715L102.51 13.1383L103.071 93.4579L55.3228 93.791C53.5324 93.8035 51.8113 93.2218 50.538 92.1738C49.2647 91.1253 48.5434 89.6967 48.533 88.2017Z" fill="#E8837E"/>
<path d="M63.1394 94.9817C64.0227 95.3174 64.9842 95.4874 65.9557 95.4787L56.3926 95.5454C55.4709 95.5514 54.5581 95.3995 53.7104 95.0991C52.8628 94.7988 52.0981 94.3564 51.4636 93.7995C50.9211 93.3214 50.4814 92.7683 50.1639 92.1646C50.0599 91.9642 49.9683 91.7596 49.8896 91.5511C49.7024 91.0339 49.6058 90.4967 49.6028 89.9561L49.1211 20.9094C49.1106 19.4145 49.8118 17.9759 51.0704 16.91C52.329 15.8442 54.0418 15.2383 55.8321 15.2258L65.3952 15.1591C63.6047 15.1716 61.892 15.7774 60.6337 16.8433C59.3748 17.9092 58.6737 19.3478 58.6842 20.8427L59.1659 89.8893C59.1725 91.0707 59.6277 92.2188 60.4658 93.1684C60.6377 93.3738 60.827 93.5689 61.0325 93.7516C61.2243 93.9156 61.4268 94.0706 61.6376 94.2171C62.0949 94.5267 62.6002 94.7839 63.1394 94.9817Z" fill="#D66765"/>
<path d="M201.042 96.0628L54.2206 97.0873C52.8009 97.0991 51.3953 96.8571 50.0977 96.3786C48.3059 95.7269 46.7798 94.6553 45.7041 93.2931C44.6284 91.9309 44.049 90.3369 44.036 88.7033L43.5542 19.6566C43.5477 17.9671 44.1436 16.3131 45.2658 14.9049C46.388 13.4968 47.9859 12.3983 49.856 11.7494L50.4169 11.5106L50.6307 11.5091C51.5941 11.2515 52.5986 11.1177 53.6095 11.1126L200.431 10.0881C202.869 10.0793 205.227 10.8021 207.077 12.1247C208.926 13.4473 210.143 15.2817 210.506 17.2939C210.577 17.6838 210.614 18.0776 210.616 18.4721L211.097 87.5188C211.113 89.2764 210.465 90.995 209.247 92.431C208.323 93.538 207.097 94.4447 205.67 95.0765C204.242 95.7084 202.656 96.0464 201.042 96.0628ZM51.9752 17.1553C51.4635 17.4063 51.0397 17.7654 50.7465 18.1962C50.4532 18.627 50.3008 19.1145 50.3047 19.6095L50.7864 88.6562C50.7914 89.2019 50.986 89.7347 51.3467 90.1887C51.7074 90.6433 52.2186 91.0004 52.8183 91.2161C53.247 91.3751 53.7118 91.4551 54.1813 91.4508L201.003 90.4264C201.541 90.4212 202.07 90.3081 202.547 90.0976C203.023 89.8867 203.432 89.5837 203.74 89.2142C204.145 88.7383 204.362 88.1684 204.358 87.5846L203.877 18.538C203.875 18.4137 203.863 18.2898 203.84 18.1671C203.728 17.4913 203.326 16.873 202.708 16.4273C202.09 15.9815 201.299 15.7384 200.482 15.7433L53.6602 16.7677C53.2907 16.7683 52.9238 16.8217 52.5756 16.9256L51.9752 17.1553Z" fill="#426572"/>
<path d="M104.769 14.4143L98.019 14.4614L98.5696 93.3719L105.32 93.3248L104.769 14.4143Z" fill="#426572"/>
<path d="M127.651 68.9325C127.651 68.8785 127.683 68.7425 127.746 68.5255L136.952 42.922C137.142 42.3522 137.61 41.9158 138.353 41.6129C139.129 41.2827 140.003 41.1141 140.975 41.1073C141.948 41.1006 142.824 41.2569 143.605 41.5762C144.385 41.8686 144.874 42.2982 145.072 42.8653L154.635 68.3379C154.702 68.554 154.735 68.6895 154.736 68.7435C154.74 69.3391 154.306 69.8565 153.433 70.2956C152.561 70.7348 151.671 70.9576 150.764 70.9639C149.564 70.9723 148.849 70.625 148.617 69.9229L146.731 64.5361L135.596 64.6138L133.786 70.0264C133.564 70.7316 132.853 71.0889 131.654 71.0973C130.714 71.1038 129.804 70.9068 128.926 70.507C128.081 70.0799 127.656 69.5549 127.651 68.9325ZM136.88 60.4632L145.341 60.4042L141.023 47.969L136.88 60.4632ZM158.104 69.2884L157.92 42.8568C157.917 42.4238 158.173 42.043 158.69 41.7146C159.206 41.3862 159.87 41.2192 160.68 41.2135L169.287 41.1534C172.755 41.1292 175.532 41.8542 177.617 43.3285C179.703 44.8027 180.756 47.1503 180.779 50.3714L180.856 61.4557C180.879 64.6764 179.858 67.0388 177.793 68.5418C175.729 70.0452 172.962 70.809 169.494 70.8332L160.887 70.8933C160.077 70.8989 159.411 70.741 158.89 70.4196C158.369 70.0987 158.107 69.7214 158.104 69.2884ZM164.404 66.2396L169.461 66.2043C172.865 66.1805 174.556 64.6125 174.534 61.4998L174.457 50.4155C174.435 47.3027 172.723 45.7582 169.319 45.782L164.262 45.8173L164.404 66.2396Z" fill="#426572"/>
</g>
</g>
<defs>
<linearGradient id="paint0_linear_45_6" x1="1.95907" y1="179.396" x2="706.973" y2="174.477" gradientUnits="userSpaceOnUse">
<stop stop-color="#C5E9FA"/>
<stop offset="1" stop-color="#C4F4EA"/>
</linearGradient>
<clipPath id="clip0_45_6">
<rect width="724" height="349" fill="white" transform="translate(0 5.05176) rotate(-0.399779)"/>
</clipPath>
</defs>
</svg>
