<svg width="411" height="682" viewBox="0 0 411 682" fill="none" xmlns="http://www.w3.org/2000/svg">
<path d="M215.139 210.737C215.139 210.737 281.785 103.998 415.006 145.77C548.014 187.549 516.584 346.148 516.499 346.564C517.081 343.659 540.123 340.89 542.562 340.549C610.534 330.885 661.093 391.699 666.106 451.633C672.331 525.971 612.555 578.622 544.477 601.291" stroke="#CCDDE2" stroke-width="5.5" stroke-miterlimit="10"/>
<path d="M350.246 367.265C350.246 367.265 347.85 381.26 345.368 393.931C338.278 394.006 331.188 394.061 324.176 394.116C320.631 374.924 324.481 359.893 329.054 349.874C334.818 362.519 343.525 366.365 350.246 367.265Z" fill="#EFC375"/>
<path d="M466.777 417.76C452.361 410.294 436.996 404.665 421.068 401.017L415.85 400.151C415.85 400.151 411.964 391.654 411.943 391.626C410.121 387.173 407.101 381.26 406.165 376.568C405.025 371.025 404.748 365.35 405.342 359.729C406.363 351.381 410.405 333.724 417.707 328.159C423.798 323.549 426.308 324.517 429.76 317.309C432.242 312.166 433.249 303.525 428.427 299.734C423.082 295.573 420.799 297.688 414.403 298.329C390.099 300.647 376.21 283.822 367.276 264.379C365.858 261.221 364.383 257.886 362.065 255.199C359.406 252.103 355.727 251.407 352.713 248.904C351.43 247.827 350.551 246.067 351.168 244.539C351.531 243.809 352.06 243.166 352.713 242.657C358.408 237.611 365.246 233.91 372.686 231.847C384.454 228.574 396.888 228.201 408.845 230.763C421.323 234.739 432.54 242.268 440.09 253.774C450.506 269.671 453.016 286.162 447.18 302.598C441.204 319.43 434.532 339.201 445.762 355.398C460.715 376.915 469.727 392.049 466.777 417.76Z" fill="#EFC375"/>
<path d="M345.396 393.929C338.306 394.004 331.216 394.059 324.204 394.114C270.774 394.38 219.634 393.663 166.034 402.911" stroke="black" stroke-width="5.5" stroke-miterlimit="10"/>
<path d="M135.128 208.222C137.851 198.313 142.218 188.096 145.501 183.8C150.662 177.116 157.398 170.746 166.062 171.319C171.628 171.667 177.094 174.627 177.342 180.492C177.576 186.855 170.6 193.921 168.359 199.902C166.232 205.671 165.261 212.389 166.381 218.459C167.501 224.529 173.166 229.269 179.278 230.571C181.596 231.158 184.061 230.837 186.134 229.678C192.118 226.036 190.863 216.338 190.622 210.616C190.338 204.198 190.345 196.942 196.038 192.55C200.222 189.324 206.567 191.465 209.651 195.012C215.011 201.15 215.274 210.391 215.543 217.947C216.344 240.713 212.14 262.537 198.357 281.701C191.267 291.597 183.964 300.476 181.093 312.616C172.159 350.344 171.167 376.499 166.034 414.814" stroke="black" stroke-width="5.5" stroke-miterlimit="10"/>
<path d="M274.255 647.9C246.86 573.003 259.834 491.177 259.834 491.177L112.674 495.664C106.409 495.855 100.173 494.752 94.3885 492.429C88.6037 490.106 83.4039 486.617 79.1386 482.198C74.874 477.779 71.643 472.531 69.6641 466.81C67.6853 461.088 67.0043 455.025 67.667 449.029L103.713 322.586L111.512 295.613C113.999 287.126 113.429 278.079 109.895 269.943L106.222 261.513C106.222 261.513 99.5649 248.453 114.489 249.68C122.515 250.362 130.477 253.643 137.213 257.762C142.502 261.002 150.57 267.269 148.075 274.219C145.125 282.403 133.561 284.449 126.769 279.845" stroke="black" stroke-width="5.5" stroke-miterlimit="10"/>
<path d="M109.526 249.613C109.526 249.613 96.9203 222.333 131.505 229.391C166.09 236.45 174.372 272.801 147.975 268.709" stroke="black" stroke-width="5.5" stroke-miterlimit="10"/>
<path d="M120.927 227.829C120.927 227.829 109.867 214.905 126.401 208.733C142.934 202.561 202.973 231.71 164.46 260.422" stroke="black" stroke-width="5.5" stroke-miterlimit="10"/>
<path d="M360.172 366.65C356.962 367.497 353.607 367.706 350.31 367.263C343.56 366.363 334.854 362.489 329.118 349.872C327.927 347.294 326.959 344.625 326.225 341.893C323.304 331.451 322.028 316.925 323.737 296.669C324.07 292.775 324.566 288.82 325.254 284.871C326.392 278.002 328.228 271.256 330.734 264.731C330.734 264.731 330.734 264.677 330.791 264.65C337.044 248.745 348.041 235.324 366.532 230.161C380.398 226.313 395.141 226.518 408.887 230.747C421.366 234.723 432.582 242.253 440.133 253.758C450.548 269.655 453.058 286.146 447.223 302.582C441.246 319.414 434.575 339.185 445.805 355.383C460.737 376.934 469.748 392.068 466.855 417.779" stroke="black" stroke-width="5.5" stroke-miterlimit="10"/>
<path d="M318.532 394.912C313.101 369.862 320.433 351.598 326.19 341.893" stroke="black" stroke-width="5.5" stroke-miterlimit="10"/>
<path d="M325.254 284.844C325.254 284.844 337.144 272.889 350.92 291.773" stroke="black" stroke-width="5.5" stroke-miterlimit="10"/>
<path d="M355.528 345.043C360.555 348.173 367.361 346.23 371.062 341.408C375.082 336.177 376.692 329.193 377.564 322.858C377.621 322.401 377.684 321.951 377.727 321.494C371.594 330.762 359.69 332.985 349.211 333.954C349.608 336.985 350.78 339.874 352.621 342.363C353.41 343.422 354.395 344.33 355.528 345.043Z" stroke="black" stroke-width="5.5" stroke-linecap="round" stroke-linejoin="round"/>
<path d="M410.128 386.77L410.1 386.742" stroke="black" stroke-width="5.5" stroke-miterlimit="10"/>
<path d="M363.355 281.168C363.355 281.168 367.397 274.873 381.208 279.51C395.019 284.148 395.182 291.725 395.182 291.725" stroke="black" stroke-width="5.5" stroke-miterlimit="10"/>
<path d="M331.961 296.821C331.961 296.821 338.342 293.718 343.34 296.821" stroke="black" stroke-width="5.5" stroke-miterlimit="10"/>
<path d="M366.347 299.677C366.347 299.677 372.728 296.574 377.691 299.677" stroke="black" stroke-width="5.5" stroke-miterlimit="10"/>
<path d="M350.246 367.265C350.246 367.265 347.85 381.259 345.368 393.931C345.006 395.731 344.659 397.505 344.347 399.257C342.724 407.789 341.426 415.373 341.369 417.671C340.958 436.767 359.725 447.782 377.854 447.598C403.293 447.332 418.168 424.566 415.772 401.767C414.205 397.607 412.603 393.447 411.036 389.287C409.022 383.953 406.406 378.763 405.271 373.144C404.27 367.607 404.16 361.955 404.945 356.387C405.966 348.066 407.647 335.661 414.949 330.096C421.04 325.485 427.399 322.457 430.873 315.249C433.355 310.106 433.242 303.484 428.42 299.692C423.075 295.532 414.616 296.037 408.221 296.644C366.971 300.702 360.108 260.539 348.949 254.898C339.802 250.254 332.939 260.675 330.791 264.542L330.706 264.706C330.702 264.744 330.685 264.781 330.656 264.808C330.266 265.49 330.075 265.947 330.075 265.947" stroke="black" stroke-width="5.5" stroke-miterlimit="10"/>
<path d="M349.19 301.444C349.19 301.444 344.879 315.016 345.212 317.048C345.545 319.081 350.572 317.662 350.572 317.662" stroke="black" stroke-width="5.5" stroke-miterlimit="10"/>
<path d="M382.968 315.767C389.573 309.426 389.452 299.009 382.699 292.502C375.947 285.995 365.119 285.861 358.515 292.203C351.911 298.544 352.032 308.96 358.784 315.467C365.537 321.974 376.365 322.108 382.968 315.767Z" stroke="black" stroke-width="5.5" stroke-miterlimit="10"/>
<path d="M339.871 310.729C346.475 304.388 346.354 293.972 339.602 287.465C332.849 280.958 322.021 280.824 315.417 287.165C308.813 293.506 308.934 303.922 315.687 310.429C322.44 316.936 333.268 317.07 339.871 310.729Z" stroke="black" stroke-width="5.5" stroke-miterlimit="10"/>
<path d="M327.267 286.311C329.15 286.303 331.013 286.674 332.737 287.401C334.461 288.128 336.008 289.195 337.277 290.532C338.546 291.869 339.51 293.448 340.106 295.165C340.702 296.882 340.918 298.701 340.738 300.504C340.439 303.534 338.973 306.348 336.628 308.393C334.282 310.437 331.226 311.564 328.061 311.552C326.179 311.56 324.316 311.188 322.591 310.461C320.868 309.735 319.321 308.668 318.052 307.331C316.783 305.994 315.819 304.415 315.223 302.698C314.627 300.98 314.411 299.162 314.59 297.359C314.89 294.329 316.356 291.515 318.701 289.47C321.047 287.426 324.102 286.299 327.267 286.311ZM327.267 284.429C323.62 284.42 320.101 285.723 317.4 288.08C314.7 290.439 313.012 293.682 312.669 297.175C312.304 301.031 313.511 304.872 316.037 307.885C318.564 310.9 322.209 312.85 326.204 313.325C326.816 313.395 327.431 313.431 328.047 313.434C331.699 313.448 335.223 312.148 337.928 309.789C340.633 307.431 342.324 304.184 342.667 300.688C343.032 296.832 341.825 292.991 339.298 289.977C336.772 286.963 333.127 285.013 329.132 284.538C328.52 284.468 327.905 284.431 327.289 284.429H327.267Z" fill="white"/>
<path d="M353.713 301.981L344.666 300.924" stroke="black" stroke-width="5.5" stroke-miterlimit="10"/>
<path d="M381.582 314.431C387.437 308.808 387.331 299.573 381.344 293.805C375.358 288.036 365.758 287.918 359.903 293.541C354.047 299.164 354.153 308.399 360.139 314.167C366.126 319.935 375.726 320.054 381.582 314.431Z" fill="#EFC375"/>
<path d="M338.489 309.395C344.347 303.77 344.242 294.531 338.252 288.76C332.263 282.988 322.658 282.87 316.8 288.496C310.941 294.121 311.048 303.36 317.036 309.131C323.026 314.903 332.63 315.021 338.489 309.395Z" fill="#EFC375"/>
<path d="M189.402 72.4018C168.841 73.4112 151.825 89.2609 150.188 108.984C149.699 114.487 150.407 120.028 152.268 125.253C154.128 130.478 157.1 135.273 160.993 139.333C163.863 142.371 167.213 144.956 170.919 146.992C171.886 147.529 172.799 148.15 173.648 148.847C179.197 151.542 185.324 152.95 191.54 152.96C197.756 152.969 203.888 151.579 209.446 148.902C210.254 148.18 211.152 147.557 212.119 147.047C215.976 144.925 219.462 142.232 222.449 139.067C222.525 138.964 222.608 138.866 222.697 138.774C228.114 132.875 231.601 125.57 232.718 117.773C233.836 109.977 232.536 102.037 228.981 94.9481C225.426 87.8594 219.774 81.9382 212.734 77.9274C205.694 73.9166 197.581 71.994 189.409 72.4018H189.402ZM215.139 134.88C215.06 134.936 214.996 135.009 214.948 135.091C212.633 137.525 209.937 139.597 206.957 141.229C206.216 141.62 205.529 142.102 204.915 142.661C200.63 144.725 195.903 145.799 191.111 145.799C186.319 145.799 181.592 144.725 177.307 142.661C176.643 142.117 175.931 141.628 175.18 141.202C169.453 138.033 164.886 133.239 162.104 127.475C159.322 121.711 158.462 115.261 159.643 109.008C160.823 102.756 163.985 97.0077 168.696 92.5522C173.407 88.0974 179.434 85.1525 185.954 84.1234C192.472 83.0942 199.163 84.0299 205.107 86.8029C211.052 89.576 215.958 94.0499 219.154 99.6109C222.35 105.173 223.68 111.549 222.959 117.866C222.24 124.183 219.505 130.13 215.132 134.893L215.139 134.88Z" fill="#EFC375"/>
<path d="M209.432 148.908C207.799 150.332 206.497 152.071 205.608 154.011C204.719 155.95 204.263 158.048 204.27 160.168V161.996C204.27 168.379 199.463 174.101 192.926 174.742C191.159 174.916 189.375 174.733 187.686 174.203C185.998 173.674 184.443 172.81 183.123 171.668C181.802 170.525 180.745 169.13 180.02 167.571C179.294 166.012 178.915 164.324 178.909 162.616V160.168C178.906 158.036 178.438 155.929 177.536 153.981C176.635 152.034 175.321 150.289 173.677 148.86C179.225 151.547 185.35 152.95 191.563 152.958C197.775 152.967 203.903 151.579 209.46 148.908H209.432Z" fill="#353642"/>
<path d="M209.432 148.908C207.799 150.332 206.497 152.071 205.608 154.011C204.719 155.95 204.263 158.048 204.27 160.168V161.996C204.27 168.379 199.463 174.101 192.926 174.742C191.159 174.916 189.375 174.733 187.686 174.203C185.998 173.674 184.443 172.81 183.123 171.668C181.802 170.525 180.745 169.13 180.02 167.571C179.294 166.012 178.915 164.324 178.909 162.616V160.168C178.906 158.036 178.438 155.929 177.536 153.981C176.635 152.034 175.321 150.289 173.677 148.86C179.225 151.547 185.35 152.95 191.563 152.958C197.775 152.967 203.903 151.579 209.46 148.908H209.432Z" stroke="black" stroke-width="5.5" stroke-miterlimit="10"/>
<path d="M233.105 112.306C233.126 122.064 229.417 131.49 222.683 138.788C222.598 138.876 222.52 138.97 222.449 139.068C219.458 142.238 215.964 144.933 212.097 147.054C211.137 147.571 210.243 148.193 209.432 148.909C203.875 151.581 197.747 152.968 191.534 152.96C185.322 152.952 179.198 151.548 173.648 148.862C172.801 148.153 171.884 147.525 170.912 146.986C164.063 143.199 158.478 137.615 154.808 130.887C151.138 124.158 149.535 116.564 150.188 108.992C151.051 98.7005 156.023 89.1313 164.061 82.2895C172.1 75.4477 182.58 71.8658 193.303 72.2948C204.027 72.7231 214.162 77.1295 221.582 84.5885C229.003 92.0482 233.132 101.982 233.105 112.306Z" stroke="black" stroke-width="5.5" stroke-miterlimit="10"/>
<path d="M179.838 152.96L170.323 122.625L167.941 114.032C167.941 113.773 168.029 113.522 168.193 113.317C168.356 113.112 168.585 112.965 168.845 112.898C169.104 112.831 169.379 112.848 169.628 112.947C169.876 113.046 170.083 113.222 170.217 113.445C172.344 117.06 175.704 121.595 179.051 121.479C184.602 121.288 180.043 105.077 175.506 106.775C170.968 108.473 179.668 119.188 188.629 120.524C197.591 121.861 195.138 107.369 188.629 106.796C182.121 106.223 186.609 118.431 198.307 120.524C210.006 122.618 207.822 110.226 204.653 107.751C201.484 105.275 202.469 119.57 209.814 121.861C212.14 122.591 213.99 121.029 214.898 119.085C215.423 117.953 215.153 112.224 214.075 113.991C211.878 117.612 211.445 122.134 210.367 126.13C208.077 134.587 204.575 142.683 202.568 151.214" stroke="black" stroke-width="5.5" stroke-miterlimit="10"/>
<path d="M117.304 647.899C122.324 645.635 585.244 647.899 585.244 647.899" stroke="black" stroke-width="5.5" stroke-miterlimit="10"/>
<path d="M191.543 58.127L191.132 34.1001" stroke="black" stroke-width="7.34" stroke-miterlimit="10"/>
<path d="M143.906 80.4761L126.613 63.1331" stroke="black" stroke-width="7.34" stroke-miterlimit="10"/>
<path d="M239.358 81.5538L257.034 64.5718" stroke="black" stroke-width="7.34" stroke-miterlimit="10"/>
<path d="M504.34 615.122L504.943 615.177C504.617 615.232 504.234 615.286 503.9 615.361H503.39L455.384 615.122H449.96L369.304 614.727C368.999 614.727 368.694 614.727 368.389 614.727C368.317 614.74 368.243 614.74 368.17 614.727C368.17 614.727 368.17 614.727 368.12 614.727C367.612 614.732 367.105 614.697 366.603 614.625C370.916 614.155 375.004 612.521 378.393 609.912C378.925 609.482 379.471 609.073 379.967 608.609L380.024 608.555C380.14 608.465 380.249 608.367 380.35 608.262C384.45 604.362 386.904 599.142 387.242 593.605C387.242 593.339 387.242 593.046 387.242 592.78V592.357C387.217 587.189 385.344 582.186 381.936 578.189C378.529 574.193 373.795 571.446 368.531 570.411C368.523 570.404 368.513 570.4 368.503 570.4C368.492 570.4 368.482 570.404 368.474 570.411C367.95 570.281 367.347 570.199 366.794 570.117L367.978 570.042C368.172 570.029 368.366 570.029 368.56 570.042C368.886 570.042 369.191 570.042 369.495 570.042L437.637 570.383L450.18 570.438L461.311 570.492H466.494H467.125C467.21 570.492 467.259 570.492 467.344 570.492C473.092 571.05 478.42 573.636 482.299 577.754C486.178 581.87 488.332 587.225 488.345 592.78C488.344 593.837 488.261 594.893 488.097 595.938C487.293 601.13 484.624 605.887 480.553 609.383C476.482 612.879 471.267 614.893 465.813 615.075C465.565 615.075 465.317 615.075 465.104 615.075H505.588C504.999 615.095 504.617 615.095 504.34 615.122Z" fill="white"/>
<path d="M395.927 642.227C397.458 643.708 399.279 644.883 401.284 645.684C403.29 646.484 405.44 646.895 407.611 646.892H368.063C360.491 646.892 356.379 645.119 353.38 642.227C350.281 639.245 348.538 635.204 348.53 630.988C348.53 622.272 355.968 615.111 368.063 615.111H407.611C404.343 615.106 401.147 616.034 398.427 617.778C395.708 619.523 393.589 622.005 392.337 624.908C391.086 627.812 390.759 631.009 391.398 634.092C392.037 637.176 393.613 640.007 395.927 642.227Z" fill="#D7E8F0"/>
<path d="M526.659 593.103C526.659 593.525 526.659 593.976 526.603 594.398C526.546 595.115 526.468 595.803 526.355 596.492C526.298 596.86 526.22 597.236 526.135 597.604C525.972 598.286 525.78 599.036 525.56 599.725C525.312 600.485 525.016 601.229 524.674 601.955C524.564 602.239 524.427 602.514 524.263 602.773C524.263 602.855 524.206 602.91 524.15 602.985C523.986 603.333 523.795 603.667 523.604 603.994C523.299 604.526 522.966 605.051 522.611 605.556C522.193 606.17 521.725 606.722 521.257 607.281C520.781 607.837 520.275 608.367 519.74 608.87C519.179 609.419 518.582 609.934 517.953 610.412L517.244 610.964C516.438 611.55 515.589 612.081 514.706 612.553C514.294 612.765 513.855 612.983 513.415 613.194C513.374 613.224 513.325 613.24 513.273 613.242C512.777 613.481 512.281 613.672 511.785 613.856C511.288 614.04 510.792 614.224 510.274 614.381C509.75 614.517 509.225 614.674 508.7 614.783L508.268 614.858C507.857 614.947 507.446 615.022 507.027 615.084C506.286 615.206 505.538 615.29 504.787 615.336C504.33 615.382 503.871 615.4 503.411 615.39C503.411 615.39 503.326 615.39 503.298 615.39L455.369 615.165L444.075 615.111L368.793 614.743C368.516 614.738 368.239 614.719 367.964 614.688C367.333 614.688 366.723 614.633 366.092 614.586C371.546 613.96 376.599 611.514 380.371 607.673C384.142 603.832 386.393 598.84 386.731 593.566C386.731 593.3 386.731 593.007 386.731 592.714V592.427C386.738 587.231 384.875 582.193 381.46 578.168C378.044 574.143 373.286 571.379 367.992 570.344C367.439 570.235 366.886 570.16 366.312 570.078C366.861 570.017 367.412 569.983 367.964 569.976C368.157 569.962 368.352 569.962 368.545 569.976H369.013L444.295 570.344L461.311 570.426H466.877H467.344L503.503 570.61C504.69 570.614 505.875 570.704 507.048 570.876C510.044 571.349 512.916 572.375 515.507 573.898C515.84 574.082 516.138 574.293 516.443 574.477C517.362 575.082 518.236 575.748 519.059 576.469C519.335 576.707 519.584 576.946 519.86 577.212C521.961 579.259 523.644 581.668 524.823 584.312L525.241 585.348C525.381 585.685 525.499 586.028 525.596 586.378C526.303 588.554 526.662 590.822 526.659 593.103Z" stroke="black" stroke-width="5.5" stroke-linecap="square" stroke-linejoin="round"/>
<path d="M487.863 592.7C487.867 593.444 487.83 594.189 487.749 594.93C487.749 594.984 487.749 595.032 487.749 595.087C487.693 595.435 487.643 595.769 487.586 596.096C487.581 596.196 487.562 596.295 487.53 596.389C487.482 596.782 487.409 597.172 487.31 597.556C487.147 598.238 486.927 598.981 486.7 599.67C486.537 600.147 486.374 600.625 486.183 601.102C486.041 601.341 485.956 601.579 485.849 601.784C485.642 602.265 485.405 602.735 485.14 603.189C484.891 603.664 484.605 604.12 484.282 604.553C484.073 604.923 483.836 605.279 483.573 605.617C483.439 605.801 483.297 605.985 483.134 606.176C482.882 606.527 482.608 606.861 482.311 607.179C481.924 607.636 481.51 608.071 481.071 608.481C480.543 608.983 479.989 609.459 479.412 609.907C475.575 612.991 470.806 614.805 465.813 615.076C465.565 615.076 465.317 615.076 465.104 615.076H368.9C368.021 615.076 367.113 615.028 366.199 614.947C366.792 614.878 367.381 614.781 367.964 614.653C368.01 614.669 368.06 614.669 368.106 614.653H368.155C372.626 613.756 376.726 611.623 379.953 608.515L380.01 608.461C384.114 604.472 386.512 599.147 386.731 593.539C386.731 593.273 386.731 592.979 386.731 592.686V592.659C386.687 587.193 384.576 581.929 380.793 577.85C377.009 573.771 371.811 571.157 366.17 570.494C366.78 570.419 367.383 570.391 367.992 570.364C368.147 570.337 368.306 570.337 368.46 570.364C368.468 570.357 368.478 570.354 368.489 570.354C368.499 570.354 368.509 570.357 368.517 570.364C368.635 570.351 368.754 570.351 368.871 570.364H464.572C465.239 570.364 465.87 570.364 466.508 570.446H466.728C466.781 570.46 466.838 570.46 466.891 570.446H467.004L468.131 570.603C468.912 570.713 469.684 570.872 470.443 571.08C470.719 571.135 471.024 571.21 471.301 571.292C472.115 571.533 472.914 571.815 473.697 572.137C474.356 572.403 475.023 572.724 475.654 573.045C476.32 573.386 476.965 573.766 477.582 574.183C477.994 574.449 478.384 574.709 478.766 575.002C479.149 575.295 479.674 575.684 480.121 576.066C480.567 576.448 480.83 576.748 481.163 577.041C481.581 577.471 481.992 577.893 482.375 578.344C482.489 578.446 482.567 578.555 482.652 578.637L483.233 579.353C483.897 580.225 484.503 581.136 485.048 582.081C485.583 583.051 486.057 584.051 486.466 585.075C487.117 586.813 487.552 588.62 487.764 590.456C487.764 590.804 487.82 591.138 487.849 591.465V591.704C487.863 592.011 487.863 592.359 487.863 592.7Z" stroke="black" stroke-width="5.5" stroke-linecap="square" stroke-linejoin="round"/>
<path d="M505.552 646.877H368.049C364.985 646.956 361.928 646.537 359.009 645.636C358.428 645.425 357.882 645.213 357.357 644.954C356.833 644.688 356.365 644.422 355.897 644.156C355.429 643.89 355.018 643.549 354.599 643.229C354.188 642.881 353.805 642.547 353.444 642.192C351.556 640.378 350.157 638.15 349.367 635.699C348.865 634.173 348.614 632.58 348.622 630.98C348.617 630.36 348.655 629.74 348.736 629.125C348.84 628.261 349.033 627.409 349.31 626.581C349.694 625.271 350.29 624.029 351.076 622.898C351.524 622.16 352.06 621.473 352.671 620.852C353.047 620.45 353.444 620.067 353.862 619.706C357.223 616.821 362.1 615.041 368.134 615.041H505.552C504.999 615.041 504.617 615.041 504.34 615.041C504.249 615.028 504.155 615.028 504.064 615.041C503.787 615.041 503.844 615.041 503.978 615.041C503.986 615.048 503.996 615.052 504.007 615.052C504.017 615.052 504.027 615.048 504.035 615.041C504.098 615.054 504.164 615.054 504.227 615.041C504.283 615.041 504.312 615.041 504.368 615.041C504.064 615.096 503.759 615.123 503.454 615.198H503.39C503.39 615.198 503.305 615.198 503.277 615.198C499.518 615.917 496.135 617.865 493.699 620.71C491.263 623.556 489.925 627.123 489.912 630.809C489.934 634.696 491.425 638.443 494.107 641.35C496.789 644.258 500.48 646.128 504.489 646.611C503.815 646.857 503.184 646.877 505.552 646.877Z" stroke="black" stroke-width="5.5" stroke-linecap="square" stroke-linejoin="round"/>
<path d="M504.446 646.801C503.815 646.855 503.184 646.876 502.546 646.876H407.59C405.423 646.875 403.279 646.462 401.278 645.662C399.278 644.861 397.462 643.689 395.934 642.211C394.047 640.398 392.648 638.17 391.857 635.718C391.367 634.191 391.128 632.598 391.148 630.999C391.156 626.788 392.896 622.751 395.989 619.771C399.082 616.791 403.276 615.11 407.654 615.095H502.546C503.014 615.095 503.511 615.095 503.964 615.149C504.047 615.162 504.13 615.162 504.212 615.149C504.269 615.149 504.298 615.149 504.354 615.149C504.049 615.204 503.745 615.231 503.44 615.306H503.39C503.39 615.306 503.305 615.306 503.277 615.306C499.519 616.026 496.135 617.973 493.699 620.818C491.263 623.663 489.925 627.232 489.912 630.917C489.934 634.805 491.425 638.551 494.107 641.459C496.789 644.366 500.48 646.236 504.489 646.719L504.446 646.801Z" stroke="black" stroke-width="5.5" stroke-linecap="square" stroke-linejoin="round"/>
<path d="M391.084 630.999C391.084 635.21 392.824 639.248 395.918 642.226C399.014 645.204 403.213 646.876 407.59 646.876H368.049C360.498 646.876 356.365 645.103 353.359 642.211C351.826 640.74 350.612 638.992 349.784 637.068C348.957 635.144 348.533 633.082 348.537 630.999C348.537 622.256 355.953 615.095 368.049 615.095H407.59C403.212 615.11 399.018 616.791 395.925 619.771C392.832 622.751 391.091 626.788 391.084 630.999Z" stroke="black" stroke-width="5.5" stroke-linecap="square" stroke-linejoin="round"/>
<path opacity="0.54" d="M92.17 587.053L42.9512 465.766C42.3414 463.42 42.2956 460.97 42.8172 458.604C43.3388 456.238 44.4142 454.017 45.9615 452.111C47.5089 450.204 49.4876 448.662 51.7473 447.601C54.0071 446.54 56.4885 445.988 59.003 445.988H254.531C258.92 445.987 263.182 447.408 266.631 450.02C270.079 452.633 272.513 456.287 273.539 460.392L327.423 581.665C328.008 584.005 328.032 586.443 327.496 588.794C326.96 591.145 325.876 593.348 324.327 595.238C322.778 597.128 320.803 598.655 318.552 599.705C316.301 600.755 313.831 601.3 311.329 601.3H111.122C106.763 601.3 102.53 599.897 99.0955 597.315C95.6618 594.733 93.2236 591.122 92.17 587.053Z" fill="white"/>
<path d="M92.17 587.053L42.9512 465.766C42.3414 463.42 42.2956 460.97 42.8172 458.604C43.3388 456.238 44.4142 454.017 45.9615 452.111C47.5089 450.204 49.4876 448.662 51.7473 447.601C54.0071 446.54 56.4885 445.988 59.003 445.988H254.531C258.92 445.987 263.182 447.408 266.631 450.02C270.079 452.633 272.513 456.287 273.539 460.392L327.423 581.665C328.008 584.005 328.032 586.443 327.496 588.794C326.96 591.145 325.876 593.348 324.327 595.238C322.778 597.128 320.803 598.655 318.552 599.705C316.301 600.755 313.831 601.3 311.329 601.3H111.122C106.763 601.3 102.53 599.897 99.0955 597.315C95.6618 594.733 93.2236 591.122 92.17 587.053Z" fill="#EFC375"/>
<path d="M92.17 587.053L42.9512 465.766C42.3414 463.42 42.2956 460.97 42.8172 458.604C43.3388 456.238 44.4142 454.017 45.9615 452.111C47.5089 450.204 49.4876 448.662 51.7473 447.601C54.0071 446.54 56.4885 445.988 59.003 445.988H254.531C258.92 445.987 263.182 447.408 266.631 450.02C270.079 452.633 272.513 456.287 273.539 460.392L327.423 581.665C328.008 584.005 328.032 586.443 327.496 588.794C326.96 591.145 325.876 593.348 324.327 595.238C322.778 597.128 320.803 598.655 318.552 599.705C316.301 600.755 313.831 601.3 311.329 601.3H111.122C106.763 601.3 102.53 599.897 99.0955 597.315C95.6618 594.733 93.2236 591.121 92.17 587.053Z" stroke="black" stroke-width="5.5" stroke-linecap="square" stroke-linejoin="round"/>
<path d="M99.3593 582.142L53.9833 470.246C53.42 468.083 53.3766 465.824 53.8563 463.641C54.3359 461.459 55.3262 459.411 56.7517 457.651C58.1773 455.893 60.0008 454.469 62.0837 453.489C64.1666 452.509 66.4543 451.998 68.773 451.996H249.128C253.178 451.996 257.11 453.308 260.29 455.719C263.47 458.13 265.715 461.501 266.662 465.288L316.37 577.136C316.909 579.295 316.932 581.544 316.438 583.713C315.943 585.882 314.944 587.915 313.515 589.659C312.086 591.403 310.265 592.813 308.187 593.783C306.111 594.752 303.832 595.256 301.524 595.257H116.857C112.839 595.258 108.934 593.968 105.764 591.593C102.594 589.217 100.341 585.891 99.3593 582.142Z" fill="#EFC375"/>
<path d="M236.097 472.57C233.708 469.112 229.801 467.578 227.362 469.16C224.923 470.742 224.888 474.787 227.277 478.244C227.654 478.771 228.076 479.266 228.539 479.724L210.814 515.713C207.978 513.899 204.88 513.449 202.653 514.881C201.935 515.385 201.339 516.033 200.909 516.781C200.479 517.53 200.225 518.359 200.165 519.212L188.055 515.277L177.47 511.867L174.01 510.776C173.576 509.526 172.973 508.336 172.216 507.236C168.855 502.38 163.368 500.225 159.943 502.414C156.519 504.604 156.483 510.203 159.752 515.025L139.609 541.507C135.213 538.035 130.031 536.965 126.443 539.256C121.565 542.386 121.48 550.536 126.28 557.465C126.471 557.738 126.691 557.97 126.89 558.229L113.44 575.907L113.319 576.077C112.941 576.569 112.669 577.13 112.523 577.725C112.377 578.32 112.357 578.938 112.467 579.54C112.577 580.143 112.813 580.718 113.161 581.23C113.509 581.743 113.962 582.181 114.492 582.519C115.022 582.858 115.618 583.089 116.244 583.198C116.869 583.308 117.512 583.293 118.132 583.157C118.752 583.02 119.337 582.763 119.85 582.402C120.363 582.041 120.795 581.583 121.118 581.056L133.079 563.74C136.851 565.847 140.878 566.25 143.806 564.367C148.472 561.38 148.692 553.824 144.515 547.113L163.836 519.062C166.672 520.924 169.834 521.401 172.089 519.962C173.349 519.108 174.208 517.809 174.478 516.348L175.896 516.736L186.666 519.567L200.449 523.14C200.868 524.728 201.562 526.236 202.505 527.601C205.858 532.45 211.353 534.612 214.777 532.422C218.202 530.233 218.244 524.525 214.891 519.676C214.396 518.971 213.841 518.308 213.232 517.691L230.099 481.006C232.134 482.37 234.353 482.677 235.991 481.648C238.465 480.127 238.501 476.035 236.097 472.57Z" fill="white"/>
<path d="M107.768 474.556H81.6414C80.4396 474.561 79.2627 474.228 78.2552 473.597C77.247 472.968 76.4529 472.068 75.9694 471.01C75.8205 470.685 75.7411 470.335 75.7354 469.98C75.7432 469.295 76.0304 468.64 76.5359 468.158C77.0421 467.676 77.7249 467.403 78.4367 467.402H106.222C104.932 469.523 105.641 472.469 107.768 474.556Z" fill="#D7E8F0"/>
<path d="M124.685 471.978C124.681 472.662 124.396 473.316 123.894 473.8C123.39 474.283 122.709 474.554 121.998 474.556H107.768C105.598 472.469 104.932 469.523 106.244 467.402H118.793C119.993 467.396 121.168 467.726 122.175 468.352C123.182 468.978 123.979 469.873 124.465 470.928C124.612 471.26 124.686 471.617 124.685 471.978Z" fill="#EFC375"/>
<path d="M118.148 474.556C118.071 474.693 117.986 474.824 117.893 474.951C116.021 477.4 111.979 477.631 108.839 475.422C108.463 475.161 108.109 474.871 107.782 474.556C105.613 472.469 104.946 469.522 106.258 467.401C106.329 467.262 106.415 467.129 106.513 467.006C108.364 464.544 112.405 464.332 115.546 466.522C115.927 466.786 116.286 467.08 116.616 467.401C118.772 469.495 119.438 472.414 118.148 474.556Z" fill="white"/>
<path d="M131.257 487.76C131.252 488.446 130.964 489.101 130.459 489.584C129.953 490.067 129.268 490.338 128.556 490.338H101.125C102.451 488.197 101.791 485.278 99.6145 483.184H125.38C126.581 483.179 127.758 483.512 128.766 484.142C129.774 484.772 130.568 485.672 131.052 486.731C131.191 487.057 131.261 487.407 131.257 487.76Z" fill="#EFC375"/>
<path d="M101.125 490.36H88.2209C87.0213 490.366 85.8458 490.036 84.839 489.409C83.8315 488.783 83.0353 487.888 82.5489 486.834C82.4 486.503 82.3206 486.149 82.3149 485.79C82.3128 485.45 82.3809 485.114 82.5149 484.801C82.6489 484.486 82.846 484.201 83.0955 483.96C83.3444 483.72 83.6408 483.53 83.9662 483.4C84.2923 483.271 84.6419 483.204 84.9949 483.205H99.6145C101.791 485.279 102.451 488.198 101.125 490.36Z" fill="#D7E8F0"/>
<path d="M101.125 490.359C101.066 490.501 100.987 490.634 100.891 490.754C99.0402 493.223 94.9918 493.435 91.851 491.245C91.4624 490.977 91.0952 490.68 90.752 490.359C88.625 488.272 87.916 485.346 89.2277 483.205C89.2971 483.067 89.3829 482.936 89.4829 482.816C91.3476 480.361 95.3889 480.136 98.5368 482.339C98.9091 482.602 99.26 482.891 99.5862 483.205C101.791 485.278 102.451 488.197 101.125 490.359Z" fill="white"/>
<path d="M110.264 506.044H93.8432C92.6436 506.047 91.4688 505.715 90.462 505.088C89.4552 504.46 88.659 503.566 88.1712 502.511C88.0223 502.187 87.9429 501.836 87.9373 501.481C87.9394 500.793 88.2244 500.133 88.7306 499.646C89.2369 499.159 89.9225 498.885 90.6385 498.883H108.704C107.442 500.99 108.108 503.916 110.264 506.044Z" fill="#EFC375"/>
<path d="M136.88 503.445C136.876 504.128 136.591 504.781 136.087 505.262C135.583 505.743 134.902 506.011 134.192 506.009H110.264C108.137 503.916 107.428 500.99 108.732 498.848H131.002C132.198 498.848 133.369 499.183 134.37 499.813C135.371 500.443 136.16 501.34 136.638 502.395C136.792 502.726 136.875 503.083 136.88 503.445Z" fill="#D7E8F0"/>
<path d="M120.622 506.044C120.553 506.183 120.467 506.313 120.367 506.433C118.516 508.902 114.475 509.113 111.334 506.924C110.957 506.654 110.6 506.36 110.264 506.044C108.137 503.95 107.428 501.025 108.732 498.883C108.807 498.747 108.892 498.618 108.987 498.494C110.859 496.046 114.901 495.828 118.041 498.017C118.414 498.282 118.767 498.571 119.098 498.883C121.239 500.943 121.948 503.882 120.622 506.044Z" fill="white"/>
<path d="M216.436 579.932H200.009C198.809 579.935 197.634 579.603 196.628 578.976C195.62 578.348 194.825 577.454 194.337 576.399C194.182 576.076 194.1 575.725 194.096 575.369C194.098 574.681 194.383 574.021 194.889 573.534C195.395 573.047 196.081 572.772 196.797 572.771H214.87C213.615 574.926 214.281 577.838 216.436 579.932Z" fill="#EFC375"/>
<path d="M281.629 577.368C281.628 577.705 281.558 578.039 281.423 578.351C281.288 578.663 281.09 578.946 280.841 579.184C280.592 579.422 280.297 579.61 279.972 579.739C279.648 579.867 279.3 579.933 278.949 579.932H216.436C214.309 577.838 213.6 574.912 214.905 572.771H275.751C276.947 572.77 278.118 573.105 279.12 573.735C280.121 574.366 280.909 575.262 281.388 576.317C281.542 576.648 281.624 577.006 281.629 577.368Z" fill="#D7E8F0"/>
<path d="M226.795 579.932C226.725 580.071 226.64 580.201 226.54 580.321C224.689 582.79 220.648 583.001 217.507 580.812C217.128 580.544 216.771 580.25 216.436 579.932C214.309 577.838 213.6 574.913 214.905 572.771C214.979 572.635 215.065 572.505 215.16 572.382C217.032 569.934 221.073 569.716 224.214 571.905C224.587 572.17 224.94 572.459 225.271 572.771C227.44 574.865 228.107 577.804 226.795 579.932Z" fill="white"/>
</svg>
