<svg width="299" height="543" viewBox="0 0 299 543" fill="none" xmlns="http://www.w3.org/2000/svg">
<g clip-path="url(#clip0_45_258)">
<mask id="mask0_45_258" style="mask-type:alpha" maskUnits="userSpaceOnUse" x="-600" y="0" width="899" height="543">
<path d="M298.329 0H-600V542.372H298.329V0Z" fill="white"/>
</mask>
<g mask="url(#mask0_45_258)">
<path d="M250.928 328.032C219.18 413.919 159.491 489.165 76.5831 522.234C65.8 526.529 54.7892 530.172 43.6058 533.146C-15.5452 548.903 -80.2564 543.422 -134.783 514.71C-157.925 502.514 -179.028 486.399 -202.254 474.379C-225.48 462.359 -252.002 454.491 -277.282 460.424C-299.048 465.533 -317.412 480.174 -335.902 493.216C-379.49 523.964 -431.9 548.297 -483.514 537.736C-507.264 532.883 -530.651 519.439 -541.68 496.967C-566.059 447.287 -520.082 388.222 -529.393 333.279C-535.352 298.116 -562.566 271.783 -579.484 240.75C-608.438 187.669 -605.015 117.159 -571.067 67.4212C-537.119 17.6827 -474.447 -8.701 -416.987 2.58231C-346.918 16.3471 -293.942 78.3029 -225.808 100.227C-183.198 113.926 -136.935 109.839 -96.2386 91.7976C-30.4866 62.6407 59.8465 17.9235 133.841 25.2073C173.189 29.0828 211.782 47.3287 237.753 78.4853C270.584 117.816 280.426 173.656 274.95 225.519C271.192 260.626 263.117 295.081 250.928 328.032Z" fill="url(#paint0_linear_45_258)"/>
<path d="M272.051 395.966C270.591 395.964 269.138 395.781 267.72 395.419C263.236 394.267 259.345 391.372 256.837 387.323C254.329 383.274 253.393 378.377 254.225 373.632C255.049 368.887 257.585 364.652 261.301 361.791C265.017 358.931 269.641 357.66 274.223 358.24C278.806 358.819 283.004 361.204 285.959 364.908C288.92 368.612 290.408 373.356 290.136 378.171C289.856 382.986 287.831 387.508 284.471 390.815C281.111 394.123 276.668 395.965 272.051 395.966ZM272.051 366.642C269.648 366.651 267.336 367.578 265.541 369.247C263.746 370.916 262.6 373.213 262.314 375.705C262.034 378.196 262.628 380.71 263.997 382.774C265.359 384.838 267.399 386.309 269.732 386.909C271.08 387.249 272.484 387.285 273.853 387.016C275.215 386.749 276.508 386.182 277.646 385.352C278.785 384.524 279.749 383.453 280.461 382.209C281.174 380.965 281.635 379.578 281.795 378.138C281.963 376.697 281.83 375.237 281.418 373.852C281.006 372.468 280.315 371.191 279.393 370.105C278.471 369.019 277.346 368.149 276.075 367.552C274.81 366.955 273.441 366.645 272.051 366.642Z" fill="#E7F6FF"/>
<path d="M255.517 416.043C256.544 411.605 253.938 407.134 249.684 406.058C245.437 404.982 241.162 407.708 240.128 412.146C239.102 416.584 241.707 421.054 245.954 422.131C250.208 423.206 254.483 420.481 255.517 416.043Z" fill="#E7F6FF"/>
<path d="M298.302 184.399C298.302 176.374 295.249 168.678 289.821 163.003C284.387 157.328 277.025 154.14 269.341 154.14C268.698 154.14 268.062 154.14 267.434 154.206C267.476 153.549 267.497 152.885 267.497 152.213C267.497 147.913 266.616 143.662 264.919 139.744C263.222 135.825 260.749 132.33 257.654 129.491C254.56 126.652 250.928 124.534 246.988 123.279C243.055 122.023 238.906 121.658 234.827 122.209C230.74 122.761 226.822 124.215 223.315 126.475C219.815 128.735 216.812 131.749 214.514 135.316C212.215 138.883 210.672 142.922 209.98 147.161C209.296 151.402 209.477 155.746 210.525 159.906C207.025 157.254 203.002 155.454 198.748 154.639C194.494 153.824 190.121 154.014 185.951 155.196C181.774 156.377 177.911 158.52 174.628 161.467C171.352 164.414 168.753 168.09 167.007 172.225C165.268 176.361 164.436 180.851 164.576 185.367C164.716 189.882 165.819 194.307 167.81 198.319C169.794 202.33 172.616 205.826 176.067 208.548C179.518 211.271 183.506 213.152 187.746 214.052C189.479 218.846 192.342 223.102 196.08 226.422C199.81 229.742 204.294 232.017 209.093 233.033C213.899 234.05 218.879 233.775 223.552 232.236C228.226 230.695 232.452 227.939 235.833 224.226C239.29 226.953 243.286 228.834 247.533 229.732C251.78 230.631 256.16 230.523 260.358 229.416C264.563 228.31 268.468 226.233 271.8 223.34C275.132 220.446 277.793 216.808 279.602 212.695C285.099 210.518 289.828 206.645 293.174 201.591C296.513 196.537 298.302 190.541 298.302 184.399Z" fill="white"/>
<path d="M66.5174 542.219H-350.152V532.731H66.5174C67.7217 532.731 68.8763 533.231 69.7278 534.12C70.5793 535.01 71.0578 536.217 71.0578 537.475C71.0578 538.733 70.5793 539.94 69.7278 540.829C68.8763 541.719 67.7217 542.219 66.5174 542.219Z" fill="#426572"/>
<path d="M212.621 542.219H84.5533V532.731H212.621C213.822 532.731 214.982 533.231 215.834 534.12C216.686 535.01 217.161 536.217 217.161 537.475C217.161 538.733 216.686 539.94 215.834 540.829C214.982 541.719 213.822 542.219 212.621 542.219Z" fill="#426572"/>
<path d="M180.342 47.8971V537.991H-245.15V47.8971C-245.142 45.6754 -244.295 43.5469 -242.791 41.9759C-241.288 40.4049 -239.25 39.519 -237.124 39.5112H172.323C172.805 39.5114 173.287 39.5578 173.762 39.6499C175.606 40.0086 177.275 41.0289 178.477 42.5346C179.678 44.0402 180.335 45.9369 180.342 47.8971Z" fill="white"/>
<path d="M-238.472 80.054H181.683V50.5683L173.65 39.5112H-194.311H-230.439L-243.823 50.5683V80.054H-238.472Z" fill="#E2F2FF"/>
<path d="M185.839 542.37H-248.014V47.8967C-248.01 44.5125 -246.722 41.2679 -244.432 38.8749C-242.141 36.4818 -239.036 35.1357 -235.797 35.1318H173.65C176.884 35.1434 179.986 36.4929 182.27 38.8852C184.554 41.2774 185.832 44.5175 185.839 47.8967V542.37ZM-239.667 533.612H177.457V47.8967C177.457 46.8347 177.052 45.8166 176.332 45.0656C175.613 44.3146 174.642 43.8919 173.622 43.8899H-235.797C-236.813 43.8919 -237.788 44.3146 -238.506 45.0656C-239.225 45.8166 -239.63 46.8347 -239.632 47.8967L-239.667 533.612Z" fill="#426572"/>
<path d="M160.762 55.7671H-164.673C-167.181 55.7671 -169.213 57.891 -169.213 60.511V62.2043C-169.213 64.8242 -167.181 66.9482 -164.673 66.9482H160.762C163.27 66.9482 165.303 64.8242 165.303 62.2043V60.511C165.303 57.891 163.27 55.7671 160.762 55.7671Z" fill="#CADCE8"/>
<path d="M110.629 132.56H-96.8184V236.715H110.629V132.56Z" fill="#E8837E"/>
<path d="M110.629 248.245H12.6822V352.4H110.629V248.245Z" fill="#DDE4ED"/>
<path d="M4.42557 248.245H-191.461V352.4H4.42557V248.245Z" fill="#DDE4ED"/>
<path d="M111.181 363.933H-191.461V468.088H111.181V363.933Z" fill="#DDE4ED"/>
<path opacity="0.2" d="M25.1298 230.672V532.402H-400.376V230.672C-400.402 228.416 -399.573 226.24 -398.069 224.622C-396.565 223.002 -394.509 222.071 -392.35 222.031H17.0968C19.2573 222.069 21.3152 223 22.8205 224.619C24.3258 226.238 25.1564 228.415 25.1298 230.672Z" fill="#606060"/>
<path d="M9.74146 245.027V537.992H-415.764V245.027C-415.757 242.806 -414.909 240.678 -413.405 239.106C-411.902 237.536 -409.865 236.65 -407.738 236.642H1.70844C2.1911 236.642 2.6731 236.688 3.14737 236.78C4.99429 237.136 6.66443 238.155 7.86868 239.661C9.07224 241.167 9.73517 243.066 9.74146 245.027Z" fill="white"/>
<path d="M-409.072 277.176H11.0757V247.69L3.04962 236.633H-364.919H-411.077L-414.423 247.69V277.176H-409.072Z" fill="#E2F2FF"/>
<path opacity="0.3" d="M-404.846 537.291H-411.133V280.264H9.483V286.832H-404.846V537.291Z" fill="#C1CEDE"/>
<path d="M9.81131 272.797H-413.948V281.555H9.81131V272.797Z" fill="#426572"/>
<path d="M15.2668 542.371H-418.614V245.027C-418.611 241.643 -417.322 238.399 -415.032 236.006C-412.742 233.612 -409.636 232.267 -406.397 232.262H3.04959C6.28864 232.267 9.39426 233.612 11.684 236.006C13.9745 238.399 15.2633 241.643 15.2668 245.027V542.371ZM-410.239 533.613H6.88449V245.027C6.88239 243.965 6.47787 242.947 5.75909 242.196C5.04031 241.445 4.06595 241.022 3.04959 241.02H-406.397C-407.413 241.022 -408.388 241.445 -409.107 242.196C-409.825 242.947 -410.23 243.965 -410.232 245.027L-410.239 533.613Z" fill="#426572"/>
<path d="M122.546 484.744H44.94V490.583H122.546V484.744Z" fill="#DDE4ED"/>
</g>
</g>
<defs>
<linearGradient id="paint0_linear_45_258" x1="-599.078" y1="270.907" x2="276.368" y2="270.907" gradientUnits="userSpaceOnUse">
<stop stop-color="#C5E9FA"/>
<stop offset="1" stop-color="#C4F4EA"/>
</linearGradient>
<clipPath id="clip0_45_258">
<rect width="899" height="543" fill="white" transform="translate(-600)"/>
</clipPath>
</defs>
</svg>
