<svg width="740" height="680" viewBox="0 0 740 680" fill="none" xmlns="http://www.w3.org/2000/svg">
<path fill-rule="evenodd" clip-rule="evenodd" d="M53.8113 519.875C70.1176 435.901 235.118 483.74 343.29 457.779C451.462 431.819 579.439 310.915 664.137 370.14C748.834 429.364 658.717 572.527 464.458 604.834C270.198 637.141 37.505 603.848 53.8113 519.875Z" fill="#F2F2F2"/>
<g opacity="0.5">
<path fill-rule="evenodd" clip-rule="evenodd" d="M96.9081 127.672C95.3351 129.243 95.9461 134.824 95.9131 136.89C95.8625 140.105 96.0626 143.292 96.3314 146.496C96.5116 148.642 97.5269 169.114 100.353 167.542C101.946 166.656 100.947 160.733 100.944 158.86C100.938 154.696 100.764 150.542 100.487 146.386C100.229 142.529 100.067 138.716 100.215 134.851C100.251 133.908 101.134 123.439 96.9081 127.672Z" fill="#EFC375"/>
<path fill-rule="evenodd" clip-rule="evenodd" d="M165.409 125.149C151.896 125.256 138.388 125.923 124.881 126.331C118.381 126.528 111.886 126.778 105.394 127.138C103.181 127.261 98.4362 126.552 96.593 127.731C92.5013 130.348 99.1001 130.96 100.859 130.896C127.59 129.927 154.329 128.65 181.082 128.59C194.206 128.561 207.323 128.934 220.448 128.851C225.465 128.819 231.02 126.657 232.287 132.497C233.717 139.086 232.074 146.423 231.627 153.045C231.329 157.465 231.435 161.794 231.634 166.211C231.762 169.04 231.429 172.228 231.93 175.005C232.411 177.679 234.333 179.282 236.095 176.287C237.148 174.497 236.624 170.078 236.694 168.005C236.788 165.213 236.7 162.421 236.7 159.628C236.699 152.811 237.661 146.022 237.534 139.206C237.452 134.811 237.219 126.844 231.676 125.788C225.572 124.625 218.069 125.794 211.822 125.723C196.344 125.546 180.892 125.028 165.409 125.149Z" fill="#EFC375"/>
<path fill-rule="evenodd" clip-rule="evenodd" d="M128.174 167.786C123.078 167.786 117.982 167.817 112.887 167.901C108.517 167.973 101.647 167.063 97.5795 168.626C94.7952 169.696 94.0556 172.805 97.5795 173.633C101.423 174.536 107.215 173.059 111.236 172.988C131.4 172.632 151.758 172.168 171.894 173.444C190.762 174.638 209.993 175.797 228.888 174.536C230.478 174.43 238.586 174.107 234.886 171.068C232.728 169.294 223.979 170.46 221.174 170.375C211.28 170.077 201.376 170.011 191.485 169.636C181.722 169.265 172.004 168.168 162.238 167.896C150.893 167.58 139.523 167.786 128.174 167.786Z" fill="#EFC375"/>
<path fill-rule="evenodd" clip-rule="evenodd" d="M123.075 138.804C131.017 139.151 138.875 150.669 130.839 156.235C123.3 161.459 109.172 155.734 113.364 145.606C112.761 147.07 114.126 144.015 114.143 143.995C114.94 143.056 116.371 142.016 117.354 141.276C118.478 140.428 119.649 139.496 121.005 139.071C121.895 138.792 121.755 139.841 123.075 138.804ZM119.207 134.65C115.49 136.101 113.794 137.738 111.239 140.701C109.472 142.751 107.218 143.83 107.238 146.6C107.243 147.213 108.03 147.887 108.167 148.478C108.355 149.294 108.137 150.34 108.286 151.207C109.824 160.157 120.501 163.174 128.317 161.484C135.125 160.012 140.217 153.477 138.64 146.37C137.052 139.216 126.444 131.819 119.207 134.65Z" fill="#EFC375"/>
<path fill-rule="evenodd" clip-rule="evenodd" d="M115.896 147.143C115.896 150.362 120.982 150.362 120.982 147.143C120.982 143.96 115.896 143.823 115.896 147.143Z" fill="#EFC375"/>
<path fill-rule="evenodd" clip-rule="evenodd" d="M122.259 146.491C122.259 149.049 126.299 149.049 126.299 146.491C126.299 143.962 122.259 143.854 122.259 146.491Z" fill="#EFC375"/>
<path fill-rule="evenodd" clip-rule="evenodd" d="M123.51 151.767C122.216 152.264 120.574 151.233 119.512 151.912C117.631 153.117 119.517 154.206 120.525 154.69C125.065 156.869 125.873 150.861 123.51 151.767Z" fill="#EFC375"/>
<path fill-rule="evenodd" clip-rule="evenodd" d="M192.85 144.632C192.714 144.689 192.233 144.893 192.85 144.632V144.632ZM173.077 141.742C169.679 142.509 166.81 145.683 163.118 145.258C160.289 144.933 158.373 142.202 155.58 141.806C152.007 141.298 142.282 149.448 147.395 150.847C150.378 151.663 152.033 146.212 154.668 145.922C156.753 145.693 159.588 148.25 161.748 148.614C165.778 149.293 168.546 147.073 172.083 145.641C175.928 144.086 178.115 145.487 181.458 147.216C184.097 148.58 186.583 149.469 189.602 148.906C192.436 148.378 195.996 145.463 198.849 145.762C201.643 146.055 203.637 148.971 206.511 149.242C207.696 149.353 209.46 149.757 209.261 147.928C209.101 146.465 207.468 146.713 206.446 146.18C203.818 144.812 201.36 142.388 198.189 142.595C195.803 142.751 193.631 144.427 191.433 145.229C184.233 147.855 180.185 140.148 173.077 141.742Z" fill="#EFC375"/>
<path fill-rule="evenodd" clip-rule="evenodd" d="M179.093 188.111C165.204 188.239 151.268 188.445 137.419 189.558C134.135 189.822 100.608 192.988 100.672 193.216C100.789 193.637 105.102 194.282 105.075 194.381C104.784 193.661 104.12 193.362 103.082 193.487C134.88 193.487 166.576 190.64 198.416 191.152C206.416 191.28 214.446 191.227 222.441 191.479C224.437 191.542 229.382 192.972 230.949 192.071C235.063 189.706 227.59 189.433 226.352 189.334C210.683 188.08 194.805 187.954 179.093 188.111Z" fill="#353642"/>
<path fill-rule="evenodd" clip-rule="evenodd" d="M96.5557 194.859C94.4794 196.941 96.3913 204.43 96.4731 207.245C96.5914 211.314 96.4939 215.412 96.851 219.471C97.2586 224.107 97.891 229.047 99.1074 233.545C99.7774 236.023 102.129 239.961 103.061 235.459C103.726 232.242 102.716 227.976 102.364 224.7C101.894 220.317 101.78 215.992 101.763 211.587C101.747 207.75 101.673 203.896 101.358 200.071C101.195 198.085 100.196 191.238 96.5557 194.859Z" fill="#353642"/>
<path fill-rule="evenodd" clip-rule="evenodd" d="M148.794 232.998C138.938 233.167 129.061 233.4 119.222 234.015C115.189 234.268 111.159 234.644 107.141 235.07C106.322 235.157 97.2466 235.525 101.302 238.874C103.132 240.387 110.661 238.296 113.147 238.078C117.33 237.711 121.511 237.473 125.705 237.296C135.424 236.883 145.172 236.519 154.9 236.687C172.667 236.996 190.319 237.133 208.09 236.737C210.615 236.681 230.396 237.209 231.068 234.583C231.609 232.466 224.535 233.437 223.245 233.475C218.514 233.616 213.782 233.584 209.048 233.559C188.997 233.457 168.83 232.659 148.794 232.998Z" fill="#353642"/>
<path fill-rule="evenodd" clip-rule="evenodd" d="M227.719 191.347C228.032 200.122 229.526 208.887 230.004 217.689C230.222 221.712 230.479 225.732 230.676 229.757C230.74 231.055 230.217 234.184 231.752 234.931C233.858 235.955 234.142 233.891 234.536 232.495C235.675 228.462 234.905 223.223 234.801 219.081C234.701 215.07 234.694 211.051 234.398 207.047C234.095 202.956 233.272 198.943 232.89 194.867C232.728 193.143 233.293 190.274 231.463 189.204C229.881 188.279 227.651 189.445 227.719 191.347Z" fill="#353642"/>
<path fill-rule="evenodd" clip-rule="evenodd" d="M130.845 205.944C130.882 205.973 130.919 206.002 130.956 206.031C130.919 206.002 130.882 205.973 130.845 205.944ZM122.469 203.344C125.592 204.236 128.157 203.904 131.141 206.177C133.614 208.062 136.151 210.821 136.971 213.869C138.866 220.911 132.441 224.771 126.418 224.847C120.248 224.924 111.115 223.493 111.431 215.585C111.674 209.509 116.11 203.58 122.469 203.344ZM122.689 199.364C114.59 199.767 108.057 208.863 108.127 216.518C108.212 225.797 118.725 228.188 126.194 228.252C134.623 228.324 143.028 222.504 140.77 213.025C138.96 205.43 130.477 198.959 122.689 199.364Z" fill="#353642"/>
<path fill-rule="evenodd" clip-rule="evenodd" d="M114.542 211.822C114.542 214.41 118.63 214.41 118.63 211.822C118.63 209.265 114.542 209.155 114.542 211.822Z" fill="#353642"/>
<path fill-rule="evenodd" clip-rule="evenodd" d="M123.117 210.687C123.117 213.295 127.237 213.295 127.237 210.687C127.237 208.109 123.117 207.998 123.117 210.687Z" fill="#353642"/>
<path fill-rule="evenodd" clip-rule="evenodd" d="M118.39 216.589C115.729 219.245 125.077 223.902 127.281 220.207C129.092 217.171 125.149 218.178 123.752 218.014C122.233 217.835 119.63 215.352 118.39 216.589Z" fill="#353642"/>
<path fill-rule="evenodd" clip-rule="evenodd" d="M193.124 210.74C192.868 210.848 192.868 210.848 193.124 210.74V210.74ZM158.022 206.416C155.328 206.921 146.486 209.904 146.367 213.1C146.148 218.91 154.808 212.959 156.688 212.195C161.796 210.119 164.48 214.354 169.612 214.577C174.068 214.771 178.166 210.957 182.364 211.408C186.763 211.881 188.878 216.56 193.956 214.076C196.643 212.762 196.575 210.735 193.559 210.544C191.737 210.429 190.484 211.182 188.584 210.398C185.612 209.172 184.415 207.176 180.859 207.493C178.175 207.733 175.75 209.245 173.13 209.831C167.132 211.171 163.805 205.332 158.022 206.416Z" fill="#353642"/>
<path fill-rule="evenodd" clip-rule="evenodd" d="M213.818 213.263C213.632 213.341 213.632 213.341 213.818 213.263V213.263ZM214.497 210.844C214.527 210.857 214.73 211.139 214.497 210.844V210.844ZM211.409 208.997C211.293 209.086 211.293 209.086 211.409 208.997V208.997ZM211.476 208.974C212.075 209.333 216.89 212.625 213.393 213.401C211.617 213.794 210.148 210.222 211.476 208.974ZM209.882 205.327C202.169 208.844 210.469 221.429 216.522 216.315C219.069 214.164 219.404 209.815 216.926 207.573C215.442 206.23 211.897 204.406 209.882 205.327Z" fill="#353642"/>
<path fill-rule="evenodd" clip-rule="evenodd" d="M137.477 254.921C127.852 254.924 118.143 254.722 108.531 255.292C106.914 255.388 100.752 255.08 99.9184 256.771C98.3937 259.864 104.734 258.329 105.655 258.236C124.793 256.32 144.784 257.423 163.985 257.969C179.689 258.415 195.308 258.692 210.993 259.502C215.116 259.714 219.235 259.949 223.355 260.198C224.698 260.279 228.078 261.169 228.361 259.024C228.623 257.039 224.407 257.487 223.354 257.432C214.979 256.991 206.61 256.529 198.237 256.058C178.085 254.922 157.661 254.917 137.477 254.921Z" fill="#EFC375"/>
<path fill-rule="evenodd" clip-rule="evenodd" d="M99.6095 258.36C97.8118 260.147 98.6545 266.971 98.6043 269.226C98.5166 273.171 98.3304 277.113 98.2468 281.056C98.16 285.178 98.2807 289.319 98.5245 293.435C98.6266 295.163 100.045 303.515 102.278 298.735C103.276 296.599 102.254 290.65 102.269 288.23C102.297 283.826 102.534 279.44 102.753 275.041C102.942 271.26 102.949 267.475 103.114 263.693C103.166 262.487 103.309 254.649 99.6095 258.36Z" fill="#EFC375"/>
<path fill-rule="evenodd" clip-rule="evenodd" d="M229.98 293.595C220.613 294.555 211.096 294.102 201.694 294.811C193.591 295.422 185.495 295.672 177.371 295.844C158.975 296.232 140.547 296.611 122.204 298.144C118.024 298.493 113.848 298.864 109.657 299.051C107.561 299.144 98.7643 298.19 98.1092 300.4C96.9935 304.164 106.4 302.674 108.429 302.615C112.891 302.487 117.332 302.164 121.781 301.825C140.485 300.4 159.259 299.974 178.003 299.382C188.196 299.06 198.319 298.314 208.49 297.636C213.56 297.298 218.643 297.287 223.712 296.959C225.039 296.873 229.734 297.042 230.688 295.975C231.343 295.242 231.509 293.453 229.98 293.595Z" fill="#EFC375"/>
<path fill-rule="evenodd" clip-rule="evenodd" d="M226.805 259C227.126 267.983 227.634 276.958 227.937 285.94C228.028 288.641 227.212 293.482 228.716 295.864C231.135 299.695 233.023 295.641 233.466 293.254C234.864 285.721 233.361 277.4 232.97 269.82C232.822 266.929 233.72 260.493 232.322 257.905C230.991 255.44 226.686 255.687 226.805 259Z" fill="#EFC375"/>
<path fill-rule="evenodd" clip-rule="evenodd" d="M211.08 271.794C214.668 272.766 215.192 280.567 211.143 281.145C205.116 282.004 207.752 273.402 211.08 271.794ZM210.074 268.691C208.98 268.657 206.453 268.355 205.778 269.246C205.214 269.992 205.784 271.565 205.718 272.275C205.481 274.813 203.417 276.279 204.34 279.276C204.966 281.31 206.643 283.221 208.687 283.927C219.472 287.655 219.341 266.816 210.074 268.691Z" fill="#EFC375"/>
<path fill-rule="evenodd" clip-rule="evenodd" d="M112.702 270.091C112.675 270.125 112.648 270.159 112.622 270.194C112.648 270.159 112.675 270.125 112.702 270.091ZM121.173 265.584C121.131 265.223 121.088 264.862 121.046 264.501C126.894 267.261 131.547 272.396 129.605 279.288C128.124 284.546 122.771 286.411 117.784 285.113C112.264 283.675 109.626 279.125 111.114 273.538C111.801 270.96 113.91 267.496 116.635 266.667C117.904 266.281 120.71 267.265 121.173 265.584ZM117.753 263.401C116.274 263.501 114.834 264.117 113.627 264.96C114.757 264.004 116.263 263.435 117.753 263.401ZM117.796 260.005C114.142 260.117 111.747 262.329 109.58 264.985C108.9 265.819 106.6 268.03 106.885 269.153C107.11 270.042 107.699 271.34 108.94 270.35C102.442 283.3 119.228 294.346 129.475 285.34C139.039 276.936 129.55 259.611 117.796 260.005Z" fill="#EFC375"/>
<path fill-rule="evenodd" clip-rule="evenodd" d="M114.476 272.034C114.476 273.759 117.153 273.759 117.153 272.034C117.153 270.31 114.476 270.31 114.476 272.034Z" fill="#EFC375"/>
<path fill-rule="evenodd" clip-rule="evenodd" d="M119.044 272.329C119.044 274.081 121.764 274.081 121.764 272.329C121.764 270.576 119.044 270.576 119.044 272.329Z" fill="#EFC375"/>
<path fill-rule="evenodd" clip-rule="evenodd" d="M121.117 278.484C119.845 278.587 115.186 278.155 114.369 279.269C113.002 281.132 115.183 281.197 116.254 281.398C117.219 281.579 121.413 281.477 122.004 280.62C122.526 279.863 122.404 278.374 121.117 278.484Z" fill="#EFC375"/>
<path fill-rule="evenodd" clip-rule="evenodd" d="M177.241 273.653C177.022 273.743 177.022 273.743 177.241 273.653V273.653ZM159.64 272.366C156.772 272.577 154.344 274.226 151.602 274.884C148.676 275.587 147.409 274.295 144.748 273.449C141.98 272.569 140.011 272.916 137.786 274.807C136.526 275.878 133.76 278.344 134.548 280.246C136.352 284.602 140.436 277.516 142.357 277.186C145.353 276.672 148.019 279.292 151.475 278.542C154.606 277.864 157.384 275.714 160.654 275.691C163.389 275.671 165.966 277.168 168.666 277.53C172.788 278.083 175.494 276.619 179.304 275.533C182.608 274.591 184.924 275.833 188.032 276.878C189.452 277.355 194.191 279.091 193.319 275.943C193.072 275.054 186.827 273.464 185.859 273.158C182.445 272.08 180.283 272.5 177.03 273.74C174.318 274.775 172.036 275.279 169.128 274.709C165.924 274.082 163.01 272.11 159.64 272.366Z" fill="#EFC375"/>
</g>
<g opacity="0.5">
<path fill-rule="evenodd" clip-rule="evenodd" d="M291.575 128.012C292.038 118.055 292.674 108.113 293.009 98.1501C293.176 93.2134 293.306 88.2762 293.432 83.3385C293.459 82.2391 293.488 81.1401 293.513 80.0406C293.594 76.3053 293.151 75.9998 296.91 75.6682C313.679 74.188 330.515 73.6974 347.304 72.3582C367.553 70.7431 387.907 69.6278 408.213 69.1279C417.236 68.9054 426.298 68.4444 435.323 68.725C437.322 68.7871 441.247 68.2668 442.035 69.8212C442.375 70.4927 441.661 72.8034 441.571 73.5782C441.288 75.9988 441.024 78.4278 440.861 80.8604C439.901 95.2078 440.473 109.917 443.251 124.047C436.734 120.372 428.5 117.211 420.904 117.838C413.16 118.478 407.367 122.952 401.168 127.07C397.662 129.4 396.481 130.012 392.983 127.756C389.968 125.811 387.116 123.588 384.272 121.405C379.883 118.037 375.741 114.386 371.485 110.855C363.66 104.363 352.878 95.122 342.07 97.8427C334.348 99.7866 327.218 104.031 320.516 108.184C310.558 114.355 301.545 121.912 291.575 128.012ZM425.779 64.3034C387.306 64.3034 349.121 68.0331 310.756 70.0507C306.749 70.2613 302.756 70.5715 298.764 70.9568C296.103 71.2137 289.596 70.1351 287.852 72.4087C286.688 73.9256 287.688 74.1532 287.852 75.5945C288.058 77.4108 287.936 79.563 287.883 81.4855C287.755 86.1181 287.62 90.7501 287.515 95.3831C287.118 112.893 286.869 130.4 287.578 147.905C287.733 151.723 289.124 157.009 288.363 160.719C287.812 163.405 285.97 165.039 290.218 165.535C294.398 166.024 299.509 164.781 303.693 164.383C307.901 163.983 312.108 163.548 316.321 163.201C334.638 161.692 353.133 161.92 371.499 161.418C390.029 160.912 408.567 160.88 427.104 160.869C434.86 160.865 443.723 161.301 451.291 159.167C453.953 158.415 454.384 158.045 453.727 155.404C453.603 154.902 452.799 154.717 452.563 153.811C452.242 152.578 452.407 151.079 452.332 149.796C452.087 145.604 452.001 141.404 451.804 137.21C451.474 130.201 450.266 123.399 449.372 116.461C448.341 108.449 448.394 100.313 448.373 92.2479C448.361 87.7745 448.476 83.3158 448.835 78.8549C449.066 75.9937 450.475 71.722 449.76 69.0537C449.404 67.7252 448.822 66.6716 447.439 66.0999C446.563 65.7372 445.826 66.021 444.96 65.9292C443.933 65.8202 443.292 65.676 442.062 65.3973C436.789 64.2023 431.151 64.3034 425.779 64.3034Z" fill="#353642"/>
<path fill-rule="evenodd" clip-rule="evenodd" d="M404.487 83.3523C404.484 86.1406 404.049 90.2552 405.335 92.8808C406.965 96.2112 409.005 95.1701 409.545 92.0405C409.855 90.2473 409.847 84.9405 409.271 83.3523C408.456 81.1042 404.487 79.573 404.487 83.3523Z" fill="#EFC375"/>
<path fill-rule="evenodd" clip-rule="evenodd" d="M409.166 84.4287C406.548 84.521 398.924 83.8926 397.153 85.9975C394.115 89.6075 399.404 90.247 401.675 90.0448C404.303 89.8111 412.423 90.3814 414.183 88.2743C417.127 84.7491 411.224 84.3536 409.166 84.4287Z" fill="#EFC375"/>
<path fill-rule="evenodd" clip-rule="evenodd" d="M307.583 177.579C319.091 179.578 315.511 197.125 304.622 193.06C300.827 191.644 295.237 187.552 297.334 182.731C298.9 179.129 304.006 177.236 307.583 177.579ZM302.818 172.124C295.334 173.384 290.217 181.483 292.784 188.548C295.259 195.363 304.648 200.354 311.573 197.905C318.183 195.566 321.481 186.771 319.253 180.337C316.924 173.615 309.338 171.026 302.818 172.124Z" fill="#EFC375"/>
<path fill-rule="evenodd" clip-rule="evenodd" d="M372.816 179.632C369.951 179.87 367.475 181.876 364.592 182.231C361.896 182.563 359.662 181.64 357.138 180.903C354.087 180.012 351.289 179.621 348.171 180.412C345.789 181.017 343.439 182.638 340.964 182.834C336.094 183.219 330.434 177.662 326.632 183.947C324.809 186.959 327.456 188.9 330.182 187.495C333.024 186.03 331.629 185.506 335.155 186.371C338.096 187.092 340.474 187.484 343.42 186.473C346.089 185.558 348.432 183.883 351.333 183.694C354.174 183.51 356.645 184.804 359.36 185.362C362.699 186.049 365.653 185.529 368.817 184.483C371.826 183.487 373.027 182.943 376.064 183.831C377.986 184.393 382.187 186.18 384.058 184.74C387.294 182.251 382.962 181.887 381.256 181.533C378.509 180.964 375.667 179.398 372.816 179.632Z" fill="#EFC375"/>
<path fill-rule="evenodd" clip-rule="evenodd" d="M438.384 177.959C438.407 177.977 438.43 177.995 438.452 178.012C438.43 177.995 438.406 177.977 438.384 177.959ZM435.571 177.371C439.754 177.64 444.277 185.26 438.735 185.531C434.834 185.721 430.469 179.049 435.571 177.371ZM434.984 171.136C421.758 174.829 427.804 193.477 440.562 191.323C446.357 190.344 448.321 183.631 446.405 178.661C445.582 176.527 443.978 174.727 442.061 173.499C440.647 172.592 436.601 170.686 434.984 171.136Z" fill="#EFC375"/>
<path fill-rule="evenodd" clip-rule="evenodd" d="M373.276 210.065C384.915 209.666 396.555 209.266 408.206 209.158C414.52 209.1 420.8 209.21 427.105 209.572C429.901 209.732 432.696 209.887 435.494 210.005C435.977 210.026 436.644 209.993 437.38 209.957C439.112 209.872 441.227 209.768 442.222 210.294C447.788 213.238 436.448 213.561 435.07 213.538C431.983 213.486 428.899 213.333 425.815 213.181C423.12 213.048 420.425 212.915 417.727 212.848C400.42 212.423 383.007 213.201 365.671 213.975C361.697 214.152 357.727 214.33 353.763 214.492C349.554 214.665 345.347 214.777 341.139 214.888C335.125 215.048 329.111 215.208 323.097 215.546C320.8 215.675 318.504 215.811 316.208 215.948C312.919 216.144 309.63 216.34 306.339 216.513C303.763 216.649 301.186 216.781 298.606 216.846C298.142 216.857 297.537 216.922 296.876 216.992C295.277 217.163 293.353 217.368 292.313 216.943C291.063 216.432 290.051 215.717 290.739 214.201C291.32 212.92 293.433 213.074 294.974 213.186C295.395 213.217 295.773 213.244 296.065 213.238C300.989 213.143 305.902 212.866 310.817 212.565C312.615 212.455 314.412 212.342 316.209 212.229H316.21C325.567 211.641 334.915 211.053 344.295 210.893C353.959 210.728 363.617 210.396 373.276 210.065ZM434.065 286.668L437.411 286.628C439.139 286.778 439.912 288.592 438.802 289.986C437.953 291.054 434.684 291.102 432.553 291.133C431.962 291.142 431.459 291.15 431.119 291.177C425.556 291.624 420.004 291.825 414.424 291.879C402.674 291.99 390.968 292.494 379.237 293.163C367.229 293.848 355.211 294.105 343.192 294.363H343.191C334.349 294.552 325.506 294.742 316.667 295.101C311.605 295.307 306.542 295.461 301.478 295.594C300.934 295.608 300.21 295.686 299.391 295.774C296.192 296.12 291.544 296.622 290.491 294.081C289.556 291.827 290.855 290.789 292.755 290.317C292.455 288.982 292.511 287.106 292.542 286.031C292.552 285.708 292.559 285.457 292.554 285.315C292.507 283.968 292.473 282.62 292.44 281.272C292.402 279.745 292.365 278.218 292.306 276.691C292.252 275.306 292.203 273.919 292.153 272.531C291.957 267.059 291.761 261.573 291.339 256.123C291.145 253.607 290.837 251.121 290.529 248.639C290.038 244.676 289.547 240.723 289.525 236.678C289.521 235.95 289.484 235.04 289.443 234.013C289.233 228.761 288.901 220.457 292.161 217.928C297.91 214.573 296.773 224.256 296.266 228.577C296.183 229.291 296.116 229.858 296.1 230.197C295.77 237.382 296.218 244.252 296.941 251.392C297.43 256.214 297.144 261.02 296.859 265.834C296.757 267.553 296.655 269.273 296.588 270.996C296.555 271.848 296.525 272.7 296.496 273.551C296.405 276.172 296.315 278.791 296.118 281.409C296.096 281.692 296.089 282.235 296.08 282.929C296.054 284.886 296.013 288.044 295.594 289.961C296.486 289.922 297.351 289.932 298.067 289.94C298.522 289.945 298.917 289.949 299.219 289.94C300.591 289.898 301.964 289.858 303.336 289.818C307.39 289.699 311.444 289.58 315.497 289.428C325.065 289.068 334.636 288.948 344.207 288.828C355.511 288.686 366.816 288.544 378.115 288.007C396.737 287.122 415.423 286.895 434.065 286.668ZM437.519 216.42C437.509 228.729 438.461 240.7 439.573 252.96C440.261 260.543 440.812 268.155 441.251 275.757C441.271 276.109 441.268 276.696 441.264 277.432V277.433C441.242 281.637 441.194 290.695 445.349 288.528C448.486 286.892 447.28 277.405 446.613 272.155C446.467 271.004 446.346 270.056 446.303 269.44C446.212 268.127 446.122 266.814 446.032 265.502C445.614 259.408 445.197 253.318 444.647 247.231L444.531 245.947C443.895 238.917 443.259 231.891 443.146 224.827C443.137 224.243 443.193 223.43 443.256 222.51C443.44 219.851 443.685 216.31 442.58 214.898C441.026 212.911 437.522 213.498 437.519 216.42Z" fill="#353642"/>
<path fill-rule="evenodd" clip-rule="evenodd" d="M373.808 246.595C388.674 239.869 403.714 233.065 419.173 228.22C420.291 227.87 420.997 229.022 420.744 229.989C420.482 230.985 418.064 231.835 416.46 232.399C415.98 232.568 415.573 232.711 415.319 232.824C413.16 233.789 410.995 234.741 408.83 235.694C406.613 236.669 404.396 237.645 402.184 238.633C397.587 240.687 392.985 242.733 388.383 244.778C383.454 246.968 378.526 249.158 373.602 251.36C373.416 251.443 373.229 251.527 373.043 251.61C379.737 253.989 386.393 256.474 393.02 259.035C395.284 259.909 397.541 260.803 399.798 261.696C401.075 262.201 402.352 262.706 403.631 263.208C404.047 263.371 404.772 263.593 405.643 263.859C408.481 264.725 412.871 266.066 413.196 267.42C413.724 269.626 407.662 267.492 405.375 266.687C405.072 266.58 404.835 266.497 404.689 266.45C401.314 265.371 397.98 264.17 394.648 262.969L394.186 262.802C391.545 261.851 388.908 260.889 386.271 259.927C381.119 258.049 375.968 256.17 370.788 254.368C370.056 254.113 369.323 253.859 368.59 253.606C360.278 257.34 351.982 261.109 343.714 264.938C339.28 266.992 334.87 269.093 330.473 271.222C329.513 271.687 328.324 272.405 327.033 273.186C323.939 275.056 320.255 277.283 317.72 277.227C316.362 277.197 315.446 276.906 315.304 275.259C315.158 273.559 317.339 272.668 318.907 272.027C319.282 271.873 319.622 271.734 319.887 271.602C324.587 269.251 329.316 266.96 334.059 264.698C343.479 260.205 352.987 255.891 362.528 251.663C362.583 251.639 362.638 251.615 362.693 251.59C357.401 249.8 352.095 248.051 346.776 246.34C346.245 246.169 345.157 245.868 343.726 245.471C336.965 243.599 322.563 239.61 323.204 237.28C323.939 234.615 337.441 239.486 343.419 241.643C344.54 242.047 345.396 242.356 345.854 242.502C353.001 244.779 360.128 247.121 367.218 249.57C369.411 248.585 371.607 247.591 373.808 246.595Z" fill="#EFC375"/>
<path fill-rule="evenodd" clip-rule="evenodd" d="M310.108 305.133C314.459 305.896 317.529 310.071 317.052 314.442C316.406 320.349 310.519 323.056 305.08 322.286C298.909 321.411 297.611 316.194 300.601 311.176C301.263 310.065 302.024 308.735 303.228 308.15C304.055 307.748 305.109 308.103 305.775 307.779C308.111 306.643 306.706 304.831 310.108 305.133ZM308.126 301.275C302.816 301.953 293.005 308.098 293.501 314.246C293.932 314.959 294.58 315.25 295.445 315.121C295.237 316.453 295.305 317.77 295.649 319.074C296.153 320.766 297.16 322.153 298.508 323.254C301.285 325.524 305.081 326.081 308.539 325.683C314.996 324.941 320.084 320.528 320.447 313.812C320.801 307.257 315.079 300.397 308.126 301.275Z" fill="#EFC375"/>
<path fill-rule="evenodd" clip-rule="evenodd" d="M333.846 309.275C331.463 310.537 327.694 312.477 326.297 314.875C324.821 317.408 326.349 320.179 329.459 318.981C331.928 318.03 333.498 315.008 336.132 314.039C338.456 313.184 339.392 313.62 341.849 314.471C344.38 315.348 346.592 316.196 349.328 315.98C352.767 315.71 355.745 313.716 359.111 313.263C361.945 312.881 364.282 313.983 366.996 314.422C370.145 314.931 372.204 313.739 375.15 313.118C377.154 312.696 380.686 314.414 382.148 313.771C385.434 312.326 381.957 310.56 380.138 309.976C377.073 308.993 375.187 309.86 372.272 310.676C369.107 311.561 367.74 310.895 364.714 310.082C358.593 308.438 353.864 312.415 348.062 311.692C342.691 311.022 339.476 306.293 333.846 309.275Z" fill="#EFC375"/>
<path fill-rule="evenodd" clip-rule="evenodd" d="M433.935 306.336C439.827 311.86 433.208 319.719 426.712 315.304C424.426 313.751 424.389 311.255 426.168 309.022C427.796 306.98 431.371 306.184 433.935 306.336ZM431.751 301.872C426.247 302.943 421.055 305.469 420.556 311.822C420.07 318.02 426.428 320.899 431.769 320.493C443.761 319.579 442.894 299.718 431.751 301.872Z" fill="#EFC375"/>
</g>
<path opacity="0.5" fill-rule="evenodd" clip-rule="evenodd" d="M562.139 96.0057C557.736 96.0908 546.863 97.6923 545.247 102.901C544.02 106.854 547.665 105.986 549.618 104.548C552.261 102.602 554.578 101.438 557.853 100.846C570.326 98.5899 582.311 106.681 594.665 107.704C599.345 108.092 604.992 108.344 609.46 106.829C612.642 105.749 613.057 103.396 609.426 103.038C606.341 102.733 602.927 103.693 599.764 103.666C586.675 103.554 575.04 95.7596 562.139 96.0057Z" fill="#EFC375"/>
<g opacity="0.5">
<path fill-rule="evenodd" clip-rule="evenodd" d="M99.509 343.362C91.0848 343.456 82.6647 343.767 74.2571 344.299C66.2618 344.806 57.5867 344.421 49.7216 345.971C47.4883 346.411 44.4714 348.446 47.441 350.685C49.5283 352.259 57.1648 350.449 59.6573 350.296C68.8363 349.731 78.02 349.056 87.212 348.731C95.914 348.423 104.615 348.315 113.322 348.228C114.651 348.215 116.857 347.789 118.181 348.175C120.083 348.729 119.632 348.88 119.774 351.294C120.032 355.668 119.961 360.058 119.874 364.436C119.79 368.673 119.633 372.909 119.649 377.148C119.659 380.172 118.693 386.181 120.21 388.808C122.394 392.588 124.66 388.482 124.823 385.97C125.136 381.165 124.996 376.302 124.997 371.491C124.998 366.976 125.031 362.46 124.872 357.947C124.756 354.687 125.222 348.996 123.466 346.032C121.677 343.013 117.37 343.664 114.228 343.52C109.326 343.295 104.415 343.311 99.509 343.362Z" fill="#EFC375"/>
<path fill-rule="evenodd" clip-rule="evenodd" d="M45.9096 348.81C45.9189 357.295 44.9374 365.722 44.6624 374.197C44.5363 378.093 44.2804 382.371 45.2661 386.196C46.2611 390.058 49.4212 390.895 49.7851 386.583C50.5223 377.853 50.3415 368.8 50.9155 360C51.1181 356.892 52.4367 351.198 51.2057 348.289C50.1217 345.726 45.905 345.234 45.9096 348.81Z" fill="#EFC375"/>
<path fill-rule="evenodd" clip-rule="evenodd" d="M124.906 386.208C110.276 388.144 94.9815 387.438 80.2472 387.743C73.1781 387.889 66.1105 387.898 59.0405 387.972C56.5731 387.997 50.3071 387.059 48.1725 388.446C44.7745 390.654 48.4613 392.358 50.7109 392.407C64.663 392.712 78.7705 392.071 92.7199 391.613C98.9873 391.407 105.275 391.307 111.526 390.774C115.374 390.446 119.579 390.128 123.316 389.094C124.112 388.874 125.846 388.92 126.024 387.834C126.134 387.162 125.935 386.066 124.906 386.208Z" fill="#EFC375"/>
<path fill-rule="evenodd" clip-rule="evenodd" d="M64.0703 398.54C60.0042 398.564 47.7513 396.675 46.0673 400.64C43.8224 405.928 52.58 404.694 54.9353 404.633C60.2847 404.496 65.6304 404.481 70.9812 404.484C76.2314 404.486 81.4811 404.452 86.7304 404.327C88.2511 404.291 91.7909 404.922 92.6658 403.091C93.3307 401.699 92.8054 400.601 91.5791 399.864C88.6285 398.091 80.9632 399.119 77.5087 398.96C73.036 398.754 68.5485 398.54 64.0703 398.54Z" fill="#EFC375"/>
<path fill-rule="evenodd" clip-rule="evenodd" d="M113.537 399.519C111.213 399.657 106.513 398.699 104.431 399.763C102.065 400.972 102.899 402.864 104.941 403.696C106.356 404.272 112.159 403.97 113.537 403.303C114.973 402.607 116.597 399.331 113.537 399.519Z" fill="#EFC375"/>
<path fill-rule="evenodd" clip-rule="evenodd" d="M139.013 349.643C136.531 350.324 137.284 364.414 137.22 366.647C137.045 372.767 136.357 380.464 138.39 386.358C139.687 390.115 142.178 389.605 141.753 385.65C141.381 382.178 140.741 378.746 140.464 375.252C139.839 367.345 138.987 358.911 139.578 350.997C139.83 351.457 142.184 355.722 142.738 355.403C142.571 355.503 140.023 349.377 139.013 349.643Z" fill="#EFC375"/>
<path fill-rule="evenodd" clip-rule="evenodd" d="M166.93 344.453C161.907 344.528 156.885 344.617 151.864 344.756C147.871 344.867 141.598 344.211 137.937 345.891C133.577 347.89 135.645 352.345 139.74 352.439C143.363 352.523 147.226 351.706 150.881 351.581C160.754 351.243 170.645 351.171 180.522 351.086C189.456 351.009 198.769 351.962 207.624 350.62C208.937 362.283 205.385 373.995 206.593 385.792C206.78 387.623 206.696 390.21 209.028 390.627C211.971 391.154 212.092 388.239 212.203 386.152C212.522 380.193 212.349 374.229 212.786 368.262C213.19 362.732 213.986 357.081 213.313 351.542C212.486 344.727 209.22 345.273 203.447 344.99C191.254 344.392 179.137 344.274 166.93 344.453Z" fill="#EFC375"/>
<path fill-rule="evenodd" clip-rule="evenodd" d="M150.098 385.866C147.538 385.931 143.288 385.142 141.648 387.596C139.942 390.15 141.966 392.377 144.447 392.901C147.384 393.521 151.213 392.671 154.261 392.662C157.435 392.652 160.61 392.688 163.784 392.7C177.392 392.753 191.058 392.959 204.657 392.397C206.556 392.318 211.946 392.955 213.26 391.133C214.427 389.518 213.611 388.069 212.074 387.246C209.554 385.895 204.378 386.409 201.575 386.302C198.113 386.17 194.646 386.127 191.183 386.073C177.511 385.862 163.768 385.528 150.098 385.866Z" fill="#EFC375"/>
<path fill-rule="evenodd" clip-rule="evenodd" d="M161.609 397.67C156.517 397.757 151.083 397.534 146.041 398.306C141.608 398.985 141.062 403.271 145.834 403.772C150.22 404.233 155.537 403.372 159.944 403.089C161.509 402.988 163.329 403.131 164.079 401.401C164.862 399.593 163.365 397.859 161.609 397.67Z" fill="#EFC375"/>
<path fill-rule="evenodd" clip-rule="evenodd" d="M200.108 398.12C197.39 398.188 189.451 397.019 188.105 400.124C185.863 405.292 196.611 403.329 198.673 403.253C201.272 403.157 211.4 404.675 211.402 400.538C211.404 396.481 202.597 398.059 200.108 398.12Z" fill="#EFC375"/>
<path fill-rule="evenodd" clip-rule="evenodd" d="M45.4701 423.804C45.4766 433.206 44.8915 442.697 45.7492 452.076C46.1039 455.955 46.0431 463.386 48.2899 466.674C49.8848 469.008 52.0968 468.845 52.968 466.042C53.5503 464.168 52.6189 460.421 52.515 458.416C52.4149 456.493 52.298 454.57 52.209 452.645C51.9804 447.688 51.9985 442.739 52.0667 437.779C52.1251 433.524 53.1493 427.895 52.1835 423.804C51.2831 419.991 45.4701 419.099 45.4701 423.804Z" fill="#353642"/>
<path fill-rule="evenodd" clip-rule="evenodd" d="M139.967 415.532C123.654 415.941 107.304 415.576 91.0057 416.383C82.9677 416.781 74.9612 417.656 66.9635 418.527C63.0342 418.956 59.1072 419.398 55.1848 419.881C54.0012 420.027 44.1656 420.408 47.865 424.148C49.4803 425.782 54.6206 424.076 56.6546 423.835C60.5927 423.37 64.5387 422.965 68.4823 422.548C75.9867 421.754 83.5004 421.002 91.0368 420.585C108.786 419.601 126.609 419.896 144.376 419.241C149.182 419.064 153.973 418.937 158.781 419.126C160.044 419.175 169.321 419.647 165.293 416.22C163.388 414.6 156.207 415.436 153.827 415.387C149.207 415.292 144.585 415.416 139.967 415.532Z" fill="#353642"/>
<path fill-rule="evenodd" clip-rule="evenodd" d="M162.205 431.373C162.125 427.029 162.044 422.685 161.846 418.344C161.638 413.773 167.865 413.081 169.711 416.781C171.041 419.445 170.807 423.977 170.606 427.862C170.526 429.427 170.45 430.888 170.485 432.078C170.564 434.806 170.765 437.628 170.968 440.486C171.48 447.68 172.009 455.111 170.664 461.902C170.01 465.202 167.227 466.936 165.374 465.138C165.371 465.141 165.369 465.145 165.366 465.149C164.669 466.176 162.5 466.174 160.902 466.172C160.462 466.172 160.065 466.171 159.755 466.192C155.378 466.49 151.082 466.992 146.743 467.642C138.099 468.938 129.53 469.734 120.793 469.95C114.864 470.097 108.927 470.146 102.989 470.196C91.617 470.29 80.2396 470.384 68.9042 471.162C65.0825 471.425 61.3187 471.875 57.5595 472.594C57.2396 472.655 56.8842 472.734 56.506 472.819C53.7109 473.44 49.6645 474.34 49.388 470.434C49.0594 465.798 59.1075 465.19 64.2783 464.878C65.0677 464.83 65.7435 464.789 66.2513 464.742C81.9519 463.282 97.8988 463.508 113.666 463.732C114.43 463.742 115.194 463.753 115.957 463.764C117.187 463.781 118.417 463.801 119.647 463.821C126.398 463.933 133.141 464.044 139.889 463.631C142.96 463.443 146.072 463.346 149.189 463.25C154.162 463.096 159.149 462.941 164.013 462.414C163.279 459.57 163.151 456.214 163.03 453.051C162.983 451.819 162.937 450.617 162.857 449.485C162.43 443.456 162.317 437.415 162.205 431.373Z" fill="#353642"/>
<path fill-rule="evenodd" clip-rule="evenodd" d="M175.408 421.693C173.204 421.992 171.366 423.879 172.35 426.271C173.589 429.283 177.28 428.106 179.718 427.915C187.468 427.308 195.56 428.521 203.217 427.606C205.308 427.356 208.341 426.217 206.464 423.407C205.053 421.296 199.911 421.666 197.725 421.464C190.25 420.772 182.873 420.957 175.408 421.693Z" fill="#EFC375"/>
<path fill-rule="evenodd" clip-rule="evenodd" d="M188.488 434.834C185.483 435.036 178.486 434.877 177.219 438.297C174.947 444.432 183.846 442.27 186.556 441.921C189.703 441.516 197.123 442.601 198.799 439.549C201.796 434.091 191.124 434.652 188.488 434.834Z" fill="#EFC375"/>
<path fill-rule="evenodd" clip-rule="evenodd" d="M180.759 448.298C179.333 449.724 179.331 452.271 180.759 453.698C182.507 455.445 186.317 455.082 188.614 455.209C191.818 455.388 201.021 457.083 202.612 453.31C204.759 448.219 196.425 448.326 193.684 448.037C190.516 447.704 183.385 445.671 180.759 448.298Z" fill="#EFC375"/>
<path fill-rule="evenodd" clip-rule="evenodd" d="M68.4373 361.159C68.4373 366.632 76.9853 366.632 76.9853 361.159C76.9853 355.715 68.4373 355.632 68.4373 361.159Z" fill="#EFC375"/>
<path fill-rule="evenodd" clip-rule="evenodd" d="M84.6511 361.221C84.6511 367.478 94.3874 367.465 94.3874 361.221C94.3874 354.986 84.6511 354.922 84.6511 361.221Z" fill="#EFC375"/>
<path fill-rule="evenodd" clip-rule="evenodd" d="M74.8425 369.54C70.1097 370.847 74.4697 374.858 76.6673 375.774C80.1599 377.23 84.9265 378.304 88.42 376.12C89.81 375.251 90.9385 374.097 89.9199 372.411C88.8345 370.615 87.3485 371.414 85.6961 371.579C83.6028 371.79 81.911 371.757 79.8896 371.086C78.3809 370.585 76.4879 369.087 74.8425 369.54Z" fill="#EFC375"/>
<path fill-rule="evenodd" clip-rule="evenodd" d="M160.69 361.505C160.69 365.207 166.438 365.207 166.438 361.505C166.438 357.803 160.69 357.803 160.69 361.505Z" fill="#EFC375"/>
<path fill-rule="evenodd" clip-rule="evenodd" d="M173.402 362.062C173.402 366.175 179.788 366.176 179.788 362.062C179.788 357.949 173.402 357.949 173.402 362.062Z" fill="#EFC375"/>
<path fill-rule="evenodd" clip-rule="evenodd" d="M172.929 370.988C169.575 371.421 159.873 372.404 159.33 376.539C158.493 382.918 169.123 377.755 171.549 377.254C174.64 376.616 177.399 376.783 180.484 376.907C182.178 376.974 184.431 377.249 184.253 374.669C183.962 370.432 175.861 370.613 172.929 370.988Z" fill="#EFC375"/>
<path fill-rule="evenodd" clip-rule="evenodd" d="M88.5916 429.814C86.1603 430.463 82.9797 434.666 84.6525 437.239C87.3954 441.458 88.605 434.98 89.753 434.356C91.8416 433.222 93.5372 437.368 95.7199 435.193C99.1643 431.761 90.76 429.234 88.5916 429.814Z" fill="#353642"/>
<path fill-rule="evenodd" clip-rule="evenodd" d="M116.45 426.696C113.567 426.722 107.48 430.804 107.049 433.818C106.793 435.609 107.98 437.33 109.911 437.354C112.54 437.386 113.375 433.968 115.654 433.253C118.112 432.482 117.747 434.258 119.87 435.178C121.424 435.852 123.367 435.57 123.906 433.66C124.925 430.057 119.413 426.639 116.45 426.696Z" fill="#353642"/>
<path fill-rule="evenodd" clip-rule="evenodd" d="M94.3796 443.954C89.7678 446.656 97.3561 452.449 99.9868 453.174C103.958 454.267 111.951 452.226 112.892 447.375C113.267 445.444 112.059 443.695 109.928 444.041C108.174 444.326 107.049 446.527 105.424 447.315C103.23 448.378 101.28 448.306 99.4165 446.705C97.8981 445.4 97.0849 442.376 94.3796 443.954Z" fill="#353642"/>
<path fill-rule="evenodd" clip-rule="evenodd" d="M97.7222 483.885C93.6018 484.764 89.4134 484.174 85.2731 485.001C81.0513 485.843 78.5282 487.438 74.6058 485.831C74.4213 485.753 74.2372 485.676 74.0532 485.598C71.0173 484.29 67.8354 483.903 64.6576 485.987C62.7771 487.22 57.0684 491.486 57.7564 494.089C59.2475 499.732 65.6711 490.883 67.3091 490.021C70.4326 488.376 72.5742 490.477 75.7899 491.07C79.6418 491.78 82.7412 489.745 86.3696 488.934C90.6133 487.986 95.3873 487.656 99.7047 487.148C101.41 486.948 107.871 488.297 108.454 486.174C109.456 482.528 99.3416 483.542 97.7222 483.885Z" fill="#EFC375"/>
<path fill-rule="evenodd" clip-rule="evenodd" d="M127.449 495.25C127.719 495.454 127.503 495.29 127.449 495.25V495.25ZM138.989 483.665C142.516 483.307 153.802 480.787 156.119 484.432C157.629 486.806 155.233 495.568 152.949 496.702C151.122 497.607 146.869 496.606 144.865 496.535C141.136 496.404 137.4 496.346 133.675 496.113C132.426 496.035 128.407 496.265 127.428 495.159C126.272 493.854 126.323 486.895 126.051 485.169C129.294 486.219 135.598 484.009 138.989 483.665ZM146.521 480.091C142.004 480.287 137.487 480.626 133.003 481.232C130.504 481.57 127.971 482.468 125.663 482.894C124.919 483.031 123.711 482.65 122.799 483.091C120.132 484.379 122.467 493.089 123.11 495.415C124.098 498.99 126.583 499.569 130.066 499.905C134.653 500.35 139.334 500.21 143.936 500.154C148.371 500.099 154.352 501.082 156.841 496.632C158.45 493.754 160.175 487.053 158.8 483.846C156.991 479.626 150.236 479.935 146.521 480.091Z" fill="#EFC375"/>
<path fill-rule="evenodd" clip-rule="evenodd" d="M197.111 497.644C196.869 497.954 196.869 497.954 197.111 497.644V497.644ZM198.101 496.451C198.026 496.564 197.679 496.93 198.101 496.451V496.451ZM187.327 496.123C189.319 495.748 191.311 495.377 193.304 495.013C191.417 497.656 189.429 496.564 186.203 496.334C186.578 496.263 186.953 496.193 187.327 496.123ZM177.827 495.187C178.331 495.019 178.836 494.85 179.341 494.681C179.325 495.065 179.408 495.425 179.588 495.76C178.724 495.667 177.861 495.566 176.998 495.46C177.274 495.369 177.551 495.278 177.827 495.187ZM173.424 491.936C173.396 491.243 174.438 491.719 175.036 491.672C173.884 492.687 173.346 492.775 173.424 491.936ZM189.169 484.072C189.321 483.879 189.522 483.888 189.772 484.101C189.499 484.193 188.449 484.638 189.169 484.072ZM199.38 482.871C199.407 482.871 199.974 483.636 199.38 482.871V482.871ZM199.094 482.62C199.242 482.734 199.242 482.734 199.094 482.62V482.62ZM197.819 482.472C199.907 482.824 199.749 485.274 197.819 482.472V482.472ZM173.291 482.305C172.867 482.657 173.012 482.315 173.291 482.305V482.305ZM181.275 477.088C177.731 477.295 171.224 477.087 168.264 478.975C164.401 481.44 166.434 489.926 166.78 493.646C167.29 499.144 169.878 500.71 175.056 501.287C181.236 501.976 187.585 502.104 193.797 501.941C199.391 501.794 202.577 499.87 203.602 493.98C203.916 492.178 204.712 489.39 204.687 487.663C204.67 486.466 204.073 485.92 203.848 484.902C202.563 479.105 200.414 478.418 194.473 478.165C190.1 477.979 185.566 476.864 181.275 477.088Z" fill="#EFC375"/>
</g>
<g opacity="0.5">
<path fill-rule="evenodd" clip-rule="evenodd" d="M369.032 343.913C378.044 344.105 388.268 349.093 386.843 359.659C385.799 367.399 379.098 373.682 371.336 374.224C362.994 374.806 354.174 368.404 353.041 359.91C351.766 350.357 360.22 343.722 369.032 343.913ZM364.613 339.612C360.959 340.157 357.468 342.076 354.251 343.794C353.023 344.451 346.798 348.452 351.681 349.446C339.916 368.419 367.603 386.043 383.17 373.712C390.161 368.174 393.841 357.675 389.322 349.457C384.649 340.957 373.566 338.267 364.613 339.612Z" fill="#EFC375"/>
<path fill-rule="evenodd" clip-rule="evenodd" d="M362.459 355.762C362.459 359.306 367.959 359.306 367.959 355.762C367.959 352.218 362.459 352.218 362.459 355.762Z" fill="#EFC375"/>
<path fill-rule="evenodd" clip-rule="evenodd" d="M372.657 356.329C372.657 360.171 378.621 360.171 378.621 356.329C378.621 352.488 372.657 352.488 372.657 356.329Z" fill="#EFC375"/>
<path fill-rule="evenodd" clip-rule="evenodd" d="M365.775 363.926C364.972 366.841 374.123 368.336 374.428 364.963C374.573 363.351 366.333 361.893 365.775 363.926Z" fill="#EFC375"/>
<path fill-rule="evenodd" clip-rule="evenodd" d="M392.599 362.125C403.129 360.862 413.985 361.446 424.565 361.748C427.213 361.825 429.861 361.899 432.509 361.943C434.192 361.972 437.828 362.78 439.298 361.991C445.315 358.765 433.511 357.204 431.84 357.056C421.316 356.19 405.075 355.881 394.52 356.29C391.398 356.411 390.723 362.35 392.599 362.125Z" fill="#EFC375"/>
<path fill-rule="evenodd" clip-rule="evenodd" d="M439.98 414.469C440.07 403.437 440.466 392.33 441.314 381.33C441.659 376.847 442.074 372.37 442.417 367.886C442.579 365.775 443.329 362.817 442.088 360.964C440.809 359.055 438.003 358.658 436.312 360.35C434.288 362.97 434.876 367.367 434.624 370.537C434.237 375.41 433.77 380.28 433.537 385.164C433.088 394.616 432.983 404.233 433.743 413.673C434.102 418.127 434.879 422.473 435.914 426.817C436.385 428.795 440.132 437.603 439.345 438.818C438.124 440.702 429.099 439.99 427.141 440.042C422.117 440.177 417.092 440.265 412.067 440.361C407.765 440.443 403.463 440.502 399.16 440.54C397.452 440.555 387.414 440.251 389.641 442.784C364.741 444.519 339.366 441.622 314.618 440.629C313.368 440.578 311.323 440.223 309.435 440.121C309.209 439.209 309.023 438.395 308.977 437.828C308.652 433.851 308.567 429.86 308.214 425.884C307.569 418.608 306.318 411.407 305.574 404.144C304.831 396.889 304.906 389.612 304.473 382.339C304.399 381.093 304.224 370.885 301.648 368.404C302.869 368.867 304.839 368.928 305.973 368.836C315.153 368.096 324.266 366.5 333.368 365.131C335.972 364.74 341.881 365.017 344.041 363.716C345.91 362.589 346.65 358.638 343.398 358.958C334.322 359.93 325.296 361.439 316.292 362.924C313.883 363.321 311.481 363.746 309.079 364.18C307.475 364.47 303.241 364.448 301.997 365.415C300.486 366.589 300.326 367.388 300.838 367.919C300.126 367.723 299.273 368.031 298.248 369.056C296.31 371.578 298.132 377.789 298.363 380.746C298.64 384.293 298.777 387.845 298.938 391.399C299.25 398.275 299.97 405.056 301.076 411.85C302.316 419.46 303.371 427.102 304.614 434.71C304.937 436.691 305.359 438.623 305.898 440.537C302.549 442.249 304.826 444.973 307.481 445.456C307.5 445.46 307.52 445.462 307.539 445.466C308.367 447.485 309.525 449.355 310.429 446.65C310.498 446.442 310.531 446.187 310.539 445.9C317.398 446.676 324.938 446.194 331.691 446.47C346.319 447.068 361.037 447.965 375.68 447.51C381.477 447.33 387.291 446.815 393.039 446.042C396.407 445.589 399.788 445.048 403.102 444.297C403.339 444.243 403.7 444.187 404.117 444.118C404.185 444.116 404.254 444.114 404.318 444.114C409.393 444.037 414.463 443.901 419.533 443.69C423.789 443.513 428.064 443.422 432.306 443.021C434.941 442.772 440.51 442.818 442.127 440.168C443.598 437.759 441.139 431.552 440.79 428.846C440.176 424.08 439.941 419.27 439.98 414.469Z" fill="#EFC375"/>
<path fill-rule="evenodd" clip-rule="evenodd" d="M388.556 382.613C384.501 382.96 380.752 384.864 376.66 384.888C373.225 384.907 369.844 383.881 366.39 384.033C362.339 384.209 360.11 386.829 356.562 387.706C353.737 388.403 351.957 386.24 349.472 385.284C346.335 384.076 344.017 384.7 341.328 386.527C339.352 387.869 334.744 390.882 334.78 393.598C334.886 401.824 344.483 390.461 346.417 390.323C348.988 390.14 351.86 393.07 354.595 393.237C358.211 393.458 360.529 391.127 363.859 390.278C367.226 389.419 370.866 390.471 374.242 390.798C378.093 391.17 381.464 390.312 385.19 389.393C388.801 388.502 391.878 388.549 395.547 389.297C398.023 389.802 404.193 392.738 405.276 388.963C406.751 383.822 391.39 382.372 388.556 382.613Z" fill="#EFC375"/>
<path fill-rule="evenodd" clip-rule="evenodd" d="M389.79 398.302C381.482 399.109 373.123 399.816 364.777 400.042C361.162 400.141 347.266 398.591 348.498 403.185C349.555 407.123 368.465 404.643 372.317 404.343C376.569 404.013 380.815 403.551 385.046 403.016C386.545 402.826 390.166 403.022 391.225 401.765C392.233 400.565 391.736 398.108 389.79 398.302Z" fill="#EFC375"/>
<path fill-rule="evenodd" clip-rule="evenodd" d="M332.475 419.221C332.286 419.301 332.286 419.301 332.475 419.221V419.221ZM334.228 419.197C336.299 419.132 335.855 418.04 337.921 418.609C338.874 418.871 338.972 418.482 339.711 419.393C341.152 421.17 339.795 425.039 338.374 426.471C333.113 431.773 326.799 419.433 334.228 419.197ZM334.228 413.995C319.825 414.479 325.851 436.728 338.387 432.186C343.564 430.311 346.818 421.861 343.773 417.112C342.292 414.802 340.403 414.391 337.921 414.231C337.345 414.194 336.62 415.031 336.261 414.993C335.406 414.903 335.486 413.948 334.228 413.995Z" fill="#EFC375"/>
<path fill-rule="evenodd" clip-rule="evenodd" d="M368.671 419.982C368.414 419.903 373.218 421.3 372.693 420.753C373.815 421.92 372.306 424.679 371.037 425.16C367.964 426.327 366.24 421.548 368.671 419.982ZM370.803 413.949C366.293 414.588 362.813 416.466 362.196 421.481C361.627 426.11 364.755 430.798 369.688 430.888C380.442 431.085 380.769 412.559 370.803 413.949Z" fill="#EFC375"/>
<path fill-rule="evenodd" clip-rule="evenodd" d="M419.893 420.186C420.523 428.406 411.999 420.882 419.893 420.186V420.186ZM416.235 411.392C415.489 412.666 416.125 414.018 417.25 414.759C407.196 416.884 409.473 432.014 419.704 429.778C424.907 428.641 425.863 423.171 425.088 418.653C424.719 416.505 419.366 406.038 416.235 411.392Z" fill="#EFC375"/>
</g>
<path opacity="0.5" fill-rule="evenodd" clip-rule="evenodd" d="M440.021 419.286C437.024 419.819 429.939 423.129 430 426.684C430.096 432.234 436.118 426.172 437.458 425.357C444.653 420.978 453.973 426.652 461.466 427.86C464.901 428.413 471.621 429.436 474.655 427.134C480.051 423.04 467.572 424.065 465.982 423.9C457.344 423.008 448.75 417.727 440.021 419.286Z" fill="#EFC375"/>
<g opacity="0.5">
<path fill-rule="evenodd" clip-rule="evenodd" d="M581.586 380.268C581.583 385.946 581.296 391.742 582.343 397.352C582.66 399.051 582.91 402.304 584.701 403.185C586.501 404.07 588.246 403.076 588.693 401.231C589.215 399.085 588.071 395.872 587.955 393.619C587.796 390.54 587.785 387.458 587.784 384.376C587.783 382.15 588.515 378.569 585.887 377.424C583.934 376.572 581.586 378.156 581.586 380.268Z" fill="#EFC375"/>
<path fill-rule="evenodd" clip-rule="evenodd" d="M671.353 371.287C652.541 373.176 633.457 373.568 614.576 374.553C605.849 375.008 595.301 374.427 587.079 377.805C585.552 378.433 580.084 381.925 584.523 383.347C585.907 383.79 587.313 382.299 588.449 381.8C590.341 380.969 592.532 380.712 594.55 380.387C611.706 377.632 629.651 378.112 646.984 376.824C651.425 376.494 655.869 376.155 660.301 375.719C663.467 375.407 670.122 373.125 673.044 374.292C678.038 376.287 677.921 389.247 678.019 393.704C678.071 396.009 675.833 404.283 680.281 403.444C683.84 402.773 682.552 394.177 682.274 391.826C681.546 385.662 680.305 370.38 671.353 371.287Z" fill="#EFC375"/>
<path fill-rule="evenodd" clip-rule="evenodd" d="M678.291 403.146C661.95 404.621 645.233 403.173 628.824 403.754C620.224 404.058 611.632 404.543 603.03 404.827C599.31 404.95 595.586 404.955 591.864 404.982C590.084 404.994 581.983 406.073 586.994 409.602C589.213 411.165 596.285 409.906 598.831 409.876C602.656 409.831 606.478 409.672 610.3 409.522C619.152 409.176 627.999 408.696 636.856 408.457C645.328 408.227 653.805 408.178 662.277 407.949C666.492 407.834 670.765 407.705 674.943 407.09C675.886 406.951 678.948 406.84 679.603 405.789C680.222 404.795 679.787 403.001 678.291 403.146Z" fill="#EFC375"/>
<path fill-rule="evenodd" clip-rule="evenodd" d="M597.979 390.877C597.891 391.085 597.891 391.085 597.979 390.877V390.877ZM605.055 388.726C605.313 388.835 605.313 388.835 605.055 388.726V388.726ZM604.724 388.666C608.537 392.553 602.673 397.193 599.101 393.4C595.309 389.373 602.269 388.679 604.724 388.666ZM600.679 382.786C587.544 385.123 592.194 402.629 604.463 400.099C609.849 398.989 612.929 393.563 611.075 388.351C610.351 386.314 608.772 384.079 606.574 383.438C605.478 383.118 604.508 383.621 603.464 383.503C602.468 383.391 601.915 382.563 600.679 382.786Z" fill="#EFC375"/>
<path fill-rule="evenodd" clip-rule="evenodd" d="M650.95 387.713C643.03 387.738 635.107 388.074 627.187 388.225C624.758 388.27 618.514 387.183 618.505 391.013C618.494 395.105 625.449 393.594 627.763 393.539C635.619 393.351 643.495 393.007 651.319 392.259C653.296 392.07 660.138 392.396 660.131 389.708C660.123 386.86 652.546 387.713 650.95 387.713Z" fill="#EFC375"/>
<path fill-rule="evenodd" clip-rule="evenodd" d="M669.869 414.421C650.279 414.947 630.718 415.13 611.144 416.133C603.822 416.508 596.51 416.787 589.178 416.787C587.766 416.787 584.922 416.24 583.593 417.129C579.986 419.541 584.093 421.612 586.444 421.742C602.525 422.634 618.838 420.413 634.909 419.912C644.318 419.619 653.728 419.532 663.131 419.053C665.696 418.923 668.262 418.771 670.823 418.572C672.296 418.458 676.191 418.771 677.381 417.909C682.579 414.147 671.621 414.374 669.869 414.421Z" fill="#EFC375"/>
<path fill-rule="evenodd" clip-rule="evenodd" d="M579.986 424C579.801 429.079 579.782 434.07 580.447 439.121C580.708 441.108 580.828 443.364 583.158 443.869C585.274 444.327 586.347 442.727 586.785 440.953C587.855 436.62 586.914 430.384 586.901 425.883C586.895 423.657 586.893 421.166 584.143 420.663C582.045 420.279 580.066 421.795 579.986 424Z" fill="#EFC375"/>
<path fill-rule="evenodd" clip-rule="evenodd" d="M690.634 436.245C658.922 437.916 627.252 439.375 595.518 440.716C593.043 440.821 573.817 440.611 580.538 447.316C582.614 449.387 587.963 447.984 590.648 447.853C594.682 447.654 598.719 447.503 602.754 447.298C618.75 446.483 634.789 446.264 650.773 445.35C659.57 444.847 668.346 444.06 677.097 443.036C681.259 442.549 686.426 442.599 690.324 440.968C692.33 440.129 694.494 436.04 690.634 436.245Z" fill="#EFC375"/>
<path fill-rule="evenodd" clip-rule="evenodd" d="M672.4 410.48C669.988 412.882 671.228 417.62 671.41 420.589C671.66 424.674 671.964 428.762 672.474 432.825C672.806 435.464 672.63 439.571 674.038 441.851C675.687 444.521 679.317 444.225 680.808 441.646C682.127 439.365 681.459 434.566 681.425 432.038C681.378 428.542 681.16 425.041 680.953 421.552C680.779 418.637 681.44 413.964 679.836 411.469C678.206 408.933 674.66 408.232 672.4 410.48Z" fill="#EFC375"/>
<path fill-rule="evenodd" clip-rule="evenodd" d="M599.917 429.119C599.634 429.337 599.634 429.337 599.917 429.119V429.119ZM605.549 428.413C610.805 429.47 602.307 435.606 599.621 431.395C599.202 430.737 598.983 429.928 599.657 429.356C600.271 428.834 600.657 429.758 601.238 429.51C602.238 429.082 604.482 428.373 605.549 428.413ZM604.824 423.375C601.236 423.659 596.303 423.881 594.527 427.478C592.141 432.309 596.221 437.04 600.942 437.775C605.485 438.483 612.267 435.967 612.631 430.669C612.924 426.397 608.861 423.048 604.824 423.375Z" fill="#EFC375"/>
<path fill-rule="evenodd" clip-rule="evenodd" d="M634.781 425.93C631.067 425.99 623.765 424.892 620.529 426.702C617.327 428.494 618.755 431.684 621.676 432.447C623.607 432.951 626.763 432.138 628.773 432.056C631.418 431.948 634.064 431.925 636.711 431.888C641.161 431.828 645.609 431.879 650.06 431.879C654.605 431.879 659.229 432.003 663.766 431.669C669.508 431.246 669.353 426.947 663.738 426.41C654.2 425.497 644.351 425.78 634.781 425.93Z" fill="#EFC375"/>
<path fill-rule="evenodd" clip-rule="evenodd" d="M625.293 474.08C625.293 476.122 627.105 474.08 627.092 474.08C627.105 474.08 625.293 472.037 625.293 474.08Z" fill="#EFC375"/>
<path fill-rule="evenodd" clip-rule="evenodd" d="M584.297 457.637C584.414 463.574 584.491 469.517 584.744 475.45C584.825 477.326 584.287 480.989 586.561 481.945C589.092 483.01 589.879 480.356 590.171 478.558C591.094 472.862 590.189 466.358 590.1 460.594C590.07 458.659 590.489 455.965 588.291 455C586.498 454.212 584.261 455.674 584.297 457.637Z" fill="#EFC375"/>
<path fill-rule="evenodd" clip-rule="evenodd" d="M681.935 457.73C682.085 458.084 682.085 458.084 681.935 457.73V457.73ZM682.147 457.67C682.269 457.721 682.76 457.927 682.147 457.67V457.67ZM634.183 452.871C625.069 453.014 615.948 453.122 606.839 453.512C602.952 453.679 599.019 453.814 595.145 454.18C592.401 454.44 585.585 454.548 583.805 456.79C580.132 461.419 587.92 460.156 589.598 459.78C592.651 459.096 595.767 458.877 598.886 458.712C605.653 458.355 612.423 458.165 619.199 458.028C637.574 457.658 655.962 457.715 674.34 457.632C676.119 457.624 679.335 456.908 680.978 457.628C682.625 458.349 682.532 460.123 682.703 462.182C682.93 464.922 681.123 470.143 682.5 472.448C684.636 476.023 687.742 472.987 688.217 470.381C688.873 466.78 687.833 462.456 686.815 459.013C685.379 454.157 683.385 453.964 678.688 453.584C673.199 453.141 667.731 452.872 662.224 452.821C652.879 452.735 643.528 452.726 634.183 452.871Z" fill="#EFC375"/>
<path fill-rule="evenodd" clip-rule="evenodd" d="M670.234 477.414C650.464 479.71 630.132 478.357 610.257 478.438C605.424 478.458 600.587 478.497 595.758 478.731C593.208 478.854 587.163 478.151 585.416 480.119C581.733 484.266 588.367 484.869 590.789 484.698C595.686 484.349 600.594 484.191 605.504 484.153C622.796 484.019 640.187 484.826 657.465 483.973C664.704 483.615 671.781 482.377 678.886 480.993C680.46 480.687 691.235 478.638 685.091 476.183C681.46 474.732 674.048 476.969 670.234 477.414Z" fill="#EFC375"/>
<path fill-rule="evenodd" clip-rule="evenodd" d="M612.512 469.822C612.374 469.999 612.374 469.999 612.512 469.822V469.822ZM612.379 469.791C612.332 469.918 612.187 470.232 612.379 469.791V469.791ZM611.132 468.183C611.161 468.22 611.279 468.371 611.132 468.183V468.183ZM611.084 468.171C611.56 468.739 611.881 469.373 612.046 470.072C607.95 471.182 606.371 467.868 611.084 468.171ZM610.825 468.016C610.827 468.017 611.403 468.259 610.825 468.016V468.016ZM604.097 463.079C601.446 466.38 599.257 470.227 602.562 473.998C605.518 477.37 611.463 477.805 615.214 475.554C619.077 473.235 618.743 468.352 616.048 465.165C614.313 463.113 612.907 463.17 610.389 462.835C608.675 462.607 605.551 461.274 604.097 463.079Z" fill="#EFC375"/>
<path fill-rule="evenodd" clip-rule="evenodd" d="M631.5 469.189C631.5 473.585 650.481 471.693 653.858 471.688C656.687 471.684 673.791 473.244 672.563 468.72C671.554 465.003 654.707 466.851 651.119 466.845C648.018 466.841 631.5 464.712 631.5 469.189Z" fill="#EFC375"/>
</g>
<g opacity="0.5">
<path fill-rule="evenodd" clip-rule="evenodd" d="M383.7 510.376C393.206 511.756 403.094 516.227 403.011 527.292C402.941 536.595 395.139 546.496 385.119 545.94C376.103 545.441 367.612 535.58 366.483 527.13C365.898 522.752 366.993 518.039 369.568 514.437C372.942 509.719 378.296 509.726 383.7 510.376ZM379.21 504.362C372.334 504.399 367.304 506.886 363.049 512.136C361.523 514.018 359.748 516.044 358.586 518.177C357.501 520.169 357.691 525.234 361.415 522.859C360.498 532.665 366.229 542.182 374.467 547.207C383.422 552.669 393.544 551.604 400.997 543.948C407.819 536.94 410.22 525.103 405.229 516.436C400.241 507.774 388.683 504.269 379.21 504.362Z" fill="#EFC375"/>
<path fill-rule="evenodd" clip-rule="evenodd" d="M399.826 501.733C395.424 504.96 391.405 509.208 388.067 513.517C384.804 517.728 382.647 522.987 378.727 526.66C376.748 524.504 374.429 518.681 370.48 520.991C367.203 522.908 369.313 526.204 370.909 528.369C375.03 533.958 379.606 536.208 384.891 530.685C389.691 525.67 392.417 518.98 396.905 513.676C398.873 511.349 401.915 509.04 403.482 506.47C404.903 504.141 403.146 499.294 399.826 501.733Z" fill="#EFC375"/>
</g>
<g opacity="0.5">
<path fill-rule="evenodd" clip-rule="evenodd" d="M566.175 151.878C566.182 152.318 566.188 152.731 566.197 153.112C566.403 161.416 566.284 170.146 565.609 178.431C565.376 181.292 563.295 184.917 560.921 180.974C559.877 179.24 560.024 175.68 560.131 173.061C560.16 172.358 560.186 171.724 560.186 171.21C560.184 168.288 560.337 165.336 560.491 162.375C560.792 156.588 561.095 150.77 560.238 145.086C560.221 144.971 560.204 144.861 560.189 144.754C559.816 142.255 559.791 142.082 557.042 142.139C555.896 142.163 554.75 142.194 553.605 142.225C552.478 142.255 551.351 142.286 550.224 142.309C549.104 142.333 547.985 142.354 546.866 142.376C543.356 142.443 539.846 142.511 536.337 142.639C535.752 142.661 534.659 142.798 533.281 142.971C530.524 143.316 526.624 143.806 523.342 143.803C523.343 143.817 523.344 143.831 523.345 143.845C523.347 143.871 523.349 143.896 523.349 143.922C523.386 145.734 522.919 147.756 522.45 149.788C522.058 151.49 521.664 153.199 521.563 154.795C521.322 158.594 521.319 162.433 521.317 166.273C521.313 170.948 521.31 175.623 520.877 180.225C520.856 180.45 520.843 180.687 520.83 180.927C520.829 180.959 520.827 180.991 520.825 181.023C520.974 181 521.118 180.984 521.257 180.975C523.623 180.825 526.008 180.812 528.39 180.798C529.704 180.791 531.016 180.784 532.323 180.753C534.671 180.699 537.048 180.702 539.434 180.704C544.701 180.71 550.015 180.716 555.167 180.109C556.689 179.912 557.221 181.863 556.538 182.875C555.927 183.781 554.244 183.928 553.012 184.035C552.699 184.063 552.415 184.087 552.185 184.121C548.862 184.613 545.495 184.785 542.142 184.934C538.621 185.09 535.096 185.206 531.573 185.304C530.734 185.328 529.615 185.441 528.374 185.566C525.097 185.897 520.972 186.314 518.925 185.388C516.724 184.392 516.776 183.287 517.674 182.431C517.28 181.564 517.218 180.299 517.169 179.309C517.151 178.931 517.134 178.593 517.102 178.333C516.614 174.392 516.319 170.501 516.312 166.526C516.298 158.74 516.314 150.653 518.468 143.116C517.605 142.738 517.085 142.181 517.087 141.379C517.097 137.335 529.682 137.541 535.665 137.639C536.735 137.656 537.593 137.67 538.131 137.656C542.489 137.542 546.848 137.527 551.207 137.551C552.128 137.556 553.153 137.495 554.215 137.433C556.474 137.3 558.901 137.158 560.852 137.611C565.978 138.801 566.101 146.965 566.175 151.878Z" fill="#EFC375"/>
<path fill-rule="evenodd" clip-rule="evenodd" d="M598.235 138.497C602.994 138.245 607.756 138.188 612.521 138.17C617.566 138.145 622.618 138.235 627.661 138.39L627.778 138.394C630.012 138.461 642.432 138.834 636.726 141.929C636.394 142.11 636.019 142.26 635.61 142.386C635.852 143.819 635.881 145.298 635.842 146.011C635.695 148.714 635.598 151.421 635.501 154.127C635.435 155.961 635.369 157.795 635.287 159.628C635.063 164.692 634.849 169.757 634.675 174.824C634.653 175.446 634.686 176.259 634.723 177.166C634.844 180.163 635.007 184.18 633.379 185.665C631.95 186.968 630.974 186.707 630.316 185.821C626.228 187.009 617.832 186.623 613.611 186.429C612.593 186.382 611.819 186.346 611.405 186.346C610.665 186.347 609.289 186.439 607.553 186.556C600.324 187.041 586.829 187.948 586.802 184.384C586.799 184.041 586.91 183.734 587.12 183.458C586.547 182.874 586.032 182.016 585.701 180.945C584.513 177.101 584.401 172.954 584.313 168.968C584.188 163.34 584.187 157.705 584.186 152.072C584.185 149.178 584.184 146.285 584.167 143.394C583.394 142.356 583.853 141.169 584.817 140.341C586.87 138.579 591.966 138.558 595.652 138.542C596.644 138.538 597.534 138.534 598.235 138.497ZM590.491 181.895C595.078 180.916 602.807 181.231 606.947 181.4C608.032 181.444 608.87 181.478 609.342 181.476C613.571 181.46 617.801 181.519 622.027 181.688C622.465 181.705 623.113 181.689 623.877 181.669C625.412 181.631 627.412 181.58 629.111 181.769C629.088 181.538 629.073 181.328 629.064 181.146C628.873 177.384 629.011 173.59 629.147 169.817C629.176 169.015 629.205 168.214 629.231 167.415C629.322 164.594 629.442 161.774 629.563 158.955V158.953C629.639 157.178 629.714 155.403 629.783 153.628C629.813 152.849 629.768 151.79 629.718 150.6C629.616 148.178 629.49 145.208 629.924 142.926C628.359 142.897 626.756 142.786 625.285 142.684C623.869 142.586 622.575 142.497 621.558 142.496C620.268 142.496 618.979 142.492 617.689 142.488C614.115 142.477 610.543 142.466 606.969 142.537C606.631 142.544 606.292 142.55 605.952 142.557C601.032 142.652 596.07 142.748 591.191 143.396C590.905 143.434 590.562 143.507 590.181 143.596C590.716 145.832 590.454 148.983 590.225 151.742C590.113 153.082 590.009 154.33 590.008 155.336C590.001 161.592 590.166 167.823 590.331 174.048V174.049C590.394 176.404 590.456 178.757 590.509 181.111C590.516 181.392 590.509 181.653 590.491 181.895Z" fill="#EFC375"/>
<path fill-rule="evenodd" clip-rule="evenodd" d="M538.284 185.123C535.157 186.95 536.843 194.259 537.927 196.786C539.708 200.943 543.322 204.195 547.222 206.352C555.104 210.712 566.466 209.554 572.427 217.114C572.489 217.192 574.549 219.232 575.018 216.59C575.403 214.422 571.557 211.111 570.066 210.025C565.827 206.934 560.391 205.938 555.488 204.394C550.259 202.748 544.521 199.713 542.328 194.322C541.552 192.413 543.032 182.337 538.284 185.123Z" fill="#EFC375"/>
<path fill-rule="evenodd" clip-rule="evenodd" d="M609.779 188.637C606.913 189.427 608.809 193.371 608.804 195.345C608.799 197.809 608.011 200.387 606.493 202.353C602.643 207.338 595.104 208.085 589.452 209.515C585.348 210.553 575.529 212.78 575.145 218.331C574.716 224.529 583.384 216.986 584.117 216.677C592.219 213.705 602.701 213.131 608.955 206.589C611.536 203.888 613.062 200.284 613.305 196.564C613.441 194.469 613.465 187.63 609.779 188.637Z" fill="#EFC375"/>
<path fill-rule="evenodd" clip-rule="evenodd" d="M550.561 243.616C550.494 232.148 561.469 225.21 571.394 222.601C583.322 219.458 594.434 227.816 595.84 239.84C597.324 252.529 587.761 262.744 575.149 263.304C564.055 263.796 550.632 255.853 550.561 243.616ZM577.207 228.115C577.853 228.992 578.435 230.392 577.135 231.154C575.885 231.883 575.26 231.007 574.632 230.125C574.234 229.568 573.836 229.009 573.276 228.851C571.826 228.443 569.496 229.968 568.288 230.857C567.798 231.218 567.1 231.995 566.284 232.904C563.688 235.795 559.898 240.017 557.802 236.384C549.446 250.813 570.279 261.612 582.124 256.151C595.134 250.154 592.602 228.229 577.207 228.115Z" fill="#EFC375"/>
<path fill-rule="evenodd" clip-rule="evenodd" d="M566.289 239.777C566.289 242.409 570.446 242.409 570.446 239.777C570.446 237.174 566.289 237.063 566.289 239.777Z" fill="#EFC375"/>
<path fill-rule="evenodd" clip-rule="evenodd" d="M573.603 239.283C573.603 242.507 578.697 242.507 578.697 239.283C578.697 236.095 573.603 235.959 573.603 239.283Z" fill="#EFC375"/>
<path fill-rule="evenodd" clip-rule="evenodd" d="M568.369 246.796C564.203 249.247 576.117 254.116 576.587 249.14C576.79 246.993 574.711 247.572 573.325 247.415C571.999 247.263 569.627 246.064 568.369 246.796Z" fill="#EFC375"/>
<path fill-rule="evenodd" clip-rule="evenodd" d="M566.562 264.181C566.743 270.44 566.656 276.696 567.843 282.867C568.069 284.039 568.225 288.29 569.152 289.161C571.431 291.303 571.468 287.199 571.557 285.625C571.873 279.99 571.281 274.179 571.151 268.532C571.123 267.316 571.445 264.799 570.871 263.622C569.961 261.755 566.473 261.2 566.562 264.181Z" fill="#EFC375"/>
<path fill-rule="evenodd" clip-rule="evenodd" d="M562.106 259.106C552.973 269.357 540.396 268.602 527.726 269.5C521.032 269.974 514.263 270.948 508.876 275.278C506.37 277.293 504.21 279.816 502.758 282.691C502.124 283.948 499.114 291.201 503.634 289.481C505.238 288.87 506.816 284.074 507.852 282.655C509.827 279.953 512.354 277.722 515.385 276.272C521.232 273.475 528.214 273.523 534.554 273.168C541.181 272.797 548.294 272.45 554.386 269.568C557.252 268.212 559.94 266.522 562.247 264.343C563.071 263.564 564.838 262.241 564.97 261.05C565.12 259.689 563.812 257.197 562.106 259.106Z" fill="#EFC375"/>
<path fill-rule="evenodd" clip-rule="evenodd" d="M516 290.569C507.421 290.856 498.852 291.203 490.285 291.746C488.53 291.857 482.676 291.502 484.167 295.1C485.362 297.983 492.501 296.076 494.862 295.936C503.789 295.406 512.753 295.222 521.662 294.419C523.663 294.239 532.709 294.31 528.973 290.764C527.196 289.076 518.455 290.486 516 290.569Z" fill="#EFC375"/>
<path fill-rule="evenodd" clip-rule="evenodd" d="M478.719 294.707C476.015 298.259 477.258 306.891 477.462 311.161C477.66 315.298 476.856 322.863 482.257 323.505C480.542 323.28 483.559 323.609 484.05 323.635C485.146 323.694 486.248 323.713 487.346 323.725C489.883 323.753 492.421 323.719 494.957 323.668C500.702 323.554 506.462 323.386 512.2 323.069C514.612 322.935 527.696 323.047 528.214 320.541C528.876 317.339 516.331 319.151 514.085 319.253C508.616 319.504 503.138 319.557 497.664 319.628C494.951 319.664 492.235 319.691 489.522 319.638C488.401 319.616 483.965 320.076 483.284 319.328C482.703 318.692 483.156 312.842 483.144 311.947C483.104 309.03 483.107 306.107 483.211 303.191C483.281 301.228 484.342 297.493 483.477 295.649C482.636 293.856 480.185 293.244 478.719 294.707Z" fill="#EFC375"/>
<path fill-rule="evenodd" clip-rule="evenodd" d="M522.895 294.873C523.052 301.371 523.1 307.999 524.635 314.354C525.146 316.468 525.861 320.829 527.986 321.924C530.215 323.073 532.141 321.433 532.286 319.223C532.47 316.446 530.982 312.799 530.677 309.949C530.321 306.624 530.114 303.296 529.992 299.954C529.9 297.441 530.664 293.673 528.268 292.053C526.116 290.597 522.825 292.063 522.895 294.873Z" fill="#EFC375"/>
<path fill-rule="evenodd" clip-rule="evenodd" d="M539.968 293.287C537.3 295.945 538.492 304.36 538.826 307.775C539.07 310.276 541.808 322.581 545.91 316.164C547.725 313.326 545.419 305.821 545.436 302.511C545.446 300.403 546.192 297.738 545.832 295.713C545.356 293.037 542.388 290.87 539.968 293.287Z" fill="#EFC375"/>
<path fill-rule="evenodd" clip-rule="evenodd" d="M558.443 291.093C566.457 290.266 574.481 289.646 582.54 289.569C582.927 289.566 583.333 289.561 583.756 289.556C589.279 289.486 597.579 289.38 601.296 293.528C603.321 295.787 604.238 299.28 605.038 302.325C605.187 302.892 605.332 303.445 605.48 303.971C605.605 304.42 605.769 304.932 605.946 305.486C606.781 308.1 607.911 311.637 606.765 313.826C606.137 315.027 605.126 316.051 603.591 315.626C603.233 315.526 602.952 315.399 602.732 315.249C603.32 315.885 603.58 316.792 603.198 317.678C602.46 319.392 600.129 319.429 598.291 319.457C597.846 319.464 597.43 319.471 597.072 319.501C590.953 320.011 584.806 320.351 578.666 320.405C575.742 320.43 572.818 320.406 569.894 320.383C566.885 320.358 563.875 320.333 560.866 320.363C558.681 320.384 556.457 320.592 554.231 320.8C551.422 321.062 548.611 321.324 545.878 321.212C543.834 321.128 541.651 320.459 542.169 317.817C542.592 315.66 544.622 315.472 546.441 315.303C546.599 315.289 546.756 315.274 546.91 315.258C552.703 314.669 558.498 314.46 564.32 314.481C576.551 314.523 588.773 314.46 601.003 314.396C601.506 314.438 601.979 314.63 602.369 314.922C601.929 314.388 601.938 313.676 601.947 312.919C601.951 312.576 601.955 312.223 601.918 311.874C601.843 311.171 601.775 310.471 601.706 309.772C601.48 307.463 601.256 305.171 600.815 302.849C600.749 302.498 600.685 302.112 600.617 301.704C600.216 299.293 599.686 296.098 597.769 294.796C595.841 293.487 592.061 293.55 589.115 293.599C588.32 293.612 587.585 293.624 586.964 293.608C579.103 293.405 571.197 293.964 563.371 294.675C562.77 294.73 562.168 294.782 561.565 294.835C558.588 295.094 555.595 295.355 552.661 295.887C552.124 295.985 551.304 296.271 550.363 296.6C547.86 297.473 544.503 298.644 543.362 297.354C539.584 293.081 556.189 291.326 558.443 291.093Z" fill="#EFC375"/>
<path fill-rule="evenodd" clip-rule="evenodd" d="M643.707 281.363C644.056 281.811 644.056 281.811 643.707 281.363V281.363ZM589.473 254.887C584.605 257.748 593.614 266.143 595.909 267.441C601.073 270.363 608.17 270.804 613.936 271.625C621.234 272.666 629.176 273.049 636.19 275.44C639.179 276.459 641.077 278.049 643.034 280.493C644.026 281.732 646.413 287.069 648.587 285.805C652.965 283.261 641.169 272.583 638.57 271.435C632.662 268.825 625.678 268.094 619.361 267.081C613.487 266.138 607.486 265.437 601.757 263.775C598.607 262.862 596.368 261.388 594.552 258.567C593.42 256.809 592.492 253.121 589.473 254.887Z" fill="#EFC375"/>
<path fill-rule="evenodd" clip-rule="evenodd" d="M664.091 287.681C658.479 287.806 652.878 288.238 647.278 288.669C644.136 288.911 640.995 289.153 637.853 289.341C636.87 289.4 635.886 289.453 634.902 289.506C632.133 289.655 629.361 289.804 626.606 290.083C626.188 290.125 625.703 290.165 625.174 290.208C622.834 290.4 619.644 290.662 617.605 291.516C615.736 290.102 612.851 291.304 612.806 293.824C612.729 298.414 612.771 302.923 613.331 307.485C613.461 308.544 614.13 313.905 615.586 316.696C615.068 319.332 617.315 320.07 619.406 320.272C627.506 321.054 635.999 320.447 644.378 319.849C648.639 319.544 652.871 319.242 657.006 319.125C658.381 319.086 659.774 319.071 661.175 319.055C665.747 319.004 670.407 318.952 674.833 318.087C675.011 318.052 675.202 318.018 675.402 317.982C677.152 317.669 679.565 317.236 679.749 315.31C679.859 314.154 679.207 313.096 678.116 312.947C678.191 311.984 678.07 310.933 677.981 310.161C677.96 309.981 677.941 309.816 677.927 309.671C677.661 306.993 676.994 304.332 676.335 301.705C676.187 301.114 676.04 300.525 675.897 299.939C675.739 299.289 675.593 298.515 675.435 297.682C674.879 294.739 674.179 291.042 672.32 289.325C670.369 287.525 667.194 287.604 664.65 287.668C664.46 287.673 664.273 287.678 664.091 287.681ZM673.966 313.235C673.301 311.493 673.106 309.138 672.921 306.899C672.805 305.494 672.692 304.134 672.47 303.001C672.302 302.151 672.165 301.255 672.026 300.344C671.688 298.131 671.337 295.832 670.506 293.893C669.394 291.296 668.404 291.395 666.062 291.63C665.627 291.674 665.144 291.722 664.606 291.759C662.219 291.921 659.834 292.127 657.45 292.334C656.306 292.433 655.162 292.532 654.018 292.626C649.122 293.028 644.223 293.338 639.324 293.647C636.462 293.828 633.599 294.008 630.737 294.208C628.491 294.364 626.298 294.791 624.115 295.216C622.386 295.553 620.662 295.889 618.922 296.088C618.897 296.683 618.847 297.28 618.799 297.849C618.734 298.624 618.674 299.346 618.687 299.937C618.744 302.559 618.975 305.164 619.207 307.774C619.243 308.175 619.278 308.576 619.313 308.978C619.355 309.459 619.459 310.077 619.574 310.763C619.751 311.824 619.956 313.046 620.001 314.171C620.213 314.17 620.424 314.171 620.631 314.171C620.899 314.172 621.162 314.173 621.415 314.169C627.583 314.061 633.747 313.874 639.912 313.637C640.699 313.607 641.486 313.576 642.273 313.546C647.773 313.332 653.273 313.117 658.778 313.054C660.965 313.029 663.18 313.098 665.403 313.167C668.262 313.255 671.132 313.344 673.966 313.235Z" fill="#EFC375"/>
</g>
</svg>
