<svg width="318" height="461" viewBox="0 0 318 461" fill="none" xmlns="http://www.w3.org/2000/svg">
<path d="M96.713 433.421C94.0221 434.28 90.8035 436.168 90.4867 440.633C90.1176 445.613 93.8638 448.533 96.8715 449.563C108.216 453.598 119.929 454.114 131.59 454.629C193.219 457.033 254.847 457.462 316.477 455.831C315.58 443.553 306.609 438.229 299.169 435.911C267.194 425.951 234.111 431.618 202.716 421.057C169.633 409.809 129.374 422.517 96.713 433.421Z" fill="url(#paint0_linear_14_1011)"/>
<path d="M96.713 433.421C94.0221 434.28 90.8035 436.168 90.4867 440.633C90.1176 445.613 93.8638 448.533 96.8715 449.563C108.216 453.598 119.929 454.114 131.59 454.629C193.219 457.033 254.847 457.462 316.477 455.831C315.58 443.553 306.609 438.229 299.169 435.911C267.194 425.951 234.111 431.618 202.716 421.057C169.633 409.809 129.374 422.517 96.713 433.421Z" fill="url(#paint1_linear_14_1011)"/>
<path d="M264.547 352.536C265.233 352.193 265.972 352.536 266.658 352.88C269.665 354.511 272.62 356.658 275.258 359.491C276.578 360.865 277.897 362.411 278.53 364.729C279.11 366.875 279.057 369.279 278.952 371.512C278.002 399.159 277.105 426.892 276.155 454.54C276.102 456.343 275.944 458.318 275.1 459.434C274.045 460.722 272.567 459.864 271.407 459.005C260.062 450.934 248.771 442.777 237.426 434.706C231.992 430.842 226.399 426.721 222.388 419.594C225.449 408.604 231.886 401.306 237.796 393.922C246.977 382.416 255.419 369.193 262.859 354.769C263.281 353.91 263.808 352.879 264.547 352.536Z" fill="#DDC199"/>
<path d="M318 210.08C315.203 209.049 312.353 208.019 309.557 206.989C293.095 256.187 278.532 307.104 265.974 359.308C268.876 362.313 272.728 365.404 275.524 362.141C276.685 360.767 277.371 358.535 278.004 356.388C292.251 308.306 305.6 259.536 318 210.08Z" fill="#BDB39B"/>
<g opacity="0.26">
<path opacity="0.26" d="M266.122 449.465C266.069 450.409 266.966 450.752 267.072 449.808C269.341 421.903 272.559 394.513 276.727 367.209C276.991 365.492 275.355 364.977 275.092 366.693C270.765 393.74 267.758 421.559 266.122 449.465Z" fill="#272525"/>
<path opacity="0.26" d="M248.251 437.156C255.217 413.287 262.604 389.761 270.413 366.578C270.888 365.205 269.515 364.089 269.041 365.462C260.915 388.817 253.581 412.858 246.88 437.328C246.985 437.5 247.038 437.672 247.091 437.844C247.46 437.414 247.83 437.242 248.251 437.156Z" fill="#272525"/>
<path opacity="0.26" d="M236.897 421.458C248.557 403.599 258.952 383.765 268.028 362.299C268.608 360.839 267.13 359.637 266.55 361.097C257.633 382.476 247.397 402.225 235.947 420.084C235.366 421.028 236.316 422.403 236.897 421.458Z" fill="#272525"/>
</g>
<path d="M156.019 377.019C156.072 375.731 156.177 374.357 156.23 373.069C149.265 365.342 137.024 367.831 129.637 371.781C121.722 375.988 121.722 383.888 121.827 397.282C121.88 404.838 122.302 413.338 125.89 418.233C128.634 422.01 132.486 422.525 136.074 422.869C139.292 423.213 142.458 423.47 145.677 423.813C147.893 423.985 150.373 424.071 152.114 421.753C153.855 419.348 154.119 415.313 154.33 411.621C154.911 400.03 155.491 388.524 156.019 377.019Z" fill="#2F3F47"/>
<path d="M164.522 377.019C164.469 375.731 164.363 374.357 164.31 373.069C171.275 365.342 183.517 367.831 190.904 371.781C198.819 375.988 198.818 383.888 198.713 397.282C198.66 404.838 198.238 413.338 194.65 418.233C191.906 422.01 188.054 422.525 184.466 422.869C181.248 423.213 178.082 423.47 174.863 423.813C172.647 423.985 170.167 424.071 168.426 421.753C166.685 419.348 166.421 415.313 166.21 411.621C165.683 400.03 165.102 388.524 164.522 377.019Z" fill="#2F3F47"/>
<path d="M105.097 348.336C103.356 348.937 101.667 349.796 100.032 350.912C98.8181 351.685 97.6045 352.715 96.7603 354.261C95.5995 356.493 95.2827 359.585 95.0719 362.59C94.8079 366.54 94.7025 370.489 94.755 374.438C94.755 377.787 94.9136 381.222 95.9689 384.055C97.4462 388.005 100.348 389.808 103.092 390.924C108.316 393.071 113.75 393.585 119.132 394.015C151.688 396.591 184.349 394.873 216.746 388.949C218.065 388.692 219.543 388.349 220.44 386.717C220.967 385.773 221.231 384.484 221.495 383.282C223.183 374.524 224.292 362.59 220.651 354.433C217.538 347.478 211.787 351.427 207.46 351.341C203.028 351.256 198.543 350.655 194.11 350.397C185.457 349.796 176.804 349.195 168.15 348.766C155.962 348.079 143.72 347.478 131.532 346.963C123.301 346.705 113.592 345.246 105.097 348.336Z" fill="#516770"/>
<path d="M175.064 159.87C197.173 160.041 219.228 160.814 241.336 161.587C240.808 142.44 239.964 123.292 237.432 104.575C233.052 71.7755 223.027 39.7491 206.09 20.6019C180.13 -8.76287 138.921 -4.89931 110.956 24.122C99.1893 36.3144 89.7445 53.0576 84.7847 73.5783C79.0864 97.0186 77.556 122.606 76.6589 147.763C76.5535 151.112 76.4478 154.375 76.3423 157.723C109.162 155.662 142.192 159.698 175.064 159.87Z" fill="#EAF1F2"/>
<path d="M173.293 169.49C140.896 169.404 108.393 165.626 75.9962 167.515C74.4132 224.699 75.8908 282.141 80.4283 338.981C81.0617 346.795 81.8531 354.951 85.0188 361.133C89.926 370.664 98.4209 366.457 105.016 366.457C116.15 366.457 127.6 367.23 138.839 367.659C160.05 368.432 181.103 368.518 202.208 364.654C212.234 362.851 232.495 367.831 237.296 353.148C241.254 341.214 239.618 317 240.198 303.692C240.884 287.893 241.412 272.18 241.729 256.382C242.309 227.961 242.203 199.541 241.517 171.035C218.829 170.348 196.035 169.49 173.293 169.49Z" fill="#E2ECED"/>
<path d="M249.803 262.029C250.225 261.428 250.278 260.398 250.331 259.539C251.438 235.755 252.388 211.971 253.074 188.187C253.127 186.126 253.127 183.722 252.124 182.349C251.386 181.404 250.436 181.319 249.486 181.319C246.215 181.232 242.996 181.147 239.725 181.147C237.667 208.193 236.823 235.411 237.245 262.63C240.885 262.63 244.473 262.716 248.114 262.716C248.694 262.716 249.328 262.715 249.803 262.029Z" fill="#2F3F47"/>
<path d="M266.619 316.815C267.04 314.84 267.516 312.779 268.465 311.319C269.204 310.203 270.206 309.516 271.156 309.001C275.272 306.597 279.493 304.794 283.767 303.592C287.091 307.284 290.099 311.663 292.684 316.729C293.159 317.674 293.634 318.704 293.739 319.906C293.845 320.85 293.686 321.795 293.528 322.74C291.84 333.3 290.204 343.861 288.516 354.422C286.036 354.937 283.556 355.023 281.129 354.508C282.078 348.069 283.028 341.629 283.925 335.275C284.822 329.179 285.508 321.709 282.659 317.416C279.757 318.618 276.908 319.906 274.006 321.108C273.531 321.28 273.003 321.537 272.581 322.052C272.106 322.739 271.895 323.77 271.684 324.714C270.47 330.725 269.573 336.907 268.94 343.174C267.093 342.316 265.247 341.543 263.4 340.684C263.242 332.527 264.93 324.542 266.619 316.815Z" fill="#2F3F47"/>
<path d="M289.047 307.549C289.205 307.291 289.258 306.948 289.311 306.691C289.838 302.827 290.366 298.963 290.946 295.185C287.253 293.811 283.454 292.867 279.708 292.351C279.127 295.528 278.758 298.877 278.6 302.225C278.547 302.913 278.547 303.771 278.863 304.286C279.074 304.63 279.338 304.715 279.602 304.887C282.399 306.261 285.301 307.291 288.256 307.892C288.467 307.806 288.783 307.892 289.047 307.549Z" fill="#516770"/>
<path d="M292.744 292.522C294.961 286.426 293.166 270.369 293.166 263.929C293.114 255.086 293.114 246.156 291.847 237.57C290.581 228.984 287.995 220.569 283.722 215.16C281.294 212.069 278.445 210.095 275.49 208.463C266.679 203.569 257.234 201.938 248 203.741C247.262 203.912 246.47 204.084 245.943 204.943C245.362 205.801 245.256 207.175 245.151 208.463C244.729 213.357 244.148 218.766 244.307 223.747C244.571 232.504 243.463 230.1 247.367 232.59C250.375 234.479 256.021 232.934 259.45 234.222C263.46 235.681 267.365 237.914 271.269 240.146C273.749 241.52 276.387 243.237 277.654 246.929C278.34 248.904 278.551 251.309 278.709 253.627C279.659 267.365 280.081 281.188 280.028 295.012C280.028 297.416 290.897 296.214 292.322 293.552C292.48 293.209 292.586 292.865 292.744 292.522Z" fill="#E2ECED"/>
<g opacity="0.15">
<path opacity="0.15" d="M274.279 212.419C273.962 220.662 272.643 228.131 270.638 235.687C270.269 237.147 271.377 238.263 271.957 236.976C275.123 229.763 276.759 221.177 277.339 212.419C277.55 209.327 274.437 209.241 274.279 212.419Z" fill="#272525"/>
<path opacity="0.15" d="M282.359 218.328C281.462 226.313 279.246 231.551 275.763 237.218C275.289 237.99 275.921 239.278 276.449 238.677C278.823 236.273 281.039 234.728 282.728 230.863C284.311 227.257 285.366 223.394 285.683 219.015C285.894 216.01 282.728 215.323 282.359 218.328Z" fill="#272525"/>
</g>
<path d="M70.8159 181.834C70.3937 182.435 70.3411 183.465 70.2883 184.324C69.1804 208.107 68.2305 231.891 67.5445 255.675C67.4917 257.736 67.4917 260.14 68.4942 261.514C69.2329 262.458 70.1829 262.544 71.1325 262.544C74.4039 262.63 77.6224 262.716 80.8938 262.716C82.9516 235.669 83.7958 208.45 83.3739 181.232C79.7331 181.232 76.1452 181.147 72.5044 181.147C71.9241 181.147 71.2382 181.146 70.8159 181.834Z" fill="#2F3F47"/>
<path d="M29.9172 152.575C30.0755 154.636 30.2336 156.868 29.7588 158.757C29.3894 160.302 28.7037 161.591 27.965 162.792C24.9574 167.858 21.6861 172.581 18.1509 176.788C14.1408 175.929 10.2363 174.126 6.59551 171.464C5.90958 170.949 5.17069 170.434 4.74859 169.404C4.43199 168.631 4.27378 167.686 4.16825 166.742C2.79639 156.095 1.37187 145.363 0 134.716C2.0578 132.483 4.27391 130.594 6.59551 129.22C7.49252 135.66 8.44206 142.1 9.33903 148.539C10.236 154.635 11.6607 161.848 15.3542 163.565C17.6231 160.388 19.8393 157.211 22.1082 154.034C22.4776 153.519 22.8997 152.919 23.1107 152.146C23.3746 151.201 23.2688 150.084 23.1632 149.054C22.5828 142.786 21.7387 136.605 20.5779 130.508C22.4774 129.907 24.3242 129.306 26.2237 128.705C28.6508 136.003 29.284 144.418 29.9172 152.575Z" fill="#2F3F47"/>
<path d="M12.3851 177.065C12.3323 177.408 12.3851 177.752 12.3851 178.01C12.9655 181.874 13.546 185.651 14.0736 189.515C17.7671 188.055 21.4078 186.166 24.943 183.934C24.6264 180.671 24.046 177.408 23.2545 174.317C23.0962 173.63 22.8854 172.944 22.4633 172.686C22.1995 172.514 21.9354 172.6 21.6189 172.686C18.7168 173.459 15.8676 174.661 13.0711 176.207C12.8073 176.378 12.4906 176.636 12.3851 177.065Z" fill="#516770"/>
<path d="M13.1891 193.181C12.8198 200.222 18.8348 213.273 20.6288 219.112C23.0559 227.011 25.536 234.996 29.0184 241.78C32.5007 248.562 37.0911 254.229 42.4203 255.946C45.4281 256.977 48.5409 256.719 51.6012 256.032C60.8352 254.057 69.7523 248.734 77.5088 240.405C78.1418 239.718 78.7749 239.032 79.0389 237.829C79.3026 236.628 79.0389 235.339 78.8278 234.052C77.8253 229.329 76.9282 224.092 75.3981 219.713C72.7598 212.071 74.4485 213.444 70.2271 213.96C67.0086 214.389 62.3653 219.885 58.9356 221.258C54.9254 222.89 50.8098 223.662 46.7471 224.521C44.1616 225.037 41.3125 225.466 39.1489 223.062C37.9882 221.773 37.144 219.799 36.4052 217.824C31.8148 206.232 27.6464 194.126 23.9001 181.676C23.2669 179.53 13.8749 188.459 13.2945 191.893C13.2417 192.409 13.1891 192.752 13.1891 193.181Z" fill="#E2ECED"/>
<g opacity="0.15">
<path opacity="0.15" d="M51.5453 251.548C49.5933 243.906 48.7491 236.264 48.4325 228.022C48.3797 226.391 47.0603 226.219 46.9021 227.85C46.0579 236.608 46.9024 245.452 48.8019 253.695C49.4879 256.7 52.337 254.467 51.5453 251.548Z" fill="#272525"/>
<path opacity="0.15" d="M42.739 252.16C41.3672 244.347 41.8948 238.079 43.4778 230.437C43.689 229.407 42.7919 228.72 42.4225 229.578C40.9978 233.442 39.4151 236.447 38.9403 241.084C38.518 245.463 38.6237 249.67 39.5734 253.791C40.2064 256.797 43.2138 255.079 42.739 252.16Z" fill="#272525"/>
</g>
<path d="M91.0721 103.719C91.1249 106.982 91.23 110.33 92.0742 113.335C94.2377 120.806 99.9363 123.21 104.949 124.583C133.6 132.397 162.884 135.059 191.693 129.134C195.492 128.362 199.291 127.417 202.774 124.841C206.256 122.266 209.369 117.886 210.636 112.134C211.427 108.441 211.48 104.492 211.533 100.542C211.585 96.5928 211.585 92.557 211.638 88.6073C211.638 86.804 211.638 85.0012 211.216 83.2838C210.741 81.481 209.792 80.0212 208.789 78.905C204.99 74.6978 200.189 73.7531 195.598 72.9805C165.1 68.0005 134.233 63.6212 103.894 70.3185C102.628 70.5765 101.308 70.9196 100.411 72.3793C99.9363 73.066 99.6198 74.0106 99.145 74.6978C98.2479 75.814 97.0343 75.728 95.9793 76.3291C93.0244 77.8749 91.9691 83.7995 91.5997 88.8654C91.1775 93.7593 91.0195 98.7392 91.0721 103.719Z" fill="#2F3F47"/>
<path opacity="0.2" d="M129.269 110.948C130.272 107.943 130.43 104.423 130.219 100.988C130.113 98.9275 129.797 96.7812 129.005 95.2359C127.317 91.9728 124.204 92.3163 121.618 91.5437C119.349 93.089 117.45 96.094 116.5 99.7862C115.92 102.019 115.656 104.423 115.814 106.827C116.183 111.721 118.663 115.929 121.618 116.787C124.626 117.818 127.845 115.327 129.269 110.948Z" fill="#EAF1F2"/>
<path opacity="0.2" d="M179.508 110.948C180.511 107.943 180.669 104.423 180.458 100.988C180.353 98.9275 180.036 96.7812 179.245 95.2359C177.556 91.9728 174.443 92.3163 171.858 91.5437C169.589 93.089 167.689 96.094 166.74 99.7862C166.159 102.019 165.895 104.423 166.053 106.827C166.423 111.721 168.903 115.929 171.858 116.787C174.813 117.818 178.031 115.327 179.508 110.948Z" fill="#EAF1F2"/>
<defs>
<linearGradient id="paint0_linear_14_1011" x1="90.4964" y1="436.726" x2="316.537" y2="436.726" gradientUnits="userSpaceOnUse">
<stop stop-color="#4D4D4D"/>
<stop offset="1"/>
</linearGradient>
<linearGradient id="paint1_linear_14_1011" x1="90.4964" y1="436.726" x2="316.537" y2="436.726" gradientUnits="userSpaceOnUse">
<stop/>
<stop offset="1"/>
</linearGradient>
</defs>
</svg>
