<svg width="551" height="811" viewBox="0 0 551 811" fill="none" xmlns="http://www.w3.org/2000/svg">
<path d="M278.76 64V36H283.92V64H278.76ZM260.76 64V36H265.92V64H260.76ZM262.92 52.44V47.64H281.24V52.44H262.92ZM300.424 64.4C298.211 64.4 296.251 63.9467 294.544 63.04C292.864 62.1067 291.544 60.84 290.584 59.24C289.651 57.6133 289.184 55.7467 289.184 53.64C289.184 51.9867 289.451 50.48 289.984 49.12C290.517 47.76 291.264 46.5867 292.224 45.6C293.184 44.5867 294.317 43.8133 295.624 43.28C296.957 42.72 298.397 42.44 299.944 42.44C301.357 42.44 302.651 42.7067 303.824 43.24C305.024 43.7733 306.064 44.5067 306.944 45.44C307.824 46.3467 308.491 47.44 308.944 48.72C309.424 49.9733 309.651 51.3467 309.624 52.84L309.584 54.6H292.544L291.584 51.2H305.464L304.864 51.88V50.96C304.784 50.16 304.517 49.4533 304.064 48.84C303.611 48.2 303.024 47.7067 302.304 47.36C301.611 46.9867 300.837 46.8 299.984 46.8C298.677 46.8 297.571 47.0533 296.664 47.56C295.757 48.04 295.064 48.76 294.584 49.72C294.131 50.68 293.904 51.8667 293.904 53.28C293.904 54.64 294.184 55.8267 294.744 56.84C295.331 57.8533 296.157 58.64 297.224 59.2C298.291 59.76 299.531 60.04 300.944 60.04C301.931 60.04 302.837 59.88 303.664 59.56C304.517 59.24 305.424 58.6667 306.384 57.84L308.784 61.2C308.064 61.8667 307.237 62.44 306.304 62.92C305.397 63.3733 304.437 63.7333 303.424 64C302.411 64.2667 301.411 64.4 300.424 64.4ZM314.022 64V34.4H318.902V64H314.022ZM324.764 64V34.4H329.644V64H324.764ZM344.675 64.4C342.569 64.4 340.689 63.9333 339.035 63C337.382 62.04 336.075 60.7333 335.115 59.08C334.182 57.4267 333.715 55.5467 333.715 53.44C333.715 51.3333 334.182 49.4533 335.115 47.8C336.075 46.1467 337.382 44.8533 339.035 43.92C340.689 42.96 342.569 42.48 344.675 42.48C346.755 42.48 348.622 42.96 350.275 43.92C351.929 44.8533 353.222 46.1467 354.155 47.8C355.115 49.4533 355.595 51.3333 355.595 53.44C355.595 55.5467 355.115 57.4267 354.155 59.08C353.222 60.7333 351.929 62.04 350.275 63C348.622 63.9333 346.755 64.4 344.675 64.4ZM344.675 60.04C345.822 60.04 346.849 59.76 347.755 59.2C348.662 58.6133 349.369 57.8267 349.875 56.84C350.409 55.8267 350.662 54.6933 350.635 53.44C350.662 52.16 350.409 51.0267 349.875 50.04C349.369 49.0267 348.662 48.24 347.755 47.68C346.849 47.12 345.822 46.84 344.675 46.84C343.529 46.84 342.489 47.1333 341.555 47.72C340.649 48.28 339.942 49.0667 339.435 50.08C338.929 51.0667 338.675 52.1867 338.675 53.44C338.675 54.6933 338.929 55.8267 339.435 56.84C339.942 57.8267 340.649 58.6133 341.555 59.2C342.489 59.76 343.529 60.04 344.675 60.04Z" fill="#445964"/>
<path d="M358 4.91666H254C246.954 4.91666 241 10.3211 241 16.7167V81.6167C241 88.0123 246.954 93.4166 254 93.4166H285.536L304.39 112.432C304.8 112.847 305.385 113.083 306 113.083C306.615 113.083 307.2 112.847 307.61 112.432L326.464 93.4166H358C365.046 93.4166 371 88.0123 371 81.6167V16.7167C371 10.3211 365.046 4.91666 358 4.91666ZM366.667 81.6167C366.667 85.8804 362.697 89.4833 358 89.4833H330.834L335.846 84.9816C336.697 84.2166 336.704 82.9717 335.861 82.1988C335.018 81.4298 333.649 81.42 332.795 82.185L324.105 89.9907C324.037 90.0438 323.949 90.0714 323.888 90.1343L306 108.176L288.11 90.1343C288.097 90.1205 288.075 90.1166 288.062 90.1028C288.047 90.0871 288.041 90.0674 288.025 90.0517L279.268 82.185C278.416 81.42 277.047 81.4298 276.202 82.1988C275.361 82.9717 275.368 84.2166 276.217 84.9816L281.229 89.4833H254C249.303 89.4833 245.333 85.8804 245.333 81.6167V16.7167C245.333 12.4529 249.303 8.84999 254 8.84999H358C362.697 8.84999 366.667 12.4529 366.667 16.7167V81.6167Z" fill="#3A3A3A"/>
<g clip-path="url(#clip0_126_2)">
<rect width="551" height="693" transform="translate(0 118)" fill="#54A3C4"/>
<path d="M749 -51H-251V949H749V-51Z" fill="#54A3C4"/>
<path opacity="0.17" d="M256.8 835.8C468.325 835.8 639.8 664.325 639.8 452.8C639.8 241.275 468.325 69.8 256.8 69.8C45.275 69.8 -126.2 241.275 -126.2 452.8C-126.2 664.325 45.275 835.8 256.8 835.8Z" fill="#54A3C4"/>
<path opacity="0.17" d="M249 684.6C379.118 684.6 484.6 579.118 484.6 449C484.6 318.882 379.118 213.4 249 213.4C118.882 213.4 13.4 318.882 13.4 449C13.4 579.118 118.882 684.6 249 684.6Z" fill="#54A3C4"/>
<path d="M253.2 743C304.286 743 345.7 735.299 345.7 725.8C345.7 716.301 304.286 708.6 253.2 708.6C202.114 708.6 160.7 716.301 160.7 725.8C160.7 735.299 202.114 743 253.2 743Z" fill="#430B48"/>
<path d="M224.2 609.3C200.7 609.3 181.7 626.7 181.7 648.3V649.7C181.7 691.8 213 725.8 251.6 725.8C290.2 725.8 321.5 691.7 321.5 649.7V648.3C321.5 626.8 302.5 609.3 279 609.3H224.2Z" fill="#E0E0E0"/>
<path d="M251.7 636.7C278.928 636.7 301 630.566 301 623C301 615.434 278.928 609.3 251.7 609.3C224.472 609.3 202.4 615.434 202.4 623C202.4 630.566 224.472 636.7 251.7 636.7Z" fill="#CFC3D8"/>
<path d="M251.7 631.9C272.024 631.9 288.5 627.333 288.5 621.7C288.5 616.067 272.024 611.5 251.7 611.5C231.376 611.5 214.9 616.067 214.9 621.7C214.9 627.333 231.376 631.9 251.7 631.9Z" fill="#430B48"/>
<path d="M251.7 693.7C216.8 693.7 187.9 676.9 182.6 640.5C182 643 181.7 645.6 181.7 648.3V649.7C181.7 691.8 213 725.8 251.6 725.8C290.2 725.8 321.5 691.7 321.5 649.7V648.3C321.5 645.6 321.2 643 320.6 640.5C315.5 676.9 286.6 693.7 251.7 693.7Z" fill="#CFC3D8"/>
<path fill-rule="evenodd" clip-rule="evenodd" d="M177.7 648.3C177.7 624.172 198.824 605.3 224.2 605.3H279C304.383 605.3 325.5 624.278 325.5 648.3V649.7C325.5 693.582 292.723 729.8 251.6 729.8C210.48 729.8 177.7 693.685 177.7 649.7V648.3ZM224.2 613.3C202.576 613.3 185.7 629.228 185.7 648.3V649.7C185.7 689.915 215.52 721.8 251.6 721.8C287.677 721.8 317.5 689.819 317.5 649.7V648.3C317.5 629.322 300.617 613.3 279 613.3H224.2Z" fill="#430B48"/>
<path fill-rule="evenodd" clip-rule="evenodd" d="M357.5 234.1C357.5 231.891 359.291 230.1 361.5 230.1H397.5C399.709 230.1 401.5 231.891 401.5 234.1C401.5 236.309 399.709 238.1 397.5 238.1H361.5C359.291 238.1 357.5 236.309 357.5 234.1Z" fill="#430B48"/>
<path d="M413.5 250.1C422.337 250.1 429.5 242.937 429.5 234.1C429.5 225.264 422.337 218.1 413.5 218.1C404.663 218.1 397.5 225.264 397.5 234.1C397.5 242.937 404.663 250.1 413.5 250.1Z" fill="#BFB0CC"/>
<path fill-rule="evenodd" clip-rule="evenodd" d="M393.5 234.1C393.5 223.055 402.454 214.1 413.5 214.1C424.546 214.1 433.5 223.055 433.5 234.1C433.5 245.146 424.546 254.1 413.5 254.1C402.454 254.1 393.5 245.146 393.5 234.1ZM413.5 222.1C406.872 222.1 401.5 227.473 401.5 234.1C401.5 240.728 406.872 246.1 413.5 246.1C420.128 246.1 425.5 240.728 425.5 234.1C425.5 227.473 420.128 222.1 413.5 222.1Z" fill="#430B48"/>
<path d="M375 471.5C374.1 464 374.4 456.5 375.8 449.1C376.7 445.3 380.8 442.3 384.4 442.5C388.1 442.6 391.9 445.8 392.6 449.7C393.5 457.2 393.2 464.7 391.8 472.1C390.9 475.9 386.8 478.9 383.2 478.7C379.5 478.6 375.6 475.4 375 471.5Z" fill="#4B1151"/>
<path d="M396.3 471.1C393.8 464.2 392.2 456.9 392 449.5C391.9 445.7 395.2 441.9 398.8 441.2C402.4 440.5 406.8 442.7 408.2 446.3C410.9 453.2 412.3 460.5 412.5 467.9C412.6 471.7 409.3 475.5 405.7 476.2C402.2 476.9 397.8 474.7 396.3 471.1Z" fill="#430B48"/>
<path d="M416.6 466C412.6 460 409.4 453.4 407.5 446.4C406.5 442.8 408.8 438.4 412 437C415.4 435.5 420 436.5 422.1 439.6C426.2 445.5 429.3 452.2 431.2 459.2C432.2 462.8 429.9 467.2 426.7 468.6C423.5 470.1 418.8 469 416.6 466Z" fill="#4B1151"/>
<path d="M434.8 456.5C429.6 451.7 425.1 446.1 421.7 439.9C419.9 436.6 421.2 432 423.9 429.9C426.9 427.6 431.4 427.7 434.2 430.1C439.5 434.8 443.9 440.5 447.3 446.7C449.1 450 447.8 454.6 445.1 456.7C442.3 458.9 437.6 458.9 434.8 456.5Z" fill="#4B1151"/>
<path d="M450.3 443.3C444.3 439.9 438.7 435.6 434.1 430.4C431.7 427.7 431.8 423 433.9 420.4C436.3 417.5 440.5 416.6 443.7 418.3C449.8 421.6 455.3 426 459.9 431.2C462.3 433.9 462.2 438.6 460.1 441.2C458 443.9 453.5 445 450.3 443.3Z" fill="#4B1151"/>
<path d="M462.5 426.9C456 425 449.7 422.2 444.1 418.3C441.2 416.3 440.2 411.8 441.6 408.8C443.3 405.4 447 403.6 450.5 404.6C457.1 406.4 463.3 409.3 468.9 413.2C471.8 415.2 472.8 419.7 471.4 422.7C470 425.7 465.9 427.8 462.5 426.9Z" fill="#4B1151"/>
<path d="M470.7 407.9C464 407.6 457.4 406.5 451.2 404.1C448 402.9 446 398.8 446.6 395.6C447.5 391.8 450.6 389.4 454 389.5C460.7 389.6 467.3 390.9 473.5 393.3C476.7 394.5 478.7 398.6 478.1 401.8C477.6 404.9 474.2 407.9 470.7 407.9Z" fill="#4B1151"/>
<path d="M473.5 388.3C467 388.7 460.5 388.1 454.2 386.5C450.9 385.5 448.6 381.9 448.9 378.7C449.4 374.8 452.2 372.4 455.6 372C462.1 371.6 468.6 372.2 474.9 373.8C478.2 374.8 480.5 378.4 480.2 381.6C479.9 384.8 476.9 388 473.5 388.3Z" fill="#4B1151"/>
<path fill-rule="evenodd" clip-rule="evenodd" d="M378.733 449.734C377.404 456.801 377.121 463.948 377.972 471.087C378.154 472.188 378.83 473.336 379.893 474.25C380.977 475.181 382.235 475.673 383.281 475.701C383.31 475.702 383.338 475.703 383.366 475.705C384.309 475.757 385.551 475.378 386.703 474.507C387.825 473.659 388.594 472.545 388.867 471.466C390.193 464.413 390.478 457.28 389.633 450.154C389.406 449.006 388.704 447.846 387.66 446.942C386.587 446.012 385.356 445.527 384.319 445.499C384.291 445.498 384.262 445.497 384.234 445.495C383.291 445.443 382.049 445.822 380.897 446.693C379.775 447.541 379.006 448.655 378.733 449.734ZM384.523 439.502C381.881 439.368 379.291 440.386 377.278 441.907C375.245 443.444 373.521 445.705 372.881 448.409C372.87 448.453 372.861 448.498 372.852 448.542C371.397 456.232 371.083 464.041 372.021 471.857C372.025 471.89 372.03 471.923 372.035 471.956C372.463 474.742 374.034 477.126 375.982 478.8C377.913 480.46 380.438 481.615 383.077 481.698C385.719 481.832 388.309 480.814 390.322 479.293C392.355 477.756 394.079 475.495 394.719 472.791C394.73 472.747 394.739 472.702 394.748 472.658C396.202 464.968 396.517 457.159 395.579 449.343C395.572 449.285 395.563 449.227 395.553 449.17C395.063 446.443 393.524 444.084 391.59 442.408C389.673 440.747 387.17 439.585 384.523 439.502Z" fill="#430B48"/>
<path fill-rule="evenodd" clip-rule="evenodd" d="M402.922 444.789C401.704 444.145 400.398 443.945 399.373 444.145C398.368 444.34 397.22 445.027 396.316 446.11C395.414 447.19 394.972 448.401 394.999 449.42C395.188 456.418 396.698 463.372 399.093 470.003C399.54 471.029 400.452 471.976 401.653 472.611C402.886 473.263 404.16 473.449 405.112 473.258L405.127 473.255C406.132 473.06 407.28 472.373 408.184 471.29C409.086 470.21 409.528 468.999 409.501 467.979M402.922 444.789C404.134 445.43 405.012 446.38 405.404 447.387ZM410.995 445.21C409.986 442.619 407.965 440.669 405.728 439.486C403.496 438.305 400.802 437.755 398.227 438.255C395.632 438.76 393.33 440.323 391.709 442.265C390.086 444.21 388.928 446.798 389.001 449.579L389.001 449.581C389.211 457.357 390.89 464.976 393.479 472.122C393.496 472.166 393.513 472.21 393.531 472.254C394.594 474.805 396.62 476.736 398.847 477.914C401.062 479.086 403.734 479.65 406.28 479.143C408.873 478.637 411.171 477.075 412.791 475.135C414.414 473.19 415.572 470.602 415.499 467.821L415.499 467.819C415.29 460.095 413.828 452.451 410.995 445.21ZM409.501 467.979C409.31 460.905 407.972 453.95 405.406 447.393L405.404 447.387" fill="#430B48"/>
<path fill-rule="evenodd" clip-rule="evenodd" d="M419.616 441.283C418.443 439.55 415.479 438.744 413.211 439.745L413.202 439.748L413.202 439.748C412.379 440.109 411.471 440.973 410.866 442.201C410.265 443.421 410.13 444.659 410.391 445.597L410.395 445.614C412.191 452.231 415.224 458.515 419.054 464.272C419.669 465.084 420.72 465.756 422.003 466.077C423.316 466.405 424.565 466.287 425.427 465.884C425.45 465.873 425.474 465.862 425.498 465.851C426.321 465.491 427.229 464.627 427.834 463.399C428.435 462.179 428.57 460.941 428.309 460.003L428.305 459.986C426.493 453.31 423.536 446.924 419.636 441.312L419.616 441.283ZM424.573 437.901C421.543 433.448 415.32 432.259 410.793 434.253C408.418 435.294 406.578 437.329 405.484 439.549C404.386 441.776 403.871 444.535 404.607 447.194C406.605 454.55 409.955 461.44 414.104 467.664C414.129 467.701 414.154 467.738 414.181 467.774C415.771 469.942 418.154 471.3 420.547 471.898C422.922 472.492 425.608 472.413 427.938 471.333C430.298 470.288 432.127 468.261 433.216 466.051C434.314 463.824 434.829 461.065 434.093 458.406C432.107 451.091 428.867 444.084 424.573 437.901Z" fill="#430B48"/>
<path fill-rule="evenodd" clip-rule="evenodd" d="M425.734 432.274C425.008 432.843 424.334 433.88 424.03 435.149C423.728 436.409 423.86 437.594 424.332 438.461C427.553 444.333 431.827 449.664 436.789 454.253C437.566 454.902 438.711 455.308 439.99 455.325C441.294 455.343 442.47 454.951 443.247 454.341L443.258 454.332C443.987 453.765 444.665 452.724 444.97 451.451C445.272 450.191 445.14 449.007 444.668 448.139C441.422 442.222 437.239 436.809 432.231 432.363C430.535 430.925 427.631 430.827 425.734 432.274ZM422.075 427.519C426.171 424.378 432.248 424.476 436.152 427.822C436.165 427.833 436.178 427.844 436.19 427.855C441.772 432.805 446.381 438.785 449.93 445.258L449.934 445.263C451.261 447.696 451.377 450.461 450.805 452.849C450.236 455.223 448.915 457.531 446.948 459.064C444.925 460.65 442.354 461.357 439.91 461.325C437.459 461.292 434.87 460.511 432.848 458.778C432.82 458.754 432.792 458.729 432.765 458.704C427.348 453.704 422.639 447.851 419.07 441.343L419.066 441.337L419.066 441.337C417.739 438.904 417.622 436.139 418.195 433.751C418.765 431.374 420.087 429.065 422.058 427.532L422.075 427.519Z" fill="#430B48"/>
<path fill-rule="evenodd" clip-rule="evenodd" d="M436.223 422.298C435.694 422.962 435.304 424.068 435.312 425.342C435.321 426.614 435.724 427.711 436.342 428.407L436.347 428.412L436.347 428.412C440.683 433.314 445.995 437.407 451.738 440.667C452.592 441.109 453.75 441.243 454.957 440.972C456.188 440.697 457.181 440.067 457.732 439.358C457.743 439.344 457.755 439.329 457.766 439.315C458.301 438.653 458.696 437.541 458.688 436.258C458.679 434.986 458.276 433.889 457.658 433.193L457.653 433.188C453.284 428.249 448.064 424.073 442.284 420.945C440.417 419.959 437.767 420.448 436.223 422.298ZM431.589 418.487C434.845 414.553 440.58 413.245 445.108 415.651L445.127 415.661C451.542 419.132 457.317 423.753 462.145 429.21C463.925 431.214 464.671 433.816 464.687 436.217C464.704 438.6 464.004 441.128 462.451 443.064C460.902 445.042 458.604 446.305 456.268 446.828C453.915 447.354 451.236 447.194 448.893 445.949C448.869 445.937 448.845 445.923 448.821 445.91C442.581 442.374 436.708 437.876 431.855 432.39C430.076 430.386 429.329 427.784 429.313 425.383C429.296 422.991 430.001 420.453 431.566 418.515L431.589 418.487Z" fill="#430B48"/>
<path fill-rule="evenodd" clip-rule="evenodd" d="M444.303 410.103C443.958 410.869 443.85 412.005 444.148 413.197C444.449 414.4 445.078 415.33 445.803 415.83L445.815 415.838L445.814 415.838C451.092 419.513 457.069 422.183 463.299 424.008C464.162 424.226 465.283 424.1 466.392 423.563C467.521 423.016 468.327 422.191 468.682 421.431C469.039 420.665 469.155 419.513 468.852 418.303C468.551 417.1 467.922 416.17 467.197 415.67L467.186 415.662L467.186 415.662C461.867 411.958 455.98 409.204 449.711 407.494L449.676 407.485C447.723 406.926 445.435 407.88 444.303 410.103ZM451.306 401.71C446.276 400.283 441.189 402.915 438.917 407.458C438.905 407.483 438.893 407.507 438.881 407.531C437.839 409.765 437.755 412.363 438.327 414.653C438.901 416.948 440.219 419.265 442.39 420.765C448.3 424.88 454.905 427.805 461.658 429.779C461.683 429.787 461.708 429.794 461.732 429.8C464.265 430.471 466.88 429.993 469.008 428.962C471.129 427.934 473.073 426.209 474.119 423.969C475.161 421.735 475.245 419.137 474.673 416.847C474.099 414.552 472.78 412.235 470.609 410.735C464.734 406.644 458.228 403.6 451.306 401.71Z" fill="#430B48"/>
<path fill-rule="evenodd" clip-rule="evenodd" d="M449.537 396.217C449.403 397.033 449.576 398.145 450.133 399.208C450.702 400.296 451.502 401.009 452.253 401.291L452.283 401.302C458.081 403.546 464.316 404.605 470.756 404.899C471.653 404.883 472.691 404.478 473.592 403.718C474.526 402.931 475.028 402.008 475.138 401.322C475.142 401.297 475.147 401.272 475.151 401.247C475.305 400.425 475.139 399.283 474.568 398.192C473.998 397.104 473.198 396.391 472.447 396.109L472.417 396.098C466.545 393.825 460.297 392.594 453.955 392.5C453.941 392.499 453.926 392.499 453.912 392.499C452.085 392.445 450.161 393.718 449.537 396.217ZM454.065 386.501C449.119 386.367 444.875 389.864 443.681 394.909C443.67 394.955 443.66 395.001 443.651 395.047C443.205 397.425 443.739 399.933 444.818 401.992C445.895 404.05 447.69 405.982 450.131 406.903C456.706 409.446 463.638 410.587 470.566 410.897C470.611 410.899 470.655 410.9 470.7 410.9C473.291 410.9 475.678 409.806 477.458 408.307C479.215 406.826 480.657 404.714 481.056 402.316C481.489 399.949 480.955 397.456 479.883 395.408C478.805 393.35 477.01 391.418 474.57 390.497C468.052 387.976 461.112 386.608 454.065 386.501Z" fill="#430B48"/>
<path fill-rule="evenodd" clip-rule="evenodd" d="M455.875 374.989C453.812 375.26 452.211 376.637 451.883 379.027C451.745 380.8 453.141 383.009 455.014 383.611C460.971 385.116 467.118 385.682 473.269 385.308C474.117 385.224 475.067 384.757 475.87 383.938C476.688 383.102 477.138 382.119 477.213 381.32C477.38 379.539 475.975 377.296 474.086 376.689C468.144 375.188 462.012 374.62 455.875 374.989ZM455.416 369.006C462.222 368.587 469.034 369.215 475.638 370.892C475.683 370.904 475.726 370.916 475.77 370.929C480.452 372.348 483.618 377.278 483.187 381.88C482.962 384.281 481.762 386.498 480.155 388.137C478.543 389.782 476.308 391.064 473.764 391.288C473.737 391.291 473.711 391.293 473.684 391.294C466.878 391.713 460.066 391.085 453.462 389.408C453.417 389.396 453.374 389.384 453.33 389.371C448.648 387.952 445.482 383.022 445.913 378.42C445.916 378.386 445.92 378.352 445.924 378.319C446.61 372.972 450.565 369.572 455.249 369.021C455.305 369.014 455.36 369.009 455.416 369.006Z" fill="#430B48"/>
<path d="M475.8 320.7V340.2C475.8 345.5 471.5 349.8 466.2 349.8C460.9 349.8 456.6 345.5 456.6 340.2V327.4H437.3V343.8C437.3 359.8 450.2 372.7 466.2 372.7C482.2 372.7 495.1 359.8 495.1 343.8V320.7H475.8Z" fill="#CFC3D8"/>
<path d="M460.4 347.9C458.1 346.1 456.6 343.4 456.6 340.3V332C456.6 331.2 456.5 330.3 456.5 329.5C456.5 328.8 456.5 328.2 456.5 327.5H437.3V343.9C437.3 359.9 450.2 372.8 466.2 372.8C471.4 372.8 476.3 371.4 480.5 369C471.7 364.7 464.5 357.2 460.4 347.9Z" fill="#BFB0CC"/>
<path fill-rule="evenodd" clip-rule="evenodd" d="M471.8 320.7C471.8 318.491 473.591 316.7 475.8 316.7H495.1C497.309 316.7 499.1 318.491 499.1 320.7V343.8C499.1 362.009 484.409 376.7 466.2 376.7C447.991 376.7 433.3 362.009 433.3 343.8V327.4C433.3 325.191 435.091 323.4 437.3 323.4H456.6C458.809 323.4 460.6 325.191 460.6 327.4V340.2C460.6 343.291 463.109 345.8 466.2 345.8C469.291 345.8 471.8 343.291 471.8 340.2V320.7ZM479.8 324.7V340.2C479.8 347.709 473.709 353.8 466.2 353.8C458.691 353.8 452.6 347.709 452.6 340.2V331.4H441.3V343.8C441.3 357.591 452.409 368.7 466.2 368.7C479.991 368.7 491.1 357.591 491.1 343.8V324.7H479.8Z" fill="#430B48"/>
<path d="M128.4 471.5C129.3 464 129 456.5 127.6 449.1C126.7 445.3 122.6 442.3 119 442.5C115.3 442.6 111.5 445.8 110.8 449.7C109.9 457.2 110.2 464.7 111.6 472.1C112.5 475.9 116.6 478.9 120.2 478.7C123.9 478.6 127.8 475.4 128.4 471.5Z" fill="#4B1151"/>
<path d="M107 471.1C109.5 464.2 111.1 456.9 111.3 449.5C111.4 445.7 108.1 441.9 104.5 441.2C100.9 440.5 96.5 442.7 95.1 446.3C92.4 453.2 90.9999 460.5 90.7999 467.9C90.6999 471.7 94 475.5 97.6 476.2C101.2 476.9 105.6 474.7 107 471.1Z" fill="#430B48"/>
<path d="M86.8 466C90.8 460 94 453.4 95.9 446.4C96.9 442.8 94.6 438.4 91.4 437C88 435.5 83.4 436.5 81.3 439.6C77.2 445.5 74.1 452.2 72.2 459.2C71.2 462.8 73.5 467.2 76.7 468.6C79.8 470.1 84.6 469 86.8 466Z" fill="#4B1151"/>
<path d="M68.6 456.5C73.8 451.7 78.3 446.1 81.7 439.9C83.5 436.6 82.2 432 79.5 429.9C76.5 427.6 72 427.7 69.2 430.1C63.9 434.8 59.5 440.5 56.1 446.7C54.3 450 55.6 454.6 58.3 456.7C61 458.9 65.8 458.9 68.6 456.5Z" fill="#4B1151"/>
<path d="M53.1 443.3C59.1 439.9 64.7 435.6 69.3 430.4C71.7 427.7 71.6 423 69.5 420.4C67.1 417.5 62.9 416.6 59.7 418.3C53.6 421.6 48.1 426 43.5 431.2C41.1 433.9 41.2 438.6 43.3 441.2C45.4 443.9 49.9 445 53.1 443.3Z" fill="#4B1151"/>
<path d="M40.9 426.9C47.4 425 53.7 422.2 59.3 418.3C62.2 416.3 63.2 411.8 61.8 408.8C60.1 405.4 56.4 403.6 52.9 404.6C46.3 406.4 40.1 409.3 34.5 413.2C31.6 415.2 30.6 419.7 32 422.7C33.4 425.7 37.4 427.8 40.9 426.9Z" fill="#4B1151"/>
<path d="M32.6 407.9C39.3 407.6 45.9 406.5 52.1 404.1C55.3 402.9 57.3 398.8 56.7 395.6C55.8 391.8 52.7 389.4 49.3 389.5C42.6 389.6 36 390.9 29.8 393.3C26.6 394.5 24.6 398.6 25.2 401.8C25.8 404.9 29.2 407.9 32.6 407.9Z" fill="#4B1151"/>
<path d="M29.8 388.3C36.3 388.7 42.8 388.1 49.1 386.5C52.4 385.5 54.7 381.9 54.4 378.7C53.9 374.8 51.1 372.4 47.7 372C41.2 371.6 34.7 372.2 28.4 373.8C25.1 374.8 22.8 378.4 23.1 381.6C23.5 384.8 26.4 388 29.8 388.3Z" fill="#4B1151"/>
<path fill-rule="evenodd" clip-rule="evenodd" d="M126.122 441.907C128.155 443.444 129.879 445.705 130.519 448.409C130.53 448.453 130.539 448.498 130.548 448.542C132.002 456.232 132.317 464.041 131.379 471.857C131.375 471.89 131.37 471.923 131.365 471.956C130.937 474.742 129.366 477.126 127.418 478.8C125.487 480.46 122.962 481.615 120.323 481.698C117.681 481.832 115.091 480.814 113.078 479.293C111.045 477.756 109.321 475.495 108.681 472.791C108.67 472.747 108.661 472.702 108.652 472.658C107.197 464.968 106.883 457.159 107.821 449.343C107.828 449.285 107.837 449.227 107.847 449.17C108.337 446.443 109.876 444.084 111.81 442.408C113.727 440.747 116.23 439.585 118.877 439.502C121.519 439.368 124.109 440.386 126.122 441.907ZM122.503 446.693C121.351 445.822 120.109 445.443 119.166 445.495C119.138 445.497 119.11 445.498 119.081 445.499C118.044 445.527 116.813 446.012 115.74 446.942C114.696 447.846 113.994 449.006 113.767 450.154C112.922 457.28 113.206 464.413 114.533 471.466C114.806 472.545 115.575 473.659 116.697 474.507C117.849 475.378 119.091 475.757 120.034 475.705C120.062 475.703 120.09 475.702 120.119 475.701C121.165 475.673 122.423 475.181 123.507 474.25C124.57 473.336 125.246 472.188 125.428 471.087C126.279 463.948 125.996 456.801 124.667 449.734C124.394 448.655 123.625 447.541 122.503 446.693Z" fill="#430B48"/>
<path fill-rule="evenodd" clip-rule="evenodd" d="M97.5722 439.486C99.8041 438.305 102.498 437.755 105.073 438.255C107.668 438.76 109.97 440.323 111.591 442.265C113.214 444.21 114.372 446.798 114.299 449.579L114.299 449.581C114.089 457.357 112.41 464.976 109.821 472.122C109.813 472.144 109.804 472.166 109.796 472.187C108.788 474.78 106.766 476.73 104.528 477.914C102.296 479.095 99.602 479.645 97.0274 479.145C94.432 478.64 92.1301 477.077 90.5094 475.135C88.8861 473.19 87.7278 470.602 87.801 467.821L87.8011 467.819C88.0098 460.095 89.4718 452.451 92.3052 445.21C93.3136 442.619 95.3349 440.669 97.5722 439.486ZM100.378 444.789C99.166 445.43 98.2879 446.38 97.896 447.387L97.8937 447.393C95.3279 453.95 93.9902 460.905 93.7989 467.98C93.7724 468.999 94.2141 470.21 95.1156 471.29C96.0198 472.373 97.168 473.06 98.1726 473.255C99.198 473.455 100.504 473.255 101.722 472.611C102.923 471.976 103.796 471.038 104.193 470.041C106.596 463.399 108.111 456.432 108.301 449.421M100.378 444.789C101.596 444.145 102.902 443.945 103.927 444.145ZM103.927 444.145C104.932 444.34 106.08 445.027 106.984 446.11ZM106.984 446.11C107.886 447.19 108.328 448.401 108.301 449.421Z" fill="#430B48"/>
<path fill-rule="evenodd" clip-rule="evenodd" d="M78.8271 437.902C81.8567 433.448 88.0801 432.259 92.6067 434.253C94.9816 435.294 96.822 437.329 97.916 439.549C99.0136 441.776 99.5287 444.535 98.7931 447.194C96.7954 454.55 93.4453 461.44 89.2962 467.664C89.2713 467.701 89.2457 467.738 89.2192 467.774C87.6203 469.954 85.2022 471.305 82.8105 471.899C80.4481 472.486 77.751 472.423 75.4451 471.325C73.0935 470.278 71.2706 468.256 70.184 466.051C69.0864 463.824 68.5714 461.065 69.3069 458.406C71.2935 451.091 74.5332 444.084 78.8271 437.902ZM90.1891 439.745C87.9215 438.744 84.9572 439.55 83.7838 441.283L83.7636 441.312C79.8636 446.924 76.9074 453.31 75.0953 459.986L75.0906 460.003C74.8299 460.941 74.9649 462.179 75.5661 463.399C76.1714 464.627 77.0795 465.491 77.9025 465.851C77.9375 465.867 77.9723 465.883 78.0067 465.899C78.7895 466.278 80.0196 466.41 81.3645 466.076C82.6729 465.751 83.7392 465.072 84.3466 464.272C88.1758 458.515 91.2089 452.231 93.0048 445.614L93.0095 445.597C93.2702 444.659 93.1351 443.421 92.534 442.201C91.9287 440.973 91.0206 440.109 90.1976 439.748L90.1891 439.745Z" fill="#430B48"/>
<path fill-rule="evenodd" clip-rule="evenodd" d="M67.2477 427.822C71.1516 424.476 77.2287 424.378 81.3253 427.519L81.3419 427.532C83.3129 429.065 84.6352 431.374 85.2049 433.751C85.7776 436.139 85.6606 438.904 84.3337 441.337L84.3305 441.343C80.7614 447.851 76.0525 453.704 70.6349 458.704C70.6078 458.729 70.5803 458.754 70.5524 458.778C68.5224 460.518 65.9034 461.292 63.4523 461.325C61.0205 461.357 58.4291 460.662 56.4315 459.047C54.4752 457.514 53.1623 455.215 52.5952 452.849C52.0225 450.461 52.1395 447.696 53.4664 445.263L53.4696 445.258C57.0191 438.785 61.6278 432.805 67.2096 427.855C67.2222 427.844 67.2349 427.833 67.2477 427.822ZM71.1693 432.363C66.1615 436.809 61.978 442.221 58.7324 448.139C58.2603 449.006 58.1278 450.191 58.4299 451.451C58.7352 452.724 59.4129 453.765 60.1418 454.332C60.1597 454.346 60.1775 454.36 60.195 454.374C60.8939 454.944 62.0404 455.343 63.3728 455.325C64.6761 455.308 65.841 454.895 66.6116 454.253C71.5733 449.664 75.8472 444.333 79.0679 438.461C79.5398 437.593 79.6722 436.409 79.3702 435.149C79.066 433.88 78.3921 432.843 77.6661 432.274C75.7688 430.827 72.8653 430.925 71.1693 432.363Z" fill="#430B48"/>
<path fill-rule="evenodd" clip-rule="evenodd" d="M58.2925 415.651C62.82 413.245 68.555 414.553 71.8112 418.487L71.8338 418.515C73.3989 420.453 74.1037 422.991 74.0874 425.383C74.0711 427.785 73.3244 430.387 71.5446 432.39C66.6915 437.876 60.8188 442.374 54.579 445.91C54.5554 445.923 54.5315 445.937 54.5075 445.949C52.1639 447.194 49.4849 447.354 47.1324 446.828C44.7963 446.305 42.4976 445.042 40.9488 443.064C39.3958 441.128 38.6963 438.6 38.7126 436.217C38.7289 433.816 39.4756 431.213 41.2554 429.21C46.0829 423.753 51.8579 419.132 58.2725 415.661L58.2925 415.651ZM61.1163 420.945C55.3364 424.073 50.1162 428.249 45.747 433.188L45.7422 433.193C45.1237 433.889 44.7211 434.986 44.7124 436.258C44.7037 437.541 45.0989 438.653 45.6338 439.315C45.6453 439.329 45.6568 439.344 45.668 439.358C46.2192 440.067 47.2122 440.697 48.4426 440.972C49.6505 441.243 50.8082 441.109 51.6618 440.667C57.4053 437.407 62.7168 433.314 67.053 428.412L67.0578 428.407C67.6762 427.711 68.0789 426.614 68.0876 425.342C68.0962 424.068 67.7062 422.962 67.1766 422.298C65.6333 420.448 62.9834 419.959 61.1163 420.945Z" fill="#430B48"/>
<path fill-rule="evenodd" clip-rule="evenodd" d="M52.0945 401.71C57.1237 400.283 62.2115 402.915 64.4833 407.458C64.4954 407.483 64.5071 407.507 64.5186 407.531C65.5609 409.765 65.6454 412.363 65.0729 414.653C64.4992 416.948 63.1805 419.265 61.0095 420.765C55.0999 424.88 48.4949 427.806 41.7417 429.779C41.7103 429.789 41.6788 429.797 41.6471 429.805C39.0884 430.463 36.481 430.001 34.346 428.958C32.2219 427.921 30.3177 426.189 29.2815 423.969C28.2391 421.735 28.1547 419.137 28.7271 416.847C29.3009 414.552 30.6196 412.235 32.7907 410.735C38.6661 406.644 45.1717 403.6 52.0945 401.71ZM59.0971 410.103C57.9647 407.88 55.6775 406.926 53.7242 407.485L53.6894 407.494C47.4202 409.204 41.5331 411.958 36.2145 415.662L36.2032 415.67L36.2032 415.67C35.478 416.17 34.8486 417.1 34.548 418.303C34.2454 419.513 34.361 420.665 34.7186 421.431C35.0823 422.211 35.8782 423.029 36.979 423.567C38.0534 424.091 39.1789 424.233 40.1123 424.005C46.3378 422.18 52.3116 419.511 57.5855 415.838L57.5968 415.83L57.5968 415.83C58.3221 415.33 58.9514 414.4 59.2521 413.197C59.5502 412.005 59.4424 410.869 59.0971 410.103Z" fill="#430B48"/>
<path fill-rule="evenodd" clip-rule="evenodd" d="M49.2351 386.501C54.1805 386.367 58.4246 389.864 59.6192 394.909C59.6301 394.955 59.6399 395.001 59.6486 395.047C60.0945 397.425 59.5609 399.933 58.4825 401.992C57.4046 404.05 55.6096 405.982 53.1695 406.903C46.5944 409.446 39.6618 410.587 32.7342 410.897C32.6895 410.899 32.6447 410.9 32.6 410.9C30.0389 410.9 27.6775 409.79 25.9169 408.307C24.1639 406.83 22.7123 404.735 22.2547 402.37L22.2514 402.353C21.8055 399.975 22.3391 397.467 23.4175 395.408C24.4953 393.35 26.2904 391.418 28.7304 390.497C35.2485 387.976 42.1881 386.608 49.2351 386.501ZM53.7626 396.217C53.1392 393.718 51.2147 392.445 49.3882 392.499C49.3737 392.499 49.3592 392.499 49.3447 392.5C43.0035 392.594 36.7548 393.825 30.883 396.098L30.8533 396.109C30.1016 396.391 29.3022 397.104 28.7325 398.192C28.163 399.279 27.9957 400.417 28.147 401.238C28.2918 401.973 28.8397 402.923 29.7831 403.718C30.7019 404.493 31.7156 404.883 32.5446 404.899C38.9843 404.605 45.2198 403.546 51.017 401.302L51.0466 401.291C51.7983 401.009 52.5977 400.296 53.1675 399.208C53.7244 398.145 53.8966 397.033 53.7626 396.217Z" fill="#430B48"/>
<path fill-rule="evenodd" clip-rule="evenodd" d="M27.6615 370.892C34.2662 369.215 41.0776 368.587 47.8843 369.006C47.9398 369.009 47.9953 369.014 48.0506 369.021C52.7351 369.572 56.6901 372.972 57.3757 378.319C57.38 378.352 57.3837 378.386 57.3869 378.42C57.8183 383.022 54.6525 387.952 49.97 389.371C49.9265 389.384 49.8826 389.396 49.8385 389.408C43.2339 391.085 36.4224 391.713 29.6157 391.294C29.5892 391.293 29.5628 391.291 29.5363 391.288C26.9807 391.063 24.7671 389.772 23.1713 388.126C21.5802 386.485 20.4144 384.302 20.1232 381.972C20.1194 381.941 20.116 381.911 20.1131 381.88C19.6817 377.278 22.8476 372.348 27.53 370.929C27.5736 370.916 27.6174 370.904 27.6615 370.892ZM29.2142 376.689C27.3408 377.291 25.944 379.501 26.083 381.274C26.2029 382.134 26.6842 383.13 27.4787 383.949C28.2724 384.768 29.1949 385.225 30.0306 385.308C36.1824 385.682 42.3291 385.116 48.2859 383.611C50.1587 383.009 51.5553 380.8 51.4171 379.027C51.0894 376.637 49.4881 375.26 47.4246 374.989C41.2878 374.62 35.1565 375.188 29.2142 376.689Z" fill="#430B48"/>
<path d="M27.5 320.7V340.2C27.5 345.5 31.8 349.8 37.1 349.8C42.4 349.8 46.7 345.5 46.7 340.2V327.4H66V343.8C66 359.8 53.1 372.7 37.1 372.7C21.1 372.7 8.20001 359.8 8.20001 343.8V320.7H27.5Z" fill="#CFC3D8"/>
<path d="M43 347.9C45.3 346.1 46.8 343.4 46.8 340.3V332C46.8 331.2 46.9 330.3 46.9 329.5C46.9 328.8 46.9 328.2 46.9 327.5H66.1V343.9C66.1 359.9 53.2 372.8 37.2 372.8C32 372.8 27.1 371.4 22.9 369C31.7 364.7 38.9 357.2 43 347.9Z" fill="#BFB0CC"/>
<path fill-rule="evenodd" clip-rule="evenodd" d="M4.20001 320.7C4.20001 318.491 5.99087 316.7 8.20001 316.7H27.5C29.7091 316.7 31.5 318.491 31.5 320.7V340.2C31.5 343.291 34.0091 345.8 37.1 345.8C40.1909 345.8 42.7 343.291 42.7 340.2V327.4C42.7 325.191 44.4909 323.4 46.7 323.4H66C68.2091 323.4 70 325.191 70 327.4V343.8C70 362.009 55.3092 376.7 37.1 376.7C18.8909 376.7 4.20001 362.009 4.20001 343.8V320.7ZM12.2 324.7V343.8C12.2 357.591 23.3092 368.7 37.1 368.7C50.8909 368.7 62 357.591 62 343.8V331.4H50.7V340.2C50.7 347.709 44.6091 353.8 37.1 353.8C29.5909 353.8 23.5 347.709 23.5 340.2V324.7H12.2Z" fill="#430B48"/>
<path d="M357.7 275.1H341.7V193.1H357.7C362.1 193.1 365.7 196.7 365.7 201.1V267.1C365.7 271.6 362.1 275.1 357.7 275.1Z" fill="#BFB0CC"/>
<path d="M357.7 193.1H341.7V204.1H357.7C362.1 204.1 365.7 207.7 365.7 212.1V201.1C365.7 196.7 362.1 193.1 357.7 193.1Z" fill="#54A3C4"/>
<path fill-rule="evenodd" clip-rule="evenodd" d="M337.7 193.1C337.7 190.891 339.491 189.1 341.7 189.1H357.7C364.309 189.1 369.7 194.491 369.7 201.1V267.1C369.7 273.842 364.276 279.1 357.7 279.1H341.7C339.491 279.1 337.7 277.309 337.7 275.1V193.1ZM345.7 197.1V271.1H357.7C359.924 271.1 361.7 269.358 361.7 267.1V201.1C361.7 198.909 359.891 197.1 357.7 197.1H345.7Z" fill="#430B48"/>
<path fill-rule="evenodd" clip-rule="evenodd" d="M101.9 234.1C101.9 231.891 103.691 230.1 105.9 230.1H141.9C144.109 230.1 145.9 231.891 145.9 234.1C145.9 236.309 144.109 238.1 141.9 238.1H105.9C103.691 238.1 101.9 236.309 101.9 234.1Z" fill="#430B48"/>
<path d="M89.9 250.1C98.736 250.1 105.9 242.937 105.9 234.1C105.9 225.264 98.736 218.1 89.9 218.1C81.063 218.1 73.9 225.264 73.9 234.1C73.9 242.937 81.063 250.1 89.9 250.1Z" fill="#BFB0CC"/>
<path fill-rule="evenodd" clip-rule="evenodd" d="M69.9 234.1C69.9 223.055 78.8537 214.1 89.9 214.1C100.945 214.1 109.9 223.055 109.9 234.1C109.9 245.146 100.945 254.1 89.9 254.1C78.8539 254.1 69.9 245.146 69.9 234.1ZM89.9 222.1C83.2723 222.1 77.9 227.473 77.9 234.1C77.9 240.728 83.2722 246.1 89.9 246.1C96.527 246.1 101.9 240.728 101.9 234.1C101.9 227.473 96.5269 222.1 89.9 222.1Z" fill="#430B48"/>
<path d="M145.7 275.1H161.7V193.1H145.7C141.3 193.1 137.7 196.7 137.7 201.1V267.1C137.7 271.6 141.3 275.1 145.7 275.1Z" fill="#BFB0CC"/>
<path d="M145.7 193.1C141.3 193.1 137.7 196.7 137.7 201.1V212.1C137.7 207.7 141.3 204.1 145.7 204.1H161.7V193.1H145.7Z" fill="#E6EEF1"/>
<path fill-rule="evenodd" clip-rule="evenodd" d="M133.7 201.1C133.7 194.491 139.091 189.1 145.7 189.1H161.7C163.909 189.1 165.7 190.891 165.7 193.1V275.1C165.7 277.309 163.909 279.1 161.7 279.1H145.7C139.124 279.1 133.7 273.842 133.7 267.1V201.1ZM145.7 197.1C143.509 197.1 141.7 198.909 141.7 201.1V267.1C141.7 269.358 143.476 271.1 145.7 271.1H157.7V197.1H145.7Z" fill="#430B48"/>
<path fill-rule="evenodd" clip-rule="evenodd" d="M337.7 193.1C337.7 190.891 339.491 189.1 341.7 189.1H357.7C364.309 189.1 369.7 194.491 369.7 201.1V267.1C369.7 273.842 364.276 279.1 357.7 279.1H341.7C339.491 279.1 337.7 277.309 337.7 275.1V193.1ZM345.7 197.1V271.1H357.7C359.924 271.1 361.7 269.358 361.7 267.1V201.1C361.7 198.909 359.891 197.1 357.7 197.1H345.7Z" fill="#430B48"/>
<path fill-rule="evenodd" clip-rule="evenodd" d="M133.7 201.1C133.7 194.491 139.091 189.1 145.7 189.1H161.7C163.909 189.1 165.7 190.891 165.7 193.1V275.1C165.7 277.309 163.909 279.1 161.7 279.1H145.7C139.124 279.1 133.7 273.842 133.7 267.1V201.1ZM145.7 197.1C143.509 197.1 141.7 198.909 141.7 201.1V267.1C141.7 269.358 143.476 271.1 145.7 271.1H157.7V197.1H145.7Z" fill="#430B48"/>
<path d="M305.7 328.1H197.7C175.6 328.1 157.7 310.2 157.7 288.1V180.1C157.7 158 175.6 140.1 197.7 140.1H305.7C327.8 140.1 345.7 158 345.7 180.1V288.1C345.7 310.2 327.8 328.1 305.7 328.1Z" fill="#E0E0E0"/>
<path d="M305.7 328.1H197.7C175.6 328.1 157.7 310.2 157.7 288.1V180.1C157.7 158 175.6 140.1 197.7 140.1H305.7C327.8 140.1 345.7 158 345.7 180.1V288.1C345.7 310.2 327.8 328.1 305.7 328.1Z" fill="#E0E0E0"/>
<path d="M305.7 328.1H197.7C175.6 328.1 157.7 310.2 157.7 288.1V180.1C157.7 158 175.6 140.1 197.7 140.1H305.7C327.8 140.1 345.7 158 345.7 180.1V288.1C345.7 310.2 327.8 328.1 305.7 328.1Z" fill="#E0E0E0"/>
<path d="M305.7 140.1H197.7C175.6 140.1 157.7 158 157.7 180.1V190C157.7 167.9 175.6 150 197.7 150H305.7C327.8 150 345.7 167.9 345.7 190V180.1C345.7 158 327.8 140.1 305.7 140.1Z" fill="#54A3C4"/>
<path d="M305.7 311.7H197.7C175.6 311.7 157.7 298.7 157.7 276.6V288.1C157.7 310.2 175.6 328.1 197.7 328.1H305.7C327.8 328.1 345.7 310.2 345.7 288.1V276.6C345.7 298.8 327.8 311.7 305.7 311.7Z" fill="#BFB0CC"/>
<path fill-rule="evenodd" clip-rule="evenodd" d="M197.7 144.1C177.809 144.1 161.7 160.209 161.7 180.1V288.1C161.7 307.991 177.809 324.1 197.7 324.1H305.7C325.591 324.1 341.7 307.991 341.7 288.1V180.1C341.7 160.209 325.591 144.1 305.7 144.1H197.7ZM153.7 180.1C153.7 155.791 173.391 136.1 197.7 136.1H305.7C330.009 136.1 349.7 155.791 349.7 180.1V288.1C349.7 312.409 330.009 332.1 305.7 332.1H197.7C173.391 332.1 153.7 312.409 153.7 288.1V180.1Z" fill="#430B48"/>
<path d="M251.7 162.1C273.791 162.1 291.7 152.25 291.7 140.1C291.7 127.95 273.791 118.1 251.7 118.1C229.609 118.1 211.7 127.95 211.7 140.1C211.7 152.25 229.609 162.1 251.7 162.1Z" fill="#54A3C4"/>
<path d="M251.7 162.1C273.791 162.1 291.7 152.25 291.7 140.1C291.7 127.95 273.791 118.1 251.7 118.1C229.609 118.1 211.7 127.95 211.7 140.1C211.7 152.25 229.609 162.1 251.7 162.1Z" fill="#BBC6CC"/>
<path d="M251.7 159C273.791 159 291.7 150.538 291.7 140.1C291.7 129.662 273.791 121.2 251.7 121.2C229.609 121.2 211.7 129.662 211.7 140.1C211.7 150.538 229.609 159 251.7 159Z" fill="#E0E0E0"/>
<path d="M290.4 135.6C287.4 146.1 270.9 149.1 250.9 149.1C232.3 149.1 216.7 147.2 212.2 137.8C211.9 138.9 211.7 136 211.7 137.2C211.7 149.3 229.6 159.1 251.7 159.1C273.8 159.1 291.7 149.3 291.7 137.2C291.7 135.2 291.2 137.3 290.4 135.6Z" fill="#BFB0CC"/>
<path fill-rule="evenodd" clip-rule="evenodd" d="M221.707 123.119C229.59 119.395 240.198 117.2 251.7 117.2C263.202 117.2 273.81 119.395 281.693 123.119C289.267 126.698 295.7 132.43 295.7 140.1C295.7 147.77 289.267 153.502 281.693 157.081C273.81 160.805 263.202 163 251.7 163C240.198 163 229.59 160.805 221.707 157.081C214.133 153.502 207.7 147.77 207.7 140.1C207.7 132.43 214.133 126.698 221.707 123.119ZM225.125 130.352C218.222 133.614 215.7 137.332 215.7 140.1C215.7 142.868 218.222 146.586 225.125 149.848C231.719 152.964 241.111 155 251.7 155C262.289 155 271.681 152.964 278.275 149.848C285.178 146.586 287.7 142.868 287.7 140.1C287.7 137.332 285.178 133.614 278.275 130.352C271.681 127.236 262.289 125.2 251.7 125.2C241.111 125.2 231.719 127.236 225.125 130.352Z" fill="#430B48"/>
<path d="M251.7 275.4C274.951 275.4 293.8 256.551 293.8 233.3C293.8 210.049 274.951 191.2 251.7 191.2C228.449 191.2 209.6 210.049 209.6 233.3C209.6 256.551 228.449 275.4 251.7 275.4Z" fill="#CFC3D8"/>
<path fill-rule="evenodd" clip-rule="evenodd" d="M205.6 233.3C205.6 207.84 226.24 187.2 251.7 187.2C277.16 187.2 297.8 207.84 297.8 233.3C297.8 258.76 277.16 279.4 251.7 279.4C226.24 279.4 205.6 258.76 205.6 233.3ZM251.7 195.2C230.658 195.2 213.6 212.258 213.6 233.3C213.6 254.342 230.658 271.4 251.7 271.4C272.742 271.4 289.8 254.342 289.8 233.3C289.8 212.258 272.742 195.2 251.7 195.2Z" fill="#CFC3D8"/>
<path d="M251.7 268.7C274.951 268.7 293.8 249.851 293.8 226.6C293.8 203.349 274.951 184.5 251.7 184.5C228.449 184.5 209.6 203.349 209.6 226.6C209.6 249.851 228.449 268.7 251.7 268.7Z" fill="#E6EEF1"/>
<path fill-rule="evenodd" clip-rule="evenodd" d="M205.6 226.6C205.6 201.14 226.24 180.5 251.7 180.5C277.16 180.5 297.8 201.14 297.8 226.6C297.8 252.06 277.16 272.7 251.7 272.7C226.24 272.7 205.6 252.06 205.6 226.6ZM251.7 188.5C230.658 188.5 213.6 205.558 213.6 226.6C213.6 247.642 230.658 264.7 251.7 264.7C272.742 264.7 289.8 247.642 289.8 226.6C289.8 205.558 272.742 188.5 251.7 188.5Z" fill="#430B48"/>
<path d="M250.9 256.9C262.443 256.9 271.8 247.543 271.8 236C271.8 224.457 262.443 215.1 250.9 215.1C239.357 215.1 230 224.457 230 236C230 247.543 239.357 256.9 250.9 256.9Z" fill="#54A3C4"/>
<path fill-rule="evenodd" clip-rule="evenodd" d="M226 236C226 222.248 237.148 211.1 250.9 211.1C264.652 211.1 275.8 222.248 275.8 236C275.8 249.752 264.652 260.9 250.9 260.9C237.148 260.9 226 249.752 226 236ZM250.9 219.1C241.566 219.1 234 226.666 234 236C234 245.334 241.566 252.9 250.9 252.9C260.234 252.9 267.8 245.334 267.8 236C267.8 226.666 260.234 219.1 250.9 219.1Z" fill="#430B48"/>
<path d="M250.9 247.1C257.03 247.1 262 242.13 262 236C262 229.87 257.03 224.9 250.9 224.9C244.77 224.9 239.8 229.87 239.8 236C239.8 242.13 244.77 247.1 250.9 247.1Z" fill="#430B48"/>
<path fill-rule="evenodd" clip-rule="evenodd" d="M295.9 291.7C298.109 291.7 299.9 293.491 299.9 295.7V303.7C299.9 305.909 298.109 307.7 295.9 307.7C293.691 307.7 291.9 305.909 291.9 303.7V295.7C291.9 293.491 293.691 291.7 295.9 291.7Z" fill="#BBC6CC"/>
<path fill-rule="evenodd" clip-rule="evenodd" d="M281.1 290.1C283.309 290.1 285.1 291.891 285.1 294.1V305.4C285.1 307.609 283.309 309.4 281.1 309.4C278.891 309.4 277.1 307.609 277.1 305.4V294.1C277.1 291.891 278.891 290.1 281.1 290.1Z" fill="#BBC6CC"/>
<path fill-rule="evenodd" clip-rule="evenodd" d="M266.4 288.4C268.609 288.4 270.4 290.191 270.4 292.4V307.1C270.4 309.309 268.609 311.1 266.4 311.1C264.191 311.1 262.4 309.309 262.4 307.1V292.4C262.4 290.191 264.191 288.4 266.4 288.4Z" fill="#BBC6CC"/>
<path fill-rule="evenodd" clip-rule="evenodd" d="M251.7 286.7C253.909 286.7 255.7 288.491 255.7 290.7V308.7C255.7 310.909 253.909 312.7 251.7 312.7C249.491 312.7 247.7 310.909 247.7 308.7V290.7C247.7 288.491 249.491 286.7 251.7 286.7Z" fill="#BBC6CC"/>
<path fill-rule="evenodd" clip-rule="evenodd" d="M207.5 291.7C209.709 291.7 211.5 293.491 211.5 295.7V303.7C211.5 305.909 209.709 307.7 207.5 307.7C205.291 307.7 203.5 305.909 203.5 303.7V295.7C203.5 293.491 205.291 291.7 207.5 291.7Z" fill="#BBC6CC"/>
<path fill-rule="evenodd" clip-rule="evenodd" d="M222.2 290.1C224.409 290.1 226.2 291.891 226.2 294.1V305.4C226.2 307.609 224.409 309.4 222.2 309.4C219.991 309.4 218.2 307.609 218.2 305.4V294.1C218.2 291.891 219.991 290.1 222.2 290.1Z" fill="#BBC6CC"/>
<path fill-rule="evenodd" clip-rule="evenodd" d="M237 288.4C239.209 288.4 241 290.191 241 292.4V307.1C241 309.309 239.209 311.1 237 311.1C234.791 311.1 233 309.309 233 307.1V292.4C233 290.191 234.791 288.4 237 288.4Z" fill="#BBC6CC"/>
<path fill-rule="evenodd" clip-rule="evenodd" d="M295.9 288.7C298.109 288.7 299.9 290.491 299.9 292.7V300.7C299.9 302.909 298.109 304.7 295.9 304.7C293.691 304.7 291.9 302.909 291.9 300.7V292.7C291.9 290.491 293.691 288.7 295.9 288.7Z" fill="#430B48"/>
<path fill-rule="evenodd" clip-rule="evenodd" d="M281.1 287.1C283.309 287.1 285.1 288.891 285.1 291.1V302.4C285.1 304.609 283.309 306.4 281.1 306.4C278.891 306.4 277.1 304.609 277.1 302.4V291.1C277.1 288.891 278.891 287.1 281.1 287.1Z" fill="#430B48"/>
<path fill-rule="evenodd" clip-rule="evenodd" d="M266.4 285.4C268.609 285.4 270.4 287.191 270.4 289.4V304.1C270.4 306.309 268.609 308.1 266.4 308.1C264.191 308.1 262.4 306.309 262.4 304.1V289.4C262.4 287.191 264.191 285.4 266.4 285.4Z" fill="#430B48"/>
<path fill-rule="evenodd" clip-rule="evenodd" d="M251.7 283.7C253.909 283.7 255.7 285.491 255.7 287.7V305.7C255.7 307.909 253.909 309.7 251.7 309.7C249.491 309.7 247.7 307.909 247.7 305.7V287.7C247.7 285.491 249.491 283.7 251.7 283.7Z" fill="#430B48"/>
<path fill-rule="evenodd" clip-rule="evenodd" d="M207.5 288.7C209.709 288.7 211.5 290.491 211.5 292.7V300.7C211.5 302.909 209.709 304.7 207.5 304.7C205.291 304.7 203.5 302.909 203.5 300.7V292.7C203.5 290.491 205.291 288.7 207.5 288.7Z" fill="#430B48"/>
<path fill-rule="evenodd" clip-rule="evenodd" d="M222.2 287.1C224.409 287.1 226.2 288.891 226.2 291.1V302.4C226.2 304.609 224.409 306.4 222.2 306.4C219.991 306.4 218.2 304.609 218.2 302.4V291.1C218.2 288.891 219.991 287.1 222.2 287.1Z" fill="#430B48"/>
<path fill-rule="evenodd" clip-rule="evenodd" d="M237 285.4C239.209 285.4 241 287.191 241 289.4V304.1C241 306.309 239.209 308.1 237 308.1C234.791 308.1 233 306.309 233 304.1V289.4C233 287.191 234.791 285.4 237 285.4Z" fill="#430B48"/>
<path d="M267.7 328.1H235.7V372.1H267.7V328.1Z" fill="#CFC3D8"/>
<path d="M267.7 328.1H235.7V344.5H267.7V328.1Z" fill="#430B48"/>
<path fill-rule="evenodd" clip-rule="evenodd" d="M231.7 328.1C231.7 325.891 233.491 324.1 235.7 324.1H267.7C269.909 324.1 271.7 325.891 271.7 328.1V372.1C271.7 374.309 269.909 376.1 267.7 376.1H235.7C233.491 376.1 231.7 374.309 231.7 372.1V328.1ZM239.7 332.1V368.1H263.7V332.1H239.7Z" fill="#430B48"/>
<path d="M387.3 479.2C368.9 529.2 337.9 573.1 298.2 607.1C271.5 630 231.9 630 205.2 607.1C165.5 573.1 134.5 529.2 116.1 479.2C101.6 439.9 123.4 396.8 163.5 384.9C191.4 376.6 221 372.1 251.7 372.1C282.4 372.1 311.9 376.6 339.9 384.9C380 396.8 401.8 439.9 387.3 479.2Z" fill="#E0E0E0"/>
<path d="M387.3 479.2C368.9 529.2 337.9 573.1 298.2 607.1C271.5 630 231.9 630 205.2 607.1C165.5 573.1 134.5 529.2 116.1 479.2C101.6 439.9 123.4 396.8 163.5 384.9C191.4 376.6 221 372.1 251.7 372.1C282.4 372.1 311.9 376.6 339.9 384.9C380 396.8 401.8 439.9 387.3 479.2Z" fill="#E0E0E0"/>
<path d="M163.5 392.9C191.4 384.6 221 380.1 251.7 380.1C282.4 380.1 311.9 384.6 339.9 392.9C370.2 401.9 390 428.6 391.7 458.1C393.5 425.6 372.9 394.7 339.9 384.9C312 376.6 282.4 372.1 251.7 372.1C221 372.1 191.5 376.6 163.5 384.9C130.5 394.7 109.9 425.6 111.7 458.1C113.4 428.7 133.2 401.9 163.5 392.9Z" fill="#54A3C4"/>
<path d="M300.3 573C272.4 595.9 230.9 595.9 203 573C162.8 540.1 131.2 498 111.7 450.1C111.2 459.7 112.5 469.6 116.1 479.2C134.5 529.2 165.5 573.1 205.2 607.1C231.9 630 271.5 630 298.2 607.1C337.9 573.1 368.9 529.2 387.3 479.2C390.9 469.6 392.2 459.7 391.7 450.1C372.2 498 340.5 540.1 300.3 573Z" fill="#CFC3D8"/>
<path fill-rule="evenodd" clip-rule="evenodd" d="M251.7 376.1C221.393 376.1 192.177 380.542 164.641 388.734L164.638 388.735C126.738 399.982 106.159 440.699 119.853 477.815L119.854 477.819C138.013 527.164 168.611 570.498 207.802 604.062L207.804 604.064C233.006 625.679 270.394 625.679 295.596 604.064L295.598 604.062C334.789 570.498 365.387 527.164 383.546 477.819L383.547 477.815C397.241 440.7 376.663 399.983 338.763 388.735C311.123 380.542 282.005 376.1 251.7 376.1ZM162.362 381.065C190.625 372.658 220.608 368.1 251.7 368.1C282.795 368.1 312.677 372.658 341.037 381.065L341.038 381.065C383.338 393.618 406.359 439.101 391.053 480.585C372.412 531.237 341.011 575.701 300.804 610.136C272.606 634.321 230.794 634.321 202.596 610.136C162.388 575.701 130.987 531.235 112.346 480.581C97.0426 439.098 120.063 393.618 162.362 381.065ZM162.362 381.065L163.5 384.9L162.359 381.066C162.36 381.066 162.361 381.066 162.362 381.065Z" fill="#430B48"/>
<path d="M296 502H207.3C200.9 502 195.6 496.8 195.6 490.3V449.6C195.6 443.2 200.8 437.9 207.3 437.9H296C302.4 437.9 307.7 443.1 307.7 449.6V490.3C307.7 496.8 302.5 502 296 502Z" fill="url(#paint0_linear_126_2)"/>
<path fill-rule="evenodd" clip-rule="evenodd" d="M258.704 447.302C259.575 447.261 260.373 447.788 260.676 448.606L275.286 488.072L288.047 456.648C288.324 455.966 288.953 455.491 289.684 455.412C290.416 455.332 291.132 455.661 291.548 456.267L309.348 482.167C309.974 483.078 309.743 484.323 308.833 484.948C307.923 485.574 306.677 485.343 306.052 484.433L290.356 461.594L277.053 494.352C276.743 495.117 275.994 495.613 275.169 495.6C274.344 495.587 273.611 495.068 273.324 494.294L259.117 455.918L251.733 483.812C251.519 484.624 250.819 485.215 249.983 485.292C249.147 485.368 248.352 484.915 247.992 484.156L237.369 461.72L223.032 494.403C222.7 495.16 221.937 495.634 221.112 495.598C220.287 495.562 219.569 495.022 219.305 494.239L209.312 464.611L197.428 485.007C196.872 485.961 195.648 486.284 194.693 485.728C193.739 485.172 193.416 483.948 193.972 482.993L208.072 458.793C208.467 458.115 209.222 457.731 210.002 457.81C210.782 457.889 211.444 458.418 211.695 459.161L221.444 488.065L235.468 456.097C235.783 455.379 236.488 454.911 237.271 454.9C238.055 454.889 238.772 455.336 239.108 456.044L249.267 477.5L256.867 448.788C257.09 447.945 257.833 447.344 258.704 447.302Z" fill="#3A3A3A"/>
<path opacity="0.3" d="M297.6 458.1H205.7C200.1 458.1 195.6 453.6 195.6 448C195.6 442.4 200.1 437.9 205.7 437.9H297.6C303.2 437.9 307.7 442.4 307.7 448C307.7 453.6 303.2 458.1 297.6 458.1Z" fill="#54A3C4"/>
<path fill-rule="evenodd" clip-rule="evenodd" d="M207.3 440.9C202.474 440.9 198.6 444.84 198.6 449.6V490.3C198.6 495.126 202.54 499 207.3 499H296C300.843 499 304.7 495.143 304.7 490.3V449.6C304.7 444.774 300.76 440.9 296 440.9H207.3ZM192.6 449.6C192.6 441.56 199.126 434.9 207.3 434.9H296C304.04 434.9 310.7 441.427 310.7 449.6V490.3C310.7 498.457 304.157 505 296 505H207.3C199.26 505 192.6 498.474 192.6 490.3V449.6Z" fill="#430B48"/>
<path d="M251.7 140.1C259.156 140.1 265.2 137.593 265.2 134.5C265.2 131.407 259.156 128.9 251.7 128.9C244.244 128.9 238.2 131.407 238.2 134.5C238.2 137.593 244.244 140.1 251.7 140.1Z" fill="#54A3C4"/>
<path d="M250.4 233C253.879 233 256.7 230.806 256.7 228.1C256.7 225.394 253.879 223.2 250.4 223.2C246.921 223.2 244.1 225.394 244.1 228.1C244.1 230.806 246.921 233 250.4 233Z" fill="#E6EEF1"/>
<path d="M415.1 233.1C417.972 233.1 420.3 231.309 420.3 229.1C420.3 226.891 417.972 225.1 415.1 225.1C412.228 225.1 409.9 226.891 409.9 229.1C409.9 231.309 412.228 233.1 415.1 233.1Z" fill="#54A3C4"/>
<path d="M88.3 233.1C91.172 233.1 93.5 231.309 93.5 229.1C93.5 226.891 91.172 225.1 88.3 225.1C85.428 225.1 83.1 226.891 83.1 229.1C83.1 231.309 85.428 233.1 88.3 233.1Z" fill="#54A3C4"/>
<path d="M252.3 536.4C258.762 536.4 264 531.162 264 524.7C264 518.238 258.762 513 252.3 513C245.838 513 240.6 518.238 240.6 524.7C240.6 531.162 245.838 536.4 252.3 536.4Z" fill="#CFC3D8"/>
<path fill-rule="evenodd" clip-rule="evenodd" d="M238.6 524.7C238.6 517.133 244.733 511 252.3 511C259.867 511 266 517.133 266 524.7C266 532.267 259.867 538.4 252.3 538.4C244.733 538.4 238.6 532.267 238.6 524.7ZM252.3 515C246.943 515 242.6 519.343 242.6 524.7C242.6 530.057 246.943 534.4 252.3 534.4C257.657 534.4 262 530.057 262 524.7C262 519.343 257.657 515 252.3 515Z" fill="#430B48"/>
<path d="M258.8 522.3L257.5 520.1C257.3 519.8 256.9 519.6 256.5 519.8C255.4 520.4 254.1 519.6 254.1 518.4C254.1 518 253.8 517.7 253.4 517.7H250.9C250.5 517.7 250.2 518 250.2 518.4C250.2 519.6 248.9 520.4 247.8 519.8C247.5 519.6 247 519.7 246.8 520.1L245.5 522.3C245.3 522.6 245.4 523.1 245.8 523.3C246.9 523.9 246.9 525.4 245.8 526C245.5 526.2 245.3 526.6 245.5 527L246.8 529.2C247 529.5 247.4 529.7 247.8 529.5C248.9 528.9 250.2 529.7 250.2 530.9C250.2 531.3 250.5 531.6 250.9 531.6H253.4C253.8 531.6 254.1 531.3 254.1 530.9C254.1 529.7 255.4 528.9 256.5 529.5C256.8 529.7 257.3 529.6 257.5 529.2L258.8 527C259 526.7 258.9 526.2 258.5 526C257.4 525.4 257.4 523.9 258.5 523.3C258.9 523.1 259 522.7 258.8 522.3Z" fill="#430B48"/>
</g>
<defs>
<linearGradient id="paint0_linear_126_2" x1="251.686" y1="501.985" x2="251.686" y2="437.985" gradientUnits="userSpaceOnUse">
<stop stop-color="#57AA63"/>
<stop offset="1" stop-color="#9AA642"/>
</linearGradient>
<clipPath id="clip0_126_2">
<rect width="551" height="693" fill="white" transform="translate(0 118)"/>
</clipPath>
</defs>
</svg>
